<svg xmlns="http://www.w3.org/2000/svg" width="70" height="70" viewBox="0 0 70 70" fill="none"><rect width="70" height="70" rx="6" fill="#FFE3E4"></rect><g clip-path="url(#clip0_1716_8615)"><g clip-path="url(#clip1_1716_8615)"><path fill-rule="evenodd" clip-rule="evenodd" d="M53.6886 35.7216C53.0516 35.7216 52.5256 35.1485 52.5256 34.4363C52.5256 33.7322 53.0516 33.1509 53.6886 33.1509C54.333 33.1509 54.8516 33.7322 54.8516 34.4363C54.8516 35.1485 54.333 35.7216 53.6886 35.7216ZM54.7108 34.4363C54.7108 33.814 54.2516 33.3064 53.6886 33.3064C53.1256 33.3064 52.6664 33.814 52.6664 34.4363C52.6664 35.0667 53.1256 35.5661 53.6886 35.5661C54.2516 35.5661 54.7108 35.0667 54.7108 34.4363Z" fill="#F15056"></path><path d="M53.2221 39.2418H50.1554C50.3184 39.1682 50.4739 39.1108 50.5258 38.9144C50.5776 38.7179 50.4739 38.5787 50.385 38.4395C50.1258 37.9892 49.8517 37.5471 49.5999 37.0968C49.4887 36.9085 49.4295 36.8758 49.2962 37.0804C48.8073 37.8582 48.311 38.6278 47.7925 39.381C47.3628 40.0196 46.8369 40.5108 46.0813 40.6009C45.911 40.6173 45.7332 40.5927 45.5776 40.5272C46.5554 40.3962 46.9776 39.5284 47.4813 38.7834C47.985 38.0301 48.4739 37.2687 48.985 36.5155C49.0962 36.3927 49.0962 36.188 48.9925 36.0652C48.5628 35.3529 48.148 34.6407 47.7332 33.9284C47.5332 33.519 47.1776 33.2325 46.7628 33.1506H49.7702C49.6221 33.2489 49.4665 33.3307 49.4369 33.5272C49.4073 33.7319 49.5406 33.8711 49.6295 34.0184C49.8295 34.3705 50.0443 34.7144 50.2369 35.0664C50.2567 35.0991 50.2813 35.1401 50.311 35.1892C50.3776 35.2629 50.4369 35.2383 50.5332 35.091C51.0221 34.3132 51.5184 33.5436 52.0369 32.7904C52.4665 32.16 52.9925 31.6687 53.748 31.5787C53.9184 31.5541 54.0962 31.5787 54.2517 31.6442C53.2739 31.7752 52.8517 32.643 52.348 33.3962C51.8443 34.1413 51.3554 34.9108 50.8443 35.6559C50.7702 35.7377 50.7406 35.8605 50.7776 35.9752C50.8073 36.0325 50.8369 36.0734 50.8517 36.098C51.3554 36.9331 51.8443 37.7682 52.3406 38.6114C52.5332 38.9553 52.8591 39.1845 53.2221 39.2418Z" fill="#F15056"></path><path d="M45.7265 39.1108C44.371 39.5775 43.0154 39.5202 41.7932 38.636C40.7932 37.9155 40.445 36.8348 40.6524 35.574C40.8672 34.2722 41.6302 33.4863 42.771 33.1342C42.8549 33.1178 42.9413 33.1069 43.0302 33.1015C42.5784 33.8219 42.3339 34.6652 42.3265 35.5412V36.2535C42.3339 36.8676 42.4821 37.4652 42.7561 37.9974C43.045 38.6114 43.6154 38.988 44.2376 38.9798C44.8672 38.9635 45.4302 38.5705 45.6969 37.9483C45.9339 37.4407 46.0598 36.8839 46.0672 36.319C46.0672 36.2099 46.0672 36.1034 46.0672 35.9997C46.0598 35.3775 45.9191 34.7635 45.6598 34.2149C45.445 33.7401 45.0154 33.4453 44.5413 33.4371C44.245 33.4126 43.9561 33.5272 43.7413 33.7483C43.5265 33.9693 43.408 34.2804 43.408 34.6079C43.3784 34.8781 43.3932 35.1564 43.4376 35.4266C43.3685 35.3065 43.3117 35.181 43.2672 35.05C42.9635 34.0184 43.5413 33.0769 44.5784 32.995C45.8154 32.8886 47.1413 33.7155 47.5784 34.9518C48.1339 36.5728 47.6154 38.464 45.7265 39.1108Z" fill="#F15056"></path><path d="M40.4442 33.0608V34.6982C40.3553 34.6409 40.3998 34.559 40.3924 34.4935C40.3479 33.9777 39.9627 33.5848 39.4961 33.5766C39.1331 33.552 37.9257 33.5766 37.5627 33.5684C37.4146 33.5684 37.3776 33.6257 37.3776 33.7813C37.3776 34.4635 37.3776 35.1485 37.3776 35.8362C37.3702 35.9836 37.422 36.0491 37.5627 36.0491C38.222 36.0409 39.0146 36.0409 39.0516 36.0327C39.0516 36.0327 39.4813 36.0737 39.8739 35.2631C39.8739 35.2686 39.8739 35.274 39.8739 35.2795C39.8739 35.8963 39.8739 36.513 39.8739 37.1298V37.228C39.8739 37.2335 39.8739 37.239 39.8739 37.2444C39.4813 36.4339 39.0516 36.4748 39.0516 36.4748C39.0442 36.4666 38.9553 36.4666 38.8146 36.4666C38.2665 36.4748 38.0739 36.483 37.6146 36.4666C37.4146 36.4585 37.3702 36.5403 37.3702 36.745C37.385 37.3263 37.3776 37.883 37.3776 38.4561C37.3776 38.9473 37.4887 39.0947 37.9331 39.2503H35.2516C35.7183 39.152 35.7998 38.7836 35.7924 38.3251C35.7776 36.8924 35.785 35.4514 35.785 34.0187C35.785 33.4456 35.7257 33.3473 35.2146 33.1508C36.0294 33.1672 36.7702 33.1427 37.5405 33.1427C38.2294 33.1508 39.7553 33.1345 40.4442 33.0608Z" fill="#F15056"></path><path d="M37.6075 40.4703C37.1927 40.7487 36.689 40.8224 36.2224 40.6668C35.6594 40.4703 35.1557 40.1101 34.7557 39.6271C33.6298 38.3662 32.5261 37.0809 31.4075 35.8118C31.3409 35.7382 31.2964 35.6317 31.1853 35.6154C31.1038 35.7136 31.1409 35.8282 31.1409 35.9265C31.1409 36.7452 31.1409 37.5557 31.1409 38.3744C31.1409 38.9721 31.2224 39.0949 31.7335 39.2504H28.9261C29.252 39.1604 29.4964 39.0785 29.5409 38.7347V33.7078C29.289 33.3557 28.9927 33.0446 28.6594 32.7908C28.5903 32.7198 28.5186 32.6571 28.4446 32.6025C28.3705 32.8645 28.3335 33.1347 28.3335 33.4048C28.3285 33.514 28.3261 33.6232 28.3261 33.7323C28.3186 34.7885 28.3335 35.8446 28.3186 36.9007C28.3112 38.2762 27.7557 39.0294 26.5483 39.2914C25.8594 39.4469 25.1483 39.406 24.4742 39.1686C23.4816 38.8247 22.9927 38.0633 22.9927 36.9007C22.9927 35.9019 22.9927 34.9003 22.9927 33.8961C22.9927 33.3885 22.9483 33.3148 22.4668 33.1347H25.0298C24.6298 33.2247 24.5705 33.5358 24.5705 33.9206C24.5779 34.9194 24.5705 35.9183 24.5779 36.9253C24.5335 37.4984 24.7112 38.0633 25.052 38.489C25.4816 38.9639 26.1335 39.1031 26.6964 38.8493C27.2298 38.661 27.6001 38.1288 27.6372 37.5066C27.6717 36.9499 27.6791 36.3959 27.6594 35.8446C27.6668 35.1978 27.6594 34.5592 27.6594 33.9124C27.6594 33.6559 27.6767 33.3994 27.7112 33.1428C27.7631 32.8727 27.8446 32.6107 27.9631 32.3651C27.9335 32.3541 27.9038 32.3432 27.8742 32.3323C27.7557 32.2996 27.6396 32.2805 27.5261 32.275C27.4619 32.2695 27.4001 32.2668 27.3409 32.2668C27.2075 32.2723 27.0742 32.2941 26.9409 32.3323L26.9483 32.3241C27.2816 31.9721 27.7557 31.8411 28.2001 31.9721C28.5186 31.5463 28.9853 31.2762 29.489 31.2352C29.5335 31.2298 29.5804 31.2271 29.6298 31.2271C29.252 31.3499 28.9261 31.6037 28.7112 31.9639C28.6816 32.013 28.6545 32.0621 28.6298 32.1113C28.7532 32.1604 28.8742 32.2204 28.9927 32.2914H29.0001C29.4075 32.5534 29.7853 32.8809 30.1038 33.2656C31.0767 34.3846 32.052 35.5007 33.0298 36.6142C33.1112 36.7042 33.1631 36.8434 33.3112 36.8352C33.3112 35.7927 33.3137 34.7502 33.3186 33.7078C33.2668 33.3475 33.0372 33.2165 32.7409 33.151H35.4594C34.9557 33.3475 34.9112 33.4212 34.9112 34.0598C34.9112 35.5335 34.9112 37.0154 34.9038 38.4972C34.8964 38.6692 34.9557 38.8329 35.0668 38.9557C35.4001 39.3569 35.7631 39.7253 36.1631 40.0446C36.3014 40.1483 36.447 40.2329 36.6001 40.2984C36.6791 40.3311 36.7606 40.3584 36.8446 40.3803C37.089 40.454 37.3483 40.4785 37.6075 40.4703Z" fill="#F15056"></path><path d="M21.83 38.8574C21.5485 39.3731 21.104 39.7661 20.5855 39.9462C19.6225 40.3065 18.6892 40.2655 17.8374 39.586C17.6225 39.4059 17.4522 39.1685 17.3411 38.8983C17.0596 38.2924 17.0892 37.5638 17.4077 36.9825C17.3781 37.1899 17.3633 37.3973 17.3633 37.6047C17.3583 37.7521 17.3658 37.8967 17.3855 38.0386L17.3929 38.0714C17.3979 38.1205 17.4077 38.1696 17.4225 38.2188V38.2269V38.2351V38.2433C17.5929 38.9474 18.1114 39.4878 18.7633 39.6269C19.104 39.7334 19.467 39.7334 19.8151 39.6269C20.2522 39.5451 20.6003 39.1685 20.6818 38.6772C20.7559 38.2106 20.5633 37.7439 20.1929 37.5065C19.667 37.1135 19.1188 36.7778 18.5781 36.4176C18.1707 36.1883 17.867 35.7872 17.7114 35.3123C17.5633 34.8129 17.6225 34.2644 17.8892 33.8223C18.1485 33.3884 18.5781 33.1018 19.0596 33.0609C19.7929 32.9708 20.5262 33.1264 21.267 33.1182C21.3929 33.11 21.4003 33.1837 21.3855 33.2983C21.3411 33.6831 21.2966 34.0761 21.23 34.4691C21.1855 34.0106 20.8818 33.6258 20.4744 33.5112C20.0744 33.372 19.6448 33.3965 19.2596 33.5767C19.0225 33.6667 18.8522 33.9041 18.83 34.1825C18.8225 34.4527 18.9633 34.7065 19.1929 34.8047C19.8077 35.1895 20.4225 35.5661 21.0374 35.9591C22.067 36.6223 22.3781 37.7685 21.83 38.8574Z" fill="#F15056"></path></g></g><defs><clipPath id="clip0_1716_8615"><rect width="35" height="35" fill="white" transform="translate(18 18)"></rect></clipPath><clipPath id="clip1_1716_8615"><rect width="38" height="10" fill="white" transform="translate(17 31)"></rect></clipPath></defs></svg>