<svg xmlns="http://www.w3.org/2000/svg" width="70" height="70" viewBox="0 0 70 70" fill="none"><rect width="70" height="70" rx="6" fill="#FFE3E4"></rect><path fill-rule="evenodd" clip-rule="evenodd" d="M30.25 21.5C29.3217 21.5 28.4315 21.8687 27.7751 22.5251C27.1187 23.1815 26.75 24.0717 26.75 25V46C26.75 46.9283 27.1187 47.8185 27.7751 48.4749C28.4315 49.1313 29.3217 49.5 30.25 49.5H40.75C41.6783 49.5 42.5685 49.1313 43.2249 48.4749C43.8813 47.8185 44.25 46.9283 44.25 46V25C44.25 24.0717 43.8813 23.1815 43.2249 22.5251C42.5685 21.8687 41.6783 21.5 40.75 21.5H30.25ZM35.5 46C35.9641 46 36.4092 45.8156 36.7374 45.4874C37.0656 45.1592 37.25 44.7141 37.25 44.25C37.25 43.7859 37.0656 43.3408 36.7374 43.0126C36.4092 42.6844 35.9641 42.5 35.5 42.5C35.0359 42.5 34.5908 42.6844 34.2626 43.0126C33.9344 43.3408 33.75 43.7859 33.75 44.25C33.75 44.7141 33.9344 45.1592 34.2626 45.4874C34.5908 45.8156 35.0359 46 35.5 46Z" fill="#F15056"></path></svg>