<svg xmlns="http://www.w3.org/2000/svg" width="70" height="70" viewBox="0 0 70 70" fill="none"><rect width="70" height="70" rx="6" fill="#FFE3E4"></rect><path d="M45.7083 22.375H25.2917C23.6875 22.375 22.375 23.6875 22.375 25.2917V45.7083C22.375 47.3125 23.6875 48.625 25.2917 48.625H45.7083C47.3125 48.625 48.625 47.3125 48.625 45.7083V25.2917C48.625 23.6875 47.3125 22.375 45.7083 22.375ZM36.9583 42.7917H29.6667C28.8646 42.7917 28.2083 42.1354 28.2083 41.3333C28.2083 40.5312 28.8646 39.875 29.6667 39.875H36.9583C37.7604 39.875 38.4167 40.5312 38.4167 41.3333C38.4167 42.1354 37.7604 42.7917 36.9583 42.7917ZM41.3333 36.9583H29.6667C28.8646 36.9583 28.2083 36.3021 28.2083 35.5C28.2083 34.6979 28.8646 34.0417 29.6667 34.0417H41.3333C42.1354 34.0417 42.7917 34.6979 42.7917 35.5C42.7917 36.3021 42.1354 36.9583 41.3333 36.9583ZM41.3333 31.125H29.6667C28.8646 31.125 28.2083 30.4688 28.2083 29.6667C28.2083 28.8646 28.8646 28.2083 29.6667 28.2083H41.3333C42.1354 28.2083 42.7917 28.8646 42.7917 29.6667C42.7917 30.4688 42.1354 31.125 41.3333 31.125Z" fill="#F15056"></path></svg>