<svg xmlns="http://www.w3.org/2000/svg" width="70" height="70" viewBox="0 0 70 70" fill="none"><rect width="70" height="70" rx="6" fill="#FFE3E4"></rect><path d="M30.3638 49.2652C27.7654 48.2868 25.4964 46.594 23.8182 44.382C22.1401 42.17 21.1211 39.5289 20.8788 36.7629H27.1788C27.1548 41.1341 28.2513 45.4384 30.3638 49.2652ZM41.3086 36.7629C41.0432 44.7327 38.1382 50.1913 35.5146 50.1913C32.8896 50.1913 29.9861 44.7327 29.7192 36.7629H41.3086ZM50.1213 36.7629C49.8859 39.5331 48.8679 42.1792 47.1859 44.3927C45.504 46.6063 43.2274 48.2962 40.6217 49.2652C42.7457 45.4423 43.8478 41.1362 43.8213 36.7629H50.1213ZM50.1213 34.2371H43.8213C43.8504 29.8621 42.7494 25.5571 40.6217 21.7348C43.2275 22.7037 45.5042 24.3935 47.1861 26.6071C48.8681 28.8208 49.8861 31.467 50.1213 34.2371ZM41.3086 34.2371H29.7192C29.9861 26.2527 32.8896 20.8088 35.5146 20.8088C38.1382 20.8088 41.0286 26.2527 41.3086 34.2371ZM30.3638 21.8063C28.2481 25.6313 27.1513 29.936 27.1788 34.3071H20.8788C21.1165 31.5399 22.1337 28.8968 23.8125 26.6843C25.4913 24.4717 27.7628 22.7803 30.3638 21.8063Z" fill="#F15056"></path></svg>