<svg xmlns="http://www.w3.org/2000/svg" width="70" height="70" viewBox="0 0 70 70" fill="none"><rect width="70" height="70" rx="6" fill="#FFE3E4"></rect><g clip-path="url(#clip0_1716_2888)"><path d="M41.3333 22.375C42.4492 22.3749 43.523 22.8013 44.3349 23.5669C45.1468 24.3324 45.6355 25.3793 45.701 26.4933L45.7083 26.75V41.3333H46.802C47.7456 41.3333 48.5229 42.0508 48.6162 42.9696L48.625 43.1562V45.7083C48.625 46.8243 48.1987 47.898 47.4331 48.71C46.6675 49.5219 45.6206 50.0106 44.5066 50.076L44.25 50.0833H29.6666C28.5507 50.0834 27.4769 49.657 26.665 48.8915C25.8531 48.1259 25.3644 47.079 25.2989 45.965L25.2916 45.7083V31.125H22.7395C22.2882 31.1252 21.8529 30.958 21.5178 30.6557C21.1827 30.3535 20.9716 29.9377 20.9254 29.4887L20.9166 29.3021V26.75C20.9166 25.6341 21.3429 24.5603 22.1085 23.7484C22.8741 22.9364 23.9209 22.4478 25.035 22.3823L25.2916 22.375H41.3333ZM45.7083 44.25H32.5833V45.7083C32.5833 46.2187 32.4958 46.7102 32.3354 47.1667H44.25C44.6367 47.1667 45.0077 47.013 45.2812 46.7395C45.5546 46.466 45.7083 46.0951 45.7083 45.7083V44.25ZM35.5 35.5H32.5833C32.2116 35.5004 31.8541 35.6427 31.5838 35.8979C31.3135 36.1531 31.1509 36.5018 31.1291 36.8729C31.1073 37.2439 31.228 37.6093 31.4666 37.8943C31.7052 38.1794 32.0436 38.3626 32.4127 38.4065L32.5833 38.4167H35.5C35.8717 38.4163 36.2292 38.2739 36.4995 38.0188C36.7697 37.7636 36.9324 37.4149 36.9542 37.0438C36.976 36.6727 36.8552 36.3074 36.6167 36.0223C36.3781 35.7373 36.0397 35.5541 35.6706 35.5102L35.5 35.5ZM38.4166 29.6667H32.5833C32.1965 29.6667 31.8256 29.8203 31.5521 30.0938C31.2786 30.3673 31.125 30.7382 31.125 31.125C31.125 31.5118 31.2786 31.8827 31.5521 32.1562C31.8256 32.4297 32.1965 32.5833 32.5833 32.5833H38.4166C38.8034 32.5833 39.1743 32.4297 39.4478 32.1562C39.7213 31.8827 39.875 31.5118 39.875 31.125C39.875 30.7382 39.7213 30.3673 39.4478 30.0938C39.1743 29.8203 38.8034 29.6667 38.4166 29.6667ZM25.2916 25.2917C24.9049 25.2917 24.5339 25.4453 24.2604 25.7188C23.9869 25.9923 23.8333 26.3632 23.8333 26.75V28.2083H25.2916V25.2917Z" fill="#F15056"></path></g><defs><clipPath id="clip0_1716_2888"><rect width="35" height="35" fill="white" transform="translate(18 18)"></rect></clipPath></defs></svg>