<svg xmlns="http://www.w3.org/2000/svg" width="70" height="70" viewBox="0 0 70 70" fill="none"><rect width="70" height="70" rx="6" fill="#FFE3E4"></rect><path d="M47.1667 42.7917C48.0028 42.7917 48.7077 43.0834 49.2813 43.6667C49.8549 44.2501 50.1369 44.9306 50.1271 45.7084L38.4167 50.0834L28.2084 47.1667V34.0417H31.0521L41.6542 37.9647C42.4126 38.2661 42.7917 38.8105 42.7917 39.598C42.7917 40.0549 42.6264 40.4536 42.2959 40.7938C41.9653 41.1341 41.5473 41.314 41.0417 41.3334H36.9584L34.4063 40.3563L33.9251 41.7272L36.9584 42.7917H47.1667ZM41.3334 22.7105C42.3639 21.5147 43.6765 20.9167 45.2709 20.9167C46.5931 20.9167 47.7112 21.4029 48.6251 22.3751C49.5389 23.3473 50.0251 24.4654 50.0834 25.7292C50.0834 26.7306 49.5973 27.9265 48.6251 29.3167C47.6528 30.707 46.6952 31.8688 45.7521 32.8022C44.8091 33.7355 43.3362 35.1209 41.3334 36.9584C39.3112 35.1209 37.8237 33.7355 36.8709 32.8022C35.9181 31.8688 34.9605 30.707 33.998 29.3167C33.0355 27.9265 32.5639 26.7306 32.5834 25.7292C32.5834 24.407 33.0549 23.289 33.998 22.3751C34.941 21.4612 36.0785 20.9751 37.4105 20.9167C38.966 20.9167 40.2737 21.5147 41.3334 22.7105ZM19.4351 34.0417H25.2917V50.0834H19.4351V34.0417Z" fill="#F15056"></path></svg>