<svg xmlns="http://www.w3.org/2000/svg" width="81" height="80" viewBox="0 0 81 80" fill="none"><rect x="0.667969" width="80" height="80" rx="8" fill="white"></rect><path d="M23.668 59.1255C23.0659 59.1255 22.5616 58.9215 22.155 58.5135C21.7484 58.1055 21.5444 57.6011 21.543 57.0005V54.8755C21.543 54.2734 21.747 53.7691 22.155 53.3625C22.563 52.9559 23.0673 52.7519 23.668 52.7505C24.2701 52.7505 24.7751 52.9545 25.1831 53.3625C25.5911 53.7705 25.7944 54.2748 25.793 54.8755V57.0005C25.793 57.6026 25.589 58.1076 25.181 58.5156C24.773 58.9236 24.2686 59.1269 23.668 59.1255ZM32.168 59.1255C31.5659 59.1255 31.0616 58.9215 30.655 58.5135C30.2484 58.1055 30.0444 57.6011 30.043 57.0005V45.313C30.043 44.7109 30.247 44.2066 30.655 43.8C31.063 43.3934 31.5673 43.1894 32.168 43.188C32.7701 43.188 33.2751 43.392 33.6831 43.8C34.0911 44.208 34.2944 44.7123 34.293 45.313V57.0005C34.293 57.6026 34.089 58.1076 33.681 58.5156C33.273 58.9236 32.7686 59.1269 32.168 59.1255ZM40.668 59.1255C40.0659 59.1255 39.5616 58.9215 39.155 58.5135C38.7484 58.1055 38.5444 57.6011 38.543 57.0005V49.563C38.543 48.9609 38.747 48.4566 39.155 48.05C39.563 47.6434 40.0673 47.4394 40.668 47.438C41.2701 47.438 41.7751 47.642 42.1831 48.05C42.5911 48.458 42.7944 48.9623 42.793 49.563V57.0005C42.793 57.6026 42.589 58.1076 42.181 58.5156C41.773 58.9236 41.2686 59.1269 40.668 59.1255ZM49.168 59.1255C48.5659 59.1255 48.0616 58.9215 47.655 58.5135C47.2484 58.1055 47.0444 57.6011 47.043 57.0005V46.3755C47.043 45.7734 47.247 45.2691 47.655 44.8625C48.063 44.4559 48.5673 44.2519 49.168 44.2505C49.7701 44.2505 50.2751 44.4545 50.6831 44.8625C51.0911 45.2705 51.2944 45.7748 51.293 46.3755V57.0005C51.293 57.6026 51.089 58.1076 50.681 58.5156C50.273 58.9236 49.7686 59.1269 49.168 59.1255ZM57.668 59.1255C57.0659 59.1255 56.5616 58.9215 56.155 58.5135C55.7484 58.1055 55.5444 57.6011 55.543 57.0005V37.8755C55.543 37.2734 55.747 36.7691 56.155 36.3625C56.563 35.9559 57.0673 35.7519 57.668 35.7505C58.2701 35.7505 58.7751 35.9545 59.1831 36.3625C59.5911 36.7705 59.7944 37.2748 59.793 37.8755V57.0005C59.793 57.6026 59.589 58.1076 59.181 58.5156C58.773 58.9236 58.2686 59.1269 57.668 59.1255ZM44.918 39.9474C44.3513 39.9474 43.8108 39.8411 43.2966 39.6286C42.7823 39.4161 42.3134 39.1151 41.8898 38.7255L36.418 33.2536L25.1555 44.5161C24.7305 44.9411 24.2261 45.1451 23.6425 45.1281C23.0588 45.1111 22.5538 44.8894 22.1273 44.463C21.7378 44.038 21.5522 43.5336 21.5706 42.95C21.589 42.3663 21.7923 41.879 22.1805 41.488L33.3898 30.2786C33.8148 29.8536 34.2845 29.5441 34.7987 29.35C35.313 29.1559 35.8527 29.0581 36.418 29.0567C36.9846 29.0567 37.5336 29.1545 38.0648 29.35C38.5961 29.5455 39.0565 29.855 39.4461 30.2786L44.918 35.7505L56.1805 24.488C56.6055 24.063 57.1105 23.859 57.6956 23.876C58.2807 23.893 58.785 24.1147 59.2086 24.5411C59.5982 24.9661 59.7845 25.4711 59.7675 26.0562C59.7505 26.6413 59.5465 27.1279 59.1555 27.5161L47.9461 38.7255C47.5565 39.1151 47.0961 39.4161 46.5648 39.6286C46.0336 39.8411 45.4846 39.9474 44.918 39.9474Z" fill="#0072D4"></path></svg>