<svg xmlns="http://www.w3.org/2000/svg" width="80" height="80" viewBox="0 0 80 80" fill="none"><rect width="80" height="80" rx="8" fill="white"></rect><path d="M63.8466 31.7765C63.8466 24.5098 57.956 18.6191 50.6907 18.6191C46.28 18.6191 42.388 20.7965 40 24.1245C37.612 20.7965 33.72 18.6191 29.3107 18.6191C22.044 18.6191 16.1533 24.5085 16.1533 31.7765C16.1533 32.8058 16.284 33.8031 16.508 34.7645C18.3347 46.1151 30.9547 58.0898 40 61.3778C49.044 58.0898 61.6653 46.1151 63.4893 34.7658C63.716 33.8045 63.8466 32.8071 63.8466 31.7765Z" fill="#DD2E44"></path><path d="M61.7959 47.8578L56.6972 45.9699L54.8092 40.8712C54.7149 40.6155 54.5445 40.3949 54.3209 40.239C54.0974 40.0832 53.8315 39.9995 53.559 39.9994C53.2865 39.9992 53.0205 40.0826 52.7968 40.2382C52.5731 40.3938 52.4025 40.6143 52.3079 40.8699L50.4199 45.9685L45.3212 47.8565C45.0661 47.9515 44.8463 48.1223 44.691 48.3458C44.5357 48.5694 44.4525 48.835 44.4525 49.1072C44.4525 49.3794 44.5357 49.645 44.691 49.8686C44.8463 50.0921 45.0661 50.2628 45.3212 50.3578L50.4199 52.2458L52.3079 57.3445C52.4023 57.6001 52.5728 57.8207 52.7964 57.9764C53.02 58.1322 53.286 58.2157 53.5585 58.2157C53.831 58.2157 54.097 58.1322 54.3206 57.9764C54.5442 57.8207 54.7147 57.6001 54.8092 57.3445L56.6972 52.2458L61.7959 50.3578C62.0505 50.2626 62.2699 50.0918 62.4248 49.8684C62.5797 49.6451 62.6627 49.3797 62.6627 49.1078C62.6627 48.836 62.5797 48.5706 62.4248 48.3473C62.2699 48.1239 62.0505 47.9531 61.7959 47.8578ZM31.1292 26.5232L27.9759 25.3565L26.8092 22.2032C26.7147 21.9476 26.5442 21.727 26.3206 21.5713C26.097 21.4155 25.831 21.332 25.5585 21.332C25.286 21.332 25.02 21.4155 24.7964 21.5713C24.5728 21.727 24.4023 21.9476 24.3079 22.2032L23.1399 25.3565L19.9879 26.5232C19.7322 26.6176 19.5117 26.7882 19.356 27.0118C19.2002 27.2354 19.1167 27.5013 19.1167 27.7739C19.1167 28.0464 19.2002 28.3123 19.356 28.5359C19.5117 28.7595 19.7322 28.9301 19.9879 29.0245L23.1412 30.1912L24.3079 33.3445C24.4023 33.6001 24.5728 33.8207 24.7964 33.9764C25.02 34.1322 25.286 34.2157 25.5585 34.2157C25.831 34.2157 26.097 34.1322 26.3206 33.9764C26.5442 33.8207 26.7147 33.6001 26.8092 33.3445L27.9759 30.1912L31.1292 29.0245C31.3848 28.9301 31.6053 28.7595 31.7611 28.5359C31.9168 28.3123 32.0003 28.0464 32.0003 27.7739C32.0003 27.5013 31.9168 27.2354 31.7611 27.0118C31.6053 26.7882 31.3848 26.6176 31.1292 26.5232Z" fill="#FDCB58"></path></svg>