<svg xmlns="http://www.w3.org/2000/svg" width="80" height="80" viewBox="0 0 80 80" fill="none"><rect width="80" height="80" rx="8" fill="#C9E6FF"></rect><g clip-path="url(#clip0_1277_20782)"><path d="M63.5 17H16.5V63H63.5V17Z" fill="#FF9C9C"></path><path d="M59.0898 58.6875V21.3125L20.9023 21.3125V58.6875H59.0898Z" fill="#FFBEBE"></path><path d="M20.5391 20.9531V59.0469H59.4609V20.9531H20.5391ZM58.7266 41.725H55.2016V38.275H58.7266V41.725ZM21.2734 38.275H24.7984V41.725H21.2734V38.275ZM54.4672 25.1219H50.9422V21.6719H54.4672V25.1219ZM54.4672 25.8406V29.2188H50.9422V25.7687H54.4672V25.8406ZM54.4672 29.9375V33.3875H50.9422V29.9375H54.4672ZM54.4672 34.1062V37.5562H50.9422V34.1062H54.4672ZM54.4672 38.275V41.725H50.9422V38.275H54.4672ZM55.2016 54.1594V50.7094H58.7266V54.1594H55.2016ZM58.7266 54.8781V58.3281H55.2016V54.8781H58.7266ZM55.2016 49.9906V46.5406H58.7266V49.9906H55.2016ZM55.2016 45.8938V42.4438H58.7266V45.8938H55.2016ZM50.9422 54.8781H54.4672V58.3281H50.9422V54.8781ZM50.9422 54.1594V50.7094H54.4672V54.1594H50.9422ZM50.9422 49.9906V46.5406H54.4672V49.9906H50.9422ZM50.9422 45.8938V42.4438H54.4672V45.8938H50.9422ZM50.2078 42.4438V45.8938H46.6828V42.4438H50.2078ZM46.7563 38.275H50.2812V41.725H46.7563V38.275ZM46.7563 54.8781H50.2812V58.3281H46.7563V54.8781ZM46.7563 54.1594V50.7094H50.2812V54.1594H46.7563ZM46.7563 49.9906V46.5406H50.2812V49.9906H46.7563ZM50.2078 25.1219H46.6828V21.6719H50.2078V25.1219ZM50.2078 25.8406V29.2188H46.6828V25.7687H50.2078V25.8406ZM50.2078 29.9375V33.3875H46.6828V29.9375H50.2078ZM50.2078 34.1062V37.5562H46.6828V34.1062H50.2078ZM46.0219 25.1219H42.4969V21.6719H46.0219V25.1219ZM46.0219 25.8406V29.2188H42.4969V25.7687H46.0219V25.8406ZM46.0219 29.9375V33.3875H42.4969V29.9375H46.0219ZM46.0219 34.1062V37.5562H42.4969V34.1062H46.0219ZM46.0219 38.275V41.725H42.4969V38.275H46.0219ZM42.4969 54.8781H46.0219V58.3281H42.4969V54.8781ZM42.4969 54.1594V50.7094H46.0219V54.1594H42.4969ZM42.4969 49.9906V46.5406H46.0219V49.9906H42.4969ZM42.4969 45.8938V42.4438H46.0219V45.8938H42.4969ZM41.7625 25.1219H38.2375V21.6719H41.7625V25.1219ZM41.7625 25.8406V29.2188H38.2375V25.7687H41.7625V25.8406ZM41.7625 29.9375V33.3875H38.2375V29.9375H41.7625ZM41.7625 34.1062V37.5562H38.2375V34.1062H41.7625ZM41.7625 38.275V41.725H38.2375V38.275H41.7625ZM38.2375 54.8781H41.7625V58.3281H38.2375V54.8781ZM38.2375 54.1594V50.7094H41.7625V54.1594H38.2375ZM38.2375 49.9906V46.5406H41.7625V49.9906H38.2375ZM38.2375 45.8938V42.4438H41.7625V45.8938H38.2375ZM37.5031 25.1219H33.9781V21.6719H37.5031V25.1219ZM37.5031 25.8406V29.2188H33.9781V25.7687H37.5031V25.8406ZM37.5031 29.9375V33.3875H33.9781V29.9375H37.5031ZM37.5031 34.1062V37.5562H33.9781V34.1062H37.5031ZM37.5031 38.275V41.725H33.9781V38.275H37.5031ZM33.9781 54.8781H37.5031V58.3281H33.9781V54.8781ZM33.9781 54.1594V50.7094H37.5031V54.1594H33.9781ZM33.9781 49.9906V46.5406H37.5031V49.9906H33.9781ZM33.9781 45.8938V42.4438H37.5031V45.8938H33.9781ZM33.2437 42.4438V45.8938H29.7188V42.4438H33.2437ZM29.7922 38.275H33.3172V41.725H29.7922V38.275ZM29.7922 54.8781H33.3172V58.3281H29.7922V54.8781ZM29.7922 54.1594V50.7094H33.3172V54.1594H29.7922ZM29.7922 49.9906V46.5406H33.3172V49.9906H29.7922ZM33.2437 25.1219H29.7188V21.6719H33.2437V25.1219ZM33.2437 25.8406V29.2188H29.7188V25.7687H33.2437V25.8406ZM33.2437 29.9375V33.3875H29.7188V29.9375H33.2437ZM33.2437 34.1062V37.5562H29.7188V34.1062H33.2437ZM29.0578 25.1219H25.5328V21.6719H29.0578V25.1219ZM29.0578 25.8406V29.2188H25.5328V25.7687H29.0578V25.8406ZM29.0578 29.9375V33.3875H25.5328V29.9375H29.0578ZM29.0578 34.1062V37.5562H25.5328V34.1062H29.0578ZM29.0578 38.275V41.725H25.5328V38.275H29.0578ZM25.5328 54.8781H29.0578V58.3281H25.5328V54.8781ZM25.5328 54.1594V50.7094H29.0578V54.1594H25.5328ZM25.5328 49.9906V46.5406H29.0578V49.9906H25.5328ZM25.5328 45.8938V42.4438H29.0578V45.8938H25.5328ZM24.7984 25.1219H21.2734V21.6719H24.7984V25.1219ZM24.7984 25.8406V29.2188H21.2734V25.7687H24.7984V25.8406ZM24.7984 29.9375V33.3875H21.2734V29.9375H24.7984ZM24.7984 34.1062V37.5562H21.2734V34.1062H24.7984ZM21.2734 49.9906V46.5406H24.7984V49.9906H21.2734ZM24.7984 50.7094V54.1594H21.2734V50.7094H24.7984ZM21.2734 45.8938V42.4438H24.7984V45.8938H21.2734ZM21.2734 54.8781H24.7984V58.3281H21.2734V54.8781ZM58.7266 29.9375V33.3875H55.2016V29.9375H58.7266ZM55.2016 29.2188V25.7687H58.7266V29.2188H55.2016ZM58.7266 34.1062V37.5562H55.2016V34.1062H58.7266ZM58.7266 25.1219H55.2016V21.6719H58.7266V25.1219Z" fill="white"></path><path d="M63.5 39.6422V40.3609H52.2641L51.4562 41.7266L51.0891 42.4453L50.9422 42.5891L50.2078 43.9547L49.1063 45.8953L48.7391 46.6141L48.1516 47.6203V34.8266L46.7563 36.6234L46.0219 37.4859L45.9484 37.5578L45.3609 38.2766L43.7453 40.3609H35.3L34.4922 41.7266L34.125 42.4453L33.9781 42.5891L33.2437 43.9547L32.1422 45.8953L31.775 46.6141L31.1875 47.6203V35.1141L29.7922 37.5578L29.0578 38.8516L27.9563 40.7203H16.5V40.0016H27.5156L28.4703 38.2766L28.9109 37.5578L29.0578 37.4141L29.7922 36.1203L30.8938 34.1078L31.3344 33.3891L31.9219 32.3828V44.8172L33.2437 42.4453L33.9781 41.0797L34.8594 39.6422H43.3781L44.4062 38.2766L44.9937 37.5578L46.0219 36.3359L46.7563 35.4016L47.7844 34.1078L48.2984 33.3891L48.8859 32.7422V44.8172L50.2078 42.4453L50.9422 41.1516L51.8234 39.6422H63.5Z" fill="#125CB3"></path></g><defs><clipPath id="clip0_1277_20782"><rect width="47" height="46" fill="white" transform="translate(16.5 17)"></rect></clipPath></defs></svg>