<svg xmlns="http://www.w3.org/2000/svg" width="80" height="80" viewBox="0 0 80 80" fill="none"><rect width="80" height="80" rx="8" fill="white"></rect><path d="M57.2487 40.4217C57.2487 29.8992 49.0837 22.75 39.9987 22.75C31.0095 22.75 22.7487 29.7458 22.7487 40.5367C21.5987 41.1883 20.832 42.415 20.832 43.8333V47.6667C20.832 49.775 22.557 51.5 24.6654 51.5H26.582V39.8083C26.582 32.3908 32.5812 26.3917 39.9987 26.3917C47.4162 26.3917 53.4154 32.3908 53.4154 39.8083V53.4167H38.082V57.25H53.4154C55.5237 57.25 57.2487 55.525 57.2487 53.4167V51.0783C58.3795 50.4842 59.1654 49.315 59.1654 47.935V43.5267C59.1654 42.185 58.3795 41.0158 57.2487 40.4217Z" fill="#0072D4"></path><path d="M34.2487 43.8333C35.3072 43.8333 36.1654 42.9752 36.1654 41.9167C36.1654 40.8581 35.3072 40 34.2487 40C33.1902 40 32.332 40.8581 32.332 41.9167C32.332 42.9752 33.1902 43.8333 34.2487 43.8333Z" fill="#0072D4"></path><path d="M45.7487 43.8333C46.8072 43.8333 47.6654 42.9752 47.6654 41.9167C47.6654 40.8581 46.8072 40 45.7487 40C44.6902 40 43.832 40.8581 43.832 41.9167C43.832 42.9752 44.6902 43.8333 45.7487 43.8333Z" fill="#0072D4"></path><path d="M51.5014 38.1408C51.0443 35.4463 49.6487 33.0003 47.5616 31.2358C45.4744 29.4714 42.8303 28.5022 40.0972 28.5C34.2897 28.5 28.0414 33.3108 28.5397 40.8625C30.9032 39.8953 32.9907 38.3583 34.616 36.3886C36.2413 34.4188 37.3539 32.0775 37.8547 29.5733C40.3655 34.6142 45.5214 38.0833 51.5014 38.1408Z" fill="#0072D4"></path></svg>