<svg xmlns="http://www.w3.org/2000/svg" width="80" height="80" viewBox="0 0 80 80" fill="none"><rect width="80" height="80" rx="8" fill="white"></rect><path d="M42.8892 50.9724H36.0817C34.6992 50.9724 33.5617 52.0924 33.5792 53.4749V60.2824C33.5792 61.6649 34.6992 62.7849 36.0817 62.7849H36.5157C36.8108 63.3109 37.2406 63.7488 37.761 64.0536C38.2814 64.3584 38.8736 64.519 39.4767 64.519C40.0798 64.519 40.672 64.3584 41.1925 64.0536C41.7129 63.7488 42.1427 63.3109 42.4377 62.7849H42.8892C44.2717 62.7849 45.3917 61.6649 45.3917 60.2824V53.4749C45.3917 52.0924 44.2717 50.9724 42.8892 50.9724Z" fill="#9B9B9B"></path><path d="M43.7818 52.4775C44.2018 52.4775 44.5343 52.1625 44.5693 51.76C44.6918 50.255 45.3393 46.5975 48.8743 42.6775C50.5609 41.3493 51.9464 39.6782 52.9389 37.7746C53.9314 35.871 54.5084 33.7783 54.6318 31.635C54.6668 31.215 54.6843 30.935 54.6843 30.76V30.585C54.5793 22.22 47.8068 15.5 39.4593 15.5C35.4531 15.4998 31.6087 17.0804 28.7612 19.8983C25.9138 22.7163 24.2933 26.5441 24.2518 30.55C24.2518 30.55 24.2343 30.97 24.3043 31.67C24.5843 36.115 26.7543 40.0525 30.0618 42.66C33.5968 46.5975 34.2968 50.255 34.4193 51.76C34.4543 52.1625 34.7868 52.4775 35.2068 52.4775H43.7818Z" fill="#FCD53F"></path><path d="M39.4766 30.7246C42.3116 30.7246 44.6216 33.0171 44.6566 35.8521V35.9921C44.6566 36.0446 44.6566 36.1146 44.6391 36.2196C44.5516 37.6896 43.8341 39.0721 42.6791 39.9821L42.5566 40.0696L42.4516 40.1746C40.5266 42.3096 40.1241 47.7346 40.0541 50.7096H38.9166C38.8291 47.7346 38.4091 42.3096 36.4841 40.1746L36.3791 40.0696L36.2566 39.9821C35.6786 39.525 35.2048 38.9498 34.8668 38.2949C34.5288 37.64 34.3344 36.9206 34.2966 36.1846C34.2966 36.1146 34.2791 36.0621 34.2791 36.0271V35.8696C34.3316 33.0346 36.6591 30.7246 39.4766 30.7246ZM39.4766 28.9746C38.0366 28.9751 36.6325 29.4242 35.4594 30.2595C34.2864 31.0948 33.4027 32.2748 32.9312 33.6355C32.4596 34.9962 32.4237 36.4699 32.8284 37.852C33.233 39.234 34.0582 40.4556 35.1891 41.3471C37.2891 43.6921 37.1841 52.4771 37.1841 52.4771H41.8041C41.8041 52.4771 41.6641 43.6921 43.7816 41.3646C45.2866 40.1746 46.2841 38.3721 46.4066 36.3246C46.4241 36.1321 46.4241 36.0096 46.4241 35.9221V35.8521C46.4052 34.0218 45.665 32.2729 44.3642 30.9852C43.0634 29.6975 41.307 28.975 39.4766 28.9746Z" fill="#FFB02E"></path><path d="M45.5423 55.842C45.6556 55.8223 45.7639 55.7804 45.861 55.7188C45.9581 55.6572 46.0421 55.577 46.1083 55.4829C46.1744 55.3888 46.2214 55.2826 46.2465 55.1704C46.2716 55.0582 46.2743 54.9421 46.2545 54.8288C46.2348 54.7155 46.1929 54.6072 46.1313 54.5101C46.0697 54.413 45.9895 54.329 45.8954 54.2628C45.8013 54.1967 45.6951 54.1497 45.5829 54.1246C45.4707 54.0995 45.3546 54.0968 45.2413 54.1165L33.4463 56.1815C33.333 56.2013 33.2247 56.2432 33.1276 56.3048C33.0305 56.3664 32.9465 56.4466 32.8803 56.5407C32.8142 56.6347 32.7672 56.7409 32.7421 56.8532C32.717 56.9654 32.7143 57.0815 32.734 57.1948C32.7538 57.3081 32.7957 57.4164 32.8573 57.5135C32.9189 57.6106 32.9991 57.6946 33.0932 57.7608C33.1872 57.8269 33.2934 57.8739 33.4057 57.899C33.5179 57.9241 33.634 57.9268 33.7473 57.907L45.5423 55.842ZM45.4548 59.6045C45.6808 59.5619 45.8808 59.4319 46.0118 59.2429C46.1427 59.0538 46.1939 58.8208 46.1543 58.5942C46.1148 58.3677 45.9876 58.1658 45.8004 58.0323C45.6131 57.8988 45.3809 57.8444 45.1538 57.8808L33.5163 59.9283C33.3993 59.9438 33.2866 59.9828 33.185 60.0429C33.0834 60.1031 32.9951 60.1832 32.9253 60.2784C32.8555 60.3736 32.8057 60.4819 32.7789 60.5968C32.752 60.7118 32.7487 60.831 32.7692 60.9473C32.7896 61.0635 32.8334 61.1744 32.8978 61.2734C32.9622 61.3723 33.046 61.4571 33.1441 61.5228C33.2422 61.5885 33.3525 61.6336 33.4685 61.6555C33.5845 61.6775 33.7038 61.6757 33.819 61.6503L45.4548 59.6045Z" fill="#D3D3D3"></path><path d="M36.1344 21.5206C34.1919 24.8806 35.1719 29.0806 38.3219 30.8831C41.4719 32.6856 45.5844 31.4431 47.5269 28.0831C49.4694 24.7231 48.4894 20.5231 45.3394 18.7206C42.1894 16.9181 38.0769 18.1606 36.1344 21.5206Z" fill="#FFF478"></path></svg>