<svg xmlns="http://www.w3.org/2000/svg" width="81" height="80" viewBox="0 0 81 80" fill="none"><rect x="0.333374" width="80" height="80" rx="8" fill="white"></rect><g clip-path="url(#clip0_1277_19924)"><path d="M60.3334 26.25C60.3334 27.6562 59.2162 28.9531 57.3334 30C55.0599 31.2578 51.6693 32.1484 47.7787 32.4141C47.4896 32.2734 47.2006 32.1406 46.8959 32.0234C43.8177 30.7344 39.724 30 35.3334 30C34.6849 30 34.0521 30.0156 33.4193 30.0469L33.3334 30C31.4506 28.9531 30.3334 27.6562 30.3334 26.25C30.3334 22.7969 37.0521 20 45.3334 20C53.6146 20 60.3334 22.7969 60.3334 26.25ZM32.8881 32.5859C33.6849 32.5313 34.5052 32.5 35.3334 32.5C40.1927 32.5 44.5052 33.4609 47.2474 34.9531C49.1849 36.0078 50.3334 37.3203 50.3334 38.75C50.3334 39.0625 50.2787 39.3672 50.1693 39.6641C49.8099 40.6953 48.8412 41.6406 47.4349 42.4375C47.4271 42.4453 47.4115 42.4453 47.4037 42.4531C47.3802 42.4688 47.3568 42.4766 47.3334 42.4922C44.599 44.0078 40.2396 44.9922 35.3334 44.9922C30.6771 44.9922 26.5131 44.1094 23.7552 42.7188C23.6068 42.6484 23.4662 42.5703 23.3256 42.4922C21.4506 41.4531 20.3334 40.1562 20.3334 38.75C20.3334 36.0312 24.5052 33.7109 30.3334 32.8594C31.1537 32.7422 32.0052 32.6484 32.8881 32.5859ZM52.8334 38.75C52.8334 37.0391 52.0052 35.6328 50.9506 34.5781C53.1615 34.2344 55.1849 33.6875 56.9037 32.9766C58.1771 32.4453 59.3646 31.7891 60.3334 30.9844V33.75C60.3334 35.2578 59.0443 36.6484 56.9115 37.7266C55.7709 38.3047 54.3802 38.7969 52.8177 39.1719C52.8256 39.0312 52.8334 38.8984 52.8334 38.7578V38.75ZM50.3334 46.25C50.3334 47.6562 49.2162 48.9531 47.3334 50C47.1927 50.0781 47.0521 50.1484 46.9037 50.2266C44.1537 51.6172 39.9896 52.5 35.3334 52.5C30.4271 52.5 26.0677 51.5156 23.3334 50C21.4506 48.9531 20.3334 47.6562 20.3334 46.25V43.4844C21.3099 44.2891 22.4896 44.9453 23.7631 45.4766C26.849 46.7656 30.9427 47.5 35.3334 47.5C39.724 47.5 43.8177 46.7656 46.9037 45.4766C47.5131 45.2266 48.099 44.9375 48.6537 44.625C49.1302 44.3594 49.5756 44.0625 49.9974 43.75C50.1146 43.6641 50.224 43.5703 50.3334 43.4844V44.1953V46.25ZM52.8334 46.25V41.7266C54.3177 41.3984 55.6849 40.9844 56.9037 40.4766C58.1771 39.9453 59.3646 39.2891 60.3334 38.4844V41.25C60.3334 42.0703 59.9427 42.8906 59.1693 43.6641C57.8959 44.9375 55.6537 45.9844 52.8177 46.6641C52.8256 46.5312 52.8334 46.3906 52.8334 46.25ZM35.3334 55C39.724 55 43.8177 54.2656 46.9037 52.9766C48.1771 52.4453 49.3646 51.7891 50.3334 50.9844V53.75C50.3334 57.2031 43.6146 60 35.3334 60C27.0521 60 20.3334 57.2031 20.3334 53.75V50.9844C21.3099 51.7891 22.4896 52.4453 23.7631 52.9766C26.849 54.2656 30.9427 55 35.3334 55Z" fill="#0072D4"></path></g><defs><clipPath id="clip0_1277_19924"><rect width="40" height="40" fill="white" transform="translate(20.3334 20)"></rect></clipPath></defs></svg>