<svg xmlns="http://www.w3.org/2000/svg" width="80" height="80" viewBox="0 0 80 80" fill="none"><rect width="80" height="80" rx="8" fill="white"></rect><g clip-path="url(#clip0_1088_9617)"><path d="M42.6111 24.3882C42.6111 25.8399 41.4322 27.0176 40 27.0176C38.5678 27.0176 37.3889 25.8399 37.3889 24.3882V19.1294C37.3889 17.6763 38.5678 16.5 40 16.5C41.4322 16.5 42.6111 17.6763 42.6111 19.1294V24.3882Z" fill="#FFCC4D"></path><path d="M28.4849 63.5005C28.1925 63.5005 27.8948 63.4326 27.6154 63.2929C27.152 63.0544 26.801 62.6432 26.6381 62.1481C26.4752 61.653 26.5134 61.1137 26.7446 60.6466L38.4163 36.9808C38.7453 36.3123 39.419 35.8906 40.1566 35.8906C40.8942 35.8906 41.5679 36.3123 41.8969 36.9808L53.5699 60.6466C53.8015 61.1135 53.8402 61.6528 53.6775 62.1479C53.5148 62.6431 53.1638 63.0544 52.7004 63.2929C52.4714 63.4081 52.2218 63.4767 51.9661 63.4946C51.7104 63.5126 51.4537 63.4795 51.2109 63.3974C50.9681 63.3153 50.744 63.1858 50.5517 63.0163C50.3594 62.8469 50.2026 62.6409 50.0906 62.4104L40.1579 42.2722L30.2265 62.4104C30.0669 62.7365 29.8192 63.0115 29.5114 63.2041C29.2036 63.3968 28.848 63.4995 28.4849 63.5005Z" fill="#FFAC33"></path><path d="M40.158 43.1228C39.9873 43.1227 39.8184 43.0885 39.661 43.0224C39.5037 42.9563 39.361 42.8595 39.2415 42.7377L21.0851 24.3307C20.5786 23.8163 20.5786 22.9846 21.0851 22.4716C21.5917 21.9585 22.4129 21.9585 22.9181 22.4716L40.158 39.9477L57.3952 22.4702C57.5149 22.3485 57.6577 22.2517 57.8151 22.1857C57.9726 22.1197 58.1416 22.0857 58.3124 22.0857C58.4831 22.0857 58.6522 22.1197 58.8096 22.1857C58.9671 22.2517 59.1098 22.3485 59.2295 22.4702C59.4729 22.7185 59.6092 23.0522 59.6092 23.3998C59.6092 23.7474 59.4729 24.0812 59.2295 24.3294L41.0758 42.7377C40.9558 42.8592 40.8129 42.9559 40.6554 43.022C40.4978 43.0881 40.3288 43.1223 40.158 43.1228Z" fill="#58595B"></path><path d="M60.9084 41.8079C60.9084 53.4247 51.6194 62.8417 40.1579 62.8417C28.699 62.8417 19.4087 53.4247 19.4087 41.8079C19.4087 30.1885 28.699 20.7715 40.1579 20.7715C51.618 20.7702 60.9084 30.1885 60.9084 41.8079Z" fill="#DD2E44"></path><path d="M55.7203 41.8089C55.7203 50.5222 48.7552 57.5852 40.1581 57.5852C31.5636 57.5852 24.5972 50.5222 24.5972 41.8089C24.5972 33.0943 31.5636 26.0313 40.1581 26.0313C48.7552 26.0299 55.7203 33.0943 55.7203 41.8089Z" fill="#E6E7E8"></path><path d="M55.7189 18.1406C54.6943 18.1405 53.6799 18.3448 52.7352 18.7415C51.7905 19.1383 50.9345 19.7197 50.2173 20.4515L61.2218 31.6061C62.6866 30.1199 63.5053 28.1155 63.5 26.0288C63.5 21.6735 60.0155 18.1406 55.7189 18.1406ZM24.2811 18.1406C25.3058 18.1405 26.3201 18.3449 27.2648 18.7417C28.2095 19.1384 29.0655 19.7197 29.7827 20.4515L18.7782 31.6061C17.3135 30.1199 16.4947 28.1155 16.5 26.0288C16.5 21.6735 19.9832 18.1406 24.2811 18.1406Z" fill="#FFCC4D"></path><path d="M46.5278 42.6111H40C39.6538 42.6111 39.3217 42.4736 39.0768 42.2287C38.832 41.9839 38.6945 41.6518 38.6945 41.3056V29.5556C38.6945 29.2093 38.832 28.8772 39.0768 28.6324C39.3217 28.3875 39.6538 28.25 40 28.25C40.3463 28.25 40.6783 28.3875 40.9232 28.6324C41.168 28.8772 41.3056 29.2093 41.3056 29.5556V40H46.5278C46.874 40 47.2061 40.1375 47.451 40.3824C47.6958 40.6272 47.8333 40.9593 47.8333 41.3056C47.8333 41.6518 47.6958 41.9839 47.451 42.2287C47.2061 42.4736 46.874 42.6111 46.5278 42.6111Z" fill="#414042"></path></g><defs><clipPath id="clip0_1088_9617"><rect width="47" height="47" fill="white" transform="translate(16.5 16.5)"></rect></clipPath></defs></svg>