<svg xmlns="http://www.w3.org/2000/svg" width="80" height="80" viewBox="0 0 80 80" fill="none"><rect width="80" height="80" rx="8" fill="white"></rect><path d="M18 50.3125H62V62H18V50.3125Z" fill="#42ADE2"></path><path d="M18 54.025C18 54.025 20.475 54.0938 23.1562 55.125C25.5625 56.0875 29.6875 57.6 31.75 57.6C32.2312 57.6 33.4 57.2562 33.4 57.2562C33.4 57.2562 39.6562 59.0437 42.0625 58.9062C42.6812 58.9062 43.9188 58.2875 43.9188 58.2875C43.9188 58.2875 44.675 58.3562 44.8812 58.2875C45.6375 58.15 46.4625 57.5312 47.15 57.3937C47.7688 57.2562 49.2125 57.325 49.7625 57.1875C50.3813 57.05 51.55 56.225 51.55 56.225C51.55 56.225 53.2 56.225 53.75 56.1562C54.3 56.0875 55.675 55.8125 55.675 55.8125C55.675 55.8125 57.4625 56.0187 58.0812 56.0187C59.0438 56.0187 61.9313 55.6063 61.9313 55.6063V50.3125H18V54.025Z" fill="#2B95BF"></path><path d="M18 37.4567C18 37.4567 20.475 37.2504 23.1562 33.7442C25.5625 30.5817 29.6875 25.2192 31.75 25.1504C32.2312 25.1504 33.4 26.4567 33.4 26.4567C33.4 26.4567 39.6563 20.3379 41.9938 20.7504C42.6125 20.8879 43.85 22.9504 43.85 22.9504C43.85 22.9504 44.6063 22.8129 44.8125 22.9504C45.5688 23.3629 46.3937 25.4942 47.0812 25.9754C47.7 26.3879 49.1437 26.1817 49.6937 26.7317C50.3125 27.2817 51.4813 29.9629 51.4813 29.9629C51.4813 29.9629 53.1313 30.0317 53.6813 30.2379C54.2313 30.4442 55.6063 31.5442 55.6063 31.5442C55.6063 31.5442 57.3937 30.8567 58.0125 30.9254C58.975 30.9942 61.8625 32.3692 61.8625 32.3692V50.3129H18V37.4567Z" fill="#77994F"></path><path d="M56.7062 40.2738L51.6188 29.8926C53.0625 33.5363 52.3062 39.4488 56.7062 40.2738ZM55.7438 31.4738C55.7438 31.4738 56.3625 35.5301 59.5938 36.6301L55.7438 31.4738ZM30.9937 50.3113L29 43.0238L31.5438 44.0551L29.55 38.8301H32.7125L31.0625 33.3988L33.125 32.5738L34.5 29.9613L33.3312 26.4551L37.4562 34.4988L43.6437 42.6113L48.6625 47.4238L53.8187 48.7301L56.7062 50.3113H30.9937Z" fill="#8BCE4A"></path><path d="M43.9187 22.9492L44.5375 28.3117L46.2562 31.7492H45.0875L48.9375 37.1117L46.3937 36.0117L48.3875 41.7867L52.2375 44.6742L50.7937 45.7742L55.125 48.043L57.8062 50.3117H62V48.3867L57.3937 46.0492L56.2937 44.9492L55.4687 45.7742L51.6187 39.1055L47.7687 30.2367L46.1875 27.8305L43.9187 22.9492Z" fill="#8BCE4A"></path><path d="M47.0125 50.3129H18V45.7754L47.0125 50.3129Z" fill="#DBF763"></path><path d="M47.0125 50.3125H18V52.4437L47.0125 50.3125Z" fill="#1D8299"></path><path d="M21.4376 51.6178C22.6063 51.4116 23.5688 52.2366 24.7376 51.6178C26.0438 50.9991 26.9376 51.8928 28.1751 52.0991C27.0063 52.3053 26.0438 51.4803 24.8751 52.0991C23.5688 52.7178 22.6751 51.8928 21.4376 51.6178ZM54.1626 54.2991C55.3313 54.0928 56.2938 54.9178 57.4626 54.2991C58.7688 53.6803 59.6626 54.5741 60.9001 54.7803C59.7313 54.9866 58.7688 54.1616 57.6001 54.7803C56.2938 55.3991 55.4001 54.5741 54.1626 54.2991ZM28.5188 54.2991C29.6188 54.0928 30.5126 54.5741 31.6126 54.7116C32.8501 54.8491 33.8126 54.4366 34.9813 54.0928C37.1126 53.3366 38.6938 54.7803 40.6876 55.1928C39.5876 55.3991 38.6938 54.9178 37.5938 54.7803C36.3563 54.6428 35.3938 55.0553 34.2251 55.3991C32.0938 56.1553 30.5126 54.7116 28.5188 54.2991ZM41.9938 57.3928C43.0938 57.1866 43.9876 57.6678 45.0876 57.8053C46.3251 57.9428 47.2876 57.5303 48.4563 57.1866C50.5876 56.4303 52.1688 57.8741 54.1626 58.2866C53.0626 58.5616 52.1688 58.0116 51.0688 57.8741C49.8313 57.7366 48.8688 58.1491 47.7001 58.4928C45.5688 59.2491 43.9876 57.8053 41.9938 57.3928ZM44.5376 51.5491C46.1876 51.3428 47.6313 52.5116 49.2813 51.6866C51.1376 50.8616 52.4438 52.0303 54.1626 52.3053C52.5126 52.5116 51.0688 51.3428 49.4188 52.1678C47.6313 52.9928 46.3251 51.7553 44.5376 51.5491ZM51.0688 60.0053C52.7188 59.7991 54.1626 60.9678 55.8126 60.1428C57.6688 59.3178 58.9751 60.4866 60.6938 60.7616C59.0438 60.9678 57.6001 59.7991 55.9501 60.6241C54.1626 61.4491 52.8563 60.2116 51.0688 60.0053ZM20.4751 59.4553C22.1251 59.2491 23.5688 60.4178 25.2188 59.5928C27.0063 58.7678 28.3813 59.9366 30.1001 60.2116C28.4501 60.4178 27.0063 59.2491 25.3563 60.0741C23.5688 60.8991 22.2626 59.7303 20.4751 59.4553Z" fill="#B4D7EE"></path></svg>