<svg xmlns="http://www.w3.org/2000/svg" width="80" height="80" viewBox="0 0 80 80" fill="none"><rect width="80" height="80" rx="8" fill="#C9E6FF"></rect><g clip-path="url(#clip0_1277_20680)"><path d="M21.668 63.0627V52.3486C21.668 50.969 22.0564 49.6161 22.7907 48.4387C23.5249 47.2614 24.5764 46.3052 25.8295 45.6755L33.4879 41.8269C34.5693 41.2834 35.7672 41 36.9826 41H43.0191C44.2345 41 45.4324 41.2834 46.5138 41.8269L54.1722 45.6755C55.4253 46.3053 56.4768 47.2614 57.211 48.4387C57.9452 49.6161 58.3337 50.969 58.3337 52.3486V63.0627C58.3337 63.3114 58.2328 63.5498 58.0533 63.7257C57.8739 63.9015 57.6304 64.0002 57.3766 64.0002H22.625C22.3712 64.0002 22.1278 63.9015 21.9483 63.7257C21.7688 63.5498 21.668 63.3114 21.668 63.0627Z" fill="#F9F7F8"></path><path d="M33.4883 41.8269C34.5697 41.2834 35.7676 41 36.983 41H43.0195C44.2349 41 45.4329 41.2834 46.5142 41.8269L40.0013 63.4831L33.4883 41.8269Z" fill="#A4AED3"></path><path d="M35.1328 36.6367H44.8679V44.2253H35.1328V36.6367Z" fill="#F9BEAC"></path><path d="M35.1328 39.2734C35.5515 39.7387 36.0222 40.1565 36.5361 40.5187C37.5731 41.2491 38.8181 41.6421 40.0953 41.642H41.3239C42.5948 41.6419 43.8339 41.2527 44.8679 40.5289V36.6367H35.1329L35.1328 39.2734Z" fill="#E58A7B"></path><path d="M27.7607 64.0007C27.6719 64.0007 27.5867 63.9661 27.5239 63.9046C27.4611 63.843 27.4258 63.7596 27.4258 63.6726V56.8125C27.4258 56.7255 27.4611 56.642 27.5239 56.5805C27.5867 56.5189 27.6719 56.4844 27.7607 56.4844C27.8496 56.4844 27.9348 56.5189 27.9976 56.5805C28.0604 56.642 28.0957 56.7255 28.0957 56.8125V63.6727C28.0957 63.7597 28.0604 63.8431 27.9976 63.9047C27.9348 63.9662 27.8496 64.0008 27.7607 64.0008V64.0007ZM52.2378 64.0007C52.1489 64.0007 52.0637 63.9661 52.0009 63.9046C51.9381 63.843 51.9028 63.7596 51.9028 63.6726V56.8125C51.9028 56.7255 51.9381 56.642 52.0009 56.5805C52.0637 56.5189 52.1489 56.4844 52.2378 56.4844C52.3266 56.4844 52.4118 56.5189 52.4746 56.5805C52.5374 56.642 52.5727 56.7255 52.5727 56.8125V63.6727C52.5727 63.7597 52.5374 63.8431 52.4746 63.9047C52.4118 63.9662 52.3266 64.0008 52.2378 64.0008V64.0007Z" fill="#EAEAEA"></path><path d="M37.7227 59.735L38.6585 45.668H41.4339L42.2741 59.735L39.9984 63.6725L37.7227 59.735Z" fill="#F96263"></path><path d="M42.4349 46.3281L40.6149 48.111C40.5339 48.1903 40.4379 48.2531 40.3322 48.2961C40.2265 48.339 40.1131 48.361 39.9987 48.361C39.8843 48.361 39.771 48.339 39.6653 48.2961C39.5595 48.2531 39.4635 48.1903 39.3826 48.111L37.5625 46.3281L39.9987 44.2266L42.4349 46.3281Z" fill="#D34342"></path><path d="M44.8689 41L40.0014 44.2269L42.2685 46.6114C42.4179 46.7685 42.602 46.8901 42.8068 46.9667C43.0116 47.0433 43.2316 47.0729 43.4499 47.0534C43.6682 47.0338 43.879 46.9655 44.0661 46.8538C44.2533 46.742 44.4119 46.5897 44.5297 46.4086L45.9246 42.2039L44.8689 41ZM35.1338 41L40.0014 44.2269L37.7343 46.6114C37.5849 46.7685 37.4007 46.8901 37.1959 46.9667C36.9912 47.0433 36.7712 47.0729 36.5529 47.0534C36.3346 47.0338 36.1238 46.9655 35.9366 46.8538C35.7494 46.742 35.5909 46.5897 35.4731 46.4086L34.0781 42.2039L35.1338 41Z" fill="#596381"></path><path d="M47.7311 32.117V32.2717C47.7311 33.5854 47.412 34.8802 46.8003 36.0492C46.1885 37.2182 45.3016 38.2278 44.2128 38.9947C43.1758 39.7251 41.9308 40.118 40.6536 40.118H39.4249C38.1477 40.118 36.9027 39.7251 35.8657 38.9947C34.7769 38.2278 33.89 37.2182 33.2783 36.0492C32.6665 34.8802 32.3474 33.5854 32.3474 32.2717V30.4311L33.0173 29.5353L32.3474 27.7007L36.098 23.3008L47.7311 25.8786L47.0612 28.0468L47.7311 30.4311V32.117Z" fill="#F9BEAC"></path><path d="M40.0402 36.6824C39.5199 36.6817 39.0062 36.5685 38.5357 36.3508C38.4565 36.3129 38.3957 36.2459 38.3665 36.1644C38.3373 36.0829 38.3422 35.9934 38.3799 35.9154C38.4177 35.8373 38.4854 35.777 38.5682 35.7475C38.6511 35.718 38.7425 35.7217 38.8226 35.7578C39.2031 35.9345 39.619 36.0262 40.0401 36.0262C40.4612 36.0262 40.877 35.9345 41.2575 35.7578C41.2974 35.7386 41.3407 35.7272 41.3851 35.7246C41.4294 35.7219 41.4739 35.7279 41.5158 35.7422C41.5578 35.7565 41.5964 35.7788 41.6295 35.8079C41.6626 35.837 41.6894 35.8722 41.7084 35.9116C41.7275 35.9509 41.7383 35.9936 41.7403 36.037C41.7424 36.0805 41.7356 36.124 41.7203 36.1648C41.705 36.2057 41.6816 36.2432 41.6514 36.2751C41.6212 36.3071 41.5848 36.3328 41.5443 36.3508C41.0772 36.5668 40.5674 36.68 40.0508 36.6824H40.0402ZM41.2559 32.4414V33.0221C41.2559 33.3379 41.1278 33.6407 40.8999 33.864C40.6719 34.0872 40.3628 34.2127 40.0404 34.2127H40.0398C39.7174 34.2127 39.4083 34.0873 39.1803 33.864C38.9524 33.6407 38.8243 33.3379 38.8243 33.0221V32.4414C38.8243 32.3917 38.8444 32.344 38.8803 32.3088C38.9162 32.2737 38.9649 32.2539 39.0157 32.2539H41.0645C41.1152 32.2539 41.1639 32.2737 41.1998 32.3088C41.2357 32.344 41.2559 32.3917 41.2559 32.4414Z" fill="#E58A7B"></path><path d="M41.895 64.0003L49.3374 49.4367C49.3824 49.3486 49.398 49.249 49.382 49.1518C49.3659 49.0546 49.3191 48.9649 49.248 48.8953L47.7988 47.4756C47.7439 47.4219 47.7032 47.3559 47.6802 47.2833C47.6572 47.2108 47.6525 47.1338 47.6665 47.0591C47.6806 46.9844 47.713 46.9141 47.761 46.8544C47.8089 46.7947 47.871 46.7472 47.9418 46.7162L49.6515 45.9671C49.7151 45.9392 49.7718 45.898 49.8175 45.8464C49.8632 45.7948 49.8968 45.734 49.9161 45.6684C49.9353 45.6027 49.9396 45.5337 49.9288 45.4662C49.9179 45.3988 49.8921 45.3344 49.8532 45.2777L47.9985 42.5734L44.8677 41L39.9297 64.0003L41.895 64.0003Z" fill="#EAEAEA"></path><path d="M38.0771 64.0003L30.6644 49.4371C30.619 49.349 30.6032 49.2492 30.6191 49.1518C30.6351 49.0543 30.682 48.9644 30.7533 48.8946L32.2018 47.4756C32.2567 47.4219 32.2974 47.3559 32.3204 47.2833C32.3434 47.2108 32.3481 47.1338 32.3341 47.0591C32.32 46.9844 32.2876 46.9141 32.2396 46.8544C32.1917 46.7947 32.1297 46.7472 32.0588 46.7162L30.3925 45.986C30.3259 45.9568 30.2671 45.9132 30.2204 45.8583C30.1737 45.8035 30.1404 45.7389 30.1231 45.6696C30.1058 45.6002 30.1048 45.5279 30.1204 45.4581C30.1359 45.3884 30.1676 45.323 30.2128 45.267L32.6586 42.2434L35.1329 41L40.0709 64.0003L38.0771 64.0003Z" fill="#EAEAEA"></path><path d="M33.8761 20.8594C33.4706 20.8594 33.0818 21.0171 32.7951 21.298C32.5085 21.5788 32.3474 21.9597 32.3474 22.3568V30.431H33.122C33.1963 30.431 33.2698 30.4166 33.3383 30.3888C33.4069 30.361 33.4692 30.3202 33.5217 30.2688C33.5742 30.2174 33.6158 30.1563 33.6442 30.0892C33.6726 30.022 33.6873 29.95 33.6873 29.8773V27.5677C33.6873 27.3881 33.7294 27.2109 33.8104 27.0497C33.8915 26.8886 34.0092 26.7478 34.1545 26.6382C34.6805 26.2413 35.1207 25.7459 35.4495 25.1809C35.7782 24.6158 35.989 23.9923 36.0695 23.3467L36.3796 20.8594H33.8761Z" fill="#38424F"></path><path d="M50.3939 43.7901C51.3523 44.8475 52.5773 46.6138 52.972 49.0247C53.1326 50.0125 53.1411 51.0182 52.9972 52.0085C52.9911 52.0511 52.9936 52.0946 53.0046 52.1363C53.0156 52.178 53.0349 52.2172 53.0614 52.2516C53.0878 52.2861 53.121 52.315 53.1589 52.3369C53.1968 52.3588 53.2387 52.3731 53.2823 52.3792C53.3258 52.3852 53.3702 52.3827 53.4127 52.3719C53.4553 52.3611 53.4953 52.3423 53.5305 52.3163C53.5656 52.2904 53.5952 52.258 53.6175 52.2208C53.6399 52.1837 53.6545 52.1426 53.6607 52.1C53.8138 51.0449 53.8046 49.9732 53.6335 48.9208C53.3664 47.3249 52.738 45.8078 51.7944 44.4808L50.3789 43.7695C50.3842 43.7763 50.3882 43.7836 50.394 43.7901H50.3939Z" fill="#596381"></path><path d="M53.441 55.5763C54.6188 55.5763 55.5735 54.6411 55.5735 53.4874C55.5735 52.3337 54.6188 51.3984 53.441 51.3984C52.2633 51.3984 51.3086 52.3337 51.3086 53.4874C51.3086 54.6411 52.2633 55.5763 53.441 55.5763Z" fill="#343C4A"></path><path d="M26.9417 50.9063C26.952 50.9063 26.9624 50.9058 26.9729 50.905C27.0167 50.901 27.0593 50.8886 27.0982 50.8685C27.1371 50.8484 27.1716 50.821 27.1997 50.7879C27.2278 50.7547 27.249 50.7165 27.262 50.6753C27.275 50.6342 27.2796 50.5909 27.2756 50.548C27.0565 48.2536 27.6773 45.9576 29.0271 44.0703L27.8709 44.6514C26.851 46.4686 26.4113 48.5437 26.6085 50.6084C26.6162 50.6898 26.6546 50.7654 26.7163 50.8205C26.7779 50.8756 26.8583 50.9062 26.9417 50.9063Z" fill="#596381"></path><path d="M25.7876 56.5605C25.7095 56.5605 25.6338 56.5338 25.5737 56.4849C25.5136 56.4361 25.4728 56.3683 25.4583 56.2931L24.8792 53.2817C24.8135 52.9437 24.8164 52.5963 24.8879 52.2594C24.9594 51.9225 25.098 51.6027 25.2958 51.3184C25.4936 51.034 25.7467 50.7907 26.0406 50.6023C26.3346 50.4139 26.6635 50.2841 27.0087 50.2204C27.3539 50.1567 27.7085 50.1604 28.0523 50.2311C28.396 50.3018 28.7221 50.4383 29.012 50.6326C29.3019 50.827 29.5497 51.0754 29.7414 51.3637C29.9332 51.6521 30.0649 51.9746 30.1292 52.3128L30.7084 55.3242C30.7249 55.4097 30.7059 55.4981 30.6558 55.57C30.6057 55.6418 30.5285 55.6912 30.4412 55.7073L29.4097 55.8978C29.3665 55.9057 29.3221 55.9053 29.279 55.8965C29.236 55.8876 29.1951 55.8706 29.1588 55.8463C29.1225 55.822 29.0914 55.7909 29.0673 55.7548C29.0433 55.7188 29.0267 55.6784 29.0185 55.636C29.0104 55.5937 29.0109 55.5502 29.0199 55.508C29.0289 55.4659 29.0463 55.4258 29.0711 55.3902C29.0959 55.3547 29.1276 55.3242 29.1645 55.3006C29.2013 55.2771 29.2425 55.2608 29.2857 55.2528L29.9882 55.1233L29.4709 52.4343C29.3726 51.9234 29.0712 51.4716 28.6329 51.1784C28.1946 50.8851 27.6553 50.7745 27.1337 50.8707C26.6121 50.967 26.1509 51.2623 25.8515 51.6917C25.5522 52.121 25.4392 52.6493 25.5375 53.1603L26.0547 55.8492L26.7571 55.7195C26.8444 55.7034 26.9347 55.7219 27.0081 55.771C27.0814 55.8201 27.1319 55.8957 27.1483 55.9812C27.1648 56.0668 27.1459 56.1552 27.0958 56.227C27.0457 56.2989 26.9685 56.3483 26.8812 56.3644L25.8495 56.5548C25.8291 56.5585 25.8083 56.5605 25.7876 56.5605ZM47.7305 20.6345C47.7305 20.069 47.6168 19.509 47.3959 18.9866C47.175 18.4641 46.8512 17.9893 46.443 17.5895C46.0348 17.1896 45.5502 16.8724 45.0168 16.6559C44.4835 16.4395 43.9118 16.3281 43.3345 16.3281H32.0444C31.9552 16.3281 31.8673 16.3487 31.7877 16.3882C31.7081 16.4277 31.6392 16.4851 31.5864 16.5555C31.5337 16.626 31.4986 16.7077 31.4841 16.7939C31.4696 16.8802 31.4761 16.9685 31.503 17.0519L32.3497 19.6786C32.8692 21.2902 33.8995 22.6977 35.2911 23.6968C36.6826 24.6959 38.363 25.2345 40.0883 25.2346H43.2261C44.1893 25.2346 45.1274 25.5351 45.9044 26.0927C46.0553 26.2017 46.1779 26.3441 46.2621 26.5082C46.3464 26.6724 46.3901 26.8536 46.3896 27.0374V29.8777C46.3896 29.9504 46.4042 30.0224 46.4326 30.0896C46.461 30.1568 46.5027 30.2179 46.5552 30.2693C46.6077 30.3207 46.67 30.3615 46.7386 30.3893C46.8071 30.4171 46.8807 30.4314 46.9549 30.4314H47.7295V28.0458L47.7305 28.0471V20.6345Z" fill="#343C4A"></path><path d="M47.7315 31.7078V27.8594H48.2799C48.7281 27.8594 49.158 28.0338 49.475 28.3443C49.7919 28.6548 49.97 29.0759 49.97 29.515C49.97 30.0966 49.7341 30.6543 49.3143 31.0656C48.8945 31.4768 48.3252 31.7078 47.7315 31.7078ZM32.3479 31.7078C32.0539 31.7078 31.7628 31.6511 31.4912 31.5409C31.2196 31.4307 30.9729 31.2692 30.765 31.0656C30.5572 30.8619 30.3923 30.6202 30.2798 30.3542C30.1673 30.0881 30.1094 29.803 30.1094 29.515C30.1094 29.0759 30.2874 28.6548 30.6044 28.3443C30.9214 28.0338 31.3512 27.8594 31.7995 27.8594H32.3479V31.7078Z" fill="#E58A7B"></path><path d="M44.4941 28.5525C44.4506 28.5525 44.4075 28.5441 44.3672 28.5278C44.0322 28.3935 43.6724 28.3284 43.3104 28.3368C42.9928 28.3446 42.6794 28.4094 42.3857 28.5278C42.345 28.5442 42.3014 28.5525 42.2574 28.5524C42.2134 28.5523 42.1699 28.5436 42.1293 28.527C42.0887 28.5104 42.0519 28.4861 42.0209 28.4555C41.9899 28.4249 41.9653 28.3887 41.9486 28.3488C41.9319 28.3089 41.9234 28.2662 41.9236 28.2231C41.9237 28.18 41.9325 28.1374 41.9495 28.0976C41.9665 28.0579 41.9913 28.0218 42.0225 27.9914C42.0537 27.961 42.0907 27.937 42.1314 27.9206C42.929 27.5994 43.8238 27.5994 44.6213 27.9206C44.6932 27.9494 44.7527 28.0018 44.7895 28.0688C44.8264 28.1358 44.8383 28.2132 44.8233 28.2879C44.8083 28.3625 44.7672 28.4297 44.7072 28.478C44.6471 28.5263 44.5718 28.5526 44.4941 28.5525ZM43.3764 30.2125C43.2876 30.2125 43.2024 30.178 43.1396 30.1164C43.0768 30.0549 43.0415 29.9714 43.0415 29.8844V29.1876C43.0415 29.1005 43.0768 29.0171 43.1396 28.9555C43.2024 28.894 43.2876 28.8594 43.3764 28.8594C43.4653 28.8594 43.5505 28.894 43.6133 28.9555C43.6761 29.0171 43.7114 29.1005 43.7114 29.1876V29.8844C43.7114 29.9714 43.6761 30.0549 43.6133 30.1164C43.5505 30.178 43.4653 30.2125 43.3764 30.2125ZM37.8206 28.5525C37.777 28.5525 37.7339 28.5441 37.6937 28.5278C37.059 28.2721 36.3468 28.2721 35.7121 28.5278C35.6714 28.5442 35.6278 28.5525 35.5839 28.5524C35.5399 28.5523 35.4963 28.5436 35.4557 28.527C35.4152 28.5104 35.3783 28.4861 35.3473 28.4555C35.3163 28.4249 35.2918 28.3887 35.2751 28.3488C35.2584 28.3089 35.2499 28.2662 35.25 28.2231C35.2502 28.18 35.259 28.1374 35.2759 28.0976C35.2929 28.0579 35.3177 28.0218 35.3489 27.9914C35.3801 27.961 35.4172 27.937 35.4579 27.9206C36.2554 27.5994 37.1502 27.5994 37.9478 27.9206C38.0197 27.9494 38.0791 28.0018 38.116 28.0688C38.1528 28.1358 38.1647 28.2132 38.1497 28.2879C38.1347 28.3625 38.0936 28.4297 38.0336 28.478C37.9736 28.5263 37.8983 28.5526 37.8206 28.5525ZM36.7028 30.2125C36.6139 30.2125 36.5287 30.178 36.4659 30.1164C36.4031 30.0549 36.3678 29.9714 36.3678 29.8844V29.1876C36.3678 29.1005 36.4031 29.0171 36.4659 28.9555C36.5287 28.894 36.6139 28.8594 36.7028 28.8594C36.7916 28.8594 36.8768 28.894 36.9396 28.9555C37.0024 29.0171 37.0377 29.1005 37.0377 29.1876V29.8844C37.0377 29.9714 37.0024 30.0549 36.9396 30.1164C36.8768 30.178 36.7916 30.2125 36.7028 30.2125Z" fill="#343C4A"></path></g><defs><clipPath id="clip0_1277_20680"><rect width="49" height="48" fill="white" transform="translate(15.5 16)"></rect></clipPath></defs></svg>