<svg xmlns="http://www.w3.org/2000/svg" width="81" height="80" viewBox="0 0 81 80" fill="none"><rect x="0.5" width="80" height="80" rx="8" fill="#C9E6FF"></rect><g clip-path="url(#clip0_1277_20705)"><path d="M40.5 64.5234C54.0374 64.5234 65.0117 53.5492 65.0117 40.0117C65.0117 26.4743 54.0374 15.5 40.5 15.5C26.9626 15.5 15.9883 26.4743 15.9883 40.0117C15.9883 53.5492 26.9626 64.5234 40.5 64.5234Z" fill="#E67368"></path><path d="M57.832 22.6758L23.1641 57.3438C32.7344 66.9141 48.252 66.9141 57.832 57.3438C67.4023 47.7637 67.4023 32.2461 57.832 22.6758Z" fill="#DB3328"></path><path d="M39.7578 40.7715C39.9336 40.957 40.1875 41.0742 40.4707 41.0742H64.9922C65.0215 40.3906 65.0215 39.707 65.002 39.1211H41.4082L39.7578 40.7715Z" fill="#B5100B"></path><path d="M40.5 60.6172C51.8801 60.6172 61.1055 51.3918 61.1055 40.0117C61.1055 28.6316 51.8801 19.4062 40.5 19.4062C29.1199 19.4062 19.8945 28.6316 19.8945 40.0117C19.8945 51.3918 29.1199 60.6172 40.5 60.6172Z" fill="#FFFCFA"></path><path d="M25.9297 54.5781C29.6602 58.3086 34.8066 60.6133 40.5 60.6133C51.877 60.6133 61.1055 51.3848 61.1055 40.0078C61.1055 34.3145 58.8008 29.168 55.0703 25.4375L25.9297 54.5781Z" fill="#EBEADF"></path><path d="M39.7578 40.7715C39.9336 40.957 40.1875 41.0742 40.4707 41.0742H61.0762C61.0957 40.6836 61.1055 40.3809 61.1055 40.0293C61.1055 39.7266 61.0957 39.4141 61.0859 39.1211H41.4082L39.7578 40.7715Z" fill="#C4C1AB"></path><path d="M40.5 56.4141C49.5609 56.4141 56.9062 49.0687 56.9062 40.0078C56.9062 30.9469 49.5609 23.6016 40.5 23.6016C31.4391 23.6016 24.0938 30.9469 24.0938 40.0078C24.0938 49.0687 31.4391 56.4141 40.5 56.4141Z" fill="#E67368"></path><path d="M28.8984 51.6094C31.8672 54.5781 35.9688 56.4141 40.5 56.4141C49.5625 56.4141 56.9062 49.0703 56.9062 40.0078C56.9062 35.4766 55.0703 31.375 52.1016 28.4062L28.8984 51.6094Z" fill="#DB3328"></path><path d="M39.7578 40.7715C39.9336 40.957 40.1875 41.0742 40.4707 41.0742H56.8672C56.8867 40.6836 56.8965 40.3809 56.8965 40.0293C56.8965 39.7266 56.8867 39.4141 56.8672 39.1211H41.4082L39.7578 40.7715Z" fill="#B5100B"></path><path d="M40.5 52.5117C47.4036 52.5117 53 46.9153 53 40.0117C53 33.1082 47.4036 27.5117 40.5 27.5117C33.5964 27.5117 28 33.1082 28 40.0117C28 46.9153 33.5964 52.5117 40.5 52.5117Z" fill="#FFFCFA"></path><path d="M31.6641 48.8477C33.9297 51.1133 37.0547 52.5098 40.502 52.5098C47.4062 52.5098 53.002 46.9141 53.002 40.0098C53.002 36.5625 51.6055 33.4375 49.3398 31.1719L31.6641 48.8477Z" fill="#EBEADF"></path><path d="M39.7578 40.7715C39.9336 40.957 40.1875 41.0742 40.4707 41.0742H52.9512C52.9805 40.6836 52.9902 40.3809 52.9902 40.0293C52.9902 39.7266 52.9805 39.4141 52.9609 39.1211H41.4082L39.7578 40.7715Z" fill="#C4C1AB"></path><path d="M40.5 47.2344C44.4911 47.2344 47.7266 43.9989 47.7266 40.0078C47.7266 36.0167 44.4911 32.7812 40.5 32.7812C36.5089 32.7812 33.2734 36.0167 33.2734 40.0078C33.2734 43.9989 36.5089 47.2344 40.5 47.2344Z" fill="#E67368"></path><path d="M35.3906 45.1172C36.6992 46.4258 38.5059 47.2363 40.498 47.2363C44.4922 47.2363 47.7246 44.0039 47.7246 40.0098C47.7246 38.0176 46.9141 36.2109 45.6055 34.9023L35.3906 45.1172Z" fill="#DB3328"></path><path d="M39.7578 40.7715C39.9336 40.957 40.1875 41.0742 40.4707 41.0742H47.6484C47.6973 40.6836 47.7266 40.3809 47.7266 40.0293C47.7266 39.7266 47.707 39.4141 47.668 39.1211H41.4082L39.7578 40.7715Z" fill="#B5100B"></path><path d="M40.502 36.1328L41.7617 38.6816L44.5742 39.0918L42.5332 41.0742L43.0215 43.877L40.502 42.5586L37.9824 43.877L38.4707 41.0742L36.4297 39.0918L39.2422 38.6816L40.502 36.1328Z" fill="#FFFA5A"></path><path d="M37.9805 43.877L40.5 42.5586L43.0195 43.877L42.5312 41.0742L44.5723 39.0918L41.8184 38.6914L38.2637 42.2363L37.9805 43.877Z" fill="#F8D707"></path><path d="M40.4688 39.1211C39.9316 39.1211 39.4922 39.5605 39.4922 40.0977C39.4922 40.6348 39.9316 41.0742 40.4688 41.0742H42.5586L44.5605 39.1211H40.4688Z" fill="#EDA900"></path><path d="M54.7871 15.4883L48.8301 21.4453L48.1074 28.1445L47.3945 22.8711L44.5625 25.7031L45.9395 34.541L54.7871 35.9277L60.2656 30.4395L56.5547 28.4863L61.9258 28.7793L65.002 25.7031L56.1641 24.3262L54.7871 15.4883Z" fill="#68A1D6"></path><path d="M56.166 24.3242L55.7754 21.8047L45.5508 32.0293L45.9414 34.5488L48.4902 34.9395L58.7148 24.7246L56.166 24.3242Z" fill="#3179AF"></path><path d="M58.7505 20.3704L39.8052 39.3157C39.4243 39.6965 39.4243 40.3118 39.8052 40.6926C40.186 41.0735 40.8013 41.0735 41.1821 40.6926L60.1274 21.7571C60.5083 21.3762 60.5083 20.761 60.1274 20.3801C59.7466 19.9895 59.1313 19.9895 58.7505 20.3704Z" fill="#1F3F77"></path></g><defs><clipPath id="clip0_1277_20705"><rect width="50" height="50" fill="white" transform="translate(15.5 15)"></rect></clipPath></defs></svg>