<svg xmlns="http://www.w3.org/2000/svg" width="81" height="80" viewBox="0 0 81 80" fill="none"><rect x="0.5" width="80" height="80" rx="8" fill="#C9E6FF"></rect><path d="M40.5 59.8281C51.2178 59.8281 59.9062 50.9508 59.9062 40C59.9062 29.0492 51.2178 20.1719 40.5 20.1719C29.7822 20.1719 21.0938 29.0492 21.0938 40C21.0938 50.9508 29.7822 59.8281 40.5 59.8281Z" fill="white"></path><path d="M23.9688 40C23.9707 34.998 25.824 30.1818 29.1568 26.518C32.4895 22.8541 37.0552 20.6135 41.9375 20.246C41.4612 20.2102 40.9853 20.1719 40.5 20.1719C35.3531 20.1719 30.4171 22.2609 26.7777 25.9794C23.1383 29.6979 21.0938 34.7413 21.0938 40C21.0938 45.2587 23.1383 50.3021 26.7777 54.0206C30.4171 57.7391 35.3531 59.8281 40.5 59.8281C40.9853 59.8281 41.4612 59.7898 41.9375 59.754C37.0552 59.3864 32.4895 57.1459 29.1568 53.482C25.824 49.8181 23.9707 45.002 23.9688 40Z" fill="#E0E0E2"></path><path d="M40.5 25.3125C40.4056 25.3126 40.3121 25.2936 40.2249 25.2567C40.1377 25.2198 40.0584 25.1657 39.9916 25.0975C39.9249 25.0293 39.872 24.9483 39.8358 24.8592C39.7997 24.7701 39.7812 24.6746 39.7812 24.5781V21.6406C39.7812 21.4459 39.857 21.2591 39.9918 21.1213C40.1266 20.9836 40.3094 20.9062 40.5 20.9062C40.6906 20.9062 40.8734 20.9836 41.0082 21.1213C41.143 21.2591 41.2188 21.4459 41.2188 21.6406V24.5781C41.2188 24.6746 41.2003 24.7701 41.1642 24.8592C41.128 24.9483 41.0751 25.0293 41.0084 25.0975C40.9416 25.1657 40.8623 25.2198 40.7751 25.2567C40.6879 25.2936 40.5944 25.3126 40.5 25.3125ZM40.5 59.0938C40.4056 59.0938 40.3121 59.0748 40.2249 59.038C40.1377 59.0011 40.0584 58.947 39.9916 58.8788C39.9249 58.8106 39.872 58.7296 39.8358 58.6405C39.7997 58.5513 39.7812 58.4558 39.7812 58.3594V55.4219C39.7812 55.2271 39.857 55.0403 39.9918 54.9026C40.1266 54.7649 40.3094 54.6875 40.5 54.6875C40.6906 54.6875 40.8734 54.7649 41.0082 54.9026C41.143 55.0403 41.2188 55.2271 41.2188 55.4219V58.3594C41.2188 58.4558 41.2003 58.5513 41.1642 58.6405C41.128 58.7296 41.0751 58.8106 41.0084 58.8788C40.9416 58.947 40.8623 59.0011 40.7751 59.038C40.6879 59.0748 40.5944 59.0938 40.5 59.0938ZM25.4062 40.7344H22.5312C22.3406 40.7344 22.1578 40.657 22.023 40.5193C21.8882 40.3816 21.8125 40.1948 21.8125 40C21.8125 39.8052 21.8882 39.6184 22.023 39.4807C22.1578 39.343 22.3406 39.2656 22.5312 39.2656H25.4062C25.5969 39.2656 25.7797 39.343 25.9145 39.4807C26.0493 39.6184 26.125 39.8052 26.125 40C26.125 40.1948 26.0493 40.3816 25.9145 40.5193C25.7797 40.657 25.5969 40.7344 25.4062 40.7344ZM58.4688 40.7344H55.5938C55.4031 40.7344 55.2203 40.657 55.0855 40.5193C54.9507 40.3816 54.875 40.1948 54.875 40C54.875 39.8052 54.9507 39.6184 55.0855 39.4807C55.2203 39.343 55.4031 39.2656 55.5938 39.2656H58.4688C58.6594 39.2656 58.8422 39.343 58.977 39.4807C59.1118 39.6184 59.1875 39.8052 59.1875 40C59.1875 40.1948 59.1118 40.3816 58.977 40.5193C58.8422 40.657 58.6594 40.7344 58.4688 40.7344ZM29.8268 29.8292C29.7324 29.8293 29.639 29.8104 29.5517 29.7734C29.4645 29.7365 29.3853 29.6824 29.3187 29.6141L27.286 27.5371C27.1534 27.399 27.0796 27.2129 27.0806 27.0195C27.0815 26.826 27.1572 26.6408 27.2911 26.504C27.425 26.3672 27.6063 26.2899 27.7956 26.2889C27.985 26.2879 28.167 26.3633 28.3023 26.4987L30.335 28.5756C30.4355 28.6783 30.504 28.8091 30.5317 28.9516C30.5594 29.094 30.5452 29.2417 30.4908 29.3758C30.4364 29.51 30.3443 29.6247 30.2261 29.7054C30.1079 29.7861 29.969 29.8292 29.8268 29.8292ZM53.2059 53.7165C53.1115 53.7166 53.018 53.6976 52.9308 53.6607C52.8436 53.6238 52.7643 53.5696 52.6977 53.5013L50.665 51.4244C50.5324 51.2862 50.4586 51.1002 50.4596 50.9068C50.4606 50.7133 50.5362 50.528 50.6701 50.3912C50.804 50.2544 50.9853 50.1771 51.1746 50.1762C51.364 50.1752 51.5461 50.2506 51.6813 50.386L53.714 52.4629C53.8145 52.5656 53.8829 52.6965 53.9107 52.8389C53.9384 52.9813 53.9242 53.129 53.8698 53.2632C53.8154 53.3973 53.7233 53.512 53.6051 53.5927C53.4869 53.6734 53.348 53.7164 53.2059 53.7165ZM27.7941 53.7165C27.652 53.7164 27.513 53.6734 27.3949 53.5927C27.2767 53.512 27.1846 53.3973 27.1302 53.2631C27.0758 53.1289 27.0616 52.9813 27.0893 52.8388C27.117 52.6964 27.1854 52.5656 27.2859 52.4629L29.3187 50.386C29.4539 50.2505 29.636 50.1751 29.8253 50.1761C30.0146 50.1771 30.196 50.2544 30.3299 50.3912C30.4637 50.528 30.5394 50.7132 30.5403 50.9067C30.5413 51.1002 30.4675 51.2862 30.335 51.4244L28.3023 53.5013C28.2357 53.5696 28.1564 53.6238 28.0692 53.6607C27.982 53.6976 27.8885 53.7166 27.7941 53.7165ZM51.1732 29.8292C51.031 29.8292 50.8921 29.7861 50.7739 29.7054C50.6557 29.6247 50.5636 29.51 50.5092 29.3758C50.4548 29.2417 50.4406 29.094 50.4683 28.9516C50.496 28.8091 50.5645 28.6783 50.665 28.5756L52.6977 26.4987C52.8329 26.3633 53.015 26.2879 53.2043 26.2888C53.3937 26.2898 53.575 26.3671 53.7089 26.5039C53.8428 26.6407 53.9184 26.826 53.9194 27.0194C53.9203 27.2129 53.8465 27.3989 53.714 27.5371L51.6813 29.614C51.6147 29.6823 51.5355 29.7365 51.4483 29.7734C51.361 29.8104 51.2676 29.8293 51.1732 29.8292ZM40.5 38.5312C40.4056 38.5313 40.3121 38.5123 40.2249 38.4755C40.1377 38.4386 40.0584 38.3845 39.9916 38.3163C39.9249 38.2481 39.872 38.1671 39.8358 38.078C39.7997 37.9889 39.7812 37.8933 39.7812 37.7969V28.9844C39.7812 28.7896 39.857 28.6028 39.9918 28.4651C40.1266 28.3274 40.3094 28.25 40.5 28.25C40.6906 28.25 40.8734 28.3274 41.0082 28.4651C41.143 28.6028 41.2188 28.7896 41.2188 28.9844V37.7969C41.2188 37.8933 41.2003 37.9889 41.1642 38.078C41.128 38.1671 41.0751 38.2481 41.0084 38.3163C40.9416 38.3845 40.8623 38.4386 40.7751 38.4755C40.6879 38.5123 40.5944 38.5313 40.5 38.5312ZM48.4062 40.7344H42.6562C42.4656 40.7344 42.2828 40.657 42.148 40.5193C42.0132 40.3816 41.9375 40.1948 41.9375 40C41.9375 39.8052 42.0132 39.6184 42.148 39.4807C42.2828 39.343 42.4656 39.2656 42.6562 39.2656H48.4062C48.5969 39.2656 48.7797 39.343 48.9145 39.4807C49.0493 39.6184 49.125 39.8052 49.125 40C49.125 40.1948 49.0493 40.3816 48.9145 40.5193C48.7797 40.657 48.5969 40.7344 48.4062 40.7344Z" fill="#3C3B41"></path><path d="M40.5 42.2031C41.6909 42.2031 42.6562 41.2168 42.6562 40C42.6562 38.7832 41.6909 37.7969 40.5 37.7969C39.3091 37.7969 38.3438 38.7832 38.3438 40C38.3438 41.2168 39.3091 42.2031 40.5 42.2031Z" fill="#E5303E"></path><path d="M40.5 17.2344C36.0932 17.2344 31.7853 18.5696 28.1212 21.0711C24.4571 23.5726 21.6012 27.1281 19.9148 31.288C18.2284 35.4478 17.7872 40.0253 18.6469 44.4414C19.5066 48.8575 21.6287 52.9139 24.7448 56.0977C27.8609 59.2816 31.831 61.4498 36.1532 62.3282C40.4753 63.2066 44.9553 62.7558 49.0267 61.0327C53.098 59.3096 56.5779 56.3917 59.0262 52.6479C61.4745 48.9041 62.7813 44.5026 62.7813 40C62.7813 33.9622 60.4338 28.1717 56.2552 23.9023C52.0767 19.6329 46.4094 17.2344 40.5 17.2344ZM40.5 58.3594C36.9461 58.3594 33.4721 57.2826 30.5171 55.2653C27.5622 53.2479 25.2591 50.3806 23.899 47.0258C22.539 43.6711 22.1832 39.9796 22.8765 36.4183C23.5699 32.8569 25.2812 29.5856 27.7942 27.018C30.3072 24.4504 33.5089 22.7018 36.9945 21.9934C40.4801 21.285 44.093 21.6486 47.3764 23.0381C50.6597 24.4277 53.466 26.7809 55.4405 29.8001C57.4149 32.8193 58.4688 36.3689 58.4688 40C58.4688 42.411 58.004 44.7984 57.101 47.0258C56.198 49.2533 54.8744 51.2772 53.2058 52.982C51.5373 54.6869 49.5564 56.0392 47.3764 56.9618C45.1963 57.8845 42.8597 58.3594 40.5 58.3594Z" fill="#E5303E"></path><path d="M19.6562 40C19.6586 34.0925 21.91 28.4175 25.9342 24.1757C29.9584 19.9339 35.4398 17.4579 41.2188 17.2715C40.978 17.2636 40.7427 17.2344 40.5 17.2344C34.5906 17.2344 28.9233 19.6329 24.7448 23.9023C20.5662 28.1717 18.2188 33.9622 18.2188 40C18.2188 46.0378 20.5662 51.8283 24.7448 56.0977C28.9233 60.3671 34.5906 62.7656 40.5 62.7656C40.7427 62.7656 40.978 62.7364 41.2188 62.7285C35.4398 62.5421 29.9584 60.0661 25.9342 55.8243C21.91 51.5825 19.6586 45.9075 19.6562 40Z" fill="#B72732"></path></svg>