<svg xmlns="http://www.w3.org/2000/svg" width="87" height="87" viewBox="0 0 87 87" fill="none"><rect width="87" height="87" rx="43.5" fill="#F5F5F5"></rect><path d="M67.8457 35.7745C67.8457 28.5079 61.955 22.6172 54.6897 22.6172C50.279 22.6172 46.387 24.7945 43.999 28.1225C41.611 24.7945 37.719 22.6172 33.3097 22.6172C26.043 22.6172 20.1523 28.5065 20.1523 35.7745C20.1523 36.8039 20.283 37.8012 20.507 38.7625C22.3337 50.1132 34.9537 62.0879 43.999 65.3759C53.043 62.0879 65.6643 50.1132 67.4883 38.7639C67.715 37.8025 67.8457 36.8052 67.8457 35.7745Z" fill="#DD2E44"></path><path d="M65.7963 51.8578L60.6977 49.9699L58.8097 44.8712C58.7154 44.6155 58.545 44.3949 58.3214 44.239C58.0979 44.0832 57.832 43.9995 57.5595 43.9994C57.287 43.9992 57.021 44.0826 56.7973 44.2382C56.5736 44.3938 56.4029 44.6143 56.3083 44.8699L54.4203 49.9685L49.3217 51.8565C49.0666 51.9515 48.8467 52.1223 48.6915 52.3458C48.5362 52.5694 48.453 52.835 48.453 53.1072C48.453 53.3794 48.5362 53.645 48.6915 53.8686C48.8467 54.0921 49.0666 54.2628 49.3217 54.3578L54.4203 56.2458L56.3083 61.3445C56.4028 61.6001 56.5733 61.8207 56.7969 61.9764C57.0205 62.1322 57.2865 62.2157 57.559 62.2157C57.8315 62.2157 58.0975 62.1322 58.3211 61.9764C58.5447 61.8207 58.7152 61.6001 58.8097 61.3445L60.6977 56.2458L65.7963 54.3578C66.0509 54.2626 66.2704 54.0918 66.4253 53.8684C66.5802 53.6451 66.6632 53.3797 66.6632 53.1078C66.6632 52.836 66.5802 52.5706 66.4253 52.3473C66.2704 52.1239 66.0509 51.9531 65.7963 51.8578ZM35.1297 30.5232L31.9763 29.3565L30.8097 26.2032C30.7152 25.9476 30.5447 25.727 30.3211 25.5713C30.0975 25.4155 29.8315 25.332 29.559 25.332C29.2865 25.332 29.0205 25.4155 28.7969 25.5713C28.5733 25.727 28.4028 25.9476 28.3083 26.2032L27.1403 29.3565L23.9883 30.5232C23.7327 30.6176 23.5122 30.7882 23.3564 31.0118C23.2007 31.2354 23.1172 31.5013 23.1172 31.7739C23.1172 32.0464 23.2007 32.3123 23.3564 32.5359C23.5122 32.7595 23.7327 32.9301 23.9883 33.0245L27.1417 34.1912L28.3083 37.3445C28.4028 37.6001 28.5733 37.8207 28.7969 37.9764C29.0205 38.1322 29.2865 38.2157 29.559 38.2157C29.8315 38.2157 30.0975 38.1322 30.3211 37.9764C30.5447 37.8207 30.7152 37.6001 30.8097 37.3445L31.9763 34.1912L35.1297 33.0245C35.3853 32.9301 35.6058 32.7595 35.7616 32.5359C35.9173 32.3123 36.0008 32.0464 36.0008 31.7739C36.0008 31.5013 35.9173 31.2354 35.7616 31.0118C35.6058 30.7882 35.3853 30.6176 35.1297 30.5232Z" fill="#FDCB58"></path></svg>