<svg xmlns="http://www.w3.org/2000/svg" width="81" height="80" viewBox="0 0 81 80" fill="none"><rect x="0.332031" width="80" height="80" rx="8" fill="white"></rect><path d="M22.0273 28.1875C22.0273 26.014 23.8305 24.25 26.0523 24.25H45.508C47.7298 24.25 49.533 26.014 49.533 28.1875V31H51.5593C52.2004 31 52.8287 31.1748 53.3739 31.5046C53.9191 31.8345 54.3596 32.3064 54.6459 32.8675L58.3673 40.1463C58.6071 40.6142 58.7323 41.1303 58.733 41.6538V50.125C58.733 51.0201 58.3696 51.8786 57.7226 52.5115C57.0756 53.1444 56.198 53.5 55.283 53.5H51.718C51.4541 54.7716 50.7489 55.9148 49.7219 56.7359C48.695 57.5571 47.4094 58.0056 46.083 58.0056C44.7567 58.0056 43.4711 57.5571 42.4441 56.7359C41.4172 55.9148 40.712 54.7716 40.448 53.5H37.918C37.6541 54.7716 36.9489 55.9148 35.9219 56.7359C34.895 57.5571 33.6094 58.0056 32.283 58.0056C30.9567 58.0056 29.6711 57.5571 28.6441 56.7359C27.6172 55.9148 26.912 54.7716 26.648 53.5H26.0523C24.9848 53.5 23.9611 53.0852 23.2062 52.3467C22.4514 51.6083 22.0273 50.6068 22.0273 49.5625V28.1875ZM49.533 33.25V40H55.72L52.5897 33.871C52.4941 33.6844 52.3473 33.5274 52.1658 33.4178C51.9842 33.3081 51.775 33.25 51.5616 33.25H49.533ZM32.283 49C31.368 49 30.4905 49.3556 29.8435 49.9885C29.1965 50.6215 28.833 51.4799 28.833 52.375C28.833 53.2701 29.1965 54.1286 29.8435 54.7615C30.4905 55.3944 31.368 55.75 32.283 55.75C33.198 55.75 34.0756 55.3944 34.7226 54.7615C35.3696 54.1286 35.733 53.2701 35.733 52.375C35.733 51.4799 35.3696 50.6215 34.7226 49.9885C34.0756 49.3556 33.198 49 32.283 49ZM42.633 52.375C42.633 53.2701 42.9965 54.1286 43.6435 54.7615C44.2905 55.3944 45.168 55.75 46.083 55.75C46.998 55.75 47.8756 55.3944 48.5226 54.7615C49.1696 54.1286 49.533 53.2701 49.533 52.375C49.533 51.4799 49.1696 50.6215 48.5226 49.9885C47.8756 49.3556 46.998 49 46.083 49C45.168 49 44.2905 49.3556 43.6435 49.9885C42.9965 50.6215 42.633 51.4799 42.633 52.375Z" fill="#0072D4"></path></svg>