<svg xmlns="http://www.w3.org/2000/svg" width="81" height="80" viewBox="0 0 81 80" fill="none"><rect x="0.332031" width="80" height="80" rx="8" fill="white"></rect><path d="M22.707 30.0859C22.707 28.8199 23.2099 27.6058 24.1051 26.7106C25.0003 25.8154 26.2145 25.3125 27.4805 25.3125H53.1836C53.8105 25.3125 54.4312 25.436 55.0103 25.6759C55.5895 25.9157 56.1157 26.2674 56.5589 26.7106C57.0022 27.1539 57.3538 27.6801 57.5937 28.2592C57.8336 28.8384 57.957 29.4591 57.957 30.0859V37.3621C55.9473 36.2018 53.6676 35.591 51.347 35.5911C49.0264 35.5913 46.7467 36.2023 44.7372 37.3628C42.7276 38.5233 41.0589 40.1923 39.8989 42.2022C38.7389 44.2121 38.1285 46.4919 38.1289 48.8125H27.4805C26.8536 48.8125 26.2329 48.689 25.6538 48.4491C25.0746 48.2093 24.5484 47.8576 24.1051 47.4144C23.6619 46.9711 23.3103 46.4449 23.0704 45.8658C22.8305 45.2866 22.707 44.6659 22.707 44.0391V30.0859ZM39.5037 54.6875C39.0391 53.7534 38.6876 52.7673 38.4564 51.75H21.2383C20.8487 51.75 20.4752 51.9047 20.1997 52.1802C19.9243 52.4556 19.7695 52.8292 19.7695 53.2188C19.7695 53.6083 19.9243 53.9819 20.1997 54.2573C20.4752 54.5328 20.8487 54.6875 21.2383 54.6875H39.5037ZM44.5077 42.9918C44.5975 43.2854 44.6258 43.5944 44.5908 43.8994C44.5558 44.2044 44.4583 44.499 44.3043 44.7646C44.1504 45.0302 43.9433 45.2612 43.696 45.4432C43.4487 45.6252 43.1665 45.7542 42.8671 45.8221L40.6111 46.3362C40.2567 47.8758 40.2367 49.4735 40.5523 51.0215L43.0463 51.6428C43.3373 51.7149 43.6109 51.8449 43.8506 52.025C44.0903 52.2051 44.2912 52.4317 44.4415 52.6912C44.5917 52.9507 44.6881 53.2377 44.725 53.5353C44.7619 53.8329 44.7384 54.1348 44.656 54.4231L43.9275 56.9538C45.0906 58.0156 46.4679 58.8155 47.9666 59.2994L49.8172 57.39C50.0266 57.1748 50.277 57.0038 50.5536 56.887C50.8302 56.7702 51.1275 56.71 51.4277 56.71C51.728 56.71 52.0252 56.7702 52.3018 56.887C52.5784 57.0038 52.8288 57.1748 53.0382 57.39L54.8536 59.2582C56.3502 58.7553 57.7212 57.9363 58.8735 56.8568L58.1876 54.6346C58.0976 54.3409 58.0691 54.0318 58.104 53.7266C58.1388 53.4214 58.2363 53.1267 58.3903 52.8609C58.5443 52.5951 58.7515 52.364 58.9989 52.1819C59.2463 51.9999 59.5286 51.8708 59.8282 51.8029L62.0842 51.2888C62.4386 49.7492 62.4586 48.1515 62.143 46.6035L59.649 45.9822C59.3582 45.9101 59.0848 45.7802 58.8452 45.6001C58.6056 45.4201 58.4047 45.1937 58.2545 44.9344C58.1043 44.6751 58.0078 44.3881 57.9708 44.0907C57.9338 43.7933 57.9571 43.4916 58.0393 43.2033L58.7678 40.6712C57.6048 39.6094 56.2274 38.8095 54.7287 38.3256L52.8781 40.235C52.6687 40.4502 52.4183 40.6212 52.1417 40.738C51.8651 40.8548 51.5679 40.915 51.2676 40.915C50.9674 40.915 50.6702 40.8548 50.3935 40.738C50.1169 40.6212 49.8665 40.4502 49.6571 40.235L47.8418 38.3667C46.3451 38.8697 44.9741 39.6887 43.8218 40.7682L44.5077 42.9918ZM54.2852 48.8125C54.2852 49.5916 53.9757 50.3387 53.4248 50.8896C52.8739 51.4405 52.1267 51.75 51.3477 51.75C50.5686 51.75 49.8214 51.4405 49.2705 50.8896C48.7196 50.3387 48.4102 49.5916 48.4102 48.8125C48.4102 48.0334 48.7196 47.2863 49.2705 46.7354C49.8214 46.1845 50.5686 45.875 51.3477 45.875C52.1267 45.875 52.8739 46.1845 53.4248 46.7354C53.9757 47.2863 54.2852 48.0334 54.2852 48.8125Z" fill="#0072D4"></path></svg>