<svg xmlns="http://www.w3.org/2000/svg" width="80" height="80" viewBox="0 0 80 80" fill="none"><rect width="80" height="80" rx="8" fill="white"></rect><path d="M37.642 58.4965C38.3949 59.0234 39.3263 59.2297 40.2312 59.0699C41.1362 58.9101 41.9406 58.3974 42.4675 57.6445C42.5582 57.5155 42.6225 57.3699 42.6568 57.216C42.691 57.062 42.6945 56.9029 42.667 56.7476C42.6396 56.5923 42.5817 56.444 42.4967 56.3112C42.4118 56.1783 42.3014 56.0636 42.172 55.9735L39.397 53.05L45.73 57.4825C45.9719 57.6525 46.245 57.7731 46.5336 57.8372C46.8222 57.9014 47.1206 57.908 47.4117 57.8566C47.7029 57.8052 47.981 57.6967 48.2301 57.5376C48.4792 57.3784 48.6945 57.1716 48.8635 56.929C49.0329 56.6869 49.153 56.4138 49.2169 56.1253C49.2807 55.8369 49.2871 55.5386 49.2357 55.2476C49.1843 54.9567 49.0761 54.6787 48.9173 54.4295C48.7585 54.1803 48.5521 53.9649 48.31 53.7955L42.916 48.838L50.9785 54.4825C51.2204 54.6525 51.4935 54.7731 51.7821 54.8372C52.0707 54.9014 52.3691 54.908 52.6602 54.8566C52.9514 54.8052 53.2295 54.6967 53.4786 54.5376C53.7277 54.3784 53.943 54.1716 54.112 53.929C54.2814 53.6869 54.4015 53.4138 54.4653 53.1253C54.5292 52.8369 54.5356 52.5386 54.4842 52.2476C54.4328 51.9567 54.3246 51.6787 54.1658 51.4295C54.007 51.1803 53.8006 50.9649 53.5585 50.7955L46.4095 44.686L55.2055 50.8435C55.4474 51.0135 55.7205 51.1341 56.0091 51.1982C56.2977 51.2624 56.5961 51.269 56.8872 51.2176C57.1784 51.1662 57.4565 51.0577 57.7056 50.8986C57.9547 50.7394 58.17 50.5326 58.339 50.29C58.5084 50.0479 58.6285 49.7748 58.6923 49.4863C58.7562 49.1979 58.7626 48.8996 58.7112 48.6086C58.6598 48.3177 58.5516 48.0397 58.3928 47.7905C58.234 47.5413 58.0276 47.3259 57.7855 47.1565L20.0995 29.791L14.899 38.0725C14.3155 38.9725 14.4745 40.192 15.313 40.909L26.992 50.9155C27.5245 51.3715 28.078 51.802 28.6525 52.204L37.642 58.4965Z" fill="#D2A077"></path><path d="M57.703 45.6279L40.75 33.4014L40.6615 33.2814L40.741 33.1614L40.8205 33.0819L42.1015 33.7854C43.5385 34.7154 46.822 36.0894 49.3105 36.0894C51.013 36.0894 52.033 35.4519 52.3375 34.2039C52.4301 33.6523 52.3002 33.0864 51.9763 32.6303C51.6524 32.1743 51.1609 31.8652 50.6095 31.7709C49.1043 31.5463 47.6686 30.9871 46.408 30.1344L45.5755 29.5749C44.6395 28.9434 43.579 28.2279 42.796 27.7659C41.821 27.1749 40.7605 26.8884 39.5515 26.8884C37.7575 26.8884 35.935 27.5214 34.174 28.1334L32.275 28.7874C31.4555 29.0635 30.5957 29.2009 29.731 29.1939C27.415 29.1939 25.1485 28.3149 22.957 27.4659L22.7365 27.3789C22.2855 27.2062 21.7884 27.1955 21.3304 27.3488C20.8724 27.502 20.4818 27.8096 20.2255 28.2189L15.025 36.5034C14.7602 36.9163 14.6535 37.4109 14.7243 37.8962C14.7951 38.3815 15.0388 38.825 15.4105 39.1449L27.088 49.1529C27.616 49.6044 28.171 50.0349 28.738 50.4309L37.9855 56.9049C38.3082 57.131 38.6724 57.2913 39.0571 57.3767C39.4418 57.4621 39.8395 57.4708 40.2276 57.4024C40.6157 57.334 40.9865 57.1898 41.3188 56.9781C41.6511 56.7664 41.9385 56.4912 42.1645 56.1684C42.3463 55.9073 42.4175 55.5849 42.3624 55.2716C42.3073 54.9582 42.1305 54.6794 41.8705 54.4959L39.121 52.5714C39.0492 52.5209 38.9885 52.456 38.943 52.3809C38.8975 52.3057 38.868 52.222 38.8564 52.1349C38.8449 52.0478 38.8515 51.9592 38.8759 51.8748C38.9002 51.7904 38.9418 51.712 38.998 51.6444C39.0998 51.5223 39.2437 51.443 39.4013 51.4221C39.5589 51.4013 39.7185 51.4405 39.8485 51.5319L45.817 55.7094C46.2733 56.0289 46.8378 56.154 47.3864 56.0572C47.9349 55.9604 48.4226 55.6497 48.742 55.1934C49.0615 54.7371 49.1866 54.1726 49.0898 53.6241C48.993 53.0755 48.6823 52.5879 48.226 52.2684L42.64 48.3594C42.5682 48.3089 42.5075 48.244 42.462 48.1689C42.4165 48.0937 42.387 48.01 42.3754 47.9229C42.3639 47.8358 42.3705 47.7472 42.3949 47.6628C42.4192 47.5784 42.4608 47.5 42.517 47.4324C42.619 47.3106 42.7629 47.2315 42.9204 47.2107C43.0778 47.1898 43.2374 47.2288 43.3675 47.3199L51.0655 52.7094C51.2915 52.8676 51.5463 52.9797 51.8156 53.0394C52.0849 53.0991 52.3633 53.1051 52.6349 53.0572C52.9065 53.0093 53.166 52.9084 53.3986 52.7601C53.6312 52.6119 53.8323 52.4194 53.9905 52.1934C54.1487 51.9675 54.2608 51.7126 54.3205 51.4433C54.3802 51.1741 54.3862 50.8957 54.3383 50.6241C54.2904 50.3525 54.1894 50.0929 54.0412 49.8603C53.893 49.6277 53.7005 49.4266 53.4745 49.2684L46.1725 44.1579C46.1 44.1079 46.0388 44.0431 45.9929 43.9679C45.947 43.8928 45.9173 43.8088 45.9059 43.7214C45.8944 43.6341 45.9014 43.5453 45.9264 43.4608C45.9514 43.3763 45.9939 43.298 46.051 43.2309C46.1421 43.1223 46.2706 43.0518 46.4112 43.0335C46.5518 43.0152 46.6941 43.0503 46.81 43.1319L55.294 49.0704C55.5201 49.2286 55.775 49.3407 56.0444 49.4003C56.3138 49.46 56.5922 49.466 56.8639 49.418C57.1356 49.37 57.3952 49.269 57.6278 49.1207C57.8604 48.9724 58.0616 48.7797 58.2198 48.5537C58.3779 48.3276 58.4901 48.0727 58.5497 47.8033C58.6093 47.5339 58.6153 47.2555 58.5673 46.9838C58.5193 46.7121 58.4183 46.4525 58.27 46.2199C58.1217 45.9873 57.9291 45.7861 57.703 45.6279Z" fill="#F3D2A2"></path><path d="M37.8039 54.8939C37.6989 55.2944 37.4934 55.6409 37.2204 55.9154L35.7144 57.4094C35.4386 57.6884 35.0943 57.8901 34.716 57.9944C34.3378 58.0986 33.9387 58.1017 33.5589 58.0034C33.1754 57.9035 32.8251 57.7042 32.5434 57.4255C32.2617 57.1468 32.0586 56.7987 31.9546 56.4163C31.8507 56.0339 31.8495 55.6309 31.9513 55.2479C32.0531 54.8649 32.2543 54.5156 32.5344 54.2354L34.0404 52.7414C34.3162 52.4623 34.6605 52.2606 35.0388 52.1564C35.4171 52.0521 35.8161 52.049 36.1959 52.1474C36.773 52.299 37.2664 52.6732 37.5678 53.1881C37.8693 53.703 37.9542 54.3165 37.8039 54.8939ZM21.9879 47.5124L24.2424 45.2669C24.5002 45.0094 24.6916 44.6932 24.8002 44.3454C24.9087 43.9977 24.9312 43.6287 24.8657 43.2703C24.8002 42.9119 24.6487 42.5748 24.4241 42.2879C24.1995 42.001 23.9086 41.773 23.5764 41.6234C23.1603 41.4362 22.6969 41.3805 22.2482 41.4635C21.7996 41.5466 21.3869 41.7646 21.0654 42.0884L18.8109 44.3339C18.5532 44.5914 18.3618 44.9077 18.2534 45.2556C18.1449 45.6035 18.1225 45.9724 18.1882 46.3308C18.2539 46.6893 18.4056 47.0264 18.6303 47.3132C18.8551 47.6 19.1461 47.8279 19.4784 47.9774C19.8944 48.164 20.3574 48.2195 20.8057 48.1364C21.254 48.0533 21.6664 47.8356 21.9879 47.5124ZM29.7939 47.5904C30.0148 47.3842 30.1918 47.1356 30.3145 46.8595C30.4373 46.5834 30.5031 46.2854 30.5081 45.9833C30.5132 45.6812 30.4573 45.3811 30.3439 45.1011C30.2305 44.821 30.0618 44.5667 29.8479 44.3532C29.6341 44.1398 29.3794 43.9716 29.0992 43.8587C28.8189 43.7458 28.5188 43.6905 28.2167 43.6961C27.9146 43.7017 27.6167 43.7681 27.3408 43.8914C27.0649 44.0146 26.8167 44.1921 26.6109 44.4134L22.1079 48.9104C21.887 49.1166 21.71 49.3651 21.5873 49.6413C21.4646 49.9174 21.3987 50.2154 21.3937 50.5175C21.3886 50.8196 21.4445 51.1196 21.5579 51.3997C21.6713 51.6797 21.84 51.9341 22.0539 52.1475C22.2677 52.361 22.5224 52.5292 22.8026 52.6421C23.0829 52.755 23.3831 52.8103 23.6852 52.8046C23.9873 52.799 24.2851 52.7326 24.561 52.6094C24.8369 52.4862 25.0851 52.3086 25.2909 52.0874L29.7939 47.5904ZM33.1689 52.0904C33.4726 51.7861 33.6827 51.4012 33.7744 50.9812C33.8662 50.5612 33.8357 50.1237 33.6865 49.7205C33.5374 49.3173 33.2759 48.9653 32.933 48.7061C32.59 48.4469 32.18 48.2913 31.7514 48.2579C31.4278 48.2334 31.1027 48.2798 30.7989 48.3938C30.495 48.5078 30.2196 48.6866 29.9919 48.9179L26.9844 51.9104C26.6803 52.2146 26.4697 52.5996 26.3777 53.0199C26.2857 53.4401 26.3161 53.8779 26.4653 54.2813C26.6145 54.6848 26.8762 55.0371 27.2194 55.2964C27.5626 55.5557 27.973 55.7112 28.4019 55.7444C29.0844 55.7984 29.7129 55.5329 30.1614 55.0844L33.1689 52.0904ZM58.0014 45.8849L58.9419 45.0719L48.5724 28.7969L30.1674 31.7744C29.8747 31.8238 29.5946 31.9304 29.343 32.0881C29.0915 32.2458 28.8735 32.4515 28.7015 32.6934C28.5295 32.9354 28.4068 33.2088 28.3405 33.4982C28.2741 33.7876 28.2655 34.0872 28.3149 34.3799C29.3019 38.4224 37.3194 35.4194 40.8474 33.4784L58.0014 45.8849Z" fill="#B78B60"></path><path d="M37.804 53.3935C37.699 53.794 37.4935 54.1405 37.2205 54.415L35.7145 55.909C35.4387 56.188 35.0944 56.3898 34.7161 56.494C34.3378 56.5982 33.9388 56.6013 33.559 56.503C33.1755 56.4031 32.8252 56.2038 32.5435 55.9251C32.2618 55.6464 32.0587 55.2983 31.9547 54.9159C31.8507 54.5335 31.8496 54.1305 31.9514 53.7475C32.0532 53.3645 32.2544 53.0152 32.5345 52.735L34.0405 51.241C34.3163 50.9619 34.6606 50.7602 35.0389 50.656C35.4171 50.5517 35.8162 50.5486 36.196 50.647C36.7731 50.7986 37.2664 51.1728 37.5679 51.6877C37.8694 52.2026 37.9543 52.8161 37.804 53.3935ZM21.988 46.012L24.2425 43.7665C24.5003 43.509 24.6917 43.1928 24.8003 42.845C24.9088 42.4973 24.9313 42.1283 24.8658 41.7699C24.8003 41.4115 24.6488 41.0744 24.4242 40.7875C24.1996 40.5006 23.9087 40.2726 23.5765 40.123C23.1603 39.9362 22.697 39.8807 22.2485 39.9638C21.7999 40.0468 21.3873 40.2646 21.0655 40.588L18.811 42.8335C18.5533 43.091 18.3619 43.4073 18.2535 43.7552C18.145 44.1031 18.1226 44.472 18.1883 44.8305C18.254 45.1889 18.4057 45.526 18.6304 45.8128C18.8552 46.0996 19.1462 46.3275 19.4785 46.477C19.8945 46.6636 20.3575 46.7191 20.8058 46.636C21.2541 46.5529 21.6665 46.3353 21.988 46.012ZM29.794 46.09C30.0149 45.8838 30.1919 45.6352 30.3146 45.3591C30.4373 45.083 30.5032 44.785 30.5082 44.4829C30.5133 44.1808 30.4574 43.8807 30.344 43.6007C30.2306 43.3206 30.0619 43.0663 29.848 42.8528C29.6342 42.6394 29.3795 42.4712 29.0993 42.3583C28.819 42.2454 28.5188 42.1901 28.2167 42.1957C27.9146 42.2013 27.6168 42.2677 27.3409 42.391C27.065 42.5142 26.8168 42.6917 26.611 42.913L22.108 47.41C21.8871 47.6162 21.7101 47.8647 21.5874 48.1409C21.4646 48.417 21.3988 48.715 21.3938 49.0171C21.3887 49.3192 21.4446 49.6192 21.558 49.8993C21.6714 50.1793 21.8401 50.4337 22.054 50.6471C22.2678 50.8606 22.5225 51.0288 22.8027 51.1417C23.083 51.2546 23.3831 51.3099 23.6852 51.3042C23.9873 51.2986 24.2852 51.2322 24.5611 51.109C24.837 50.9858 25.0852 50.8082 25.291 50.587L29.794 46.09ZM33.169 50.59C33.4727 50.2857 33.6828 49.9008 33.7745 49.4808C33.8663 49.0608 33.8358 48.6233 33.6866 48.2201C33.5375 47.8169 33.276 47.4649 32.933 47.2057C32.5901 46.9465 32.1801 46.7909 31.7515 46.7575C31.4279 46.733 31.1028 46.7794 30.799 46.8934C30.4951 47.0074 30.2197 47.1862 29.992 47.4175L26.9845 50.41C26.6804 50.7142 26.4698 51.0992 26.3778 51.5195C26.2858 51.9397 26.3162 52.3775 26.4654 52.7809C26.6145 53.1844 26.8763 53.5367 27.2195 53.796C27.5627 54.0553 27.9731 54.2108 28.402 54.244C29.0845 54.298 29.713 54.0325 30.1615 53.584L33.169 50.59ZM65.5045 39.406C65.9016 39.0627 66.1612 38.5874 66.2354 38.0677C66.3095 37.5481 66.1933 37.0191 65.908 36.5785L65.9035 36.571L60.703 26.7895C60.4284 26.3507 60.0098 26.021 59.5189 25.8568C59.028 25.6926 58.4953 25.7042 58.012 25.8895C55.024 27.046 51.751 28.375 48.574 27.295L46.927 26.7295C44.005 25.717 40.828 24.5305 37.927 26.2885C36.8845 26.902 35.32 27.988 34.3105 28.6585C33.0633 29.4914 31.6495 30.0422 30.1675 30.2725C29.8743 30.321 29.5937 30.427 29.3416 30.5844C29.0896 30.7418 28.8712 30.9476 28.6991 31.1897C28.5269 31.4319 28.4043 31.7057 28.3384 31.9955C28.2725 32.2852 28.2645 32.5852 28.315 32.878C29.2345 36.646 36.265 34.24 40.072 32.3245C40.3096 32.2052 40.5755 32.1534 40.8405 32.1748C41.1055 32.1963 41.3596 32.29 41.575 32.446L58.951 45.07L65.5045 39.406Z" fill="#D4AB88"></path></svg>