<svg xmlns="http://www.w3.org/2000/svg" width="80" height="80" viewBox="0 0 80 80" fill="none"><rect width="80" height="80" rx="8" fill="white"></rect><path d="M23.9609 38.3437L17.0312 44.6406L22.1289 47.125L29.8672 43.1758V41.3125L31.4492 37.0469L23.9609 38.3437ZM40.3594 49.4336L37.0117 50.8867L33.8516 57.5859C33.8516 57.5859 36.6328 63.7461 36.7578 63.7461C36.8828 63.7461 38.4648 63.8711 38.4648 63.8711L44.0898 57.582L45.5117 46.8398L40.3594 49.4336Z" fill="#A02422"></path><path d="M27.3359 46.5078C27.3359 46.5078 25.0938 46.3203 22.6367 49.4258C20.3945 52.2617 19.3437 56.8789 18.9375 58.0664C18.5312 59.2539 17.5586 59.4961 17.8828 60.039C18.207 60.582 19.6094 60.5508 21.3398 60.3359C23.0703 60.1211 24.5547 59.5781 24.5547 59.5781C24.5547 59.5781 24.4805 59.7656 24.2305 60.1719C24.1406 60.3164 23.8281 60.5234 23.8516 60.7383C23.9062 61.25 28.2891 61.2617 31.7891 57.6601C35.5703 53.7734 33.7344 50.5859 33.7344 50.5859L27.3359 46.5078Z" fill="#F7D74D"></path><path d="M29.1992 44.0781C29.1992 44.0781 27.9844 45.1602 27.5508 45.7813C27.1172 46.4023 27.1172 46.457 27.1445 46.6445C27.1719 46.832 27.6211 48.8906 29.4922 50.6953C31.7891 52.9102 33.8398 53.207 34.1367 53.207C34.4336 53.207 36.4063 50.9922 36.4063 50.9922L29.1992 44.0781Z" fill="#858585"></path><path d="M34.5703 50.6406C34.5703 50.6406 36.5391 51.9336 39.8398 50.8242C44.3516 49.3086 47.6602 45.918 51.7578 41.6367C55.7109 37.5039 59.0273 32.375 59.0273 32.375L56.7031 24.5898L34.5703 50.6406Z" fill="#437687"></path><path d="M41.5586 46.3789L42.1016 44.6914L43.4609 44.8828C43.4609 44.8828 44.4961 45.3711 45.2578 45.7266C46.0195 46.082 47 46.3516 47 46.3516L45.0664 47.9844C45.0664 47.9844 44.0117 47.5859 43.2422 47.25C42.375 46.8711 41.5586 46.3789 41.5586 46.3789Z" fill="#3F545F"></path><path d="M47.9375 21.3047C47.9375 21.3047 44.1797 23.4844 38.793 28.582C33.9375 33.1758 30.3398 37.332 29.4687 40.8672C28.7422 43.8281 29.1289 45.625 30.7812 47.5664C32.5273 49.6211 34.5742 50.6406 34.5742 50.6406C34.5742 50.6406 36.1133 50.6641 42.5352 45.7227C50.5469 39.5547 56.9648 29.2266 56.9648 29.2266L47.9375 21.3047Z" fill="#8DAFBF"></path><path d="M55.6953 31.3445C55.6953 31.3445 52.4258 29.95 50.0938 26.6961C47.7774 23.4656 47.961 21.282 47.961 21.282C47.961 21.282 49.8985 19.7625 54.2539 18.0242C57.1836 16.8562 61.1719 16.2586 62.4844 17.2312C63.7969 18.2039 61.586 23.0828 61.586 23.0828L57.5586 30.8797L55.6953 31.3445Z" fill="#D83F22"></path><path d="M41.6289 46.4062C41.6289 46.4062 38.8047 44.9648 37.0078 42.9141C33.6094 39.043 32.9062 34.793 32.9062 34.793L34.6133 32.7891C34.6133 32.7891 35.0391 37.3047 38.6836 41.207C41.0586 43.75 43.5391 44.9141 43.5391 44.9141C43.5391 44.9141 43.043 45.332 42.5117 45.7383C42.1719 46 41.6289 46.4062 41.6289 46.4062Z" fill="#6896A5"></path><path d="M59.0273 32.375C59.0273 32.375 60.7227 30.332 62.3281 25.7266C64.5703 19.3047 62.6172 17.3594 62.6172 17.3594C62.6172 17.3594 61.957 20.4141 59.6641 24.6602C57.8242 28.0625 55.5977 31.3008 55.5977 31.3008C55.5977 31.3008 56.8242 31.8516 57.4883 32.043C58.3242 32.2852 59.0273 32.375 59.0273 32.375Z" fill="#A02422"></path><path d="M49.9961 30.3321C47.8203 28.3282 44.793 28.8673 43.3008 30.6485C41.7695 32.4845 41.8828 35.2891 43.6914 36.9766C45.3359 38.5079 48.3945 38.8555 50.2383 36.7071C51.8789 34.8009 51.7773 31.9688 49.9961 30.3321Z" fill="#E1E1E1"></path><path d="M44.4258 31.3554C43.1328 32.6249 43.2031 35.1405 44.7422 36.289C46.0859 37.2929 47.9922 37.2421 49.1875 36.0194C50.3828 34.7968 50.3828 32.5741 49.2617 31.4257C47.9727 30.1093 45.9062 29.9023 44.4258 31.3554Z" fill="#3F545F"></path><path d="M34.5314 45.0357C34.5314 45.0357 36.9494 42.5826 37.215 42.8482C37.4806 43.1139 37.4455 44.6021 36.2892 46.2584C35.1291 47.9146 32.5783 50.8639 30.5587 52.8521C28.5666 54.8092 25.758 57.0475 25.4923 57.0084C25.2853 56.9771 24.4455 56.5592 24.1095 56.1529C23.7814 55.7506 24.7619 53.8482 25.1564 53.2193C25.5548 52.5904 34.5314 45.0357 34.5314 45.0357Z" fill="#A02524"></path><path d="M23.293 54.7851C23.2617 55.3476 24.1211 56.1679 24.1211 56.1679L37.2148 42.8515C37.2148 42.8515 36.6016 42.1601 34.7969 43.2812C32.9766 44.414 31.3828 45.7734 29.0312 48.0507C25.7539 51.2304 23.3242 54.2226 23.293 54.7851Z" fill="#CA2C31"></path><path opacity="0.5" d="M31.0237 28.9261C30.6955 29.2894 30.801 29.8284 31.1057 30.0277C31.4104 30.2269 31.8674 30.2074 32.0901 29.9339C32.2893 29.6878 32.3127 29.1956 32.008 28.8909C31.7424 28.6292 31.2346 28.6917 31.0237 28.9261Z" fill="white"></path></svg>