<svg width="44" height="44" viewBox="0 0 44 44" fill="none" xmlns="http://www.w3.org/2000/svg">
<g clip-path="url(#clip0_1277_14652)">
<path fill-rule="evenodd" clip-rule="evenodd" d="M24.2002 2C25.3104 1.99965 26.3797 2.42313 27.1938 3.18555C28.0078 3.94797 28.5065 4.99299 28.5897 6.11111L28.6007 6.44444V37.5556H30.801V16.4444C30.8009 16.1844 30.8911 15.9325 31.056 15.7328C31.2208 15.533 31.4498 15.3979 31.7031 15.3511L31.9011 15.3333H35.2015C36.3117 15.333 37.381 15.7565 38.195 16.5189C39.009 17.2813 39.5077 18.3263 39.591 19.4444L39.6019 19.7778V37.5556H41.8022C42.363 37.5562 42.9024 37.7731 43.3102 38.1619C43.718 38.5507 43.9633 39.0821 43.9962 39.6475C44.0291 40.213 43.8469 40.7697 43.487 41.2041C43.1271 41.6384 42.6165 41.9175 42.0596 41.9844L41.8022 42H2.19781C1.63701 41.9994 1.09761 41.7825 0.689829 41.3937C0.282044 41.0049 0.0366498 40.4734 0.0037845 39.908C-0.0290808 39.3426 0.153064 38.7858 0.513002 38.3515C0.872941 37.9171 1.3835 37.638 1.94038 37.5711L2.19781 37.5556H4.39805V6.44444C4.3977 5.32316 4.81699 4.24319 5.57187 3.421C6.32676 2.59882 7.36144 2.09521 8.4685 2.01111L8.79854 2H24.2002ZM19.7998 28.6667H13.199V33.1111H19.7998V28.6667ZM19.7998 19.7778H13.199V24.2222H19.7998V19.7778ZM19.7998 10.8889H13.199V15.3333H19.7998V10.8889Z" fill="#F15056"/>
</g>
<defs>
<clipPath id="clip0_1277_14652">
<rect width="44" height="44" fill="white"/>
</clipPath>
</defs>
</svg>
