<svg xmlns="http://www.w3.org/2000/svg" width="45" height="44" viewBox="0 0 45 44" fill="none"><path d="M42.3836 16.5119L23.8917 0.451694C23.0698 -0.150565 22.0425 -0.150565 21.2206 0.451694L2.72866 16.5119C1.9068 17.3149 1.70133 18.5194 2.5232 19.3225C3.34506 20.1255 4.57786 20.3262 5.39972 19.5232L6.01612 18.7202V37.9925C6.01612 39.197 6.83798 40 8.07078 40H36.836C38.0688 40 38.8907 39.197 38.8907 37.9925V18.7202L39.5071 19.3225C40.3289 20.1255 41.5617 19.9247 42.3836 19.1217C43.2055 18.5194 43.2055 17.1142 42.3836 16.5119ZM26.5627 25.9473H24.5081V27.9548C24.5081 29.1593 23.6862 29.9624 22.4534 29.9624C21.2206 29.9624 20.3987 29.1593 20.3987 27.9548V25.9473H18.3441C17.1113 25.9473 16.2894 25.1443 16.2894 23.9398C16.2894 22.7353 17.1113 21.9322 18.3441 21.9322H20.3987V19.9247C20.3987 18.7202 21.2206 17.9172 22.4534 17.9172C23.6862 17.9172 24.5081 18.7202 24.5081 19.9247V21.9322H26.5627C27.7955 21.9322 28.6174 22.7353 28.6174 23.9398C28.6174 25.1443 27.7955 25.9473 26.5627 25.9473Z" fill="#F15056"></path></svg>