<svg width="44" height="40" viewBox="0 0 44 40" fill="none" xmlns="http://www.w3.org/2000/svg">
<path d="M27.5185 18.952L23.2474 27.4941C22.7317 28.534 21.2364 28.4996 20.7638 27.4426L15.8739 16.5887L13.2958 22.7504H5.20909L20.8927 38.7777C21.5028 39.4051 22.4911 39.4051 23.1013 38.7777L38.7935 22.7504H29.4177L27.5185 18.952ZM40.7099 4.35117L40.5036 4.13633C36.0778 -0.383985 28.8333 -0.383985 24.3989 4.13633L22.0013 6.59414L19.6036 4.14492C15.1778 -0.383985 7.92471 -0.383985 3.49893 4.14492L3.29268 4.35117C-0.892473 8.63086 -1.07294 15.4457 2.66534 20.0004H11.4653L14.5505 12.5926C15.0146 11.484 16.5786 11.4582 17.0771 12.5582L22.0786 23.6699L26.2896 15.2566C26.7966 14.2426 28.2403 14.2426 28.7474 15.2566L31.1192 20.0004H41.3372C45.0755 15.4457 44.895 8.63086 40.7099 4.35117Z" fill="#F15056"/>
</svg>
