<svg width="30" height="38" viewBox="0 0 30 38" fill="none" xmlns="http://www.w3.org/2000/svg">
<path d="M16.997 3.04032C20.5244 4.78198 23.2707 6.13865 27.029 4.30898C27.3087 4.17274 27.6184 4.10988 27.929 4.12634C28.2396 4.14279 28.541 4.23802 28.8047 4.40305C29.0683 4.56808 29.2857 4.79749 29.4363 5.06968C29.5868 5.34188 29.6657 5.64792 29.6654 5.95898V23.449C29.6657 23.793 29.5693 24.1301 29.3871 24.4219C29.2049 24.7137 28.9443 24.9483 28.635 25.099C23.1699 27.7573 18.768 25.539 15.3434 23.8138C14.965 23.621 14.5848 23.4315 14.203 23.2455C12.3092 22.3343 10.7435 21.7568 9.15036 21.8338C7.75703 21.8998 6.08503 22.4883 3.9987 24.3932V35.5013C3.9987 35.9875 3.80554 36.4539 3.46173 36.7977C3.11791 37.1415 2.65159 37.3347 2.16536 37.3347C1.67913 37.3347 1.21282 37.1415 0.869002 36.7977C0.525186 36.4539 0.332031 35.9875 0.332031 35.5013V6.11482C0.33232 5.87264 0.380586 5.63292 0.474044 5.4095C0.567501 5.18609 0.704297 4.9834 0.876531 4.81315C3.66686 2.05215 6.31603 0.807317 8.97436 0.678983C11.5539 0.554317 13.8382 1.50948 15.7944 2.45182C16.2069 2.64982 16.6065 2.84782 16.9952 3.03848L16.997 3.04032Z" fill="#F15056"/>
</svg>
