<svg width="8" height="14" viewBox="0 0 8 14" fill="none" xmlns="http://www.w3.org/2000/svg">
<path d="M5.50105 7.00282L1.18859 2.14196C1.04199 1.97674 0.966993 1.76905 0.963605 1.51889C0.9602 1.26875 1.0352 1.05724 1.18859 0.884356C1.34198 0.711452 1.52793 0.625 1.74646 0.625C1.96499 0.625 2.15095 0.711452 2.30433 0.884356L7.06269 6.24778C7.16179 6.35946 7.2317 6.47727 7.2724 6.60121C7.31313 6.72512 7.3335 6.85899 7.3335 7.00282C7.3335 7.14664 7.31313 7.28051 7.2724 7.40443C7.2317 7.52836 7.16179 7.64617 7.06269 7.75785L2.30433 13.1213C2.15774 13.2865 1.97348 13.3711 1.75154 13.3749C1.52962 13.3787 1.34198 13.2942 1.18859 13.1213C1.0352 12.9484 0.958496 12.7388 0.958496 12.4925C0.958496 12.2462 1.0352 12.0366 1.18859 11.8637L5.50105 7.00282Z" fill="#1B95FD"/>
</svg>
