<svg width="40" height="44" viewBox="0 0 40 44" fill="none" xmlns="http://www.w3.org/2000/svg">
<path d="M36.5 16.5019C34.9875 16.5019 33.75 17.7395 33.75 19.2519V30.2519C33.75 31.7644 34.9875 33.0019 36.5 33.0019C38.0125 33.0019 39.25 31.7644 39.25 30.2519V19.2519C39.25 17.7395 38.0125 16.5019 36.5 16.5019ZM3.5 16.5019C1.9875 16.5019 0.75 17.7395 0.75 19.2519V30.2519C0.75 31.7644 1.9875 33.0019 3.5 33.0019C5.0125 33.0019 6.25 31.7644 6.25 30.2519V19.2519C6.25 17.7395 5.0125 16.5019 3.5 16.5019ZM7.625 31.6269C7.625 32.721 8.0596 33.7702 8.83318 34.5438C9.60677 35.3174 10.656 35.7519 11.75 35.7519V41.2519C11.75 42.7645 12.9875 44.002 14.5 44.002C16.0125 44.002 17.25 42.7645 17.25 41.2519V35.7519H22.75V41.2519C22.75 42.7645 23.9875 44.002 25.5 44.002C27.0125 44.002 28.25 42.7645 28.25 41.2519V35.7519C29.344 35.7519 30.3932 35.3174 31.1668 34.5438C31.9404 33.7702 32.375 32.721 32.375 31.6269V16.5019H7.625V31.6269ZM32.298 13.752C32.0943 11.9318 31.4891 10.1795 30.5261 8.6216C29.5631 7.06367 28.2663 5.73893 26.7292 4.74295L28.1042 1.9902C28.2673 1.66382 28.2939 1.28605 28.1784 0.939997C28.0629 0.593945 27.8146 0.307958 27.4882 0.144949C27.1619 -0.0180592 26.7841 -0.0447367 26.438 0.0707857C26.092 0.186308 25.806 0.434567 25.643 0.760949L24.2625 3.52195L23.905 3.37895C21.3698 2.53671 18.6302 2.53671 16.095 3.37895L15.7375 3.52195L14.357 0.760949C14.194 0.434567 13.908 0.186308 13.562 0.0707857C13.2159 -0.0447367 12.8381 -0.0180592 12.5118 0.144949C12.1854 0.307958 11.9371 0.593945 11.8216 0.939997C11.7061 1.28605 11.7327 1.66382 11.8958 1.9902L13.2708 4.74295C11.7336 5.73878 10.4367 7.06349 9.47363 8.62144C8.51061 10.1794 7.90551 11.9317 7.702 13.752V15.127H32.375V13.752H32.298ZM15.875 11.002C15.5103 11.0023 15.1604 10.8578 14.9023 10.6002C14.6442 10.3426 14.499 9.993 14.4986 9.62832C14.4983 9.26365 14.6428 8.91377 14.9004 8.65565C15.158 8.39753 15.5076 8.25231 15.8723 8.25195H15.8777C16.2424 8.25231 16.592 8.39753 16.8496 8.65565C17.1072 8.91377 17.2517 9.26365 17.2514 9.62832C17.251 9.993 17.1058 10.3426 16.8477 10.6002C16.5896 10.8578 16.2397 11.0023 15.875 11.002ZM24.125 11.002C23.7603 11.0023 23.4104 10.8578 23.1523 10.6002C22.8942 10.3426 22.749 9.993 22.7486 9.62832C22.7483 9.26365 22.8928 8.91377 23.1504 8.65565C23.408 8.39753 23.7576 8.25231 24.1222 8.25195H24.1305C24.4952 8.25231 24.8448 8.39753 25.1024 8.65565C25.36 8.91377 25.5045 9.26365 25.5041 9.62832C25.5038 9.993 25.3585 10.3426 25.1004 10.6002C24.8423 10.8578 24.4924 11.0023 24.1278 11.002H24.125Z" fill="#F15056"/>
</svg>
