<svg width="44" height="44" viewBox="0 0 44 44" fill="none" xmlns="http://www.w3.org/2000/svg">
<path d="M6.87556 1.375C6.87556 1.01033 7.02042 0.660591 7.27828 0.402728C7.53615 0.144866 7.88588 0 8.25056 0L35.7506 0C36.1152 0 36.465 0.144866 36.7228 0.402728C36.9807 0.660591 37.1256 1.01033 37.1256 1.375C37.1256 2.8545 37.0944 4.2625 37.0321 5.599C38.1187 5.77893 39.1583 6.17463 40.0895 6.76275C41.0208 7.35086 41.8248 8.1195 42.4543 9.02332C43.0837 9.92715 43.5258 10.9479 43.7545 12.0253C43.9832 13.1027 43.9938 14.215 43.7858 15.2966C43.5777 16.3781 43.1552 17.4071 42.5431 18.3228C41.931 19.2385 41.1418 20.0223 40.222 20.6281C39.3021 21.2339 38.2703 21.6494 37.1873 21.8501C36.1043 22.0508 34.9921 22.0325 33.9163 21.7965C31.7438 26.9253 28.7518 29.4333 26.1256 30.0768V36.0525L30.0443 37.0315C30.5778 37.1635 31.0811 37.4027 31.5211 37.7327L36.5756 41.525C36.8064 41.6982 36.977 41.9396 37.063 42.215C37.1491 42.4905 37.1463 42.786 37.055 43.0598C36.9637 43.3336 36.7886 43.5717 36.5545 43.7405C36.3204 43.9092 36.0391 44 35.7506 44H8.25056C7.96197 44 7.68069 43.9092 7.44658 43.7405C7.21246 43.5717 7.03738 43.3336 6.94612 43.0598C6.85486 42.786 6.85205 42.4905 6.9381 42.215C7.02415 41.9396 7.19468 41.6982 7.42556 41.525L12.4801 37.7327C12.9201 37.4027 13.4233 37.1635 13.9568 37.0315L17.8756 36.0525V30.0768C15.2493 29.4333 12.2573 26.9253 10.0848 21.7938C9.00842 22.0311 7.89539 22.0503 6.81146 21.8502C5.72752 21.6502 4.69466 21.235 3.77387 20.6292C2.85307 20.0233 2.06302 19.2391 1.45037 18.3228C0.837722 17.4065 0.414896 16.3767 0.206864 15.2943C-0.0011677 14.2119 0.00981366 13.0987 0.23916 12.0206C0.468506 10.9425 0.911566 9.92129 1.54217 9.01726C2.17278 8.11324 2.97815 7.34475 3.91072 6.75717C4.84328 6.1696 5.88414 5.77485 6.97181 5.59625C6.90699 4.1901 6.8749 2.78264 6.87556 1.375ZM7.14781 8.36C5.71282 8.62256 4.44091 9.44442 3.61188 10.6448C2.78285 11.8451 2.46462 13.3256 2.72718 14.7606C2.98974 16.1956 3.8116 17.4675 5.01195 18.2966C6.2123 19.1256 7.69282 19.4438 9.12781 19.1812C8.21206 16.2938 7.51081 12.7297 7.14781 8.36ZM34.8761 19.1812C36.311 19.4438 37.7916 19.1256 38.9919 18.2966C40.1923 17.4675 41.0141 16.1956 41.2767 14.7606C41.5392 13.3256 41.221 11.8451 40.392 10.6448C39.563 9.44442 38.291 8.62256 36.8561 8.36C36.4903 12.7325 35.7891 16.2938 34.8761 19.1812Z" fill="#F15056"/>
</svg>
