<svg width="42" height="38" viewBox="0 0 42 38" fill="none" xmlns="http://www.w3.org/2000/svg">
<path d="M38.1818 34.2H42V38H0V34.2H3.81818V1.9C3.81818 1.39609 4.01932 0.912816 4.37734 0.556497C4.73537 0.200178 5.22095 0 5.72727 0H36.2727C36.779 0 37.2646 0.200178 37.6227 0.556497C37.9807 0.912816 38.1818 1.39609 38.1818 1.9V34.2ZM19.0909 11.4H15.2727V15.2H19.0909V19H22.9091V15.2H26.7273V11.4H22.9091V7.6H19.0909V11.4ZM24.8182 34.2H28.6364V22.8H13.3636V34.2H17.1818V26.6H24.8182V34.2Z" fill="#F15056"/>
</svg>
