<svg xmlns="http://www.w3.org/2000/svg" width="70" height="70" viewBox="0 0 70 70" fill="none"><rect width="70" height="70" rx="6" fill="#FFE3E4"></rect><path d="M30.3639 49.2651C27.7655 48.2866 25.4965 46.5938 23.8184 44.3818C22.1402 42.1698 21.1213 39.5287 20.8789 36.7628H27.1789C27.1549 41.1339 28.2514 45.4382 30.3639 49.2651ZM41.3087 36.7628C41.0433 44.7326 38.1383 50.1911 35.5147 50.1911C32.8897 50.1911 29.9862 44.7326 29.7193 36.7628H41.3087ZM50.1214 36.7628C49.886 39.5329 48.868 42.179 47.186 44.3926C45.5041 46.6061 43.2275 48.296 40.6218 49.2651C42.7459 45.4422 43.8479 41.136 43.8214 36.7628H50.1214ZM50.1214 34.2369H43.8214C43.8506 29.8619 42.7495 25.5569 40.6218 21.7346C43.2276 22.7035 45.5043 24.3933 47.1863 26.607C48.8682 28.8206 49.8862 31.4668 50.1214 34.2369ZM41.3087 34.2369H29.7193C29.9862 26.2526 32.8897 20.8086 35.5147 20.8086C38.1383 20.8086 41.0287 26.2526 41.3087 34.2369ZM30.3639 21.8061C28.2482 25.6311 27.1514 29.9359 27.1789 34.3069H20.8789C21.1166 31.5398 22.1338 28.8966 23.8126 26.6841C25.4914 24.4715 27.7629 22.7801 30.3639 21.8061Z" fill="#F15056"></path></svg>