<svg width="328" height="95" viewBox="0 0 328 95" fill="none" xmlns="http://www.w3.org/2000/svg">
<rect width="100" height="95" rx="12" fill="#F5F5F5"/>
<g clip-path="url(#clip0_3761_42534)">
<path fill-rule="evenodd" clip-rule="evenodd" d="M51.2001 15.0898C51.8057 15.0897 52.3889 15.3206 52.833 15.7365C53.277 16.1524 53.549 16.7224 53.5944 17.3323L53.6004 17.5141V34.4838H54.8005V22.9686C54.8005 22.8268 54.8497 22.6894 54.9396 22.5804C55.0295 22.4715 55.1544 22.3978 55.2926 22.3723L55.4006 22.3626H57.2008C57.8064 22.3624 58.3896 22.5934 58.8336 23.0092C59.2777 23.4251 59.5496 23.9951 59.5951 24.605L59.6011 24.7868V34.4838H60.8012C61.1071 34.4841 61.4013 34.6024 61.6237 34.8145C61.8462 35.0266 61.98 35.3165 61.9979 35.6249C62.0159 35.9333 61.9165 36.237 61.7202 36.4739C61.5239 36.7108 61.2454 36.8631 60.9416 36.8995L60.8012 36.908H39.1988C38.8929 36.9077 38.5987 36.7894 38.3763 36.5773C38.1538 36.3652 38.02 36.0754 38.0021 35.7669C37.9841 35.4585 38.0835 35.1548 38.2798 34.9179C38.4761 34.681 38.7546 34.5288 39.0584 34.4923L39.1988 34.4838H40.3989V17.5141C40.3987 16.9025 40.6274 16.3134 41.0392 15.8649C41.451 15.4165 42.0153 15.1418 42.6192 15.0959L42.7992 15.0898H51.2001ZM48.7999 29.6353H45.1995V32.0595H48.7999V29.6353ZM48.7999 24.7868H45.1995V27.2111H48.7999V24.7868ZM48.7999 19.9383H45.1995V22.3626H48.7999V19.9383Z" fill="#F15056"/>
</g>
<path d="M33.0349 61L37.6429 51.608L39.9629 51.416L35.4669 61H33.0349ZM32.0749 51.8V49.8H39.9629V51.416L37.7389 51.8H32.0749ZM45.1255 61.192C44.6135 61.192 44.0855 61.1067 43.5415 60.936C43.0082 60.7653 42.5228 60.5093 42.0855 60.168C41.6588 59.8267 41.3442 59.4053 41.1415 58.904L43.1415 58.312C43.3762 58.6533 43.6535 58.904 43.9735 59.064C44.3042 59.224 44.6455 59.304 44.9975 59.304C45.5522 59.304 46.0002 59.1387 46.3415 58.808C46.6935 58.4667 46.8695 58.0133 46.8695 57.448C46.8695 56.9253 46.6988 56.488 46.3575 56.136C46.0268 55.784 45.5842 55.608 45.0295 55.608C44.6988 55.608 44.3948 55.6827 44.1175 55.832C43.8402 55.9813 43.6268 56.1573 43.4775 56.36L41.5095 55.928L42.1815 49.8H48.5175V51.784H44.0535L43.7335 54.472C44.0215 54.312 44.3415 54.184 44.6935 54.088C45.0455 53.9813 45.4242 53.9333 45.8295 53.944C46.4375 53.944 46.9922 54.0933 47.4935 54.392C47.9948 54.68 48.3895 55.08 48.6775 55.592C48.9762 56.0933 49.1255 56.68 49.1255 57.352C49.1255 58.1093 48.9548 58.776 48.6135 59.352C48.2722 59.928 47.8028 60.3813 47.2055 60.712C46.6082 61.032 45.9148 61.192 45.1255 61.192ZM52.6624 58.968L51.3984 57.512L55.4944 53H58.0064L52.6624 58.968ZM50.6464 61V49.8H52.7584V61H50.6464ZM55.7664 61L53.1104 57.128L54.4864 55.672L58.2464 61H55.7664ZM62.5518 59.928V52.536H64.2638V59.928H62.5518ZM59.7038 57.096V55.384H67.0958V57.096H59.7038Z" fill="#22272B"/>
<path d="M14.5493 78L11.1773 69.6H12.1973L15.6173 78H14.5493ZM7.72128 78L11.1413 69.6H12.1733L8.80128 78H7.72128ZM9.34128 75.612V74.7H14.0093V75.612H9.34128ZM16.6344 80.4V72H17.5344L17.5944 73.104V80.4H16.6344ZM19.6224 78.144C19.1184 78.144 18.6744 78.012 18.2904 77.748C17.9144 77.484 17.6224 77.116 17.4144 76.644C17.2064 76.164 17.1024 75.616 17.1024 75C17.1024 74.376 17.2064 73.828 17.4144 73.356C17.6224 72.884 17.9144 72.516 18.2904 72.252C18.6744 71.988 19.1184 71.856 19.6224 71.856C20.1584 71.856 20.6304 71.988 21.0384 72.252C21.4464 72.516 21.7624 72.884 21.9864 73.356C22.2184 73.828 22.3344 74.376 22.3344 75C22.3344 75.616 22.2184 76.164 21.9864 76.644C21.7624 77.116 21.4464 77.484 21.0384 77.748C20.6304 78.012 20.1584 78.144 19.6224 78.144ZM19.4064 77.268C19.7824 77.268 20.1144 77.172 20.4024 76.98C20.6984 76.788 20.9304 76.52 21.0984 76.176C21.2744 75.832 21.3624 75.44 21.3624 75C21.3624 74.56 21.2784 74.168 21.1104 73.824C20.9504 73.48 20.7224 73.212 20.4264 73.02C20.1304 72.828 19.7944 72.732 19.4184 72.732C19.0664 72.732 18.7504 72.828 18.4704 73.02C18.1984 73.212 17.9824 73.48 17.8224 73.824C17.6704 74.168 17.5944 74.56 17.5944 75C17.5944 75.44 17.6704 75.832 17.8224 76.176C17.9824 76.52 18.1984 76.788 18.4704 76.98C18.7424 77.172 19.0544 77.268 19.4064 77.268ZM23.7242 80.4V72H24.6242L24.6842 73.104V80.4H23.7242ZM26.7122 78.144C26.2082 78.144 25.7642 78.012 25.3802 77.748C25.0042 77.484 24.7122 77.116 24.5042 76.644C24.2962 76.164 24.1922 75.616 24.1922 75C24.1922 74.376 24.2962 73.828 24.5042 73.356C24.7122 72.884 25.0042 72.516 25.3802 72.252C25.7642 71.988 26.2082 71.856 26.7122 71.856C27.2482 71.856 27.7202 71.988 28.1282 72.252C28.5362 72.516 28.8522 72.884 29.0762 73.356C29.3082 73.828 29.4242 74.376 29.4242 75C29.4242 75.616 29.3082 76.164 29.0762 76.644C28.8522 77.116 28.5362 77.484 28.1282 77.748C27.7202 78.012 27.2482 78.144 26.7122 78.144ZM26.4962 77.268C26.8722 77.268 27.2042 77.172 27.4922 76.98C27.7882 76.788 28.0202 76.52 28.1882 76.176C28.3642 75.832 28.4522 75.44 28.4522 75C28.4522 74.56 28.3682 74.168 28.2002 73.824C28.0402 73.48 27.8122 73.212 27.5162 73.02C27.2202 72.828 26.8842 72.732 26.5082 72.732C26.1562 72.732 25.8402 72.828 25.5602 73.02C25.2882 73.212 25.0722 73.48 24.9122 73.824C24.7602 74.168 24.6842 74.56 24.6842 75C24.6842 75.44 24.7602 75.832 24.9122 76.176C25.0722 76.52 25.2882 76.788 25.5602 76.98C25.8322 77.172 26.1442 77.268 26.4962 77.268ZM33.9949 78V69.6H36.5509C37.3429 69.6 38.0389 69.78 38.6389 70.14C39.2469 70.492 39.7229 70.984 40.0669 71.616C40.4109 72.248 40.5829 72.976 40.5829 73.8C40.5829 74.616 40.4109 75.34 40.0669 75.972C39.7229 76.604 39.2469 77.1 38.6389 77.46C38.0389 77.82 37.3429 78 36.5509 78H33.9949ZM35.0149 77.064H36.5509C36.9749 77.064 37.3669 76.984 37.7269 76.824C38.0869 76.656 38.4029 76.42 38.6749 76.116C38.9549 75.812 39.1709 75.464 39.3229 75.072C39.4829 74.672 39.5629 74.248 39.5629 73.8C39.5629 73.352 39.4829 72.932 39.3229 72.54C39.1709 72.14 38.9549 71.788 38.6749 71.484C38.4029 71.18 38.0869 70.948 37.7269 70.788C37.3669 70.62 36.9749 70.536 36.5509 70.536H35.0149V77.064ZM44.6326 78.144C44.0486 78.144 43.5286 78.012 43.0726 77.748C42.6246 77.476 42.2726 77.104 42.0166 76.632C41.7606 76.16 41.6326 75.616 41.6326 75C41.6326 74.384 41.7566 73.84 42.0046 73.368C42.2606 72.896 42.6126 72.528 43.0606 72.264C43.5166 71.992 44.0326 71.856 44.6086 71.856C45.2006 71.856 45.7206 71.992 46.1686 72.264C46.6246 72.528 46.9766 72.896 47.2246 73.368C47.4806 73.84 47.6086 74.384 47.6086 75C47.6086 75.616 47.4806 76.16 47.2246 76.632C46.9766 77.104 46.6286 77.476 46.1806 77.748C45.7326 78.012 45.2166 78.144 44.6326 78.144ZM44.6326 77.256C45.0326 77.256 45.3806 77.16 45.6766 76.968C45.9726 76.776 46.2046 76.512 46.3726 76.176C46.5486 75.84 46.6366 75.448 46.6366 75C46.6366 74.552 46.5486 74.16 46.3726 73.824C46.2046 73.488 45.9686 73.224 45.6646 73.032C45.3606 72.84 45.0086 72.744 44.6086 72.744C44.2166 72.744 43.8686 72.84 43.5646 73.032C43.2686 73.224 43.0326 73.488 42.8566 73.824C42.6886 74.16 42.6046 74.552 42.6046 75C42.6046 75.44 42.6886 75.832 42.8566 76.176C43.0326 76.512 43.2726 76.776 43.5766 76.968C43.8886 77.16 44.2406 77.256 44.6326 77.256ZM54.2372 78L56.2652 72H57.2372L55.1972 78H54.2372ZM50.1572 78L52.1852 72H53.0852L51.0812 78H50.1572ZM50.1092 78L48.0692 72H49.0412L51.0452 78H50.1092ZM54.2372 78L52.2332 72H53.1452L55.1492 78H54.2372ZM58.1994 78V72H59.0994L59.1594 73.104V78H58.1994ZM62.4114 78V74.928H63.3714V78H62.4114ZM62.4114 74.928C62.4114 74.336 62.3434 73.884 62.2074 73.572C62.0714 73.26 61.8834 73.048 61.6434 72.936C61.4034 72.816 61.1314 72.756 60.8274 72.756C60.2994 72.756 59.8874 72.944 59.5914 73.32C59.3034 73.688 59.1594 74.212 59.1594 74.892H58.6914C58.6914 74.26 58.7834 73.716 58.9674 73.26C59.1514 72.804 59.4194 72.456 59.7714 72.216C60.1234 71.976 60.5474 71.856 61.0434 71.856C61.5154 71.856 61.9234 71.952 62.2674 72.144C62.6194 72.328 62.8914 72.624 63.0834 73.032C63.2834 73.44 63.3794 73.976 63.3714 74.64V74.928H62.4114ZM64.8908 78V69.6H65.8508V78H64.8908ZM70.1795 78.144C69.5955 78.144 69.0755 78.012 68.6195 77.748C68.1715 77.476 67.8195 77.104 67.5635 76.632C67.3075 76.16 67.1795 75.616 67.1795 75C67.1795 74.384 67.3035 73.84 67.5515 73.368C67.8075 72.896 68.1595 72.528 68.6075 72.264C69.0635 71.992 69.5795 71.856 70.1555 71.856C70.7475 71.856 71.2675 71.992 71.7155 72.264C72.1715 72.528 72.5235 72.896 72.7715 73.368C73.0275 73.84 73.1555 74.384 73.1555 75C73.1555 75.616 73.0275 76.16 72.7715 76.632C72.5235 77.104 72.1755 77.476 71.7275 77.748C71.2795 78.012 70.7635 78.144 70.1795 78.144ZM70.1795 77.256C70.5795 77.256 70.9275 77.16 71.2235 76.968C71.5195 76.776 71.7515 76.512 71.9195 76.176C72.0955 75.84 72.1835 75.448 72.1835 75C72.1835 74.552 72.0955 74.16 71.9195 73.824C71.7515 73.488 71.5155 73.224 71.2115 73.032C70.9075 72.84 70.5555 72.744 70.1555 72.744C69.7635 72.744 69.4155 72.84 69.1115 73.032C68.8155 73.224 68.5795 73.488 68.4035 73.824C68.2355 74.16 68.1515 74.552 68.1515 75C68.1515 75.44 68.2355 75.832 68.4035 76.176C68.5795 76.512 68.8195 76.776 69.1235 76.968C69.4355 77.16 69.7875 77.256 70.1795 77.256ZM78.1844 78L78.1364 77.016V74.832C78.1364 74.36 78.0844 73.972 77.9804 73.668C77.8764 73.356 77.7124 73.12 77.4884 72.96C77.2644 72.8 76.9724 72.72 76.6124 72.72C76.2844 72.72 76.0004 72.788 75.7604 72.924C75.5284 73.052 75.3364 73.26 75.1844 73.548L74.3204 73.212C74.4724 72.932 74.6564 72.692 74.8724 72.492C75.0884 72.284 75.3404 72.128 75.6284 72.024C75.9164 71.912 76.2444 71.856 76.6124 71.856C77.1724 71.856 77.6324 71.968 77.9924 72.192C78.3604 72.408 78.6364 72.732 78.8204 73.164C79.0044 73.588 79.0924 74.116 79.0844 74.748L79.0724 78H78.1844ZM76.3844 78.144C75.6804 78.144 75.1284 77.984 74.7284 77.664C74.3364 77.336 74.1404 76.884 74.1404 76.308C74.1404 75.7 74.3404 75.236 74.7404 74.916C75.1484 74.588 75.7164 74.424 76.4444 74.424H78.1604V75.228H76.6604C76.1004 75.228 75.7004 75.32 75.4604 75.504C75.2284 75.688 75.1124 75.952 75.1124 76.296C75.1124 76.608 75.2284 76.856 75.4604 77.04C75.6924 77.216 76.0164 77.304 76.4324 77.304C76.7764 77.304 77.0764 77.232 77.3324 77.088C77.5884 76.936 77.7844 76.724 77.9204 76.452C78.0644 76.172 78.1364 75.844 78.1364 75.468H78.5444C78.5444 76.284 78.3604 76.936 77.9924 77.424C77.6244 77.904 77.0884 78.144 76.3844 78.144ZM85.0456 78L84.9976 76.884V69.6H85.9576V78H85.0456ZM82.9696 78.144C82.4336 78.144 81.9616 78.012 81.5536 77.748C81.1456 77.484 80.8256 77.116 80.5936 76.644C80.3696 76.164 80.2576 75.616 80.2576 75C80.2576 74.376 80.3696 73.828 80.5936 73.356C80.8256 72.884 81.1456 72.516 81.5536 72.252C81.9616 71.988 82.4336 71.856 82.9696 71.856C83.4736 71.856 83.9136 71.988 84.2896 72.252C84.6736 72.516 84.9696 72.884 85.1776 73.356C85.3856 73.828 85.4896 74.376 85.4896 75C85.4896 75.616 85.3856 76.164 85.1776 76.644C84.9696 77.116 84.6736 77.484 84.2896 77.748C83.9136 78.012 83.4736 78.144 82.9696 78.144ZM83.1856 77.268C83.5376 77.268 83.8496 77.172 84.1216 76.98C84.3936 76.788 84.6056 76.52 84.7576 76.176C84.9176 75.832 84.9976 75.44 84.9976 75C84.9976 74.56 84.9176 74.168 84.7576 73.824C84.6056 73.48 84.3936 73.212 84.1216 73.02C83.8496 72.828 83.5336 72.732 83.1736 72.732C82.7976 72.732 82.4616 72.828 82.1656 73.02C81.8776 73.212 81.6496 73.48 81.4816 73.824C81.3136 74.168 81.2296 74.56 81.2296 75C81.2296 75.44 81.3136 75.832 81.4816 76.176C81.6496 76.52 81.8816 76.788 82.1776 76.98C82.4736 77.172 82.8096 77.268 83.1856 77.268ZM89.7369 78.144C89.2969 78.144 88.9129 78.08 88.5849 77.952C88.2569 77.816 87.9809 77.64 87.7569 77.424C87.5409 77.208 87.3849 76.972 87.2889 76.716L88.1289 76.368C88.2649 76.64 88.4689 76.86 88.7409 77.028C89.0129 77.196 89.3129 77.28 89.6409 77.28C90.0169 77.28 90.3329 77.208 90.5889 77.064C90.8449 76.912 90.9729 76.7 90.9729 76.428C90.9729 76.18 90.8769 75.98 90.6849 75.828C90.5009 75.676 90.2249 75.552 89.8569 75.456L89.2809 75.3C88.7369 75.156 88.3129 74.94 88.0089 74.652C87.7049 74.356 87.5529 74.024 87.5529 73.656C87.5529 73.088 87.7369 72.648 88.1049 72.336C88.4809 72.016 89.0369 71.856 89.7729 71.856C90.1249 71.856 90.4449 71.908 90.7329 72.012C91.0209 72.116 91.2689 72.264 91.4769 72.456C91.6849 72.64 91.8369 72.86 91.9329 73.116L91.0929 73.488C90.9889 73.216 90.8169 73.02 90.5769 72.9C90.3369 72.78 90.0449 72.72 89.7009 72.72C89.3329 72.72 89.0449 72.8 88.8369 72.96C88.6289 73.112 88.5249 73.328 88.5249 73.608C88.5249 73.768 88.6089 73.92 88.7769 74.064C88.9529 74.2 89.2089 74.312 89.5449 74.4L90.1449 74.556C90.5369 74.652 90.8649 74.796 91.1289 74.988C91.3929 75.172 91.5929 75.384 91.7289 75.624C91.8649 75.864 91.9329 76.12 91.9329 76.392C91.9329 76.752 91.8369 77.064 91.6449 77.328C91.4529 77.592 91.1929 77.796 90.8649 77.94C90.5369 78.076 90.1609 78.144 89.7369 78.144Z" fill="#5C6062"/>
<rect x="114" width="100" height="95" rx="12" fill="#F5F5F5"/>
<g clip-path="url(#clip1_3761_42534)">
<path fill-rule="evenodd" clip-rule="evenodd" d="M165.2 15.0898C165.806 15.0897 166.389 15.3206 166.833 15.7365C167.277 16.1524 167.549 16.7224 167.594 17.3323L167.6 17.5141V34.4838H168.801V22.9686C168.8 22.8268 168.85 22.6894 168.94 22.5804C169.03 22.4715 169.154 22.3978 169.293 22.3723L169.401 22.3626H171.201C171.806 22.3624 172.39 22.5934 172.834 23.0092C173.278 23.4251 173.55 23.9951 173.595 24.605L173.601 24.7868V34.4838H174.801C175.107 34.4841 175.401 34.6024 175.624 34.8145C175.846 35.0266 175.98 35.3165 175.998 35.6249C176.016 35.9333 175.917 36.237 175.72 36.4739C175.524 36.7108 175.245 36.8631 174.942 36.8995L174.801 36.908H153.199C152.893 36.9077 152.599 36.7894 152.376 36.5773C152.154 36.3652 152.02 36.0754 152.002 35.7669C151.984 35.4585 152.083 35.1548 152.28 34.9179C152.476 34.681 152.755 34.5288 153.058 34.4923L153.199 34.4838H154.399V17.5141C154.399 16.9025 154.627 16.3134 155.039 15.8649C155.451 15.4165 156.015 15.1418 156.619 15.0959L156.799 15.0898H165.2ZM162.8 29.6353H159.199V32.0595H162.8V29.6353ZM162.8 24.7868H159.199V27.2111H162.8V24.7868ZM162.8 19.9383H159.199V22.3626H162.8V19.9383Z" fill="#F15056"/>
</g>
<path d="M149.941 61V59.384C149.941 59.0747 150.037 58.7333 150.229 58.36C150.421 57.9867 150.688 57.6133 151.029 57.24C151.37 56.8667 151.77 56.52 152.229 56.2L153.925 54.984C154.16 54.824 154.378 54.6427 154.581 54.44C154.794 54.2373 154.965 54.0187 155.093 53.784C155.232 53.5387 155.301 53.304 155.301 53.08C155.301 52.8027 155.232 52.552 155.093 52.328C154.965 52.104 154.773 51.928 154.517 51.8C154.261 51.672 153.946 51.608 153.573 51.608C153.253 51.608 152.965 51.672 152.709 51.8C152.464 51.928 152.261 52.0987 152.101 52.312C151.941 52.5253 151.829 52.7547 151.765 53L149.509 52.616C149.616 52.0827 149.845 51.5867 150.197 51.128C150.549 50.6693 151.008 50.3013 151.573 50.024C152.149 49.736 152.8 49.592 153.525 49.592C154.357 49.592 155.072 49.7413 155.669 50.04C156.266 50.3387 156.725 50.7493 157.045 51.272C157.376 51.784 157.541 52.3813 157.541 53.064C157.541 53.7573 157.349 54.376 156.965 54.92C156.592 55.4533 156.074 55.9547 155.413 56.424L153.893 57.528C153.584 57.7413 153.317 57.976 153.093 58.232C152.869 58.488 152.698 58.7707 152.581 59.08H157.685V61H149.941ZM163.575 61.192C162.668 61.192 161.868 60.9467 161.175 60.456C160.481 59.9547 159.937 59.272 159.543 58.408C159.148 57.5333 158.951 56.5307 158.951 55.4C158.951 54.2693 159.148 53.272 159.543 52.408C159.937 51.5333 160.476 50.8507 161.159 50.36C161.852 49.8587 162.652 49.608 163.559 49.608C164.465 49.608 165.265 49.8587 165.959 50.36C166.663 50.8507 167.212 51.5333 167.607 52.408C168.001 53.272 168.199 54.2693 168.199 55.4C168.199 56.5307 168.001 57.5333 167.607 58.408C167.212 59.272 166.668 59.9547 165.975 60.456C165.281 60.9467 164.481 61.192 163.575 61.192ZM163.575 59.208C164.055 59.208 164.481 59.048 164.855 58.728C165.239 58.3973 165.537 57.9493 165.751 57.384C165.964 56.808 166.071 56.1467 166.071 55.4C166.071 54.6533 165.964 53.992 165.751 53.416C165.537 52.84 165.239 52.392 164.855 52.072C164.481 51.7413 164.049 51.576 163.559 51.576C163.079 51.576 162.652 51.7413 162.279 52.072C161.905 52.392 161.612 52.84 161.399 53.416C161.196 53.992 161.095 54.6533 161.095 55.4C161.095 56.1467 161.196 56.808 161.399 57.384C161.612 57.9493 161.905 58.3973 162.279 58.728C162.663 59.048 163.095 59.208 163.575 59.208ZM172.974 59.928V52.536H174.686V59.928H172.974ZM170.126 57.096V55.384H177.518V57.096H170.126Z" fill="#22272B"/>
<path d="M145.745 78V69.6H146.753V78H145.745ZM139.973 78V69.6H140.993V78H139.973ZM140.873 74.136V73.212H145.961V74.136H140.873ZM151.361 78.144C150.777 78.144 150.257 78.012 149.801 77.748C149.353 77.476 149.001 77.104 148.745 76.632C148.489 76.16 148.361 75.616 148.361 75C148.361 74.384 148.485 73.84 148.733 73.368C148.989 72.896 149.341 72.528 149.789 72.264C150.245 71.992 150.761 71.856 151.337 71.856C151.929 71.856 152.449 71.992 152.897 72.264C153.353 72.528 153.705 72.896 153.953 73.368C154.209 73.84 154.337 74.384 154.337 75C154.337 75.616 154.209 76.16 153.953 76.632C153.705 77.104 153.357 77.476 152.909 77.748C152.461 78.012 151.945 78.144 151.361 78.144ZM151.361 77.256C151.761 77.256 152.109 77.16 152.405 76.968C152.701 76.776 152.933 76.512 153.101 76.176C153.277 75.84 153.365 75.448 153.365 75C153.365 74.552 153.277 74.16 153.101 73.824C152.933 73.488 152.697 73.224 152.393 73.032C152.089 72.84 151.737 72.744 151.337 72.744C150.945 72.744 150.597 72.84 150.293 73.032C149.997 73.224 149.761 73.488 149.585 73.824C149.417 74.16 149.333 74.552 149.333 75C149.333 75.44 149.417 75.832 149.585 76.176C149.761 76.512 150.001 76.776 150.305 76.968C150.617 77.16 150.969 77.256 151.361 77.256ZM157.77 78.144C157.33 78.144 156.946 78.08 156.618 77.952C156.29 77.816 156.014 77.64 155.79 77.424C155.574 77.208 155.418 76.972 155.322 76.716L156.162 76.368C156.298 76.64 156.502 76.86 156.774 77.028C157.046 77.196 157.346 77.28 157.674 77.28C158.05 77.28 158.366 77.208 158.622 77.064C158.878 76.912 159.006 76.7 159.006 76.428C159.006 76.18 158.91 75.98 158.718 75.828C158.534 75.676 158.258 75.552 157.89 75.456L157.314 75.3C156.77 75.156 156.346 74.94 156.042 74.652C155.738 74.356 155.586 74.024 155.586 73.656C155.586 73.088 155.77 72.648 156.138 72.336C156.514 72.016 157.07 71.856 157.806 71.856C158.158 71.856 158.478 71.908 158.766 72.012C159.054 72.116 159.302 72.264 159.51 72.456C159.718 72.64 159.87 72.86 159.966 73.116L159.126 73.488C159.022 73.216 158.85 73.02 158.61 72.9C158.37 72.78 158.078 72.72 157.734 72.72C157.366 72.72 157.078 72.8 156.87 72.96C156.662 73.112 156.558 73.328 156.558 73.608C156.558 73.768 156.642 73.92 156.81 74.064C156.986 74.2 157.242 74.312 157.578 74.4L158.178 74.556C158.57 74.652 158.898 74.796 159.162 74.988C159.426 75.172 159.626 75.384 159.762 75.624C159.898 75.864 159.966 76.12 159.966 76.392C159.966 76.752 159.87 77.064 159.678 77.328C159.486 77.592 159.226 77.796 158.898 77.94C158.57 78.076 158.194 78.144 157.77 78.144ZM161.32 80.4V72H162.22L162.28 73.104V80.4H161.32ZM164.308 78.144C163.804 78.144 163.36 78.012 162.976 77.748C162.6 77.484 162.308 77.116 162.1 76.644C161.892 76.164 161.788 75.616 161.788 75C161.788 74.376 161.892 73.828 162.1 73.356C162.308 72.884 162.6 72.516 162.976 72.252C163.36 71.988 163.804 71.856 164.308 71.856C164.844 71.856 165.316 71.988 165.724 72.252C166.132 72.516 166.448 72.884 166.672 73.356C166.904 73.828 167.02 74.376 167.02 75C167.02 75.616 166.904 76.164 166.672 76.644C166.448 77.116 166.132 77.484 165.724 77.748C165.316 78.012 164.844 78.144 164.308 78.144ZM164.092 77.268C164.468 77.268 164.8 77.172 165.088 76.98C165.384 76.788 165.616 76.52 165.784 76.176C165.96 75.832 166.048 75.44 166.048 75C166.048 74.56 165.964 74.168 165.796 73.824C165.636 73.48 165.408 73.212 165.112 73.02C164.816 72.828 164.48 72.732 164.104 72.732C163.752 72.732 163.436 72.828 163.156 73.02C162.884 73.212 162.668 73.48 162.508 73.824C162.356 74.168 162.28 74.56 162.28 75C162.28 75.44 162.356 75.832 162.508 76.176C162.668 76.52 162.884 76.788 163.156 76.98C163.428 77.172 163.74 77.268 164.092 77.268ZM168.41 78V72H169.37V78H168.41ZM168.902 70.608C168.742 70.608 168.602 70.548 168.482 70.428C168.362 70.308 168.302 70.168 168.302 70.008C168.302 69.84 168.362 69.7 168.482 69.588C168.602 69.468 168.742 69.408 168.902 69.408C169.07 69.408 169.21 69.468 169.322 69.588C169.442 69.7 169.502 69.84 169.502 70.008C169.502 70.168 169.442 70.308 169.322 70.428C169.21 70.548 169.07 70.608 168.902 70.608ZM173.395 78.144C172.811 78.144 172.359 77.992 172.039 77.688C171.719 77.384 171.559 76.956 171.559 76.404V70.128H172.519V76.308C172.519 76.612 172.599 76.848 172.759 77.016C172.927 77.176 173.159 77.256 173.455 77.256C173.551 77.256 173.643 77.244 173.731 77.22C173.827 77.188 173.951 77.116 174.103 77.004L174.475 77.784C174.267 77.92 174.079 78.012 173.911 78.06C173.743 78.116 173.571 78.144 173.395 78.144ZM170.515 72.852V72H174.319V72.852H170.515ZM179.335 78L179.287 77.016V74.832C179.287 74.36 179.235 73.972 179.131 73.668C179.027 73.356 178.863 73.12 178.639 72.96C178.415 72.8 178.123 72.72 177.763 72.72C177.435 72.72 177.151 72.788 176.911 72.924C176.679 73.052 176.487 73.26 176.335 73.548L175.471 73.212C175.623 72.932 175.807 72.692 176.023 72.492C176.239 72.284 176.491 72.128 176.779 72.024C177.067 71.912 177.395 71.856 177.763 71.856C178.323 71.856 178.783 71.968 179.143 72.192C179.511 72.408 179.787 72.732 179.971 73.164C180.155 73.588 180.243 74.116 180.235 74.748L180.223 78H179.335ZM177.535 78.144C176.831 78.144 176.279 77.984 175.879 77.664C175.487 77.336 175.291 76.884 175.291 76.308C175.291 75.7 175.491 75.236 175.891 74.916C176.299 74.588 176.867 74.424 177.595 74.424H179.311V75.228H177.811C177.251 75.228 176.851 75.32 176.611 75.504C176.379 75.688 176.263 75.952 176.263 76.296C176.263 76.608 176.379 76.856 176.611 77.04C176.843 77.216 177.167 77.304 177.583 77.304C177.927 77.304 178.227 77.232 178.483 77.088C178.739 76.936 178.935 76.724 179.071 76.452C179.215 76.172 179.287 75.844 179.287 75.468H179.695C179.695 76.284 179.511 76.936 179.143 77.424C178.775 77.904 178.239 78.144 177.535 78.144ZM181.756 78V69.6H182.716V78H181.756ZM186.493 78.144C186.053 78.144 185.669 78.08 185.341 77.952C185.013 77.816 184.737 77.64 184.513 77.424C184.297 77.208 184.141 76.972 184.045 76.716L184.885 76.368C185.021 76.64 185.225 76.86 185.497 77.028C185.769 77.196 186.069 77.28 186.397 77.28C186.773 77.28 187.089 77.208 187.345 77.064C187.601 76.912 187.729 76.7 187.729 76.428C187.729 76.18 187.633 75.98 187.441 75.828C187.257 75.676 186.981 75.552 186.613 75.456L186.037 75.3C185.493 75.156 185.069 74.94 184.765 74.652C184.461 74.356 184.309 74.024 184.309 73.656C184.309 73.088 184.493 72.648 184.861 72.336C185.237 72.016 185.793 71.856 186.529 71.856C186.881 71.856 187.201 71.908 187.489 72.012C187.777 72.116 188.025 72.264 188.233 72.456C188.441 72.64 188.593 72.86 188.689 73.116L187.849 73.488C187.745 73.216 187.573 73.02 187.333 72.9C187.093 72.78 186.801 72.72 186.457 72.72C186.089 72.72 185.801 72.8 185.593 72.96C185.385 73.112 185.281 73.328 185.281 73.608C185.281 73.768 185.365 73.92 185.533 74.064C185.709 74.2 185.965 74.312 186.301 74.4L186.901 74.556C187.293 74.652 187.621 74.796 187.885 74.988C188.149 75.172 188.349 75.384 188.485 75.624C188.621 75.864 188.689 76.12 188.689 76.392C188.689 76.752 188.593 77.064 188.401 77.328C188.209 77.592 187.949 77.796 187.621 77.94C187.293 78.076 186.917 78.144 186.493 78.144Z" fill="#5C6062"/>
<rect x="228" width="100" height="95" rx="12" fill="#F5F5F5"/>
<g clip-path="url(#clip2_3761_42534)">
<path fill-rule="evenodd" clip-rule="evenodd" d="M279.2 15.0898C279.806 15.0897 280.389 15.3206 280.833 15.7365C281.277 16.1524 281.549 16.7224 281.594 17.3323L281.6 17.5141V34.4838H282.801V22.9686C282.8 22.8268 282.85 22.6894 282.94 22.5804C283.03 22.4715 283.154 22.3978 283.293 22.3723L283.401 22.3626H285.201C285.806 22.3624 286.39 22.5934 286.834 23.0092C287.278 23.4251 287.55 23.9951 287.595 24.605L287.601 24.7868V34.4838H288.801C289.107 34.4841 289.401 34.6024 289.624 34.8145C289.846 35.0266 289.98 35.3165 289.998 35.6249C290.016 35.9333 289.917 36.237 289.72 36.4739C289.524 36.7108 289.245 36.8631 288.942 36.8995L288.801 36.908H267.199C266.893 36.9077 266.599 36.7894 266.376 36.5773C266.154 36.3652 266.02 36.0754 266.002 35.7669C265.984 35.4585 266.083 35.1548 266.28 34.9179C266.476 34.681 266.755 34.5288 267.058 34.4923L267.199 34.4838H268.399V17.5141C268.399 16.9025 268.627 16.3134 269.039 15.8649C269.451 15.4165 270.015 15.1418 270.619 15.0959L270.799 15.0898H279.2ZM276.8 29.6353H273.199V32.0595H276.8V29.6353ZM276.8 24.7868H273.199V27.2111H276.8V24.7868ZM276.8 19.9383H273.199V22.3626H276.8V19.9383Z" fill="#F15056"/>
</g>
<path d="M268.042 61V50.968L268.25 49.8H270.138V61H268.042ZM265.674 53.336V51.352C265.941 51.3733 266.229 51.3093 266.538 51.16C266.847 51 267.151 50.7973 267.45 50.552C267.759 50.296 268.026 50.04 268.25 49.784L269.642 51.144C269.258 51.5707 268.853 51.96 268.426 52.312C267.999 52.6533 267.557 52.92 267.098 53.112C266.65 53.304 266.175 53.3787 265.674 53.336ZM276.36 61.192C275.848 61.192 275.32 61.1067 274.776 60.936C274.243 60.7653 273.757 60.5093 273.32 60.168C272.893 59.8267 272.579 59.4053 272.376 58.904L274.376 58.312C274.611 58.6533 274.888 58.904 275.208 59.064C275.539 59.224 275.88 59.304 276.232 59.304C276.787 59.304 277.235 59.1387 277.576 58.808C277.928 58.4667 278.104 58.0133 278.104 57.448C278.104 56.9253 277.933 56.488 277.592 56.136C277.261 55.784 276.819 55.608 276.264 55.608C275.933 55.608 275.629 55.6827 275.352 55.832C275.075 55.9813 274.861 56.1573 274.712 56.36L272.744 55.928L273.416 49.8H279.752V51.784H275.288L274.968 54.472C275.256 54.312 275.576 54.184 275.928 54.088C276.28 53.9813 276.659 53.9333 277.064 53.944C277.672 53.944 278.227 54.0933 278.728 54.392C279.229 54.68 279.624 55.08 279.912 55.592C280.211 56.0933 280.36 56.68 280.36 57.352C280.36 58.1093 280.189 58.776 279.848 59.352C279.507 59.928 279.037 60.3813 278.44 60.712C277.843 61.032 277.149 61.192 276.36 61.192ZM285.177 59.928V52.536H286.889V59.928H285.177ZM282.329 57.096V55.384H289.721V57.096H282.329Z" fill="#22272B"/>
<path d="M256.4 78.144C255.6 78.144 254.892 77.96 254.276 77.592C253.66 77.216 253.176 76.704 252.824 76.056C252.472 75.4 252.296 74.648 252.296 73.8C252.296 72.952 252.468 72.204 252.812 71.556C253.164 70.9 253.644 70.388 254.252 70.02C254.868 69.644 255.572 69.456 256.364 69.456C256.868 69.456 257.352 69.548 257.816 69.732C258.28 69.908 258.696 70.16 259.064 70.488C259.432 70.808 259.716 71.18 259.916 71.604L259.04 72.048C258.88 71.712 258.66 71.42 258.38 71.172C258.1 70.924 257.788 70.732 257.444 70.596C257.1 70.452 256.74 70.38 256.364 70.38C255.78 70.38 255.256 70.528 254.792 70.824C254.328 71.112 253.964 71.512 253.7 72.024C253.444 72.536 253.316 73.128 253.316 73.8C253.316 74.472 253.448 75.068 253.712 75.588C253.976 76.108 254.34 76.516 254.804 76.812C255.276 77.1 255.808 77.244 256.4 77.244C256.784 77.244 257.148 77.168 257.492 77.016C257.836 76.856 258.144 76.64 258.416 76.368C258.696 76.096 258.916 75.784 259.076 75.432L259.964 75.876C259.756 76.316 259.468 76.708 259.1 77.052C258.74 77.396 258.324 77.664 257.852 77.856C257.388 78.048 256.904 78.144 256.4 78.144ZM263.885 78.144C263.301 78.144 262.781 78.012 262.325 77.748C261.877 77.476 261.525 77.104 261.269 76.632C261.013 76.16 260.885 75.616 260.885 75C260.885 74.384 261.009 73.84 261.257 73.368C261.513 72.896 261.865 72.528 262.313 72.264C262.769 71.992 263.285 71.856 263.861 71.856C264.453 71.856 264.973 71.992 265.421 72.264C265.877 72.528 266.229 72.896 266.477 73.368C266.733 73.84 266.861 74.384 266.861 75C266.861 75.616 266.733 76.16 266.477 76.632C266.229 77.104 265.881 77.476 265.433 77.748C264.985 78.012 264.469 78.144 263.885 78.144ZM263.885 77.256C264.285 77.256 264.633 77.16 264.929 76.968C265.225 76.776 265.457 76.512 265.625 76.176C265.801 75.84 265.889 75.448 265.889 75C265.889 74.552 265.801 74.16 265.625 73.824C265.457 73.488 265.221 73.224 264.917 73.032C264.613 72.84 264.261 72.744 263.861 72.744C263.469 72.744 263.121 72.84 262.817 73.032C262.521 73.224 262.285 73.488 262.109 73.824C261.941 74.16 261.857 74.552 261.857 75C261.857 75.44 261.941 75.832 262.109 76.176C262.285 76.512 262.525 76.776 262.829 76.968C263.141 77.16 263.493 77.256 263.885 77.256ZM272.31 78L272.25 76.896V72H273.21V78H272.31ZM268.038 75.072V72H268.998V75.072H268.038ZM268.998 75.072C268.998 75.664 269.066 76.116 269.202 76.428C269.338 76.74 269.526 76.956 269.766 77.076C270.014 77.188 270.29 77.244 270.594 77.244C271.114 77.244 271.518 77.056 271.806 76.68C272.102 76.304 272.25 75.78 272.25 75.108H272.718C272.718 75.74 272.626 76.284 272.442 76.74C272.258 77.196 271.99 77.544 271.638 77.784C271.294 78.024 270.87 78.144 270.366 78.144C269.902 78.144 269.494 78.052 269.142 77.868C268.79 77.676 268.518 77.376 268.326 76.968C268.134 76.552 268.038 76.016 268.038 75.36V75.072H268.998ZM274.885 78V72H275.785L275.845 73.104V78H274.885ZM279.097 78V74.928H280.057V78H279.097ZM279.097 74.928C279.097 74.336 279.029 73.884 278.893 73.572C278.757 73.26 278.569 73.048 278.329 72.936C278.089 72.816 277.817 72.756 277.513 72.756C276.985 72.756 276.573 72.944 276.277 73.32C275.989 73.688 275.845 74.212 275.845 74.892H275.377C275.377 74.26 275.469 73.716 275.653 73.26C275.837 72.804 276.105 72.456 276.457 72.216C276.809 71.976 277.233 71.856 277.729 71.856C278.201 71.856 278.609 71.952 278.953 72.144C279.305 72.328 279.577 72.624 279.769 73.032C279.969 73.44 280.065 73.976 280.057 74.64V74.928H279.097ZM283.832 78.144C283.248 78.144 282.796 77.992 282.476 77.688C282.156 77.384 281.996 76.956 281.996 76.404V70.128H282.956V76.308C282.956 76.612 283.036 76.848 283.196 77.016C283.364 77.176 283.596 77.256 283.892 77.256C283.988 77.256 284.08 77.244 284.168 77.22C284.264 77.188 284.388 77.116 284.54 77.004L284.912 77.784C284.704 77.92 284.516 78.012 284.348 78.06C284.18 78.116 284.008 78.144 283.832 78.144ZM280.952 72.852V72H284.756V72.852H280.952ZM286.639 74.748C286.639 74.1 286.763 73.576 287.011 73.176C287.259 72.768 287.575 72.468 287.959 72.276C288.351 72.076 288.763 71.976 289.195 71.976V72.876C288.843 72.876 288.503 72.936 288.175 73.056C287.855 73.168 287.591 73.356 287.383 73.62C287.175 73.884 287.071 74.244 287.071 74.7L286.639 74.748ZM286.111 78V72H287.071V78H286.111ZM290.226 78V72H291.186V78H290.226ZM290.718 70.608C290.558 70.608 290.418 70.548 290.298 70.428C290.178 70.308 290.118 70.168 290.118 70.008C290.118 69.84 290.178 69.7 290.298 69.588C290.418 69.468 290.558 69.408 290.718 69.408C290.886 69.408 291.026 69.468 291.138 69.588C291.258 69.7 291.318 69.84 291.318 70.008C291.318 70.168 291.258 70.308 291.138 70.428C291.026 70.548 290.886 70.608 290.718 70.608ZM295.583 78.144C294.999 78.144 294.483 78.012 294.035 77.748C293.587 77.476 293.235 77.104 292.979 76.632C292.731 76.16 292.607 75.616 292.607 75C292.607 74.384 292.731 73.84 292.979 73.368C293.235 72.896 293.583 72.528 294.023 72.264C294.471 71.992 294.983 71.856 295.559 71.856C296.119 71.856 296.603 71.996 297.011 72.276C297.419 72.548 297.735 72.932 297.959 73.428C298.183 73.924 298.295 74.508 298.295 75.18H293.339L293.579 74.976C293.579 75.456 293.663 75.868 293.831 76.212C294.007 76.556 294.251 76.82 294.563 77.004C294.875 77.18 295.231 77.268 295.631 77.268C296.055 77.268 296.411 77.168 296.699 76.968C296.995 76.768 297.223 76.504 297.383 76.176L298.211 76.596C298.059 76.908 297.855 77.18 297.599 77.412C297.351 77.644 297.055 77.824 296.711 77.952C296.375 78.08 295.999 78.144 295.583 78.144ZM293.639 74.568L293.387 74.376H297.527L297.275 74.58C297.275 74.196 297.199 73.864 297.047 73.584C296.895 73.304 296.691 73.088 296.435 72.936C296.179 72.784 295.883 72.708 295.547 72.708C295.219 72.708 294.907 72.784 294.611 72.936C294.323 73.088 294.087 73.304 293.903 73.584C293.727 73.856 293.639 74.184 293.639 74.568ZM301.606 78.144C301.166 78.144 300.782 78.08 300.454 77.952C300.126 77.816 299.85 77.64 299.626 77.424C299.41 77.208 299.254 76.972 299.158 76.716L299.998 76.368C300.134 76.64 300.338 76.86 300.61 77.028C300.882 77.196 301.182 77.28 301.51 77.28C301.886 77.28 302.202 77.208 302.458 77.064C302.714 76.912 302.842 76.7 302.842 76.428C302.842 76.18 302.746 75.98 302.554 75.828C302.37 75.676 302.094 75.552 301.726 75.456L301.15 75.3C300.606 75.156 300.182 74.94 299.878 74.652C299.574 74.356 299.422 74.024 299.422 73.656C299.422 73.088 299.606 72.648 299.974 72.336C300.35 72.016 300.906 71.856 301.642 71.856C301.994 71.856 302.314 71.908 302.602 72.012C302.89 72.116 303.138 72.264 303.346 72.456C303.554 72.64 303.706 72.86 303.802 73.116L302.962 73.488C302.858 73.216 302.686 73.02 302.446 72.9C302.206 72.78 301.914 72.72 301.57 72.72C301.202 72.72 300.914 72.8 300.706 72.96C300.498 73.112 300.394 73.328 300.394 73.608C300.394 73.768 300.478 73.92 300.646 74.064C300.822 74.2 301.078 74.312 301.414 74.4L302.014 74.556C302.406 74.652 302.734 74.796 302.998 74.988C303.262 75.172 303.462 75.384 303.598 75.624C303.734 75.864 303.802 76.12 303.802 76.392C303.802 76.752 303.706 77.064 303.514 77.328C303.322 77.592 303.062 77.796 302.734 77.94C302.406 78.076 302.03 78.144 301.606 78.144Z" fill="#5C6062"/>
<defs>
<clipPath id="clip0_3761_42534">
<rect width="24" height="24" fill="white" transform="translate(38 14)"/>
</clipPath>
<clipPath id="clip1_3761_42534">
<rect width="24" height="24" fill="white" transform="translate(152 14)"/>
</clipPath>
<clipPath id="clip2_3761_42534">
<rect width="24" height="24" fill="white" transform="translate(266 14)"/>
</clipPath>
</defs>
</svg>
