<svg xmlns="http://www.w3.org/2000/svg" width="70" height="70" viewBox="0 0 70 70" fill="none"><rect width="70" height="70" rx="6" fill="#FFE9E9"></rect><path d="M40.9687 35.5C39.5632 35.5 38.2042 34.8725 37.1406 33.7336C36.1063 32.6228 35.4746 31.1414 35.3632 29.5637C35.2443 27.8807 35.7576 26.333 36.8083 25.2051C37.859 24.0771 39.3281 23.4688 40.9687 23.4688C42.5977 23.4688 44.0708 24.0881 45.1181 25.2133C46.1756 26.3494 46.6904 27.8943 46.5714 29.563C46.4572 31.1428 45.8263 32.6234 44.7941 33.7329C43.7331 34.8725 42.3748 35.5 40.9687 35.5ZM49.9805 47.5312H31.9575C31.6678 47.5328 31.3815 47.4678 31.1208 47.3414C30.8601 47.2149 30.6318 47.0304 30.4536 46.8019C30.2646 46.5541 30.1341 46.2669 30.0718 45.9616C30.0096 45.6563 30.0172 45.3408 30.0941 45.0389C30.6696 42.7276 32.0956 40.8108 34.2175 39.4963C36.1008 38.3301 38.4982 37.6875 40.9687 37.6875C43.4877 37.6875 45.8222 38.3027 47.7164 39.4683C49.8431 40.776 51.2711 42.7037 51.844 45.043C51.9199 45.3451 51.9267 45.6606 51.8637 45.9657C51.8008 46.2709 51.6697 46.5579 51.4803 46.8053C51.3023 47.0327 51.0746 47.2164 50.8146 47.3422C50.5546 47.4681 50.2693 47.5327 49.9805 47.5312ZM28.0488 35.7734C25.6432 35.7734 23.5281 33.5367 23.332 30.788C23.2349 29.3798 23.6738 28.0775 24.5624 27.1226C25.4415 26.1771 26.6816 25.6562 28.0488 25.6562C29.4159 25.6562 30.6464 26.1799 31.5303 27.1308C32.4258 28.0933 32.8633 29.3928 32.7608 30.7894C32.5646 33.5374 30.4502 35.7734 28.0488 35.7734ZM32.5372 37.9233C31.3348 37.3355 29.7741 37.0415 28.0494 37.0415C26.0356 37.0415 24.0798 37.5665 22.5417 38.5194C20.7979 39.6016 19.6248 41.1772 19.1511 43.0797C19.0818 43.3533 19.0752 43.6391 19.1319 43.9156C19.1886 44.1922 19.3071 44.4523 19.4785 44.6766C19.6412 44.8854 19.8496 45.0541 20.0877 45.1698C20.3257 45.2854 20.5872 45.345 20.8519 45.3438H28.4398C28.5678 45.3437 28.6918 45.2988 28.7902 45.2167C28.8885 45.1346 28.9549 45.0206 28.9778 44.8946C28.9853 44.8516 28.9948 44.8085 29.0058 44.7661C29.5855 42.4378 30.9438 40.4704 32.9508 39.0362C33.0246 38.983 33.084 38.9122 33.1235 38.8303C33.1631 38.7483 33.1816 38.6578 33.1773 38.5669C33.173 38.476 33.1461 38.3876 33.0991 38.3097C33.052 38.2318 32.9862 38.1669 32.9077 38.1209C32.8004 38.058 32.6774 37.9917 32.5372 37.9233Z" fill="#F15056"></path></svg>