<svg xmlns="http://www.w3.org/2000/svg" width="70" height="70" viewBox="0 0 70 70" fill="none"><rect width="70" height="70" rx="6" fill="#FFE3E4"></rect><path d="M39.6413 41.7119C44.0455 42.5431 47.1663 44.6723 47.1663 47.166V50.0827H23.833V47.166C23.833 44.6723 26.9538 42.5431 31.358 41.7119L35.4997 48.6244L39.6413 41.7119ZM29.6663 29.666H41.333V32.5827C41.333 34.1298 40.7184 35.6135 39.6245 36.7075C38.5305 37.8015 37.0468 38.416 35.4997 38.416C33.9526 38.416 32.4688 37.8015 31.3749 36.7075C30.2809 35.6135 29.6663 34.1298 29.6663 32.5827V29.666ZM29.6663 28.2077L30.2643 22.2285C30.3005 21.8676 30.4701 21.5331 30.7397 21.2904C31.0094 21.0477 31.3598 20.9142 31.7226 20.916H39.2913C40.0351 20.916 40.6622 21.4848 40.7351 22.2285L41.333 28.2077H29.6663ZM35.4997 22.3744H34.0413V23.8327H32.583V25.291H34.0413V26.7494H35.4997V25.291H36.958V23.8327H35.4997V22.3744Z" fill="#F15056"></path></svg>