<svg xmlns="http://www.w3.org/2000/svg" width="1437" height="125" viewBox="0 0 1437 125" fill="none"><path d="M545.269 57.4922H257.07V60.4626H545.269V57.4922Z" fill="#CF292F"></path><path d="M470.189 33.0965C469.029 23.9795 464.519 11.5811 449.605 4.27935C433.026 -3.83796 420.112 1.10322 412.199 6.6758C406.862 10.4331 403.097 14.9127 401.002 17.7779C398.908 14.9103 395.14 10.4331 389.806 6.6758C381.892 1.10083 368.979 -3.83796 352.4 4.27935C337.488 11.5811 332.976 23.9795 331.816 33.0965C329.656 50.0798 337.414 69.8517 350.681 81.1786C367.797 95.7941 399.208 123.313 399.523 123.588C399.946 123.958 400.472 124.143 401 124.143C401.528 124.143 402.054 123.958 402.477 123.588C402.792 123.313 434.205 95.7941 451.319 81.1786C464.586 69.8517 472.344 50.0774 470.184 33.0965H470.189Z" fill="#CF292F"></path><path d="M359.213 60.4618C359.845 60.4618 360.407 60.0648 360.618 59.4717L362.962 52.555L369.175 82.1184C369.322 82.8167 369.953 83.3214 370.664 83.2974C371.38 83.2831 371.985 82.7641 372.105 82.061L378.976 41.6609L384.137 65.3002C384.277 65.9411 384.822 66.4147 385.48 66.4649C386.136 66.5127 386.748 66.1301 386.986 65.5178L390.944 55.2982L392.735 59.5602C392.968 60.1126 393.509 60.4714 394.111 60.4714H405.217C405.853 60.4714 406.42 60.0696 406.626 59.4693L408.985 52.6411L415.179 82.116C415.323 82.8048 415.933 83.2974 416.637 83.2974C416.646 83.2974 416.656 83.2974 416.665 83.2974C417.381 83.2831 417.986 82.7641 418.106 82.061L424.978 41.6609L430.139 65.3002C430.278 65.9411 430.823 66.4147 431.481 66.4649C432.137 66.5127 432.749 66.1301 432.987 65.5178L436.945 55.2982L438.737 59.5602C438.97 60.1126 439.51 60.4714 440.113 60.4714H466.053C466.461 59.4908 466.848 58.5006 467.203 57.5033H441.105L438.263 50.7445C438.031 50.192 437.488 49.8333 436.887 49.8333H436.866C436.258 49.8428 435.715 50.2183 435.497 50.7827L431.995 59.8232L426.253 33.5221C426.101 32.8261 425.479 32.3262 424.761 32.3526C424.048 32.3693 423.445 32.8883 423.325 33.589L416.483 73.8288L410.796 46.7576C410.659 46.1046 410.099 45.6215 409.429 45.5809C408.762 45.5378 408.144 45.9468 407.926 46.5806L404.153 57.5009H395.103L392.262 50.7421C392.029 50.1896 391.486 49.8309 390.886 49.8309H390.864C390.257 49.8404 389.714 50.2159 389.495 50.7827L385.996 59.8232L380.254 33.5221C380.103 32.8261 379.488 32.3262 378.762 32.3526C378.049 32.3693 377.446 32.8883 377.326 33.589L370.484 73.8288L364.797 46.7576C364.66 46.107 364.105 45.6239 363.438 45.5809C362.765 45.533 362.155 45.9396 361.932 46.5662L358.163 57.1709C358.163 57.1709 342.156 57.3598 334.793 57.4459C335.153 58.46 335.542 59.4645 335.958 60.457C343.309 60.457 359.218 60.457 359.218 60.457L359.213 60.4618Z" fill="white"></path><path d="M0 57L257 57.5V60.5L0 60V57Z" fill="#CF292F"></path><path d="M793 58L1437 58.5714V62L793 61.4286V58Z" fill="#CF292F"></path></svg>