<svg xmlns="http://www.w3.org/2000/svg" viewBox="0 0 513 122" width="420" height="100"><style>.a{fill:#1a8dff}</style><path fill-rule="evenodd" class="a" d="m499.6 45l3.8 5.4h-4.2l-3.2-4.7h-3.6v4.7h-3.9v-16.9h7.3c1.3-0.1 2.7 0.2 3.9 0.7 2.1 0.9 3.5 3.1 3.4 5.4 0.1 1.2-0.3 2.3-0.9 3.3-0.6 0.9-1.5 1.6-2.6 2.1zm-0.4-5.4c0-0.8-0.4-1.6-1-2.2-0.7-0.5-1.7-0.8-2.6-0.7h-3.2v5.9h3.2c0.9 0 1.9-0.3 2.6-0.8 0.6-0.6 1-1.4 1-2.2z"></path><path fill-rule="evenodd" class="a" d="m495.3 57.6c-8.6 0-15.7-7-15.7-15.7 0-8.6 7.1-15.7 15.7-15.7 8.7 0 15.7 7.1 15.7 15.7 0 8.7-7 15.7-15.7 15.7zm13.8-15.7c0-7.6-6.2-13.8-13.8-13.8-7.6 0-13.8 6.2-13.8 13.8 0 7.7 6.2 13.8 13.8 13.8 7.6 0 13.8-6.1 13.8-13.8z"></path><path class="a" d="m489 100.6h-41.4c2.2-0.9 4.3-1.6 5-4 0.7-2.4-0.7-4.1-1.9-5.8-3.5-5.5-7.2-10.9-10.6-16.4-1.5-2.3-2.3-2.7-4.1-0.2-6.6 9.5-13.3 18.9-20.3 28.1-5.8 7.8-12.9 13.8-23.1 14.9-2.3 0.2-4.7-0.1-6.8-0.9 13.2-1.6 18.9-12.2 25.7-21.3 6.8-9.2 13.4-18.5 20.3-27.7 1.5-1.5 1.5-4 0.1-5.5-5.8-8.7-11.4-17.4-17-26.1-2.7-5-7.5-8.5-13.1-9.5h40.6c-2 1.2-4.1 2.2-4.5 4.6-0.4 2.5 1.4 4.2 2.6 6 2.7 4.3 5.6 8.5 8.2 12.8q0.4 0.6 1 1.5c0.9 0.9 1.7 0.6 3-1.2 6.6-9.5 13.3-18.9 20.3-28.1 5.8-7.7 12.9-13.7 23.1-14.8 2.3-0.3 4.7 0 6.8 0.8-13.2 1.6-18.9 12.2-25.7 21.4-6.8 9.1-13.4 18.5-20.3 27.6-1 1-1.4 2.5-0.9 3.9 0.4 0.7 0.8 1.2 1 1.5 6.8 10.2 13.4 20.4 20.1 30.7 2.6 4.2 7 7 11.9 7.7z"></path><path class="a" d="m387.8 99c-18.3 5.7-36.6 5-53.1-5.8-13.5-8.8-18.2-22-15.4-37.4 2.9-15.9 13.2-25.5 28.6-29.8q1.7-0.3 3.5-0.4c-6.1 8.8-9.4 19.1-9.5 29.8v8.7c0.1 7.5 2.1 14.8 5.8 21.3 3.9 7.5 11.6 12.1 20 12 8.5-0.2 16.1-5 19.7-12.6 3.2-6.2 4.9-13 5-19.9q0-2 0-3.9c-0.1-7.6-2-15.1-5.5-21.8-2.9-5.8-8.7-9.4-15.1-9.5-4-0.3-7.9 1.1-10.8 3.8-2.9 2.7-4.5 6.5-4.5 10.5-0.4 3.3-0.2 6.7 0.4 10q-1.4-2.2-2.3-4.6c-4.1-12.6 3.7-24.1 17.7-25.1 16.7-1.3 34.6 8.8 40.5 23.9 7.5 19.8 0.5 42.9-25 50.8z"></path><path class="a" d="m316.5 25.1v20c-1.2-0.7-0.6-1.7-0.7-2.5-0.6-6.3-5.8-11.1-12.1-11.2-4.9-0.3-21.2 0-26.1-0.1-2 0-2.5 0.7-2.5 2.6q0 12.5 0 25.1c-0.1 1.8 0.6 2.6 2.5 2.6 8.9-0.1 19.6-0.1 20.1-0.2 0 0 5.8 0.5 11.1-9.4q0 0.1 0 0.2 0 11.3 0 22.6v1.2q0 0.1 0 0.2c-5.3-9.9-11.1-9.4-11.1-9.4-0.1-0.1-1.3-0.1-3.2-0.1-7.4 0.1-10 0.2-16.2 0-2.7-0.1-3.3 0.9-3.3 3.4 0.2 7.1 0.1 13.9 0.1 20.9 0 6 1.5 7.8 7.5 9.7h-36.2c6.3-1.2 7.4-5.7 7.3-11.3-0.2-17.5-0.1-35.1-0.1-52.6 0-7-0.8-8.2-7.7-10.6 11 0.2 21-0.1 31.4-0.1 9.3 0.1 29.9-0.1 39.2-1z"></path><path class="a" d="m278.2 115.6c-5.6 3.4-12.4 4.3-18.7 2.4-7.6-2.4-14.4-6.8-19.8-12.7-15.2-15.4-30.1-31.1-45.2-46.6-0.9-0.9-1.5-2.2-3-2.4-1.1 1.2-0.6 2.6-0.6 3.8 0 10 0 19.9 0 29.9 0 7.3 1.1 8.8 8 10.7h-37.9c4.4-1.1 7.7-2.1 8.3-6.3v-61.4c-3.4-4.3-7.4-8.1-11.9-11.2q-1.4-1.3-2.9-2.3c-1 3.2-1.5 6.5-1.5 9.8q-0.1 2-0.1 4c-0.1 12.9 0.1 25.8-0.1 38.7-0.1 16.8-7.6 26-23.9 29.2-9.3 1.9-18.9 1.4-28-1.5-13.4-4.2-20-13.5-20-27.7q0-18.3 0-36.7c0-6.2-0.6-7.1-7.1-9.3h34.6c-5.4 1.1-6.2 4.9-6.2 9.6 0.1 12.2 0 24.4 0.1 36.7-0.6 7 1.8 13.9 6.4 19.1 5.8 5.8 14.6 7.5 22.2 4.4 7.2-2.3 12.2-8.8 12.7-16.4q0.7-10.2 0.3-20.3c0.1-7.9 0-15.7 0-23.6q0-4.7 0.7-9.4c0.7-3.3 1.8-6.5 3.4-9.5q-0.6-0.2-1.2-0.4-2.4-0.6-4.7-0.7-1.3-0.1-2.5-0.1-2.7 0.1-5.4 0.8l0.1-0.1c4.5-4.3 10.9-5.9 16.9-4.3 4.3-5.2 10.6-8.5 17.4-9q0.9-0.1 1.9-0.1c-5.1 1.5-9.5 4.6-12.4 9q-0.6 0.9-1.1 1.8 2.5 0.9 4.9 2.2h0.1c5.5 3.2 10.6 7.2 14.9 11.9q19.7 20.5 39.5 40.9c1.1 1.1 1.8 2.8 3.8 2.7q0-19.1 0.1-38.2c-0.7-4.4-3.8-6-7.8-6.8h36.7c-6.8 2.4-7.4 3.3-7.4 11.1 0 18 0 36.1-0.1 54.2-0.1 2.1 0.7 4.1 2.2 5.6 4.5 4.9 9.4 9.4 14.8 13.3q2.8 1.9 5.9 3.1 1.6 0.6 3.3 1c3.3 0.9 6.8 1.2 10.3 1.1z"></path><path class="a" d="m65.2 95.9c-3.8 6.3-9.8 11.1-16.8 13.3-13 4.4-25.6 3.9-37.1-4.4-2.9-2.2-5.2-5.1-6.7-8.4-3.8-7.4-3.4-16.3 0.9-23.4q-0.6 3.8-0.6 7.6-0.1 2.7 0.3 5.3l0.1 0.4q0.1 0.9 0.4 1.8v0.1 0.1 0.1c2.3 8.6 9.3 15.2 18.1 16.9 4.6 1.3 9.5 1.3 14.2 0 5.9-1 10.6-5.6 11.7-11.6 1-5.7-1.6-11.4-6.6-14.3-7.1-4.8-14.5-8.9-21.8-13.3-5.5-2.8-9.6-7.7-11.7-13.5-2-6.1-1.2-12.8 2.4-18.2 3.5-5.3 9.3-8.8 15.8-9.3 9.9-1.1 19.8 0.8 29.8 0.7 1.7-0.1 1.8 0.8 1.6 2.2-0.6 4.7-1.2 9.5-2.1 14.3-0.6-5.6-4.7-10.3-10.2-11.7-5.4-1.7-11.2-1.4-16.4 0.8-3.2 1.1-5.5 4-5.8 7.4-0.1 3.3 1.8 6.4 4.9 7.6 8.3 4.7 16.6 9.3 24.9 14.1 13.9 8.1 18.1 22.1 10.7 35.4z"></path></svg>