<svg xmlns="http://www.w3.org/2000/svg" width="45" height="44" viewBox="0 0 45 44" fill="none"><g clip-path="url(#clip0_1277_18463)"><path d="M28.0185 20.952L23.7474 29.4941C23.2317 30.534 21.7364 30.4996 21.2638 29.4426L16.3739 18.5887L13.7958 24.7504H5.70909L21.3927 40.7777C22.0028 41.4051 22.9911 41.4051 23.6013 40.7777L39.2935 24.7504H29.9177L28.0185 20.952ZM41.2099 6.35117L41.0036 6.13633C36.5778 1.61602 29.3333 1.61602 24.8989 6.13633L22.5013 8.59414L20.1036 6.14492C15.6778 1.61602 8.42471 1.61602 3.99893 6.14492L3.79268 6.35117C-0.392473 10.6309 -0.572941 17.4457 3.16534 22.0004H11.9653L15.0505 14.5926C15.5146 13.484 17.0786 13.4582 17.5771 14.5582L22.5786 25.6699L26.7896 17.2566C27.2966 16.2426 28.7403 16.2426 29.2474 17.2566L31.6192 22.0004H41.8372C45.5755 17.4457 45.395 10.6309 41.2099 6.35117Z" fill="#F15056"></path></g><defs><clipPath id="clip0_1277_18463"><rect width="44" height="44" fill="white" transform="translate(0.5)"></rect></clipPath></defs></svg>