<svg xmlns="http://www.w3.org/2000/svg" width="45" height="44" viewBox="0 0 45 44" fill="none"><path d="M11.474 2.61475C11.7498 1.84973 12.2606 1.18743 12.9362 0.719128C13.6118 0.250827 14.4189 -0.000424844 15.2461 5.39256e-07H23.2435C24.0708 -0.000424844 24.8778 0.250827 25.5534 0.719128C26.229 1.18743 26.7399 1.84973 27.0157 2.61475H31.241C32.3015 2.61475 33.3186 3.02797 34.0685 3.76351C34.8184 4.49905 35.2397 5.49665 35.2397 6.53686V18.3111C33.3366 18.384 31.4921 18.9762 29.9134 20.0211C27.7966 18.6349 25.2305 18.0691 22.7126 18.4335C20.1947 18.7979 17.9045 20.0665 16.2861 21.9933C14.6677 23.92 13.8365 26.3676 13.9537 28.8614C14.0709 31.3551 15.1281 33.7174 16.9203 35.4899L23.3902 41.8359H7.24871C6.18818 41.8359 5.1711 41.4227 4.42119 40.6871C3.67129 39.9516 3.25 38.954 3.25 37.9138V6.53686C3.25 5.49665 3.67129 4.49905 4.42119 3.76351C5.1711 3.02797 6.18818 2.61475 7.24871 2.61475H11.474ZM15.2461 2.61475C14.8926 2.61475 14.5536 2.75249 14.3036 2.99767C14.0537 3.24285 13.9132 3.57538 13.9132 3.92212C13.9132 4.26885 14.0537 4.60139 14.3036 4.84657C14.5536 5.09175 14.8926 5.22949 15.2461 5.22949H23.2435C23.597 5.22949 23.9361 5.09175 24.186 4.84657C24.436 4.60139 24.5764 4.26885 24.5764 3.92212C24.5764 3.57538 24.436 3.24285 24.186 2.99767C23.9361 2.75249 23.597 2.61475 23.2435 2.61475H15.2461ZM28.9724 43.6139C29.0956 43.7362 29.2423 43.8333 29.4041 43.8996C29.5659 43.9659 29.7394 44 29.9147 44C30.09 44 30.2636 43.9659 30.4253 43.8996C30.5871 43.8333 30.7339 43.7362 30.8571 43.6139L41.0245 33.6413C41.73 32.9492 42.2897 32.1276 42.6716 31.2234C43.0535 30.3192 43.25 29.35 43.25 28.3713C43.25 27.3926 43.0535 26.4234 42.6716 25.5192C42.2897 24.6149 41.73 23.7933 41.0245 23.1013C40.3189 22.4092 39.4812 21.8602 38.5593 21.4857C37.6375 21.1111 36.6494 20.9184 35.6515 20.9184C34.6537 20.9184 33.6656 21.1111 32.7437 21.4857C31.8218 21.8602 30.9842 22.4092 30.2786 23.1013L29.9161 23.4569L29.5508 23.1013C28.8453 22.4092 28.0076 21.8602 27.0857 21.4857C26.1638 21.1111 25.1758 20.9184 24.1779 20.9184C23.1801 20.9184 22.192 21.1111 21.2701 21.4857C20.3482 21.8602 19.5106 22.4092 18.805 23.1013C18.0994 23.7933 17.5397 24.6149 17.1578 25.5192C16.776 26.4234 16.5794 27.3926 16.5794 28.3713C16.5794 29.35 16.776 30.3192 17.1578 31.2234C17.5397 32.1276 18.0994 32.9492 18.805 33.6413L28.9724 43.6139Z" fill="#F15056"></path></svg>