<svg xmlns="http://www.w3.org/2000/svg" width="45" height="44" viewBox="0 0 45 44" fill="none"><path d="M23.3376 2.34533C23.4639 2.25171 23.5761 2.14131 23.6711 2.01735H29.4823C29.9205 1.99422 30.3596 1.99422 30.7979 2.01735H30.884C32.1752 2.01379 33.4509 2.29243 34.6176 2.83286C36.7488 3.64966 38.5923 5.05205 39.9252 6.87054C40.9341 8.24755 41.6205 9.8246 41.9357 11.4898C42.2508 13.155 42.187 14.8676 41.7489 16.506L34.3068 9.3326C33.9883 9.02569 33.5588 8.85372 33.1114 8.85393H22.2806C21.9331 8.86774 21.5982 8.9853 21.3212 9.19077L17.0478 12.3553C16.8182 12.5262 16.5563 12.6511 16.2772 12.7231C15.9981 12.7951 15.7073 12.8126 15.4213 12.7747C15.1352 12.7369 14.8596 12.6443 14.6102 12.5024C14.3608 12.3605 14.1424 12.1719 13.9676 11.9476C13.7938 11.7267 13.6664 11.4744 13.593 11.2052C13.5195 10.936 13.5013 10.6553 13.5395 10.3792C13.5777 10.1031 13.6714 9.83716 13.8153 9.59667C13.9593 9.35618 14.1506 9.14592 14.3781 8.97803L23.3376 2.34533ZM12.1416 26.8861L12.1099 26.9149L9.90062 29.0601L9.87113 29.0867C9.48424 29.4461 8.96936 29.6443 8.4355 29.6394C7.90164 29.6344 7.39072 29.4266 7.01089 29.0601C6.82113 28.8763 6.67051 28.6576 6.56772 28.4167C6.46493 28.1757 6.412 27.9172 6.412 27.6562C6.412 27.3951 6.46493 27.1367 6.56772 26.8957C6.67051 26.6548 6.82113 26.4361 7.01089 26.2523L9.22015 24.1072C9.60495 23.7349 10.1246 23.526 10.6661 23.526C11.2077 23.526 11.7274 23.7349 12.1121 24.1072C12.4904 24.4734 12.7056 24.9705 12.7111 25.4907C12.7166 26.0109 12.512 26.5123 12.1416 26.8861ZM11.4816 30.649C11.1112 31.0228 10.9066 31.5242 10.9121 32.0444C10.9176 32.5646 11.1328 33.0617 11.5111 33.428C12.3095 34.2036 13.6046 34.2036 14.4031 33.428L16.6123 31.2828C16.8265 31.0753 16.9904 30.8237 17.0922 30.5463C17.194 30.2689 17.2311 29.9728 17.2006 29.6797C17.1702 29.3865 17.073 29.1037 16.9163 28.8519C16.7596 28.6002 16.5472 28.3859 16.2948 28.2246C15.9072 27.9755 15.4448 27.8618 14.9828 27.902C14.5207 27.9423 14.0861 28.1341 13.7498 28.4462L13.7203 28.4772L11.5111 30.6202L11.4816 30.649ZM6.70014 20.6191C6.88991 20.8028 7.04053 21.0215 7.14332 21.2625C7.24611 21.5034 7.29904 21.7619 7.29904 22.0229C7.29904 22.284 7.24611 22.5424 7.14332 22.7834C7.04053 23.0244 6.88991 23.243 6.70014 23.4268L4.49089 25.572C4.10609 25.9443 3.58643 26.1531 3.04489 26.1531C2.50334 26.1531 1.98369 25.9443 1.59889 25.572C1.40913 25.3882 1.25851 25.1695 1.15571 24.9286C1.05292 24.6876 1 24.4291 1 24.1681C1 23.907 1.05292 23.6486 1.15571 23.4076C1.25851 23.1667 1.40913 22.948 1.59889 22.7642L3.80815 20.6191C4.19295 20.2468 4.7126 20.0379 5.25415 20.0379C5.79569 20.0379 6.31535 20.2468 6.70014 20.6191ZM21.1102 32.8451C21.3 33.0289 21.4506 33.2476 21.5534 33.4885C21.6562 33.7295 21.7091 33.988 21.7091 34.249C21.7091 34.5101 21.6562 34.7685 21.5534 35.0095C21.4506 35.2504 21.3 35.4691 21.1102 35.6529L18.901 37.798C18.5162 38.1703 17.9965 38.3792 17.455 38.3792C16.9134 38.3792 16.3938 38.1703 16.009 37.798C15.7077 37.5062 15.5079 37.1293 15.4379 36.7205C15.3679 36.3116 15.4312 35.8917 15.6188 35.5199L15.6211 35.5155C15.72 35.3208 15.8511 35.1434 16.009 34.9903L18.2182 32.8451C18.603 32.4728 19.1227 32.264 19.6642 32.264C20.2058 32.264 20.7254 32.4728 21.1102 32.8451ZM6.3463 6.04395C7.85236 4.58209 9.67866 3.47361 11.6873 2.80218C13.696 2.13074 15.8345 1.91391 17.9415 2.16804L12.3254 6.32761C11.7404 6.76 11.2487 7.30118 10.8787 7.91999C10.5087 8.5388 10.2676 9.22301 10.1694 9.93322C10.0711 10.6434 10.1176 11.3656 10.3063 12.0582C10.4949 12.7508 10.8219 13.4 11.2684 13.9686C12.1699 15.1167 13.4996 15.8698 14.9673 16.0637C16.435 16.2576 17.9216 15.8765 19.1028 15.0035L22.9225 12.178H32.4151L40.3698 19.8456C40.3953 19.8766 40.4226 19.9062 40.4514 19.9343L43.0599 22.4828C43.6467 23.064 43.9829 23.843 43.9994 24.6593C44.0158 25.4755 43.7112 26.2669 43.1483 26.8702C42.5854 27.4736 41.807 27.8431 40.9736 27.9025C40.1402 27.9619 39.3152 27.7068 38.6686 27.1897L38.4509 26.977C38.4087 26.9351 38.3632 26.8966 38.3148 26.8617L35.8356 24.4418C35.731 24.336 35.6058 24.2515 35.4675 24.1935C35.3291 24.1354 35.1803 24.1048 35.0297 24.1036C34.8791 24.1023 34.7298 24.1303 34.5904 24.186C34.451 24.2417 34.3244 24.324 34.2179 24.428C34.1114 24.5321 34.0272 24.6558 33.9702 24.792C33.9131 24.9281 33.8845 25.0741 33.8858 25.2212C33.8871 25.3683 33.9184 25.5137 33.9778 25.6489C34.0372 25.7841 34.1236 25.9063 34.232 26.0085L36.8404 28.557C36.9357 28.6479 37.031 28.7365 37.1308 28.8207L37.2306 28.9182C37.449 29.1271 37.6228 29.3762 37.7421 29.6511C37.8613 29.9261 37.9235 30.2214 37.9252 30.52C37.9268 30.8186 37.8679 31.1145 37.7517 31.3907C37.6355 31.6668 37.4644 31.9178 37.2483 32.1289C37.0321 32.34 36.7753 32.5072 36.4927 32.6207C36.21 32.7343 35.9071 32.7919 35.6015 32.7903C35.2958 32.7887 34.9936 32.7279 34.7122 32.6114C34.4308 32.4949 34.1758 32.325 33.962 32.1116L33.5764 31.7371C33.4165 31.5812 33.2125 31.4756 32.9907 31.4337C32.7689 31.3919 32.5393 31.4157 32.3315 31.5021C32.1236 31.5885 31.9469 31.7336 31.824 31.9188C31.7011 32.104 31.6376 32.3208 31.6416 32.5415C31.6381 32.6914 31.6658 32.8404 31.7231 32.9795C31.7804 33.1186 31.8662 33.2448 31.9751 33.3504L32.4809 33.8446C32.6893 34.0363 32.8562 34.267 32.9717 34.523C33.0872 34.7789 33.149 35.0549 33.1533 35.3346C33.1576 35.6143 33.1044 35.892 32.9968 36.1512C32.8892 36.4104 32.7295 36.6459 32.5271 36.8437C32.3246 37.0415 32.0836 37.1976 31.8182 37.3027C31.5529 37.4078 31.2687 37.4598 30.9824 37.4556C30.6961 37.4513 30.4137 37.391 30.1517 37.2782C29.8897 37.1653 29.6536 37.0023 29.4573 36.7986H29.4551L29.4278 36.7698L28.9515 36.3044C28.8467 36.2008 28.7218 36.1185 28.5842 36.0623C28.4465 36.0061 28.2988 35.9772 28.1497 35.9772C28.0005 35.9772 27.8528 36.0061 27.7152 36.0623C27.5776 36.1185 27.4527 36.2008 27.3479 36.3044C27.1353 36.5122 27.0158 36.794 27.0158 37.0878C27.0158 37.3816 27.1353 37.6634 27.3479 37.8712L27.8423 38.3565C28.0459 38.5529 28.2079 38.7866 28.3191 39.0442C28.4302 39.3018 28.4884 39.5783 28.4902 39.8579C28.4919 40.1374 28.4374 40.4146 28.3295 40.6735C28.2217 40.9325 28.0627 41.1681 27.8616 41.367C27.6606 41.5659 27.4214 41.7242 27.1577 41.8328C26.894 41.9414 26.6111 41.9982 26.3249 42C26.0388 42.0017 25.7551 41.9484 25.4901 41.843C25.225 41.7376 24.9838 41.5823 24.7802 41.3859L21.5344 38.372L22.7252 37.2152C23.1263 36.827 23.4447 36.365 23.662 35.8559C23.8793 35.3468 23.9912 34.8006 23.9912 34.249C23.9912 33.6974 23.8793 33.1512 23.662 32.6421C23.4447 32.133 23.1263 31.671 22.7252 31.2828C22.3008 30.871 21.7937 30.5497 21.2358 30.3392C20.6779 30.1286 20.0814 30.0334 19.4839 30.0595C19.5102 29.478 19.4116 28.8976 19.1944 28.3556C18.9772 27.8137 18.6462 27.3221 18.2228 26.9127C17.7988 26.5011 17.292 26.1799 16.7345 25.9694C16.177 25.7588 15.5808 25.6635 14.9837 25.6894C15.0099 25.1083 14.9111 24.5283 14.6939 23.9867C14.4767 23.4451 14.1458 22.9539 13.7226 22.5448C13.1834 22.0224 12.5134 21.6474 11.7794 21.4573C11.0454 21.2671 10.2732 21.2684 9.53997 21.4612C9.41393 20.5493 8.98245 19.7038 8.31286 19.0567C7.56665 18.3341 6.57754 17.9004 5.52895 17.836C4.48037 17.7716 3.44346 18.0809 2.61052 18.7066C2.07482 16.4599 2.1369 14.1166 2.79085 11.9C3.4448 9.68344 4.66883 7.66737 6.3463 6.04395Z" fill="#F15056"></path></svg>