<svg xmlns="http://www.w3.org/2000/svg" width="80" height="80" viewBox="0 0 80 80" fill="none"><g clip-path="url(#clip0_3694_45393)"><rect width="80" height="80" rx="8" fill="#F5F5F5"></rect><g clip-path="url(#clip1_3694_45393)"><path d="M64.6076 51.1958C63.6115 49.0565 61.0501 48.2962 58.9335 49.4808C58.1686 49.9051 57.5461 50.5416 56.9591 51.1074C56.3721 50.5947 55.4294 49.693 54.5934 49.304C52.6723 48.3846 50.3422 49.1449 49.3639 51.019C48.7414 52.186 48.7947 53.4059 49.1682 54.6259C49.3639 55.2624 49.6307 55.8636 49.9687 56.4293C50.2888 56.9774 50.6802 57.4902 51.0893 57.9852C52.6901 59.8948 54.6467 61.38 56.7812 62.653C56.9235 62.7414 57.0124 62.7237 57.1369 62.653C58.9512 61.5744 60.6233 60.3368 62.0818 58.8162C62.8467 58.0383 63.5226 57.1896 64.0384 56.2525C64.323 55.7398 64.572 55.1917 64.7321 54.6082C65.0701 53.459 65.1412 52.3274 64.6076 51.2135V51.1958Z" fill="url(#paint0_linear_3694_45393)"></path><path d="M49.614 59.0121C49.0804 58.3933 48.6535 57.7922 48.28 57.1733C47.8353 56.4307 47.5151 55.7058 47.3017 54.9456C46.7503 53.0891 46.857 51.4978 47.6218 50.048C48.6002 48.2092 50.5034 47.0599 52.6201 47.0599C53.4739 47.0599 54.2921 47.2544 55.0569 47.608C55.7328 47.9263 56.391 48.439 56.9602 48.9164C57.3871 48.5274 57.8673 48.1561 58.4187 47.8379C59.0413 47.4843 59.6994 47.2721 60.3753 47.1483V40.3235H43.7976C42.9438 40.3235 42.2323 39.7047 42.1078 38.8737L41.1295 32.0312L36.0423 49.4999C35.8645 50.2425 35.2063 50.7552 34.4415 50.7906H34.3881C33.6411 50.7906 32.9829 50.3132 32.7695 49.606L28.1626 38.1134H15V55.8296C15 58.1104 16.8677 59.9669 19.1622 59.9669H50.5034C50.201 59.6486 49.8808 59.3304 49.614 59.0121Z" fill="url(#paint1_linear_3694_45393)"></path><path d="M43.2462 24.6234C43.1217 23.8277 42.4635 23.2089 41.6453 23.1735C40.7737 23.1382 40.0978 23.6686 39.9022 24.4642L34.1569 44.5673L30.9907 36.1866C30.7595 35.4794 30.1014 35.002 29.3721 35.002H15V38.1492H28.1448L32.7517 49.6417C32.9829 50.3489 33.6411 50.8263 34.3703 50.8263H34.4237C35.1885 50.7909 35.8467 50.2782 36.0245 49.5356L41.1117 32.067L42.09 38.9094C42.2145 39.7404 42.926 40.3593 43.7798 40.3593H60.3219V37.2121H45.2206L43.2106 24.6234H43.2462Z" fill="white"></path><path d="M56.1953 17H19.1622C16.8677 17 15 18.8565 15 21.1373V34.999H29.3543C30.1014 34.999 30.7595 35.4764 30.973 36.1837L34.1391 44.5644L39.8844 24.4613C40.08 23.6657 40.756 23.1352 41.6275 23.1706C42.4457 23.206 43.1217 23.8248 43.2284 24.6204L45.2383 37.2091H60.3397V21.1373C60.3397 18.8565 58.4721 17 56.1775 17H56.1953Z" fill="url(#paint2_linear_3694_45393)"></path></g></g><defs><linearGradient id="paint0_linear_3694_45393" x1="52.9214" y1="62.8121" x2="57.798" y2="50.857" gradientUnits="userSpaceOnUse"><stop stop-color="#FF005F"></stop><stop offset="1" stop-color="#FF5F5F"></stop></linearGradient><linearGradient id="paint1_linear_3694_45393" x1="37.6788" y1="37.6537" x2="37.6788" y2="54.8925" gradientUnits="userSpaceOnUse"><stop stop-color="#FF005F"></stop><stop offset="1" stop-color="#FF5F5F"></stop></linearGradient><linearGradient id="paint2_linear_3694_45393" x1="37.6788" y1="36.8555" x2="37.6788" y2="20.8014" gradientUnits="userSpaceOnUse"><stop stop-color="#FF005F"></stop><stop offset="1" stop-color="#FF5F5F"></stop></linearGradient><clipPath id="clip0_3694_45393"><rect width="80" height="80" rx="8" fill="white"></rect></clipPath><clipPath id="clip1_3694_45393"><rect width="50" height="45.6872" fill="white" transform="translate(15 17)"></rect></clipPath></defs></svg>