<svg xmlns="http://www.w3.org/2000/svg" width="57" height="56" viewBox="0 0 57 56" fill="none"><rect x="0.876953" width="56" height="56" rx="8" fill="#C9E6FF"></rect><path d="M41.252 43.5H16.502C15.8804 43.5 15.377 43.0525 15.377 42.5V18C15.377 17.4475 15.8804 17 16.502 17H41.252C41.8735 17 42.377 17.4475 42.377 18V42.5C42.377 43.0525 41.8735 43.5 41.252 43.5Z" fill="#BE7E4E"></path><path d="M15.377 41.16V42.5C15.377 43.0525 15.8804 43.5 16.502 43.5H41.252C41.8735 43.5 42.377 43.0525 42.377 42.5V26.2095C38.1903 35.8155 26.8964 42.5905 15.377 41.16Z" fill="#AA6D43"></path><path d="M40.127 17H17.627V40.5H40.127V17Z" fill="#EFECE8"></path><path d="M40.127 17V40.5H17.627V38.5H33.9395C36.1163 38.5 37.877 36.935 37.877 35V17H40.127Z" fill="#E0E0E0"></path><path d="M32.8145 30.5H31.127V38.5H32.8145V30.5Z" fill="#DC2F02"></path><path d="M26.0645 35.5H24.377V38.5H26.0645V35.5Z" fill="#DC2F02"></path><path d="M36.1895 27.5H34.502V38.5H36.1895V27.5Z" fill="#65BC6A"></path><path d="M29.4395 30H27.752V38.5H29.4395V30Z" fill="#65BC6A"></path><path d="M22.6895 34H21.002V38.5H22.6895V34Z" fill="#65BC6A"></path><path d="M32.8145 35.9531H31.127V38.4986H32.8145V35.9531Z" fill="#BC0404"></path><path d="M26.0645 37.5469H24.377V38.5014H26.0645V37.5469Z" fill="#BC0404"></path><path d="M36.1895 35H34.502V38.5H36.1895V35Z" fill="#398F3E"></path><path d="M29.4395 35.7969H27.752V38.5014H29.4395V35.7969Z" fill="#398F3E"></path><path d="M22.6895 37.0688H21.002V38.5008H22.6895V37.0688Z" fill="#398F3E"></path><path d="M40.127 40.5V42H17.627V41V40.5H40.127Z" fill="#C4CACE"></path><path d="M30.002 15C30.002 14.45 29.4957 14 28.877 14C28.2582 14 27.752 14.45 27.752 15C27.752 15.55 28.2582 16 28.877 16C29.4957 16 30.002 15.55 30.002 15ZM28.877 12.5C30.4295 12.5 31.6895 13.62 31.6895 15H33.377C34.6201 15 35.627 15.895 35.627 17V19.5C35.627 19.775 35.3738 20 35.0645 20H22.6895C22.3801 20 22.127 19.775 22.127 19.5V17C22.127 15.895 23.1338 15 24.377 15H26.0645C26.0645 13.62 27.3245 12.5 28.877 12.5Z" fill="#FFC008"></path><path d="M22.127 19.5006C22.127 19.7756 22.3801 20.0006 22.6895 20.0006H35.0645C35.3738 20.0006 35.627 19.7756 35.627 19.5006V17.0006C35.627 16.6671 35.5263 16.3576 35.3643 16.0811C31.7592 18.4481 26.4554 18.1711 22.127 18.4201V19.5006Z" fill="#FFA10B"></path><path d="M38.7544 20.0859C38.5997 19.9929 38.4034 19.9744 38.2301 20.0354L35.4176 21.0354C35.1291 21.1379 34.989 21.4289 35.1043 21.6854C35.2202 21.9424 35.547 22.0674 35.8356 21.9644L37.0275 21.5404L34.5154 25.0489L33.2964 23.2429C33.0934 22.9419 32.5348 22.9419 32.3317 23.2429L29.3274 27.6939L27.587 26.1464C27.4616 26.0349 27.2833 25.9814 27.1089 26.0049C26.9334 26.0274 26.7804 26.1219 26.6955 26.2609L23.6805 31.1739L21.962 29.6464C21.8383 29.5364 21.6645 29.4834 21.4895 29.5044C21.3157 29.5249 21.1627 29.6169 21.0761 29.7519L18.8261 33.2519C18.672 33.4914 18.7659 33.7969 19.0354 33.9339C19.1225 33.9789 19.2187 33.9999 19.3132 33.9999C19.5084 33.9999 19.6985 33.9094 19.802 33.7479L21.687 30.8164L23.4161 32.3534C23.5415 32.4644 23.7187 32.5169 23.8942 32.4949C24.0697 32.4724 24.2227 32.3779 24.3077 32.2389L27.3227 27.3259L29.0411 28.8534C29.1637 28.9624 29.337 29.0154 29.5074 28.9959C29.6796 28.9774 29.832 28.8889 29.9209 28.7569L32.8138 24.4714L34.0192 26.2569C34.1194 26.4054 34.2994 26.4969 34.494 26.4994C34.701 26.4959 34.8714 26.4139 34.9761 26.2679L37.8763 22.2174V22.9999C37.8763 23.2764 38.1283 23.4999 38.4388 23.4999C38.7493 23.4999 39.0013 23.2764 39.0013 22.9999V20.4999C39.0013 20.3339 38.9085 20.1789 38.7544 20.0859Z" fill="#65BC6A"></path><path d="M24.4633 16.0164C23.7877 15.7849 23.0773 16.8749 23.7539 17.1069C24.4289 17.3389 25.1394 16.2489 24.4633 16.0164Z" fill="#FBDE08"></path></svg>