<svg xmlns="http://www.w3.org/2000/svg" width="81" height="80" viewBox="0 0 81 80" fill="none"><rect x="0.667969" width="80" height="80" rx="8" fill="white"></rect><path fill-rule="evenodd" clip-rule="evenodd" d="M26.668 34C26.668 30.287 28.143 26.726 30.7685 24.1005C33.394 21.475 36.9549 20 40.668 20C44.381 20 47.942 21.475 50.5675 24.1005C53.193 26.726 54.668 30.287 54.668 34V46C54.668 47.8385 54.3058 49.659 53.6023 51.3576C52.8987 53.0561 51.8675 54.5995 50.5675 55.8995C49.2674 57.1995 47.7241 58.2308 46.0255 58.9343C44.327 59.6379 42.5065 60 40.668 60C38.8295 60 37.009 59.6379 35.3104 58.9343C33.6118 58.2308 32.0685 57.1995 30.7685 55.8995C29.4685 54.5995 28.4372 53.0561 27.7337 51.3576C27.0301 49.659 26.668 47.8385 26.668 46V34ZM42.668 30C42.668 29.4696 42.4573 28.9609 42.0822 28.5858C41.7071 28.2107 41.1984 28 40.668 28C40.1375 28 39.6288 28.2107 39.2538 28.5858C38.8787 28.9609 38.668 29.4696 38.668 30V38C38.668 38.5304 38.8787 39.0391 39.2538 39.4142C39.6288 39.7893 40.1375 40 40.668 40C41.1984 40 41.7071 39.7893 42.0822 39.4142C42.4573 39.0391 42.668 38.5304 42.668 38V30Z" fill="#0072D4"></path></svg>