<svg xmlns="http://www.w3.org/2000/svg" width="81" height="80" viewBox="0 0 81 80" fill="none"><rect x="0.333008" width="80" height="80" rx="8" fill="white"></rect><path d="M23.333 59.1255C22.7309 59.1255 22.2266 58.9215 21.82 58.5135C21.4134 58.1055 21.2094 57.6011 21.208 57.0005V54.8755C21.208 54.2734 21.412 53.7691 21.82 53.3625C22.228 52.9559 22.7323 52.7519 23.333 52.7505C23.9351 52.7505 24.4401 52.9545 24.8481 53.3625C25.2561 53.7705 25.4594 54.2748 25.458 54.8755V57.0005C25.458 57.6026 25.254 58.1076 24.846 58.5156C24.438 58.9236 23.9337 59.1269 23.333 59.1255ZM31.833 59.1255C31.2309 59.1255 30.7266 58.9215 30.32 58.5135C29.9134 58.1055 29.7094 57.6011 29.708 57.0005V45.313C29.708 44.7109 29.912 44.2066 30.32 43.8C30.728 43.3934 31.2323 43.1894 31.833 43.188C32.4351 43.188 32.9401 43.392 33.3481 43.8C33.7561 44.208 33.9594 44.7123 33.958 45.313V57.0005C33.958 57.6026 33.754 58.1076 33.346 58.5156C32.938 58.9236 32.4337 59.1269 31.833 59.1255ZM40.333 59.1255C39.7309 59.1255 39.2266 58.9215 38.82 58.5135C38.4134 58.1055 38.2094 57.6011 38.208 57.0005V49.563C38.208 48.9609 38.412 48.4566 38.82 48.05C39.228 47.6434 39.7323 47.4394 40.333 47.438C40.9351 47.438 41.4401 47.642 41.8481 48.05C42.2561 48.458 42.4594 48.9623 42.458 49.563V57.0005C42.458 57.6026 42.254 58.1076 41.846 58.5156C41.438 58.9236 40.9337 59.1269 40.333 59.1255ZM48.833 59.1255C48.2309 59.1255 47.7266 58.9215 47.32 58.5135C46.9134 58.1055 46.7094 57.6011 46.708 57.0005V46.3755C46.708 45.7734 46.912 45.2691 47.32 44.8625C47.728 44.4559 48.2323 44.2519 48.833 44.2505C49.4351 44.2505 49.9401 44.4545 50.3481 44.8625C50.7561 45.2705 50.9594 45.7748 50.958 46.3755V57.0005C50.958 57.6026 50.754 58.1076 50.346 58.5156C49.938 58.9236 49.4337 59.1269 48.833 59.1255ZM57.333 59.1255C56.7309 59.1255 56.2266 58.9215 55.82 58.5135C55.4134 58.1055 55.2094 57.6011 55.208 57.0005V37.8755C55.208 37.2734 55.412 36.7691 55.82 36.3625C56.228 35.9559 56.7323 35.7519 57.333 35.7505C57.9351 35.7505 58.4401 35.9545 58.8481 36.3625C59.2561 36.7705 59.4594 37.2748 59.458 37.8755V57.0005C59.458 57.6026 59.254 58.1076 58.846 58.5156C58.438 58.9236 57.9337 59.1269 57.333 59.1255ZM44.583 39.9474C44.0163 39.9474 43.4759 39.8411 42.9616 39.6286C42.4474 39.4161 41.9785 39.1151 41.5549 38.7255L36.083 33.2536L24.8205 44.5161C24.3955 44.9411 23.8912 45.1451 23.3075 45.1281C22.7238 45.1111 22.2188 44.8894 21.7924 44.463C21.4028 44.038 21.2172 43.5336 21.2356 42.95C21.254 42.3663 21.4573 41.879 21.8455 41.488L33.0549 30.2786C33.4799 29.8536 33.9495 29.5441 34.4638 29.35C34.978 29.1559 35.5178 29.0581 36.083 29.0567C36.6497 29.0567 37.1986 29.1545 37.7299 29.35C38.2611 29.5455 38.7215 29.855 39.1111 30.2786L44.583 35.7505L55.8455 24.488C56.2705 24.063 56.7756 23.859 57.3606 23.876C57.9457 23.893 58.4501 24.1147 58.8736 24.5411C59.2632 24.9661 59.4495 25.4711 59.4325 26.0562C59.4155 26.6413 59.2115 27.1279 58.8205 27.5161L47.6111 38.7255C47.2215 39.1151 46.7611 39.4161 46.2299 39.6286C45.6986 39.8411 45.1497 39.9474 44.583 39.9474Z" fill="#0072D4"></path></svg>