<svg xmlns="http://www.w3.org/2000/svg" width="81" height="80" viewBox="0 0 81 80" fill="none"><rect x="0.333374" width="80" height="80" rx="8" fill="white"></rect><path fill-rule="evenodd" clip-rule="evenodd" d="M40.3334 20.9062C29.7877 20.9062 21.2396 29.4544 21.2396 40C21.2396 50.5456 29.7877 59.0938 40.3334 59.0938C50.879 59.0938 59.4271 50.5456 59.4271 40C59.4271 29.4544 50.879 20.9062 40.3334 20.9062ZM34.4584 31.1875C34.0688 31.1875 33.6953 31.3422 33.4198 31.6177C33.1444 31.8931 32.9896 32.2667 32.9896 32.6562C32.9896 33.0458 33.1444 33.4194 33.4198 33.6948C33.6953 33.9703 34.0688 34.125 34.4584 34.125H37.3959C39.315 34.125 40.9463 35.3509 41.5515 37.0625H34.4584C34.0688 37.0625 33.6953 37.2172 33.4198 37.4927C33.1444 37.7681 32.9896 38.1417 32.9896 38.5312C32.9896 38.9208 33.1444 39.2944 33.4198 39.5698C33.6953 39.8453 34.0688 40 34.4584 40H41.5515C41.2474 40.8591 40.6845 41.6029 39.9404 42.129C39.1962 42.655 38.3072 42.9375 37.3959 42.9375H34.4584C34.1681 42.9378 33.8844 43.024 33.6431 43.1854C33.4018 43.3468 33.2137 43.5761 33.1026 43.8444C32.9916 44.1126 32.9625 44.4077 33.0191 44.6924C33.0756 44.9772 33.2153 45.2388 33.4205 45.4442L39.2955 51.3192C39.4299 51.4635 39.5921 51.5792 39.7722 51.6595C39.9524 51.7398 40.1469 51.7829 40.3441 51.7864C40.5413 51.7899 40.7372 51.7536 40.9201 51.6797C41.103 51.6059 41.2691 51.4959 41.4086 51.3564C41.548 51.217 41.658 51.0508 41.7319 50.868C41.8057 50.6851 41.842 50.4892 41.8385 50.292C41.8351 50.0948 41.7919 49.9003 41.7116 49.7201C41.6313 49.5399 41.5156 49.3778 41.3713 49.2433L37.9834 45.8515C39.5703 45.7238 41.0727 45.0842 42.2647 44.0289C43.4567 42.9736 44.2737 41.5597 44.5928 40H46.2084C46.5979 40 46.9715 39.8453 47.2469 39.5698C47.5224 39.2944 47.6771 38.9208 47.6771 38.5312C47.6771 38.1417 47.5224 37.7681 47.2469 37.4927C46.9715 37.2172 46.5979 37.0625 46.2084 37.0625H44.5928C44.376 35.9972 43.9244 34.9937 43.2709 34.125H46.2084C46.5979 34.125 46.9715 33.9703 47.2469 33.6948C47.5224 33.4194 47.6771 33.0458 47.6771 32.6562C47.6771 32.2667 47.5224 31.8931 47.2469 31.6177C46.9715 31.3422 46.5979 31.1875 46.2084 31.1875H34.4584Z" fill="#0072D4"></path></svg>