<svg xmlns="http://www.w3.org/2000/svg" width="81" height="80" viewBox="0 0 81 80" fill="none"><rect x="0.332031" width="80" height="80" rx="8" fill="white"></rect><path fill-rule="evenodd" clip-rule="evenodd" d="M40.332 20.9062C29.7864 20.9062 21.2383 29.4544 21.2383 40C21.2383 50.5456 29.7864 59.0938 40.332 59.0938C50.8777 59.0938 59.4258 50.5456 59.4258 40C59.4258 29.4544 50.8777 20.9062 40.332 20.9062ZM34.457 31.1875C34.0675 31.1875 33.6939 31.3422 33.4185 31.6177C33.143 31.8931 32.9883 32.2667 32.9883 32.6562C32.9883 33.0458 33.143 33.4194 33.4185 33.6948C33.6939 33.9703 34.0675 34.125 34.457 34.125H37.3945C39.3137 34.125 40.945 35.3509 41.5501 37.0625H34.457C34.0675 37.0625 33.6939 37.2172 33.4185 37.4927C33.143 37.7681 32.9883 38.1417 32.9883 38.5312C32.9883 38.9208 33.143 39.2944 33.4185 39.5698C33.6939 39.8453 34.0675 40 34.457 40H41.5501C41.2461 40.8591 40.6832 41.6029 39.939 42.129C39.1948 42.655 38.3059 42.9375 37.3945 42.9375H34.457C34.1667 42.9378 33.883 43.024 33.6417 43.1854C33.4004 43.3468 33.2124 43.5761 33.1013 43.8444C32.9902 44.1126 32.9612 44.4077 33.0177 44.6924C33.0743 44.9772 33.214 45.2388 33.4191 45.4442L39.2941 51.3192C39.4286 51.4635 39.5907 51.5792 39.7709 51.6595C39.9511 51.7398 40.1455 51.7829 40.3428 51.7864C40.54 51.7899 40.7359 51.7536 40.9187 51.6797C41.1016 51.6059 41.2678 51.4959 41.4072 51.3564C41.5467 51.217 41.6567 51.0508 41.7305 50.868C41.8044 50.6851 41.8407 50.4892 41.8372 50.292C41.8337 50.0948 41.7905 49.9003 41.7103 49.7201C41.63 49.5399 41.5143 49.3778 41.3699 49.2433L37.982 45.8515C39.5689 45.7238 41.0714 45.0842 42.2634 44.0289C43.4554 42.9736 44.2724 41.5597 44.5914 40H46.207C46.5966 40 46.9701 39.8453 47.2456 39.5698C47.521 39.2944 47.6758 38.9208 47.6758 38.5312C47.6758 38.1417 47.521 37.7681 47.2456 37.4927C46.9701 37.2172 46.5966 37.0625 46.207 37.0625H44.5914C44.3747 35.9972 43.9231 34.9937 43.2695 34.125H46.207C46.5966 34.125 46.9701 33.9703 47.2456 33.6948C47.521 33.4194 47.6758 33.0458 47.6758 32.6562C47.6758 32.2667 47.521 31.8931 47.2456 31.6177C46.9701 31.3422 46.5966 31.1875 46.207 31.1875H34.457Z" fill="#0072D4"></path></svg>