<svg xmlns="http://www.w3.org/2000/svg" width="81" height="80" viewBox="0 0 81 80" fill="none"><rect x="0.666992" width="80" height="80" rx="8" fill="white"></rect><g clip-path="url(#clip0_5069_103134)"><path fill-rule="evenodd" clip-rule="evenodd" d="M42.136 46.4939C43.7507 45.558 45.1619 44.3088 46.2867 42.8195C45.9227 42.2575 45.6649 41.6333 45.5262 40.9782L45.4733 40.733C45.3202 40.0338 44.9623 39.396 44.4454 38.9008C43.9284 38.4057 43.2758 38.0757 42.5706 37.9529C36.7986 36.95 36.7986 28.6653 42.5706 27.6597C43.2519 27.5413 43.8847 27.2294 44.3935 26.7611C44.9023 26.2928 45.2656 25.688 45.4399 25.0188C44.0826 23.5398 42.4216 22.3716 40.5708 21.5943C38.72 20.817 36.723 20.449 34.7167 20.5154C32.7103 20.5819 30.7421 21.0812 28.9467 21.9792C27.1514 22.8772 25.5713 24.1527 24.3148 25.7183C23.0584 27.2838 22.1551 29.1025 21.667 31.0497C21.1789 32.9969 21.1175 35.0266 21.4869 36.9997C21.8564 38.9728 22.6479 40.8428 23.8074 42.4815C24.9669 44.1202 26.4669 45.4889 28.2047 46.4939V49.7504C28.2047 50.4892 28.4982 51.1978 29.0206 51.7202C29.543 52.2426 30.2516 52.5361 30.9904 52.5361H39.3475C40.0863 52.5361 40.7949 52.2426 41.3173 51.7202C41.8397 51.1978 42.1332 50.4892 42.1332 49.7504L42.136 46.4939ZM28.2075 57.4111C28.2075 56.857 28.4276 56.3256 28.8194 55.9338C29.2112 55.5419 29.7426 55.3218 30.2967 55.3218H40.0467C40.6009 55.3218 41.1323 55.5419 41.5241 55.9338C41.9159 56.3256 42.136 56.857 42.136 57.4111C42.136 57.9652 41.9159 58.4966 41.5241 58.8885C41.1323 59.2803 40.6009 59.5004 40.0467 59.5004H30.2967C29.7426 59.5004 29.2112 59.2803 28.8194 58.8885C28.4276 58.4966 28.2075 57.9652 28.2075 57.4111ZM48.4875 25.2835C48.9972 22.9546 52.3122 22.9407 52.8415 25.264L52.8666 25.3754L52.9167 25.5927C53.2158 26.866 53.8824 28.0233 54.8339 28.9207C55.7853 29.8182 56.9795 30.4162 58.2681 30.6404C60.6972 31.0638 60.6972 34.5515 58.2681 34.975C56.9722 35.2005 55.7719 35.8039 54.8178 36.7094C53.8637 37.6149 53.1985 38.7821 52.9056 40.0645L52.8415 40.3486C52.3122 42.6747 48.9945 42.6607 48.4819 40.3291L48.429 40.0867C48.1481 38.8001 47.4905 37.6263 46.5399 36.7149C45.5893 35.8035 44.3888 35.1958 43.0915 34.9694C40.6652 34.5487 40.6652 31.0666 43.0915 30.6432C44.3843 30.4184 45.5813 29.815 46.5309 28.9095C47.4805 28.004 48.1401 26.8371 48.4262 25.5565L48.468 25.3754L48.4875 25.2835Z" fill="#0072D4"></path></g><defs><clipPath id="clip0_5069_103134"><rect width="39" height="39" fill="white" transform="translate(21.167 20.5)"></rect></clipPath></defs></svg>