<svg xmlns="http://www.w3.org/2000/svg" width="80" height="80" viewBox="0 0 80 80" fill="none"><g clip-path="url(#clip0_3694_45355)"><rect width="80" height="80" rx="8" fill="#F5F5F5"></rect><g clip-path="url(#clip1_3694_45355)"><path d="M47.2958 27.2998C49.5872 27.2998 51.4666 25.4299 51.4666 23.1499C51.4666 20.8699 49.5872 19 47.2958 19C45.0043 19 43.125 20.8699 43.125 23.1499C43.125 25.4299 45.0043 27.2998 47.2958 27.2998Z" fill="url(#paint0_linear_3694_45355)"></path><path d="M25.4187 40.7617C19.6818 40.7617 15 45.4201 15 51.1283C15 56.8365 19.6818 61.4949 25.4187 61.4949C31.1556 61.4949 35.8375 56.8365 35.8375 51.1283C35.8375 45.4201 31.1556 40.7617 25.4187 40.7617ZM25.4187 58.3783C21.3633 58.3783 18.1322 55.1634 18.1322 51.1283C18.1322 47.0932 21.3633 43.8783 25.4187 43.8783C29.4741 43.8783 32.7052 47.0932 32.7052 51.1283C32.7052 55.1634 29.4741 58.3783 25.4187 58.3783Z" fill="url(#paint1_linear_3694_45355)"></path><path d="M54.5828 40.7617C48.8459 40.7617 44.1641 45.4201 44.1641 51.1283C44.1641 56.8365 48.8459 61.4949 54.5828 61.4949C60.3197 61.4949 65.0015 56.8365 65.0015 51.1283C65.0015 45.4201 60.3197 40.7617 54.5828 40.7617ZM54.5828 58.3783C50.5274 58.3783 47.2963 55.1634 47.2963 51.1283C47.2963 47.0932 50.5274 43.8783 54.5828 43.8783C58.6382 43.8783 61.8693 47.0932 61.8693 51.1283C61.8693 55.1634 58.6382 58.3783 54.5828 58.3783Z" fill="url(#paint2_linear_3694_45355)"></path><path d="M54.4834 34.4506C51.3512 34.4506 48.7465 33.3024 46.8836 31.4489L42.8282 27.5122C42.2018 26.7905 41.1632 26.2656 40.0092 26.2656C38.8553 26.2656 37.8167 26.6757 37.0913 27.5122L31.3544 33.2204C30.6291 33.9421 30.1016 34.9755 30.1016 36.1237C30.1016 37.2719 30.6291 38.3053 31.3544 39.1254L33.9426 41.4054L37.5035 37.7804L42.3996 32.7939L43.9657 34.3522C46.5539 37.0423 50.1972 38.5841 54.4339 38.6005C54.4339 38.6005 54.4669 38.6005 54.4834 38.6005C55.6373 38.6005 56.5605 37.6656 56.5605 36.5338C56.5605 35.402 55.6209 34.467 54.4834 34.467V34.4506Z" fill="url(#paint3_linear_3694_45355)"></path><path d="M37.9152 55.2792C37.9152 56.4274 38.8549 57.3459 39.9924 57.3459C41.1299 57.3459 42.0695 56.411 42.0695 55.2792V42.3373L37.4866 37.7773L33.9258 41.4024L37.8987 44.929V55.2956L37.9152 55.2792Z" fill="url(#paint4_linear_3694_45355)"></path></g></g><defs><linearGradient id="paint0_linear_3694_45355" x1="43.9658" y1="28.1528" x2="49.2207" y2="20.1731" gradientUnits="userSpaceOnUse"><stop stop-color="#6C27FF"></stop><stop offset="1" stop-color="#9487F9"></stop></linearGradient><linearGradient id="paint1_linear_3694_45355" x1="15.2638" y1="64.1849" x2="43.1131" y2="27.9963" gradientUnits="userSpaceOnUse"><stop stop-color="#6C27FF"></stop><stop offset="1" stop-color="#9487F9"></stop></linearGradient><linearGradient id="paint2_linear_3694_45355" x1="33.5145" y1="78.2258" x2="61.3638" y2="42.0371" gradientUnits="userSpaceOnUse"><stop stop-color="#6C27FF"></stop><stop offset="1" stop-color="#9487F9"></stop></linearGradient><linearGradient id="paint3_linear_3694_45355" x1="41.1138" y1="40.9461" x2="46.1492" y2="29.8715" gradientUnits="userSpaceOnUse"><stop stop-color="#6C15FF"></stop><stop offset="1" stop-color="#9487F9"></stop></linearGradient><linearGradient id="paint4_linear_3694_45355" x1="37.091" y1="46.028" x2="26.5326" y2="34.3784" gradientUnits="userSpaceOnUse"><stop stop-color="#6C27FF"></stop><stop offset="1" stop-color="#9487F9"></stop></linearGradient><clipPath id="clip0_3694_45355"><rect width="80" height="80" rx="8" fill="white"></rect></clipPath><clipPath id="clip1_3694_45355"><rect width="50" height="42.4997" fill="white" transform="translate(15 19)"></rect></clipPath></defs></svg>