<svg xmlns="http://www.w3.org/2000/svg" width="80" height="80" viewBox="0 0 80 80" fill="none"><g clip-path="url(#clip0_3694_45377)"><rect width="80" height="80" rx="8" fill="#F5F5F5"></rect><g clip-path="url(#clip1_3694_45377)"><path d="M63.8191 26.0527C60.7086 19.4639 52.7579 17.0814 46.2043 20.762C43.8424 22.0929 41.8962 24.0646 40.0832 25.7898C38.2535 24.196 35.326 21.4356 32.7146 20.2033C26.7432 17.3772 19.5243 19.7268 16.4638 25.5105C14.5343 29.1417 14.7173 32.8879 15.8317 36.667C16.2475 38.0472 16.7964 39.3617 17.4285 40.6269H28.4731L31.9328 33.1673C32.199 32.6086 32.7645 32.2307 33.3966 32.2307C34.0286 32.2307 34.5942 32.5922 34.8603 33.1508L40.6986 45.704L42.7279 41.0048C42.9774 40.4133 43.5596 40.0353 44.2083 40.0353H62.8377C63.37 38.9181 63.8357 37.7515 64.2016 36.5356C65.2495 33.0029 65.4491 29.4703 63.8357 26.0527H63.8191Z" fill="url(#paint0_linear_3694_45377)"></path><path d="M42.2274 50.2673C41.9779 50.8424 41.4124 51.2203 40.7637 51.2368H40.747C40.115 51.2368 39.5494 50.8753 39.2833 50.3166L33.3951 37.6484L30.9666 42.8899C30.7005 43.4485 30.1349 43.8264 29.5029 43.8264H19.3398C20.0883 44.9273 20.92 45.9953 21.785 47.0305C26.775 52.8963 32.8462 57.4805 39.4496 61.4239C39.8655 61.6704 40.1649 61.6539 40.5807 61.4075C46.1862 58.0884 51.3924 54.2436 55.9167 49.5608C57.8295 47.5891 59.576 45.5188 61.0398 43.2514H45.2713L42.244 50.2838L42.2274 50.2673Z" fill="url(#paint1_linear_3694_45377)"></path></g></g><defs><linearGradient id="paint0_linear_3694_45377" x1="40" y1="38.8688" x2="40" y2="28.3201" gradientUnits="userSpaceOnUse"><stop stop-color="#1D43FE"></stop><stop offset="1" stop-color="#4B6BFE"></stop></linearGradient><linearGradient id="paint1_linear_3694_45377" x1="40.1815" y1="44.648" x2="40.1815" y2="53.8164" gradientUnits="userSpaceOnUse"><stop stop-color="#1D43FE"></stop><stop offset="1" stop-color="#4B6BFE"></stop></linearGradient><clipPath id="clip0_3694_45377"><rect width="80" height="80" rx="8" fill="white"></rect></clipPath><clipPath id="clip1_3694_45377"><rect width="50" height="42.5723" fill="white" transform="translate(15 19)"></rect></clipPath></defs></svg>