<svg xmlns="http://www.w3.org/2000/svg" width="80" height="80" viewBox="0 0 80 80" fill="none"><rect width="80" height="80" rx="8" fill="white"></rect><path fill-rule="evenodd" clip-rule="evenodd" d="M26 34C26 30.287 27.475 26.726 30.1005 24.1005C32.726 21.475 36.287 20 40 20C43.713 20 47.274 21.475 49.8995 24.1005C52.525 26.726 54 30.287 54 34V46C54 47.8385 53.6379 49.659 52.9343 51.3576C52.2307 53.0561 51.1995 54.5995 49.8995 55.8995C48.5995 57.1995 47.0561 58.2308 45.3576 58.9343C43.659 59.6379 41.8385 60 40 60C38.1615 60 36.341 59.6379 34.6424 58.9343C32.9439 58.2308 31.4005 57.1995 30.1005 55.8995C28.8005 54.5995 27.7693 53.0561 27.0657 51.3576C26.3621 49.659 26 47.8385 26 46V34ZM42 30C42 29.4696 41.7893 28.9609 41.4142 28.5858C41.0391 28.2107 40.5304 28 40 28C39.4696 28 38.9609 28.2107 38.5858 28.5858C38.2107 28.9609 38 29.4696 38 30V38C38 38.5304 38.2107 39.0391 38.5858 39.4142C38.9609 39.7893 39.4696 40 40 40C40.5304 40 41.0391 39.7893 41.4142 39.4142C41.7893 39.0391 42 38.5304 42 38V30Z" fill="#0072D4"></path></svg>