<svg xmlns="http://www.w3.org/2000/svg" width="81" height="80" viewBox="0 0 81 80" fill="none"><rect x="0.666748" width="80" height="80" rx="8" fill="white"></rect><path fill-rule="evenodd" clip-rule="evenodd" d="M40.6667 58.75C51.0224 58.75 59.4167 50.3556 59.4167 40C59.4167 29.6444 51.0224 21.25 40.6667 21.25C30.3111 21.25 21.9167 29.6444 21.9167 40C21.9167 50.3556 30.3111 58.75 40.6667 58.75ZM38.5311 35.0556L38.2874 35.4962C38.0155 35.9819 37.8805 36.2238 37.6705 36.3831C37.4605 36.5425 37.198 36.6025 36.673 36.7206L36.1967 36.8294C34.3517 37.2456 33.4292 37.4556 33.2099 38.1606C32.9905 38.8675 33.6186 39.6025 34.8767 41.0725L35.203 41.4531C35.5592 41.8713 35.7374 42.0794 35.818 42.3381C35.8986 42.5969 35.8724 42.8763 35.818 43.4331L35.7692 43.9394C35.578 45.9025 35.4842 46.8831 36.058 47.32C36.6317 47.7569 37.4961 47.3575 39.223 46.5644L39.6711 46.3581C40.1605 46.1331 40.4061 46.0187 40.6667 46.0187C40.9274 46.0187 41.173 46.1313 41.6624 46.3563L42.1105 46.5625C43.8355 47.3594 44.7017 47.7569 45.2755 47.32C45.8492 46.885 45.7555 45.9025 45.5642 43.9412L45.5155 43.4331C45.4611 42.8763 45.4349 42.5969 45.5155 42.3381C45.5961 42.0794 45.7742 41.8694 46.1305 41.4531L46.4567 41.0725C47.713 39.6025 48.343 38.8675 48.1236 38.1606C47.9042 37.4556 46.9817 37.2456 45.1367 36.8294L44.6605 36.7206C44.1355 36.6025 43.873 36.5425 43.663 36.3831C43.453 36.2238 43.318 35.9819 43.048 35.4962L42.8024 35.0556C41.8517 33.3512 41.3774 32.5 40.6667 32.5C39.9561 32.5 39.4817 33.3512 38.5311 35.0556Z" fill="#0072D4"></path></svg>