<svg xmlns="http://www.w3.org/2000/svg" width="80" height="80" viewBox="0 0 80 80" fill="none"><rect width="80" height="80" rx="8" fill="white"></rect><path d="M60 26.25C60 27.6562 58.8828 28.9531 57 30C54.7266 31.2578 51.3359 32.1484 47.4453 32.4141C47.1562 32.2734 46.8672 32.1406 46.5625 32.0234C43.4844 30.7344 39.3906 30 35 30C34.3516 30 33.7188 30.0156 33.0859 30.0469L33 30C31.1172 28.9531 30 27.6562 30 26.25C30 22.7969 36.7188 20 45 20C53.2812 20 60 22.7969 60 26.25ZM32.5547 32.5859C33.3516 32.5313 34.1719 32.5 35 32.5C39.8594 32.5 44.1719 33.4609 46.9141 34.9531C48.8516 36.0078 50 37.3203 50 38.75C50 39.0625 49.9453 39.3672 49.8359 39.6641C49.4766 40.6953 48.5078 41.6406 47.1016 42.4375C47.0938 42.4453 47.0781 42.4453 47.0703 42.4531C47.0469 42.4688 47.0234 42.4766 47 42.4922C44.2656 44.0078 39.9062 44.9922 35 44.9922C30.3438 44.9922 26.1797 44.1094 23.4219 42.7188C23.2734 42.6484 23.1328 42.5703 22.9922 42.4922C21.1172 41.4531 20 40.1562 20 38.75C20 36.0312 24.1719 33.7109 30 32.8594C30.8203 32.7422 31.6719 32.6484 32.5547 32.5859ZM52.5 38.75C52.5 37.0391 51.6719 35.6328 50.6172 34.5781C52.8281 34.2344 54.8516 33.6875 56.5703 32.9766C57.8438 32.4453 59.0312 31.7891 60 30.9844V33.75C60 35.2578 58.7109 36.6484 56.5781 37.7266C55.4375 38.3047 54.0469 38.7969 52.4844 39.1719C52.4922 39.0312 52.5 38.8984 52.5 38.7578V38.75ZM50 46.25C50 47.6562 48.8828 48.9531 47 50C46.8594 50.0781 46.7188 50.1484 46.5703 50.2266C43.8203 51.6172 39.6562 52.5 35 52.5C30.0938 52.5 25.7344 51.5156 23 50C21.1172 48.9531 20 47.6562 20 46.25V43.4844C20.9766 44.2891 22.1563 44.9453 23.4297 45.4766C26.5156 46.7656 30.6094 47.5 35 47.5C39.3906 47.5 43.4844 46.7656 46.5703 45.4766C47.1797 45.2266 47.7656 44.9375 48.3203 44.625C48.7969 44.3594 49.2422 44.0625 49.6641 43.75C49.7812 43.6641 49.8906 43.5703 50 43.4844V44.1953V46.25ZM52.5 46.25V41.7266C53.9844 41.3984 55.3516 40.9844 56.5703 40.4766C57.8438 39.9453 59.0312 39.2891 60 38.4844V41.25C60 42.0703 59.6094 42.8906 58.8359 43.6641C57.5625 44.9375 55.3203 45.9844 52.4844 46.6641C52.4922 46.5312 52.5 46.3906 52.5 46.25ZM35 55C39.3906 55 43.4844 54.2656 46.5703 52.9766C47.8438 52.4453 49.0312 51.7891 50 50.9844V53.75C50 57.2031 43.2812 60 35 60C26.7188 60 20 57.2031 20 53.75V50.9844C20.9766 51.7891 22.1563 52.4453 23.4297 52.9766C26.5156 54.2656 30.6094 55 35 55Z" fill="#0072D4"></path></svg>