<svg xmlns="http://www.w3.org/2000/svg" width="113" height="36" viewBox="0 0 113 36" fill="none"><path fill-rule="evenodd" clip-rule="evenodd" d="M0.00109231 0H0V36H0.00109258H113V0H0.00109231ZM0.00109231 0L23.3186 17.9995L0.00109258 36L0.00109231 0Z" fill="#1B95FD"></path><path d="M35.0585 16V9H37.5285C38.0085 9 38.4318 9.09333 38.7985 9.28C39.1652 9.46667 39.4518 9.72667 39.6585 10.06C39.8652 10.3867 39.9685 10.7667 39.9685 11.2C39.9685 11.6333 39.8585 12.0167 39.6385 12.35C39.4252 12.6833 39.1285 12.9467 38.7485 13.14C38.3685 13.3267 37.9385 13.42 37.4585 13.42H36.2185V16H35.0585ZM38.9385 16L37.2985 13.16L38.1985 12.54L40.2485 16H38.9385ZM36.2185 12.35H37.5785C37.8052 12.35 38.0052 12.3 38.1785 12.2C38.3585 12.1 38.5018 11.9633 38.6085 11.79C38.7218 11.6167 38.7785 11.42 38.7785 11.2C38.7785 10.8667 38.6585 10.5933 38.4185 10.38C38.1785 10.1667 37.8685 10.06 37.4885 10.06H36.2185V12.35ZM43.4457 16.12C42.959 16.12 42.5257 16.01 42.1457 15.79C41.7724 15.5633 41.4757 15.2533 41.2557 14.86C41.0424 14.4667 40.9357 14.0133 40.9357 13.5C40.9357 12.9867 41.0457 12.5333 41.2657 12.14C41.4857 11.7467 41.7857 11.44 42.1657 11.22C42.5524 10.9933 42.9924 10.88 43.4857 10.88C43.9324 10.88 44.3357 10.9967 44.6957 11.23C45.0557 11.4567 45.339 11.7867 45.5457 12.22C45.759 12.6533 45.8657 13.17 45.8657 13.77H41.9357L42.0857 13.63C42.0857 13.9367 42.1524 14.2033 42.2857 14.43C42.419 14.65 42.5957 14.82 42.8157 14.94C43.0357 15.06 43.279 15.12 43.5457 15.12C43.8524 15.12 44.1057 15.0533 44.3057 14.92C44.5057 14.78 44.6624 14.6 44.7757 14.38L45.7657 14.8C45.6257 15.0667 45.4457 15.3 45.2257 15.5C45.0124 15.7 44.7557 15.8533 44.4557 15.96C44.1624 16.0667 43.8257 16.12 43.4457 16.12ZM42.1557 13.05L41.9957 12.91H44.8157L44.6657 13.05C44.6657 12.7767 44.6057 12.5533 44.4857 12.38C44.3657 12.2 44.2124 12.0667 44.0257 11.98C43.8457 11.8867 43.6557 11.84 43.4557 11.84C43.2557 11.84 43.0557 11.8867 42.8557 11.98C42.6557 12.0667 42.489 12.2 42.3557 12.38C42.2224 12.5533 42.1557 12.7767 42.1557 13.05ZM49.0635 16.12C48.5502 16.12 48.0968 16.01 47.7035 15.79C47.3102 15.5633 47.0002 15.2533 46.7735 14.86C46.5535 14.4667 46.4435 14.0133 46.4435 13.5C46.4435 12.9867 46.5535 12.5333 46.7735 12.14C47.0002 11.7467 47.3068 11.44 47.6935 11.22C48.0868 10.9933 48.5368 10.88 49.0435 10.88C49.5368 10.88 49.9835 11 50.3835 11.24C50.7835 11.4733 51.0802 11.81 51.2735 12.25L50.2335 12.65C50.1268 12.43 49.9635 12.2533 49.7435 12.12C49.5235 11.9867 49.2735 11.92 48.9935 11.92C48.7202 11.92 48.4768 11.99 48.2635 12.13C48.0502 12.2633 47.8835 12.45 47.7635 12.69C47.6435 12.9233 47.5835 13.1933 47.5835 13.5C47.5835 13.8067 47.6435 14.08 47.7635 14.32C47.8902 14.5533 48.0602 14.74 48.2735 14.88C48.4935 15.0133 48.7402 15.08 49.0135 15.08C49.2935 15.08 49.5435 15.01 49.7635 14.87C49.9835 14.7233 50.1468 14.5267 50.2535 14.28L51.2935 14.68C51.1002 15.1333 50.8035 15.4867 50.4035 15.74C50.0102 15.9933 49.5635 16.12 49.0635 16.12ZM54.463 16.12C53.963 16.12 53.5163 16.01 53.123 15.79C52.7363 15.5633 52.433 15.2533 52.213 14.86C51.993 14.4667 51.883 14.0133 51.883 13.5C51.883 12.9867 51.9896 12.5333 52.203 12.14C52.423 11.7467 52.7263 11.44 53.113 11.22C53.4996 10.9933 53.943 10.88 54.443 10.88C54.943 10.88 55.3863 10.9933 55.773 11.22C56.1596 11.44 56.4596 11.7467 56.673 12.14C56.893 12.5333 57.003 12.9867 57.003 13.5C57.003 14.0133 56.8963 14.4667 56.683 14.86C56.4696 15.2533 56.1696 15.5633 55.783 15.79C55.3963 16.01 54.9563 16.12 54.463 16.12ZM54.463 15.09C54.7363 15.09 54.9796 15.0233 55.193 14.89C55.4063 14.75 55.573 14.5633 55.693 14.33C55.813 14.09 55.873 13.8133 55.873 13.5C55.873 13.1867 55.8096 12.9133 55.683 12.68C55.563 12.44 55.3963 12.2533 55.183 12.12C54.9696 11.98 54.723 11.91 54.443 11.91C54.163 11.91 53.9163 11.9767 53.703 12.11C53.4896 12.2433 53.323 12.43 53.203 12.67C53.083 12.91 53.023 13.1867 53.023 13.5C53.023 13.8133 53.083 14.09 53.203 14.33C53.3296 14.5633 53.4996 14.75 53.713 14.89C53.933 15.0233 54.183 15.09 54.463 15.09ZM57.9735 16V11H59.0235L59.0735 11.67C59.2268 11.41 59.4235 11.2133 59.6635 11.08C59.9035 10.9467 60.1768 10.88 60.4835 10.88C60.8835 10.88 61.2235 10.97 61.5035 11.15C61.7835 11.33 61.9868 11.6033 62.1135 11.97C62.2602 11.6167 62.4668 11.3467 62.7335 11.16C63.0002 10.9733 63.3135 10.88 63.6735 10.88C64.2535 10.88 64.7002 11.0667 65.0135 11.44C65.3268 11.8067 65.4802 12.3733 65.4735 13.14V16H64.3635V13.44C64.3635 13.04 64.3202 12.7333 64.2335 12.52C64.1468 12.3 64.0302 12.1467 63.8835 12.06C63.7368 11.9733 63.5668 11.93 63.3735 11.93C63.0268 11.9233 62.7568 12.0467 62.5635 12.3C62.3768 12.5533 62.2835 12.9167 62.2835 13.39V16H61.1635V13.44C61.1635 13.04 61.1202 12.7333 61.0335 12.52C60.9535 12.3 60.8402 12.1467 60.6935 12.06C60.5468 11.9733 60.3768 11.93 60.1835 11.93C59.8368 11.9233 59.5668 12.0467 59.3735 12.3C59.1868 12.5533 59.0935 12.9167 59.0935 13.39V16H57.9735ZM66.6161 16V11H67.6661L67.7161 11.67C67.8694 11.41 68.0661 11.2133 68.3061 11.08C68.5461 10.9467 68.8194 10.88 69.1261 10.88C69.5261 10.88 69.8661 10.97 70.1461 11.15C70.4261 11.33 70.6294 11.6033 70.7561 11.97C70.9028 11.6167 71.1094 11.3467 71.3761 11.16C71.6428 10.9733 71.9561 10.88 72.3161 10.88C72.8961 10.88 73.3428 11.0667 73.6561 11.44C73.9694 11.8067 74.1228 12.3733 74.1161 13.14V16H73.0061V13.44C73.0061 13.04 72.9628 12.7333 72.8761 12.52C72.7894 12.3 72.6728 12.1467 72.5261 12.06C72.3794 11.9733 72.2094 11.93 72.0161 11.93C71.6694 11.9233 71.3994 12.0467 71.2061 12.3C71.0194 12.5533 70.9261 12.9167 70.9261 13.39V16H69.8061V13.44C69.8061 13.04 69.7628 12.7333 69.6761 12.52C69.5961 12.3 69.4828 12.1467 69.3361 12.06C69.1894 11.9733 69.0194 11.93 68.8261 11.93C68.4794 11.9233 68.2094 12.0467 68.0161 12.3C67.8294 12.5533 67.7361 12.9167 67.7361 13.39V16H66.6161ZM77.4887 16.12C77.002 16.12 76.5687 16.01 76.1887 15.79C75.8153 15.5633 75.5187 15.2533 75.2987 14.86C75.0853 14.4667 74.9787 14.0133 74.9787 13.5C74.9787 12.9867 75.0887 12.5333 75.3087 12.14C75.5287 11.7467 75.8287 11.44 76.2087 11.22C76.5953 10.9933 77.0353 10.88 77.5287 10.88C77.9753 10.88 78.3787 10.9967 78.7387 11.23C79.0987 11.4567 79.382 11.7867 79.5887 12.22C79.802 12.6533 79.9087 13.17 79.9087 13.77H75.9787L76.1287 13.63C76.1287 13.9367 76.1953 14.2033 76.3287 14.43C76.462 14.65 76.6387 14.82 76.8587 14.94C77.0787 15.06 77.322 15.12 77.5887 15.12C77.8953 15.12 78.1487 15.0533 78.3487 14.92C78.5487 14.78 78.7053 14.6 78.8187 14.38L79.8087 14.8C79.6687 15.0667 79.4887 15.3 79.2687 15.5C79.0553 15.7 78.7987 15.8533 78.4987 15.96C78.2053 16.0667 77.8687 16.12 77.4887 16.12ZM76.1987 13.05L76.0387 12.91H78.8587L78.7087 13.05C78.7087 12.7767 78.6487 12.5533 78.5287 12.38C78.4087 12.2 78.2553 12.0667 78.0687 11.98C77.8887 11.8867 77.6987 11.84 77.4987 11.84C77.2987 11.84 77.0987 11.8867 76.8987 11.98C76.6987 12.0667 76.532 12.2 76.3987 12.38C76.2653 12.5533 76.1987 12.7767 76.1987 13.05ZM80.7665 16V11H81.8165L81.8865 11.92V16H80.7665ZM84.1565 16V13.44H85.2765V16H84.1565ZM84.1565 13.44C84.1565 13.04 84.1098 12.7333 84.0165 12.52C83.9298 12.3 83.8032 12.1467 83.6365 12.06C83.4765 11.9733 83.2865 11.93 83.0665 11.93C82.6932 11.9233 82.4032 12.0467 82.1965 12.3C81.9898 12.5533 81.8865 12.9167 81.8865 13.39H81.4665C81.4665 12.8633 81.5432 12.4133 81.6965 12.04C81.8498 11.66 82.0698 11.3733 82.3565 11.18C82.6432 10.98 82.9832 10.88 83.3765 10.88C83.7765 10.88 84.1165 10.96 84.3965 11.12C84.6832 11.28 84.8998 11.53 85.0465 11.87C85.1998 12.2033 85.2765 12.64 85.2765 13.18V13.44H84.1565ZM90.021 16L89.971 15.07V9H91.081V16H90.021ZM88.391 16.12C87.9377 16.12 87.541 16.0133 87.201 15.8C86.8677 15.58 86.6043 15.2733 86.411 14.88C86.2243 14.4867 86.131 14.0267 86.131 13.5C86.131 12.9667 86.2243 12.5067 86.411 12.12C86.6043 11.7267 86.8677 11.4233 87.201 11.21C87.541 10.99 87.9377 10.88 88.391 10.88C88.811 10.88 89.171 10.99 89.471 11.21C89.7777 11.4233 90.011 11.7267 90.171 12.12C90.331 12.5067 90.411 12.9667 90.411 13.5C90.411 14.0267 90.331 14.4867 90.171 14.88C90.011 15.2733 89.7777 15.58 89.471 15.8C89.171 16.0133 88.811 16.12 88.391 16.12ZM88.671 15.1C88.9243 15.1 89.1477 15.0333 89.341 14.9C89.541 14.76 89.6943 14.57 89.801 14.33C89.9143 14.09 89.971 13.8133 89.971 13.5C89.971 13.1867 89.9143 12.91 89.801 12.67C89.6943 12.43 89.541 12.2433 89.341 12.11C89.1477 11.9767 88.921 11.91 88.661 11.91C88.3943 11.91 88.1577 11.9767 87.951 12.11C87.7443 12.2433 87.581 12.43 87.461 12.67C87.3477 12.91 87.2877 13.1867 87.281 13.5C87.2877 13.8133 87.3477 14.09 87.461 14.33C87.581 14.57 87.7443 14.76 87.951 14.9C88.1643 15.0333 88.4043 15.1 88.671 15.1ZM94.5492 16.12C94.0626 16.12 93.6292 16.01 93.2492 15.79C92.8759 15.5633 92.5792 15.2533 92.3592 14.86C92.1459 14.4667 92.0392 14.0133 92.0392 13.5C92.0392 12.9867 92.1492 12.5333 92.3692 12.14C92.5892 11.7467 92.8892 11.44 93.2692 11.22C93.6559 10.9933 94.0959 10.88 94.5892 10.88C95.0359 10.88 95.4392 10.9967 95.7992 11.23C96.1592 11.4567 96.4426 11.7867 96.6492 12.22C96.8626 12.6533 96.9692 13.17 96.9692 13.77H93.0392L93.1892 13.63C93.1892 13.9367 93.2559 14.2033 93.3892 14.43C93.5226 14.65 93.6992 14.82 93.9192 14.94C94.1392 15.06 94.3826 15.12 94.6492 15.12C94.9559 15.12 95.2092 15.0533 95.4092 14.92C95.6092 14.78 95.7659 14.6 95.8792 14.38L96.8692 14.8C96.7292 15.0667 96.5492 15.3 96.3292 15.5C96.1159 15.7 95.8592 15.8533 95.5592 15.96C95.2659 16.0667 94.9292 16.12 94.5492 16.12ZM93.2592 13.05L93.0992 12.91H95.9192L95.7692 13.05C95.7692 12.7767 95.7092 12.5533 95.5892 12.38C95.4692 12.2 95.3159 12.0667 95.1292 11.98C94.9492 11.8867 94.7592 11.84 94.5592 11.84C94.3592 11.84 94.1592 11.8867 93.9592 11.98C93.7592 12.0667 93.5926 12.2 93.4592 12.38C93.3259 12.5533 93.2592 12.7767 93.2592 13.05ZM101.437 16L101.387 15.07V9H102.497V16H101.437ZM99.807 16.12C99.3537 16.12 98.957 16.0133 98.617 15.8C98.2837 15.58 98.0204 15.2733 97.827 14.88C97.6404 14.4867 97.547 14.0267 97.547 13.5C97.547 12.9667 97.6404 12.5067 97.827 12.12C98.0204 11.7267 98.2837 11.4233 98.617 11.21C98.957 10.99 99.3537 10.88 99.807 10.88C100.227 10.88 100.587 10.99 100.887 11.21C101.194 11.4233 101.427 11.7267 101.587 12.12C101.747 12.5067 101.827 12.9667 101.827 13.5C101.827 14.0267 101.747 14.4867 101.587 14.88C101.427 15.2733 101.194 15.58 100.887 15.8C100.587 16.0133 100.227 16.12 99.807 16.12ZM100.087 15.1C100.34 15.1 100.564 15.0333 100.757 14.9C100.957 14.76 101.11 14.57 101.217 14.33C101.33 14.09 101.387 13.8133 101.387 13.5C101.387 13.1867 101.33 12.91 101.217 12.67C101.11 12.43 100.957 12.2433 100.757 12.11C100.564 11.9767 100.337 11.91 100.077 11.91C99.8104 11.91 99.5737 11.9767 99.367 12.11C99.1604 12.2433 98.997 12.43 98.877 12.67C98.7637 12.91 98.7037 13.1867 98.697 13.5C98.7037 13.8133 98.7637 14.09 98.877 14.33C98.997 14.57 99.1604 14.76 99.367 14.9C99.5804 15.0333 99.8204 15.1 100.087 15.1ZM35.0585 28V21H39.4085V22.06H36.2185V24.02H38.9485V25.08H36.2185V28H35.0585ZM42.5782 28.12C42.0782 28.12 41.6315 28.01 41.2382 27.79C40.8515 27.5633 40.5482 27.2533 40.3282 26.86C40.1082 26.4667 39.9982 26.0133 39.9982 25.5C39.9982 24.9867 40.1049 24.5333 40.3182 24.14C40.5382 23.7467 40.8415 23.44 41.2282 23.22C41.6149 22.9933 42.0582 22.88 42.5582 22.88C43.0582 22.88 43.5015 22.9933 43.8882 23.22C44.2749 23.44 44.5749 23.7467 44.7882 24.14C45.0082 24.5333 45.1182 24.9867 45.1182 25.5C45.1182 26.0133 45.0115 26.4667 44.7982 26.86C44.5849 27.2533 44.2849 27.5633 43.8982 27.79C43.5115 28.01 43.0715 28.12 42.5782 28.12ZM42.5782 27.09C42.8515 27.09 43.0949 27.0233 43.3082 26.89C43.5215 26.75 43.6882 26.5633 43.8082 26.33C43.9282 26.09 43.9882 25.8133 43.9882 25.5C43.9882 25.1867 43.9249 24.9133 43.7982 24.68C43.6782 24.44 43.5115 24.2533 43.2982 24.12C43.0849 23.98 42.8382 23.91 42.5582 23.91C42.2782 23.91 42.0315 23.9767 41.8182 24.11C41.6049 24.2433 41.4382 24.43 41.3182 24.67C41.1982 24.91 41.1382 25.1867 41.1382 25.5C41.1382 25.8133 41.1982 26.09 41.3182 26.33C41.4449 26.5633 41.6149 26.75 41.8282 26.89C42.0482 27.0233 42.2982 27.09 42.5782 27.09ZM46.8288 25.34C46.8288 24.8 46.9321 24.3567 47.1388 24.01C47.3454 23.6633 47.6121 23.4067 47.9388 23.24C48.2721 23.0667 48.6188 22.98 48.9788 22.98V24.05C48.6721 24.05 48.3821 24.0933 48.1087 24.18C47.8421 24.26 47.6254 24.3933 47.4588 24.58C47.2921 24.7667 47.2088 25.0133 47.2088 25.32L46.8288 25.34ZM46.0888 28V23H47.2088V28H46.0888ZM52.3437 28V21H54.8137C55.2937 21 55.717 21.0967 56.0837 21.29C56.4503 21.4833 56.737 21.7533 56.9437 22.1C57.1503 22.44 57.2537 22.8367 57.2537 23.29C57.2537 23.73 57.157 24.1233 56.9637 24.47C56.7703 24.8167 56.5003 25.09 56.1537 25.29C55.8137 25.4833 55.417 25.58 54.9637 25.58H53.5037V28H52.3437ZM53.5037 24.51H54.9437C55.277 24.51 55.5503 24.3967 55.7637 24.17C55.977 23.9433 56.0837 23.65 56.0837 23.29C56.0837 22.9233 55.9637 22.6267 55.7237 22.4C55.4837 22.1733 55.1737 22.06 54.7937 22.06H53.5037V24.51ZM61.0235 28L60.9735 27.06V25.43C60.9735 25.09 60.9368 24.8067 60.8635 24.58C60.7968 24.3467 60.6835 24.17 60.5235 24.05C60.3702 23.9233 60.1635 23.86 59.9035 23.86C59.6635 23.86 59.4535 23.91 59.2735 24.01C59.0935 24.11 58.9402 24.2667 58.8135 24.48L57.8335 24.12C57.9402 23.9 58.0802 23.6967 58.2535 23.51C58.4335 23.3167 58.6568 23.1633 58.9235 23.05C59.1968 22.9367 59.5235 22.88 59.9035 22.88C60.3902 22.88 60.7968 22.9767 61.1235 23.17C61.4502 23.3567 61.6902 23.6267 61.8435 23.98C62.0035 24.3333 62.0835 24.76 62.0835 25.26L62.0535 28H61.0235ZM59.5835 28.12C58.9835 28.12 58.5168 27.9867 58.1835 27.72C57.8568 27.4533 57.6935 27.0767 57.6935 26.59C57.6935 26.07 57.8668 25.6733 58.2135 25.4C58.5668 25.1267 59.0568 24.99 59.6835 24.99H61.0235V25.85H60.0435C59.5968 25.85 59.2835 25.9133 59.1035 26.04C58.9235 26.16 58.8335 26.3333 58.8335 26.56C58.8335 26.7533 58.9102 26.9067 59.0635 27.02C59.2235 27.1267 59.4435 27.18 59.7235 27.18C59.9768 27.18 60.1968 27.1233 60.3835 27.01C60.5702 26.8967 60.7135 26.7467 60.8135 26.56C60.9202 26.3733 60.9735 26.1633 60.9735 25.93H61.3035C61.3035 26.61 61.1668 27.1467 60.8935 27.54C60.6202 27.9267 60.1835 28.12 59.5835 28.12ZM65.2077 28.12C64.681 28.12 64.2777 27.99 63.9977 27.73C63.7243 27.4633 63.5877 27.0833 63.5877 26.59V21.44H64.6977V26.38C64.6977 26.6133 64.751 26.79 64.8577 26.91C64.971 27.03 65.1343 27.09 65.3477 27.09C65.4143 27.09 65.4877 27.0767 65.5677 27.05C65.6477 27.0233 65.7377 26.9733 65.8377 26.9L66.2477 27.75C66.0743 27.87 65.901 27.96 65.7277 28.02C65.5543 28.0867 65.381 28.12 65.2077 28.12ZM62.7577 23.96V23H66.0477V23.96H62.7577ZM67.2134 28V23H68.3234V28H67.2134ZM67.7734 22.05C67.5934 22.05 67.4368 21.9867 67.3034 21.86C67.1768 21.7267 67.1134 21.57 67.1134 21.39C67.1134 21.21 67.1768 21.0567 67.3034 20.93C67.4368 20.8033 67.5934 20.74 67.7734 20.74C67.9534 20.74 68.1068 20.8033 68.2334 20.93C68.3668 21.0567 68.4334 21.21 68.4334 21.39C68.4334 21.57 68.3668 21.7267 68.2334 21.86C68.1068 21.9867 67.9534 22.05 67.7734 22.05ZM71.8734 28.12C71.3868 28.12 70.9534 28.01 70.5734 27.79C70.2001 27.5633 69.9034 27.2533 69.6834 26.86C69.4701 26.4667 69.3634 26.0133 69.3634 25.5C69.3634 24.9867 69.4734 24.5333 69.6934 24.14C69.9134 23.7467 70.2134 23.44 70.5934 23.22C70.9801 22.9933 71.4201 22.88 71.9134 22.88C72.3601 22.88 72.7634 22.9967 73.1234 23.23C73.4834 23.4567 73.7668 23.7867 73.9734 24.22C74.1868 24.6533 74.2934 25.17 74.2934 25.77H70.3634L70.5134 25.63C70.5134 25.9367 70.5801 26.2033 70.7134 26.43C70.8468 26.65 71.0234 26.82 71.2434 26.94C71.4634 27.06 71.7068 27.12 71.9734 27.12C72.2801 27.12 72.5334 27.0533 72.7334 26.92C72.9334 26.78 73.0901 26.6 73.2034 26.38L74.1934 26.8C74.0534 27.0667 73.8734 27.3 73.6534 27.5C73.4401 27.7 73.1834 27.8533 72.8834 27.96C72.5901 28.0667 72.2534 28.12 71.8734 28.12ZM70.5834 25.05L70.4234 24.91H73.2434L73.0934 25.05C73.0934 24.7767 73.0334 24.5533 72.9134 24.38C72.7934 24.2 72.6401 24.0667 72.4534 23.98C72.2734 23.8867 72.0834 23.84 71.8834 23.84C71.6834 23.84 71.4834 23.8867 71.2834 23.98C71.0834 24.0667 70.9168 24.2 70.7834 24.38C70.6501 24.5533 70.5834 24.7767 70.5834 25.05ZM75.1513 28V23H76.2013L76.2713 23.92V28H75.1513ZM78.5413 28V25.44H79.6613V28H78.5413ZM78.5413 25.44C78.5413 25.04 78.4946 24.7333 78.4013 24.52C78.3146 24.3 78.1879 24.1467 78.0213 24.06C77.8613 23.9733 77.6713 23.93 77.4513 23.93C77.0779 23.9233 76.7879 24.0467 76.5813 24.3C76.3746 24.5533 76.2713 24.9167 76.2713 25.39H75.8512C75.8512 24.8633 75.9279 24.4133 76.0813 24.04C76.2346 23.66 76.4546 23.3733 76.7413 23.18C77.0279 22.98 77.3679 22.88 77.7613 22.88C78.1613 22.88 78.5013 22.96 78.7813 23.12C79.0679 23.28 79.2846 23.53 79.4313 23.87C79.5846 24.2033 79.6613 24.64 79.6613 25.18V25.44H78.5413ZM82.7858 28.12C82.2591 28.12 81.8558 27.99 81.5758 27.73C81.3024 27.4633 81.1658 27.0833 81.1658 26.59V21.44H82.2758V26.38C82.2758 26.6133 82.3291 26.79 82.4358 26.91C82.5491 27.03 82.7124 27.09 82.9258 27.09C82.9924 27.09 83.0658 27.0767 83.1458 27.05C83.2258 27.0233 83.3158 26.9733 83.4158 26.9L83.8258 27.75C83.6524 27.87 83.4791 27.96 83.3058 28.02C83.1324 28.0867 82.9591 28.12 82.7858 28.12ZM80.3358 23.96V23H83.6258V23.96H80.3358ZM86.5416 28.12C86.2082 28.12 85.9016 28.07 85.6216 27.97C85.3416 27.87 85.1016 27.73 84.9016 27.55C84.7016 27.3633 84.5482 27.1467 84.4416 26.9L85.4116 26.47C85.5116 26.6567 85.6582 26.8133 85.8516 26.94C86.0516 27.0667 86.2716 27.13 86.5116 27.13C86.7716 27.13 86.9782 27.0867 87.1316 27C87.2916 26.9067 87.3716 26.78 87.3716 26.62C87.3716 26.4667 87.3116 26.35 87.1916 26.27C87.0716 26.1833 86.9016 26.1133 86.6816 26.06L86.2116 25.93C85.7382 25.81 85.3682 25.62 85.1016 25.36C84.8349 25.0933 84.7016 24.79 84.7016 24.45C84.7016 23.95 84.8616 23.5633 85.1816 23.29C85.5082 23.0167 85.9749 22.88 86.5816 22.88C86.8882 22.88 87.1682 22.9267 87.4216 23.02C87.6816 23.1067 87.9049 23.2333 88.0916 23.4C88.2782 23.56 88.4082 23.75 88.4816 23.97L87.5516 24.39C87.4849 24.2233 87.3582 24.0967 87.1716 24.01C86.9849 23.9167 86.7782 23.87 86.5516 23.87C86.3249 23.87 86.1482 23.92 86.0216 24.02C85.8949 24.1133 85.8316 24.2467 85.8316 24.42C85.8316 24.52 85.8882 24.6133 86.0016 24.7C86.1149 24.78 86.2782 24.8467 86.4916 24.9L87.0816 25.04C87.4082 25.12 87.6749 25.2467 87.8816 25.42C88.0882 25.5867 88.2416 25.7767 88.3416 25.99C88.4416 26.1967 88.4916 26.4067 88.4916 26.62C88.4916 26.92 88.4049 27.1833 88.2316 27.41C88.0649 27.6367 87.8349 27.8133 87.5416 27.94C87.2482 28.06 86.9149 28.12 86.5416 28.12Z" fill="white"></path></svg>