<svg xmlns="http://www.w3.org/2000/svg" width="45" height="44" viewBox="0 0 45 44" fill="none"><path fill-rule="evenodd" clip-rule="evenodd" d="M17.3904 1C18.7135 0.999986 20.0041 1.41468 21.0855 2.18724C22.1669 2.9598 22.986 4.05241 23.4306 5.31529H42.5V8.03873L37.6918 11.322V37.818H40.8973C41.1806 37.818 41.4524 37.9321 41.6528 38.1352C41.8532 38.3382 41.9658 38.6137 41.9658 38.9009C41.9658 39.1881 41.8532 39.4635 41.6528 39.6666C41.4524 39.8697 41.1806 39.9838 40.8973 39.9838H37.6918V40H7.77397V39.9838H4.56849C4.28511 39.9838 4.01334 39.8697 3.81295 39.6666C3.61257 39.4635 3.5 39.1881 3.5 38.9009C3.5 38.6137 3.61257 38.3382 3.81295 38.1352C4.01334 37.9321 4.28511 37.818 4.56849 37.818H7.77397V11.2841L3.5 8.003V5.3142H11.3502C11.795 4.05153 12.6142 2.95915 13.6956 2.1868C14.7769 1.41444 16.0675 0.999907 17.3904 1ZM18.4589 6.41441V4.24865H16.3219V6.41441H14.1849V8.58018H16.3219V10.7459H18.4589V8.58018H20.5959V6.41441H18.4589ZM33.4178 20.4919V37.818H24.8699V20.4919H33.4178ZM19.5274 20.4919H12.0479V28.0721H19.5274V20.4919Z" fill="#F15056"></path></svg>