<svg xmlns="http://www.w3.org/2000/svg" width="140" height="30" viewBox="0 0 140 30" fill="none"><rect x="0.5" y="0.5" width="139" height="29" rx="3.5" fill="white"></rect><rect x="0.5" y="0.5" width="139" height="29" rx="3.5" stroke="#E1B61D"></rect><circle cx="19.5" cy="15" r="9" fill="#FFF0BC"></circle><path d="M23.55 18.5485H15.45C15.2787 18.5485 15.1385 18.6945 15.1385 18.873V19.522C15.1385 19.7005 15.2787 19.8465 15.45 19.8465H23.55C23.7213 19.8465 23.8615 19.7005 23.8615 19.522V18.873C23.8615 18.6945 23.7213 18.5485 23.55 18.5485ZM24.7962 12.0581C24.2802 12.0581 23.8615 12.4941 23.8615 13.0316C23.8615 13.1756 23.8927 13.3095 23.9472 13.4332L22.5375 14.3135C22.2376 14.5001 21.8502 14.3946 21.6769 14.0782L20.09 11.1859C20.2983 11.0074 20.4346 10.7397 20.4346 10.4355C20.4346 9.89799 20.016 9.46191 19.5 9.46191C18.984 9.46191 18.5654 9.89799 18.5654 10.4355C18.5654 10.7397 18.7017 11.0074 18.91 11.1859L17.3231 14.0782C17.1498 14.3946 16.7604 14.5001 16.4625 14.3135L15.0547 13.4332C15.1073 13.3115 15.1404 13.1756 15.1404 13.0316C15.1404 12.4941 14.7218 12.0581 14.2058 12.0581C13.6898 12.0581 13.2692 12.4941 13.2692 13.0316C13.2692 13.5691 13.6879 14.0052 14.2038 14.0052C14.2545 14.0052 14.3051 13.9971 14.3538 13.989L15.7615 17.8994H23.2385L24.6462 13.989C24.6949 13.9971 24.7455 14.0052 24.7962 14.0052C25.3121 14.0052 25.7308 13.5691 25.7308 13.0316C25.7308 12.4941 25.3121 12.0581 24.7962 12.0581Z" fill="#E1B61D"></path><path d="M35.8559 19.5V9.7H39.3139C39.9859 9.7 40.5786 9.83533 41.0919 10.106C41.6053 10.3767 42.0066 10.7547 42.2959 11.24C42.5853 11.716 42.7299 12.2713 42.7299 12.906C42.7299 13.522 42.5946 14.0727 42.3239 14.558C42.0533 15.0433 41.6753 15.426 41.1899 15.706C40.7139 15.9767 40.1586 16.112 39.5239 16.112H37.4799V19.5H35.8559ZM37.4799 14.614H39.4959C39.9626 14.614 40.3453 14.4553 40.6439 14.138C40.9426 13.8207 41.0919 13.41 41.0919 12.906C41.0919 12.3927 40.9239 11.9773 40.5879 11.66C40.2519 11.3427 39.8179 11.184 39.2859 11.184H37.4799V14.614ZM45.5694 15.776C45.5694 15.02 45.7141 14.3993 46.0034 13.914C46.2928 13.4287 46.6661 13.0693 47.1234 12.836C47.5901 12.5933 48.0754 12.472 48.5794 12.472V13.97C48.1501 13.97 47.7441 14.0307 47.3614 14.152C46.9881 14.264 46.6848 14.4507 46.4514 14.712C46.2181 14.9733 46.1014 15.3187 46.1014 15.748L45.5694 15.776ZM44.5334 19.5V12.5H46.1014V19.5H44.5334ZM53.4414 19.668C52.76 19.668 52.1534 19.514 51.6214 19.206C51.0987 18.8887 50.6834 18.4547 50.3754 17.904C50.0767 17.3533 49.9274 16.7187 49.9274 16C49.9274 15.2813 50.0814 14.6467 50.3894 14.096C50.6974 13.5453 51.1174 13.116 51.6494 12.808C52.1907 12.4907 52.8067 12.332 53.4974 12.332C54.1227 12.332 54.6874 12.4953 55.1914 12.822C55.6954 13.1393 56.092 13.6013 56.3814 14.208C56.68 14.8147 56.8294 15.538 56.8294 16.378H51.3274L51.5374 16.182C51.5374 16.6113 51.6307 16.9847 51.8174 17.302C52.004 17.61 52.2514 17.848 52.5594 18.016C52.8674 18.184 53.208 18.268 53.5814 18.268C54.0107 18.268 54.3654 18.1747 54.6454 17.988C54.9254 17.792 55.1447 17.54 55.3034 17.232L56.6894 17.82C56.4934 18.1933 56.2414 18.52 55.9334 18.8C55.6347 19.08 55.2754 19.2947 54.8554 19.444C54.4447 19.5933 53.9734 19.668 53.4414 19.668ZM51.6354 15.37L51.4114 15.174H55.3594L55.1494 15.37C55.1494 14.9873 55.0654 14.6747 54.8974 14.432C54.7294 14.18 54.5147 13.9933 54.2534 13.872C54.0014 13.7413 53.7354 13.676 53.4554 13.676C53.1754 13.676 52.8954 13.7413 52.6154 13.872C52.3354 13.9933 52.102 14.18 51.9154 14.432C51.7287 14.6747 51.6354 14.9873 51.6354 15.37ZM58.7303 19.5V12.5H60.2003L60.2703 13.438C60.485 13.074 60.7603 12.7987 61.0963 12.612C61.4323 12.4253 61.815 12.332 62.2443 12.332C62.8043 12.332 63.2803 12.458 63.6723 12.71C64.0643 12.962 64.349 13.3447 64.5263 13.858C64.7316 13.3633 65.021 12.9853 65.3943 12.724C65.7676 12.4627 66.2063 12.332 66.7103 12.332C67.5223 12.332 68.1476 12.5933 68.5863 13.116C69.025 13.6293 69.2396 14.4227 69.2303 15.496V19.5H67.6763V15.916C67.6763 15.356 67.6156 14.9267 67.4943 14.628C67.373 14.32 67.2096 14.1053 67.0043 13.984C66.799 13.8627 66.561 13.802 66.2903 13.802C65.805 13.7927 65.427 13.9653 65.1563 14.32C64.895 14.6747 64.7643 15.1833 64.7643 15.846V19.5H63.1963V15.916C63.1963 15.356 63.1356 14.9267 63.0143 14.628C62.9023 14.32 62.7436 14.1053 62.5383 13.984C62.333 13.8627 62.095 13.802 61.8243 13.802C61.339 13.7927 60.961 13.9653 60.6903 14.32C60.429 14.6747 60.2983 15.1833 60.2983 15.846V19.5H58.7303ZM71.6279 19.5V12.5H73.1819V19.5H71.6279ZM72.4119 11.17C72.1599 11.17 71.9406 11.0813 71.7539 10.904C71.5766 10.7173 71.4879 10.498 71.4879 10.246C71.4879 9.994 71.5766 9.77933 71.7539 9.602C71.9406 9.42467 72.1599 9.336 72.4119 9.336C72.6639 9.336 72.8786 9.42467 73.0559 9.602C73.2426 9.77933 73.3359 9.994 73.3359 10.246C73.3359 10.498 73.2426 10.7173 73.0559 10.904C72.8786 11.0813 72.6639 11.17 72.4119 11.17ZM80.4199 19.5L80.3359 18.212V12.5H81.8899V19.5H80.4199ZM75.5759 16.084V12.5H77.1439V16.084H75.5759ZM77.1439 16.084C77.1439 16.6347 77.2092 17.064 77.3399 17.372C77.4706 17.68 77.6479 17.8947 77.8719 18.016C78.1052 18.1373 78.3712 18.198 78.6699 18.198C79.2019 18.2073 79.6126 18.0347 79.9019 17.68C80.1912 17.3253 80.3359 16.8167 80.3359 16.154H80.9239C80.9239 16.8913 80.8119 17.526 80.5879 18.058C80.3732 18.5807 80.0652 18.982 79.6639 19.262C79.2719 19.5327 78.7959 19.668 78.2359 19.668C77.6852 19.668 77.2092 19.556 76.8079 19.332C76.4159 19.108 76.1126 18.758 75.8979 18.282C75.6832 17.806 75.5759 17.1947 75.5759 16.448V16.084H77.1439ZM84.3323 19.5V12.5H85.8023L85.8723 13.438C86.0869 13.074 86.3623 12.7987 86.6983 12.612C87.0343 12.4253 87.4169 12.332 87.8463 12.332C88.4063 12.332 88.8823 12.458 89.2743 12.71C89.6663 12.962 89.9509 13.3447 90.1283 13.858C90.3336 13.3633 90.6229 12.9853 90.9963 12.724C91.3696 12.4627 91.8083 12.332 92.3123 12.332C93.1243 12.332 93.7496 12.5933 94.1883 13.116C94.6269 13.6293 94.8416 14.4227 94.8323 15.496V19.5H93.2783V15.916C93.2783 15.356 93.2176 14.9267 93.0963 14.628C92.9749 14.32 92.8116 14.1053 92.6063 13.984C92.4009 13.8627 92.1629 13.802 91.8923 13.802C91.4069 13.7927 91.0289 13.9653 90.7583 14.32C90.4969 14.6747 90.3663 15.1833 90.3663 15.846V19.5H88.7983V15.916C88.7983 15.356 88.7376 14.9267 88.6163 14.628C88.5043 14.32 88.3456 14.1053 88.1403 13.984C87.9349 13.8627 87.6969 13.802 87.4263 13.802C86.9409 13.7927 86.5629 13.9653 86.2923 14.32C86.0309 14.6747 85.9003 15.1833 85.9003 15.846V19.5H84.3323ZM101.503 19.5V9.7H104.961C105.633 9.7 106.225 9.83533 106.739 10.106C107.252 10.3767 107.653 10.7547 107.943 11.24C108.232 11.716 108.377 12.2713 108.377 12.906C108.377 13.522 108.241 14.0727 107.971 14.558C107.7 15.0433 107.322 15.426 106.837 15.706C106.361 15.9767 105.805 16.112 105.171 16.112H103.127V19.5H101.503ZM103.127 14.614H105.143C105.609 14.614 105.992 14.4553 106.291 14.138C106.589 13.8207 106.739 13.41 106.739 12.906C106.739 12.3927 106.571 11.9773 106.235 11.66C105.899 11.3427 105.465 11.184 104.933 11.184H103.127V14.614ZM110.221 19.5V9.7H111.789V19.5H110.221ZM118.5 19.5L118.43 18.184V15.902C118.43 15.426 118.379 15.0293 118.276 14.712C118.183 14.3853 118.024 14.138 117.8 13.97C117.585 13.7927 117.296 13.704 116.932 13.704C116.596 13.704 116.302 13.774 116.05 13.914C115.798 14.054 115.583 14.2733 115.406 14.572L114.034 14.068C114.183 13.76 114.379 13.4753 114.622 13.214C114.874 12.9433 115.187 12.7287 115.56 12.57C115.943 12.4113 116.4 12.332 116.932 12.332C117.613 12.332 118.183 12.4673 118.64 12.738C119.097 12.9993 119.433 13.3773 119.648 13.872C119.872 14.3667 119.984 14.964 119.984 15.664L119.942 19.5H118.5ZM116.484 19.668C115.644 19.668 114.991 19.4813 114.524 19.108C114.067 18.7347 113.838 18.2073 113.838 17.526C113.838 16.798 114.081 16.2427 114.566 15.86C115.061 15.4773 115.747 15.286 116.624 15.286H118.5V16.49H117.128C116.503 16.49 116.064 16.5787 115.812 16.756C115.56 16.924 115.434 17.1667 115.434 17.484C115.434 17.7547 115.541 17.9693 115.756 18.128C115.98 18.2773 116.288 18.352 116.68 18.352C117.035 18.352 117.343 18.2727 117.604 18.114C117.865 17.9553 118.066 17.7453 118.206 17.484C118.355 17.2227 118.43 16.9287 118.43 16.602H118.892C118.892 17.554 118.701 18.3053 118.318 18.856C117.935 19.3973 117.324 19.668 116.484 19.668ZM122.272 19.5V12.5H123.742L123.84 13.788V19.5H122.272ZM127.018 19.5V15.916H128.586V19.5H127.018ZM127.018 15.916C127.018 15.356 126.952 14.9267 126.822 14.628C126.7 14.32 126.523 14.1053 126.29 13.984C126.066 13.8627 125.8 13.802 125.492 13.802C124.969 13.7927 124.563 13.9653 124.274 14.32C123.984 14.6747 123.84 15.1833 123.84 15.846H123.252C123.252 15.1087 123.359 14.4787 123.574 13.956C123.788 13.424 124.096 13.0227 124.498 12.752C124.899 12.472 125.375 12.332 125.926 12.332C126.486 12.332 126.962 12.444 127.354 12.668C127.755 12.892 128.058 13.242 128.264 13.718C128.478 14.1847 128.586 14.796 128.586 15.552V15.916H127.018Z" fill="#22272B"></path></svg>