<svg xmlns="http://www.w3.org/2000/svg" width="45" height="44" viewBox="0 0 45 44" fill="none"><g clip-path="url(#clip0_1277_18451)"><path d="M1.75 18.8482V7.68921C1.75 6.63841 2.09303 5.76123 2.7791 5.05765C3.46369 4.35255 4.3172 4 5.33963 4H38.1686C39.1911 4 40.0446 4.35255 40.7292 5.05765C41.4152 5.76123 41.7583 6.63841 41.7583 7.68921V20.8333C41.4708 20.7419 41.1952 20.681 40.9314 20.6506C40.6677 20.6201 40.3876 20.6049 40.0913 20.6049C39.2392 20.6049 38.3946 20.7191 37.5574 20.9475C36.7187 21.176 35.8963 21.4996 35.0902 21.9184C34.5568 21.5833 34.0122 21.3092 33.4566 21.096C32.9009 20.8858 32.3341 20.7381 31.7562 20.6528V18.8482H24.6814L20.5472 10.3505C20.4479 10.1753 20.3057 10.0444 20.1205 9.95756C19.9352 9.86923 19.7389 9.82507 19.5315 9.82507C19.324 9.82507 19.1343 9.86923 18.9624 9.95756C18.792 10.0444 18.6572 10.1761 18.5579 10.3528L10.6407 26.535L7.1689 19.4901C7.06962 19.2769 6.93478 19.117 6.76437 19.0104C6.59248 18.9023 6.40281 18.8482 6.19536 18.8482H1.75ZM5.33963 35.9808C4.3172 35.9808 3.46369 35.629 2.7791 34.9254C2.09303 34.2203 1.75 33.3424 1.75 32.2916V21.1326H5.49077L9.62496 29.6303C9.72424 29.8435 9.86649 30.0034 10.0517 30.11C10.2369 30.2166 10.4333 30.2699 10.6407 30.2699C10.8482 30.2699 11.0378 30.2166 11.2097 30.11C11.3801 30.0034 11.515 29.8572 11.6143 29.6714L19.5315 13.4457L23.0033 20.4907C23.1026 20.6886 23.227 20.8409 23.3767 20.9475C23.5249 21.0541 23.699 21.1158 23.899 21.1326H27.5331C25.4467 21.6534 23.6908 22.8397 22.2654 24.6916C20.8428 26.5419 20.1316 28.6358 20.1316 30.9735C20.1316 31.9862 20.2346 32.8596 20.4405 33.5936C20.648 34.3277 21.0132 35.1234 21.5363 35.9808H5.33963ZM30.0892 26.053C30.7753 26.053 31.4235 26.2084 32.034 26.519C32.6445 26.8297 33.2498 27.2904 33.85 27.9011L35.0902 29.0432L36.286 27.9467C36.9158 27.3056 37.5359 26.8297 38.1464 26.519C38.7569 26.2084 39.4052 26.053 40.0913 26.053C41.3686 26.053 42.4643 26.5373 43.3786 27.5059C44.2929 28.4759 44.75 29.6318 44.75 30.9735C44.75 32.0212 44.3114 33.0804 43.4342 34.151C42.5569 35.2216 40.5736 37.126 37.4841 39.8641L35.0902 42L32.6964 39.8641C29.6069 37.126 27.6235 35.2224 26.7463 34.1533C25.8691 33.0812 25.4305 32.0212 25.4305 30.9735C25.4305 29.6318 25.8876 28.4759 26.8018 27.5059C27.7161 26.5373 28.8119 26.053 30.0892 26.053Z" fill="#F15056"></path></g><defs><clipPath id="clip0_1277_18451"><rect width="44" height="44" fill="white" transform="translate(0.5)"></rect></clipPath></defs></svg>