<svg xmlns="http://www.w3.org/2000/svg" width="45" height="44" viewBox="0 0 45 44" fill="none"><path d="M28.89 31.372C35.685 32.626 40.5 35.838 40.5 39.6V44H4.5V39.6C4.5 35.838 9.315 32.626 16.11 31.372L22.5 41.8L28.89 31.372ZM13.5 13.2H31.5V17.6C31.5 19.9339 30.5518 22.1722 28.864 23.8226C27.1761 25.4729 24.8869 26.4 22.5 26.4C20.1131 26.4 17.8239 25.4729 16.136 23.8226C14.4482 22.1722 13.5 19.9339 13.5 17.6V13.2ZM13.5 11L14.4225 1.98003C14.4785 1.43548 14.74 0.930873 15.1561 0.564753C15.5721 0.198633 16.1128 -0.002715 16.6725 2.76547e-05H28.35C29.4975 2.76547e-05 30.465 0.858027 30.5775 1.98003L31.5 11H13.5ZM22.5 2.20003H20.25V4.40002H18V6.60002H20.25V8.80002H22.5V6.60002H24.75V4.40002H22.5V2.20003Z" fill="#F15056"></path></svg>