<svg xmlns="http://www.w3.org/2000/svg" width="38" height="296" viewBox="0 0 38 296" fill="none"><path d="M3.00185 296L0.676125 278.836L16.7031 285.404L3.00185 296ZM4.25786 0.179645C5.1846 1.5983 6.09425 3.04481 6.98655 4.51851L4.42029 6.07232C3.54539 4.62735 2.65395 3.20983 1.74627 1.82035L4.25786 0.179645ZM12.0252 13.4806C13.5825 16.4644 15.0759 19.541 16.5038 22.706L13.7693 23.9398C12.3641 20.8251 10.8955 17.8 9.36564 14.8686L12.0252 13.4806ZM20.4776 32.1752C21.7014 35.3152 22.8656 38.5301 23.9687 41.8163L21.1246 42.7709C20.0364 39.5288 18.8884 36.3589 17.6824 33.2647L20.4776 32.1752ZM27.0087 51.591C27.9397 54.8315 28.8146 58.1329 29.632 61.4921L26.7171 62.2014C25.9091 58.8812 25.0448 55.6195 24.1254 52.4193L27.0087 51.591ZM31.8608 71.4926C32.5326 74.8026 33.1511 78.1626 33.715 81.5699L30.7553 82.0598C30.1972 78.6876 29.5852 75.3632 28.9207 72.0893L31.8608 71.4926ZM35.2103 91.6863C35.647 95.0322 36.0327 98.4191 36.3665 101.845L33.3807 102.136C33.05 98.7421 32.6679 95.3876 32.2356 92.0745L35.2103 91.6863ZM37.1982 112.036C37.4208 115.406 37.5943 118.811 37.7178 122.247L34.7198 122.355C34.5973 118.948 34.4253 115.574 34.2047 112.233L37.1982 112.036ZM37.9365 132.469C37.9602 135.85 37.9363 139.258 37.8642 142.692L34.8648 142.629C34.9364 139.223 34.96 135.842 34.9366 132.49L37.9365 132.469ZM37.5098 152.908C37.3467 156.287 37.1375 159.688 36.8813 163.11L33.8897 162.886C34.1439 159.49 34.3515 156.116 34.5132 152.764L37.5098 152.908ZM35.986 173.291C35.6461 176.658 35.2611 180.043 34.8303 183.445L31.8541 183.068C32.2817 179.692 32.6638 176.332 33.0012 172.99L35.986 173.291ZM33.4201 193.566C32.9114 196.913 32.3585 200.275 31.7608 203.649L28.8068 203.126C29.4002 199.776 29.9492 196.438 30.4542 193.115L33.4201 193.566ZM29.8572 213.689C29.1863 217.008 28.472 220.339 27.7138 223.68L24.7882 223.016C25.5412 219.698 26.2504 216.391 26.9167 213.094L29.8572 213.689ZM25.3347 233.618C24.5072 236.904 23.637 240.198 22.7237 243.499L19.8323 242.698C20.7395 239.42 21.6037 236.149 22.4255 232.885L25.3347 233.618ZM19.8844 253.317C18.9059 256.56 17.8855 259.809 16.8226 263.062L13.971 262.13C15.0268 258.899 16.0404 255.672 17.0122 252.451L19.8844 253.317ZM13.5416 272.73C12.4168 275.925 11.2507 279.123 10.0429 282.323L7.23619 281.263C8.43613 278.084 9.59452 274.908 10.7119 271.734L13.5416 272.73Z" fill="url(#paint0_linear_4651_86299)"></path><defs><linearGradient id="paint0_linear_4651_86299" x1="19.7235" y1="296" x2="19.7235" y2="1" gradientUnits="userSpaceOnUse"><stop stop-color="white"></stop><stop offset="0.38" stop-color="#5C6062"></stop></linearGradient></defs></svg>