<svg xmlns="http://www.w3.org/2000/svg" width="38" height="327" viewBox="0 0 38 327" fill="none"><path d="M35.0019 326.5L37.3442 309.339L21.3109 315.891L35.0019 326.5ZM30.9895 312.214C29.8491 309.147 28.7458 306.062 27.6793 302.961L24.8424 303.937C25.9168 307.06 27.0284 310.169 28.1775 313.26L30.9895 312.214ZM24.5951 293.63C23.6045 290.509 22.65 287.375 21.7313 284.229L18.8516 285.07C19.7767 288.238 20.7379 291.395 21.7357 294.538L24.5951 293.63ZM19.0832 274.763C18.2358 271.597 17.4238 268.421 16.6467 265.238L13.7323 265.95C14.5146 269.154 15.332 272.351 16.1852 275.538L19.0832 274.763ZM14.4186 255.663C13.7097 252.461 13.0355 249.254 12.3956 246.044L9.45345 246.63C10.0975 249.861 10.776 253.089 11.4895 256.312L14.4186 255.663ZM10.5741 236.381C9.99932 233.148 9.45876 229.914 8.95198 226.68L5.98816 227.145C6.49809 230.399 7.04202 233.653 7.62039 236.906L10.5741 236.381ZM7.52787 216.949C7.08502 213.693 6.67605 210.44 6.30053 207.192L3.32038 207.537C3.69819 210.805 4.10967 214.078 4.55525 217.353L7.52787 216.949ZM5.26922 197.415C4.95712 194.142 4.67878 190.877 4.43374 187.621L1.4422 187.846C1.68873 191.122 1.96877 194.407 2.28278 197.699L5.26922 197.415ZM3.79405 177.81C3.61271 174.521 3.46534 171.244 3.35145 167.981L0.353274 168.086C0.467867 171.369 0.61615 174.666 0.798596 177.975L3.79405 177.81ZM3.10847 158.147C3.06077 154.85 3.0474 151.571 3.06786 148.312L0.0679178 148.293C0.0473282 151.573 0.0607836 154.873 0.108781 158.19L3.10847 158.147ZM3.2333 138.48C3.32389 135.182 3.44949 131.907 3.60954 128.657L0.61317 128.51C0.452042 131.781 0.325618 135.078 0.234431 138.398L3.2333 138.48ZM4.20257 118.848C4.43915 115.553 4.71178 112.288 5.01986 109.057L2.0334 108.772C1.72307 112.027 1.4485 115.315 1.21027 118.633L4.20257 118.848ZM6.07063 99.2897C6.4651 96.0046 6.89717 92.7582 7.36617 89.5537L4.39779 89.1192C3.92499 92.3498 3.48952 95.6218 3.09202 98.9321L6.07063 99.2897ZM8.9203 79.8564C9.49059 76.5892 10.1007 73.3718 10.7498 70.2079L7.81105 69.6049C7.15583 72.7986 6.54023 76.045 5.96499 79.3405L8.9203 79.8564ZM12.8752 60.6212C13.648 57.386 14.4636 54.2154 15.3213 51.1136L12.4298 50.3141C11.5624 53.451 10.738 56.6559 9.9573 59.9242L12.8752 60.6212ZM18.1181 41.7088C19.1325 38.5321 20.1942 35.4405 21.3019 32.4395L18.4875 31.4007C17.3637 34.4454 16.2876 37.579 15.2602 40.7962L18.1181 41.7088ZM24.9162 23.3516C26.2293 20.2867 27.5954 17.337 29.0129 14.5095L26.331 13.165C24.8851 16.0493 23.4939 19.0535 22.1586 22.1702L24.9162 23.3516ZM33.6995 5.92403C34.5375 4.51643 35.3904 3.14817 36.2578 1.82035L33.7463 0.179645C32.8552 1.5436 31.9803 2.94724 31.1218 4.38927L33.6995 5.92403Z" fill="#5C6062"></path></svg>