<svg xmlns="http://www.w3.org/2000/svg" width="38" height="327" viewBox="0 0 38 327" fill="none"><path d="M3.00204 326.5L0.659664 309.339L16.6931 315.891L3.00204 326.5ZM7.0144 312.214C8.15483 309.147 9.25809 306.062 10.3246 302.961L13.1615 303.937C12.0871 307.06 10.9755 310.169 9.82636 313.26L7.0144 312.214ZM13.4088 293.63C14.3994 290.509 15.3539 287.375 16.2726 284.229L19.1523 285.07C18.2272 288.238 17.266 291.395 16.2682 294.538L13.4088 293.63ZM18.9208 274.763C19.7681 271.597 20.5801 268.421 21.3572 265.238L24.2716 265.95C23.4893 269.154 22.6719 272.351 21.8188 275.538L18.9208 274.763ZM23.5853 255.663C24.2942 252.461 24.9684 249.254 25.6083 246.044L28.5505 246.63C27.9064 249.861 27.2279 253.089 26.5144 256.312L23.5853 255.663ZM27.4298 236.381C28.0046 233.148 28.5451 229.914 29.0519 226.68L32.0157 227.145C31.5058 230.399 30.9619 233.653 30.3835 236.906L27.4298 236.381ZM30.476 216.949C30.9189 213.693 31.3279 210.44 31.7034 207.192L34.6835 207.537C34.3057 210.805 33.8942 214.078 33.4487 217.353L30.476 216.949ZM32.7347 197.415C33.0468 194.142 33.3251 190.877 33.5702 187.621L36.5617 187.846C36.3152 191.122 36.0351 194.407 35.7211 197.699L32.7347 197.415ZM34.2099 177.81C34.3912 174.521 34.5386 171.244 34.6525 167.981L37.6506 168.086C37.536 171.369 37.3878 174.666 37.2053 177.975L34.2099 177.81ZM34.8954 158.147C34.9431 154.85 34.9565 151.571 34.936 148.312L37.936 148.293C37.9566 151.573 37.9431 154.873 37.8951 158.19L34.8954 158.147ZM34.7706 138.48C34.68 135.182 34.5544 131.907 34.3944 128.657L37.3907 128.51C37.5519 131.781 37.6783 135.078 37.7695 138.398L34.7706 138.48ZM33.8013 118.848C33.5648 115.553 33.2921 112.288 32.984 109.057L35.9705 108.772C36.2808 112.027 36.5554 115.315 36.7936 118.633L33.8013 118.848ZM31.9333 99.2897C31.5388 96.0046 31.1067 92.7582 30.6377 89.5537L33.6061 89.1192C34.0789 92.3498 34.5144 95.6218 34.9119 98.9321L31.9333 99.2897ZM29.0836 79.8564C28.5133 76.5892 27.9032 73.3718 27.2541 70.2079L30.1929 69.6049C30.8481 72.7986 31.4637 76.045 32.0389 79.3405L29.0836 79.8564ZM25.1287 60.6212C24.3559 57.386 23.5403 54.2154 22.6826 51.1136L25.5741 50.3141C26.4415 53.451 27.266 56.6559 28.0466 59.9242L25.1287 60.6212ZM19.8858 41.7088C18.8714 38.5321 17.8097 35.4405 16.702 32.4395L19.5164 31.4007C20.6402 34.4454 21.7163 37.579 22.7437 40.7962L19.8858 41.7088ZM13.0877 23.3516C11.7746 20.2867 10.4085 17.337 8.99104 14.5095L11.6729 13.165C13.1188 16.0493 14.51 19.0535 15.8453 22.1702L13.0877 23.3516ZM4.30444 5.92403C3.46636 4.51643 2.61347 3.14817 1.74606 1.82035L4.25765 0.179645C5.14866 1.5436 6.02356 2.94724 6.88214 4.38927L4.30444 5.92403Z" fill="#5C6062"></path></svg>