<svg xmlns="http://www.w3.org/2000/svg" width="41" height="24" viewBox="0 0 41 24" fill="none"><path d="M2 10.5C1.17157 10.5 0.5 11.1716 0.5 12C0.5 12.8284 1.17157 13.5 2 13.5V10.5ZM40.0607 13.0607C40.6464 12.4749 40.6464 11.5251 40.0607 10.9393L30.5147 1.3934C29.9289 0.807611 28.9792 0.807611 28.3934 1.3934C27.8076 1.97919 27.8076 2.92893 28.3934 3.51472L36.8787 12L28.3934 20.4853C27.8076 21.0711 27.8076 22.0208 28.3934 22.6066C28.9792 23.1924 29.9289 23.1924 30.5147 22.6066L40.0607 13.0607ZM6.625 13.5C7.45343 13.5 8.125 12.8284 8.125 12C8.125 11.1716 7.45343 10.5 6.625 10.5V13.5ZM15.875 10.5C15.0466 10.5 14.375 11.1716 14.375 12C14.375 12.8284 15.0466 13.5 15.875 13.5V10.5ZM25.125 13.5C25.9534 13.5 26.625 12.8284 26.625 12C26.625 11.1716 25.9534 10.5 25.125 10.5V13.5ZM34.375 10.5C33.5466 10.5 32.875 11.1716 32.875 12C32.875 12.8284 33.5466 13.5 34.375 13.5V10.5ZM2 13.5H6.625V10.5H2V13.5ZM15.875 13.5L25.125 13.5V10.5L15.875 10.5V13.5ZM34.375 13.5H39V10.5H34.375V13.5Z" fill="#A6CAF4"></path></svg>