<svg xmlns="http://www.w3.org/2000/svg" width="41" height="24" viewBox="0 0 41 24" fill="none"><path d="M39 13.5C39.8284 13.5 40.5 12.8284 40.5 12C40.5 11.1716 39.8284 10.5 39 10.5V13.5ZM0.939342 10.9393C0.353554 11.5251 0.353554 12.4749 0.939342 13.0607L10.4853 22.6066C11.0711 23.1924 12.0208 23.1924 12.6066 22.6066C13.1924 22.0208 13.1924 21.0711 12.6066 20.4853L4.12132 12L12.6066 3.51472C13.1924 2.92893 13.1924 1.97919 12.6066 1.3934C12.0208 0.807611 11.0711 0.807611 10.4853 1.3934L0.939342 10.9393ZM34.375 10.5C33.5466 10.5 32.875 11.1716 32.875 12C32.875 12.8284 33.5466 13.5 34.375 13.5V10.5ZM25.125 13.5C25.9534 13.5 26.625 12.8284 26.625 12C26.625 11.1716 25.9534 10.5 25.125 10.5V13.5ZM15.875 10.5C15.0466 10.5 14.375 11.1716 14.375 12C14.375 12.8284 15.0466 13.5 15.875 13.5V10.5ZM6.625 13.5C7.45343 13.5 8.125 12.8284 8.125 12C8.125 11.1716 7.45343 10.5 6.625 10.5V13.5ZM39 10.5H34.375V13.5H39V10.5ZM25.125 10.5L15.875 10.5V13.5L25.125 13.5V10.5ZM6.625 10.5H2V13.5H6.625V10.5Z" fill="#A6CAF4"></path></svg>