<svg xmlns="http://www.w3.org/2000/svg" width="24" height="84" viewBox="0 0 24 84" fill="none"><path d="M13.5 2C13.5 1.17157 12.8284 0.5 12 0.5C11.1716 0.5 10.5 1.17157 10.5 2H13.5ZM10.9393 83.0607C11.5251 83.6464 12.4749 83.6464 13.0607 83.0607L22.6066 73.5147C23.1924 72.9289 23.1924 71.9792 22.6066 71.3934C22.0208 70.8076 21.0711 70.8076 20.4853 71.3934L12 79.8787L3.51472 71.3934C2.92893 70.8076 1.97919 70.8076 1.3934 71.3934C0.807611 71.9792 0.807611 72.9289 1.3934 73.5147L10.9393 83.0607ZM10.5 6C10.5 6.82843 11.1716 7.5 12 7.5C12.8284 7.5 13.5 6.82843 13.5 6H10.5ZM13.5 14C13.5 13.1716 12.8284 12.5 12 12.5C11.1716 12.5 10.5 13.1716 10.5 14H13.5ZM10.5 22C10.5 22.8284 11.1716 23.5 12 23.5C12.8284 23.5 13.5 22.8284 13.5 22H10.5ZM13.5 30C13.5 29.1716 12.8284 28.5 12 28.5C11.1716 28.5 10.5 29.1716 10.5 30H13.5ZM10.5 38C10.5 38.8284 11.1716 39.5 12 39.5C12.8284 39.5 13.5 38.8284 13.5 38H10.5ZM13.5 46C13.5 45.1716 12.8284 44.5 12 44.5C11.1716 44.5 10.5 45.1716 10.5 46H13.5ZM10.5 54C10.5 54.8284 11.1716 55.5 12 55.5C12.8284 55.5 13.5 54.8284 13.5 54H10.5ZM13.5 62C13.5 61.1716 12.8284 60.5 12 60.5C11.1716 60.5 10.5 61.1716 10.5 62H13.5ZM10.5 70C10.5 70.8284 11.1716 71.5 12 71.5C12.8284 71.5 13.5 70.8284 13.5 70H10.5ZM13.5 78C13.5 77.1716 12.8284 76.5 12 76.5C11.1716 76.5 10.5 77.1716 10.5 78H13.5ZM10.5 2V6H13.5V2H10.5ZM10.5 14V22H13.5V14H10.5ZM10.5 30V38H13.5V30H10.5ZM10.5 46V54H13.5V46H10.5ZM10.5 62V70H13.5V62H10.5ZM10.5 78V82H13.5V78H10.5Z" fill="#A6CAF4"></path></svg>