<svg xmlns="http://www.w3.org/2000/svg" width="80" height="80" viewBox="0 0 80 80" fill="none"><rect width="80" height="80" rx="8" fill="#F5F5F5"></rect><g clip-path="url(#clip0_4056_20077)"><path d="M33.3768 36.9443L34.5388 39.7454L38.0783 31.8547C38.2571 31.4519 38.6682 31.1773 39.0972 31.1773C39.5263 31.1773 39.9374 31.4336 40.1162 31.8547L42.2435 36.6148H47.7136C48.1605 36.6148 48.5717 36.8711 48.7504 37.3105L49.9124 40.1116L53.4519 32.2208C53.6307 31.8181 54.0418 31.5435 54.4709 31.5435C54.8999 31.5435 55.311 31.7998 55.4898 32.2208L57.6171 36.9809H65V19.2588C65 17.4646 63.5699 16 61.818 16H18.182C16.4301 16 15 17.4646 15 19.2588V36.2486H32.34C32.7869 36.2486 33.1981 36.5232 33.3768 36.9443Z" fill="url(#paint0_linear_4056_20077)"></path><path d="M55.8652 38.6128L54.453 35.4455L50.8777 43.4278C50.699 43.8305 50.3057 44.1052 49.8588 44.1052C49.394 44.1052 49.0007 43.8305 48.822 43.4095L46.9628 38.924H41.5284C41.0994 38.924 40.6882 38.6677 40.5095 38.2649L39.0973 35.0977L35.522 43.0799C35.3432 43.4827 34.9321 43.7573 34.503 43.7573C34.0383 43.7573 33.645 43.4827 33.4662 43.0616L31.6071 38.5762H15V53.8816C15 55.6758 16.4301 57.1404 18.182 57.1404H61.8002C63.552 57.1404 64.9821 55.6758 64.9821 53.8816V39.3085H56.8842C56.4551 39.3085 56.044 39.0522 55.8652 38.6311V38.6128Z" fill="url(#paint1_linear_4056_20077)"></path><path d="M26.0822 24.6632C26.4039 24.2971 26.7615 23.9675 27.1905 23.7295C28.3703 23.0521 29.8004 23.4915 30.3725 24.7182C30.6585 25.3589 30.6227 26.018 30.444 26.6771C30.1758 27.6291 29.6038 28.3981 28.9602 29.1121C28.1379 29.9908 27.2084 30.7049 26.1894 31.3273C26.1179 31.3639 26.0643 31.3823 25.9928 31.3273C24.7951 30.595 23.7046 29.7345 22.8108 28.6361C22.346 28.0685 21.9527 27.4277 21.7382 26.6954C21.5416 25.9814 21.5058 25.2857 21.8455 24.6083C22.3996 23.5281 23.7046 23.0888 24.7772 23.6197C25.242 23.8577 25.6531 24.1872 25.9928 24.5717C26.0285 24.6083 26.0464 24.6266 26.0822 24.6632C26.0822 24.6632 26.0822 24.6632 26.1 24.6632H26.0822Z" fill="#FFA985"></path><path d="M58.7047 49.1953C57.8824 49.1953 57.2031 49.891 57.2031 50.7332C57.2031 51.5753 57.8824 52.271 58.7047 52.271C59.527 52.271 60.2063 51.5753 60.2063 50.7332C60.2063 49.891 59.527 49.1953 58.7047 49.1953Z" fill="#FFA985"></path><path d="M51.5728 63.4346H28.423C27.5471 63.4346 26.832 62.7023 26.832 61.8052C26.832 60.9081 27.5471 60.1758 28.423 60.1758H51.5907C52.4666 60.1758 53.1817 60.9081 53.1817 61.8052C53.1817 62.7023 52.4666 63.4346 51.5907 63.4346H51.5728Z" fill="url(#paint2_linear_4056_20077)"></path></g><defs><linearGradient id="paint0_linear_4056_20077" x1="39.9911" y1="38.2991" x2="39.9911" y2="18.3251" gradientUnits="userSpaceOnUse"><stop stop-color="#FF4C31"></stop><stop offset="1" stop-color="#FF7E47"></stop></linearGradient><linearGradient id="paint1_linear_4056_20077" x1="40.0268" y1="34.3105" x2="40.0268" y2="55.3647" gradientUnits="userSpaceOnUse"><stop offset="0.0570328" stop-color="#FF4C31"></stop><stop offset="1" stop-color="#FF7E47"></stop></linearGradient><linearGradient id="paint2_linear_4056_20077" x1="46.1206" y1="53.6948" x2="35.2754" y2="67.3766" gradientUnits="userSpaceOnUse"><stop stop-color="#FF6747"></stop><stop offset="1" stop-color="#FF7E47"></stop></linearGradient><clipPath id="clip0_4056_20077"><rect width="50" height="47.4359" fill="white" transform="translate(15 16)"></rect></clipPath></defs></svg>