<svg xmlns="http://www.w3.org/2000/svg" width="81" height="80" viewBox="0 0 81 80" fill="none"><rect x="0.75" width="80" height="80" rx="8" fill="white"></rect><path d="M26.0846 54.668H48.0846V58.3346H26.0846C24.068 58.3346 22.418 56.6846 22.418 54.668V30.8346H26.0846M59.0846 25.3346V47.3346C59.0846 49.3513 57.4346 51.0013 55.418 51.0013H33.418C31.4013 51.0013 29.7513 49.3513 29.7513 47.3346V25.3346C29.7513 23.318 31.4013 21.668 33.418 21.668H55.418C57.4346 21.668 59.0846 23.318 59.0846 25.3346ZM40.7513 32.668H37.0846V43.668H40.7513M46.2513 29.0013H42.5846V43.668H46.2513M51.7513 38.168H48.0846V43.668H51.7513V38.168Z" fill="#0072D4"></path></svg>