<svg xmlns="http://www.w3.org/2000/svg" width="81" height="80" viewBox="0 0 81 80" fill="none"><rect x="0.5" width="80" height="80" rx="8" fill="white"></rect><g clip-path="url(#clip0_5069_103928)"><path d="M45.5 30.625V20H29.875C28.8359 20 28 20.8359 28 21.875V40H23.625C23.2812 40 23 40.2812 23 40.625V41.875C23 42.2188 23.2812 42.5 23.625 42.5H34.6328C34.8672 42.5 35.0859 42.6328 35.1953 42.8438L36.75 45.9531L41.1875 37.0703C41.4141 36.6094 42.0781 36.6094 42.3047 37.0703L45.0156 42.5H50.5C51.1875 42.5 51.75 43.0625 51.75 43.75C51.75 44.4375 51.1875 45 50.5 45H43.4766L41.75 41.5469L37.3125 50.4297C37.0859 50.8906 36.4219 50.8906 36.1953 50.4297L33.4766 45H28V58.125C28 59.1641 28.8359 60 29.875 60H56.125C57.1641 60 58 59.1641 58 58.125V32.5H47.375C46.3438 32.5 45.5 31.6562 45.5 30.625ZM57.4531 28.2031L49.8047 20.5469C49.4531 20.1953 48.9766 20 48.4766 20H48V30H58V29.5234C58 29.0312 57.8047 28.5547 57.4531 28.2031Z" fill="#0072D4"></path></g><defs><clipPath id="clip0_5069_103928"><rect width="35" height="40" fill="white" transform="translate(23 20)"></rect></clipPath></defs></svg>