<svg xmlns="http://www.w3.org/2000/svg" width="81" height="80" viewBox="0 0 81 80" fill="none"><rect x="0.25" width="80" height="80" rx="8" fill="white"></rect><path d="M40.2516 20.3984C37.6524 20.3984 35.1598 21.4309 33.3219 23.2688C31.4841 25.1066 30.4516 27.5993 30.4516 30.1984C30.4516 32.7976 31.4841 35.2902 33.3219 37.1281C35.1598 38.9659 37.6524 39.9984 40.2516 39.9984C42.8507 39.9984 45.3434 38.9659 47.1812 37.1281C49.0191 35.2902 50.0516 32.7976 50.0516 30.1984C50.0516 27.5993 49.0191 25.1066 47.1812 23.2688C45.3434 21.4309 42.8507 20.3984 40.2516 20.3984ZM28.0236 42.4484C27.3784 42.4459 26.739 42.5707 26.1421 42.8157C25.5452 43.0608 25.0025 43.4213 24.5452 43.8765C24.088 44.3318 23.7251 44.8728 23.4773 45.4686C23.2296 46.0644 23.1019 46.7032 23.1016 47.3484C23.1016 51.4914 25.1424 54.6151 28.3323 56.6511C31.4732 58.6527 35.7068 59.5984 40.2516 59.5984C44.7963 59.5984 49.0299 58.6527 52.1708 56.6511C55.3607 54.6176 57.4016 51.4889 57.4016 47.3484C57.4016 46.0489 56.8853 44.8025 55.9664 43.8836C55.0475 42.9647 53.8011 42.4484 52.5016 42.4484H28.0236Z" fill="#0072D4"></path></svg>