<svg xmlns="http://www.w3.org/2000/svg" width="45" height="44" viewBox="0 0 45 44" fill="none"><g clip-path="url(#clip0_5677_27486)"><path d="M34.3509 10.5536C31.0227 2.76596 22.7167 2.98868 22.3857 3.00377C22.3492 3.00252 22.2775 3 22.1731 3C20.7462 3 13.4707 3.36365 10.3991 10.5536C7.30624 17.7913 9.72847 27.5469 10.6395 31.2199L10.6584 31.2954C10.7175 31.532 10.7678 31.7396 10.8094 31.9145C11.4473 34.6048 12.3218 38.2903 14.4333 39.6015C16.0565 40.6106 18.6763 41.1077 22.2196 41.0926H22.3731H22.5279C22.6122 41.0926 22.6953 41.0938 22.7783 41.0938C26.1858 41.0938 28.7213 40.5918 30.3155 39.6015C32.4257 38.2891 33.3002 34.6048 33.9382 31.9145C33.9822 31.7283 34.0376 31.5043 34.1093 31.2187C35.0216 27.5469 37.4438 17.7913 34.3509 10.5536Z" fill="#F15056" stroke="#F15056" stroke-width="6" stroke-miterlimit="10"></path><path d="M22.875 27V17" stroke="white" stroke-width="3" stroke-miterlimit="10" stroke-linecap="round"></path></g><defs><clipPath id="clip0_5677_27486"><rect width="44" height="44" fill="white" transform="translate(0.5)"></rect></clipPath></defs></svg>