<svg xmlns="http://www.w3.org/2000/svg" width="65" height="176" viewBox="0 0 65 176" fill="none"><path d="M3.5 2C3.5 1.17157 2.82843 0.5 2 0.5C1.17157 0.5 0.5 1.17157 0.5 2H3.5ZM64.0607 165.972C64.6464 165.386 64.6464 164.437 64.0607 163.851L54.5147 154.305C53.9289 153.719 52.9792 153.719 52.3934 154.305C51.8076 154.891 51.8076 155.84 52.3934 156.426L60.8787 164.911L52.3934 173.397C51.8076 173.982 51.8076 174.932 52.3934 175.518C52.9792 176.104 53.9289 176.104 54.5147 175.518L64.0607 165.972ZM0.5 5.96976C0.5 6.79819 1.17157 7.46976 2 7.46976C2.82843 7.46976 3.5 6.79819 3.5 5.96976H0.5ZM3.5 13.9093C3.5 13.0809 2.82843 12.4093 2 12.4093C1.17157 12.4093 0.5 13.0809 0.5 13.9093H3.5ZM0.5 21.8488C0.5 22.6772 1.17157 23.3488 2 23.3488C2.82843 23.3488 3.5 22.6772 3.5 21.8488H0.5ZM3.5 29.7883C3.5 28.9599 2.82843 28.2883 2 28.2883C1.17157 28.2883 0.5 28.9599 0.5 29.7883H3.5ZM0.5 37.7279C0.5 38.5563 1.17157 39.2279 2 39.2279C2.82843 39.2279 3.5 38.5563 3.5 37.7279H0.5ZM3.5 45.6674C3.5 44.839 2.82843 44.1674 2 44.1674C1.17157 44.1674 0.5 44.839 0.5 45.6674H3.5ZM0.5 53.6069C0.5 54.4353 1.17157 55.1069 2 55.1069C2.82843 55.1069 3.5 54.4353 3.5 53.6069H0.5ZM3.5 61.5464C3.5 60.718 2.82843 60.0464 2 60.0464C1.17157 60.0464 0.5 60.718 0.5 61.5464H3.5ZM0.5 69.4859C0.5 70.3144 1.17157 70.9859 2 70.9859C2.82843 70.9859 3.5 70.3144 3.5 69.4859H0.5ZM3.5 77.4255C3.5 76.597 2.82843 75.9255 2 75.9255C1.17157 75.9255 0.5 76.597 0.5 77.4255H3.5ZM0.5 85.365C0.5 86.1934 1.17157 86.865 2 86.865C2.82843 86.865 3.5 86.1934 3.5 85.365H0.5ZM3.5 93.3045C3.5 92.4761 2.82843 91.8045 2 91.8045C1.17157 91.8045 0.5 92.4761 0.5 93.3045H3.5ZM0.5 101.244C0.5 102.072 1.17157 102.744 2 102.744C2.82843 102.744 3.5 102.072 3.5 101.244H0.5ZM3.5 109.184C3.5 108.355 2.82843 107.684 2 107.684C1.17157 107.684 0.5 108.355 0.5 109.184H3.5ZM0.5 117.123C0.5 117.951 1.17157 118.623 2 118.623C2.82843 118.623 3.5 117.951 3.5 117.123H0.5ZM3.5 125.063C3.5 124.234 2.82843 123.563 2 123.563C1.17157 123.563 0.5 124.234 0.5 125.063H3.5ZM0.5 133.002C0.5 133.831 1.17157 134.502 2 134.502C2.82843 134.502 3.5 133.831 3.5 133.002H0.5ZM3.5 140.942C3.5 140.113 2.82843 139.442 2 139.442C1.17157 139.442 0.5 140.113 0.5 140.942H3.5ZM0.909199 149.106C1.06997 149.918 1.85911 150.447 2.67178 150.286C3.48446 150.125 4.01293 149.336 3.85216 148.524L0.909199 149.106ZM6.61515 155.189C6.15427 154.501 5.22261 154.316 4.53421 154.777C3.84582 155.238 3.66137 156.17 4.12224 156.858L6.61515 155.189ZM10.0532 162.789C10.7416 163.25 11.6733 163.066 12.1341 162.377C12.595 161.689 12.4106 160.757 11.7222 160.296L10.0532 162.789ZM18.3879 163.059C17.5752 162.898 16.786 163.427 16.6253 164.24C16.4645 165.052 16.993 165.841 17.8057 166.002L18.3879 163.059ZM25.4167 166.411C26.2451 166.411 26.9167 165.74 26.9167 164.911C26.9167 164.083 26.2451 163.411 25.4167 163.411V166.411ZM32.25 163.411C31.4216 163.411 30.75 164.083 30.75 164.911C30.75 165.74 31.4216 166.411 32.25 166.411V163.411ZM39.0833 166.411C39.9118 166.411 40.5833 165.74 40.5833 164.911C40.5833 164.083 39.9118 163.411 39.0833 163.411V166.411ZM45.9167 163.411C45.0882 163.411 44.4167 164.083 44.4167 164.911C44.4167 165.74 45.0882 166.411 45.9167 166.411V163.411ZM52.75 166.411C53.5784 166.411 54.25 165.74 54.25 164.911C54.25 164.083 53.5784 163.411 52.75 163.411V166.411ZM59.5833 163.411C58.7549 163.411 58.0833 164.083 58.0833 164.911C58.0833 165.74 58.7549 166.411 59.5833 166.411V163.411ZM0.5 2V5.96976H3.5V2H0.5ZM0.5 13.9093V21.8488H3.5V13.9093H0.5ZM0.5 29.7883V37.7279H3.5V29.7883H0.5ZM0.5 45.6674V53.6069H3.5V45.6674H0.5ZM0.5 61.5464V69.4859H3.5V61.5464H0.5ZM0.5 77.4255V85.365H3.5V77.4255H0.5ZM0.5 93.3045V101.244H3.5V93.3045H0.5ZM0.5 109.184V117.123H3.5V109.184H0.5ZM0.5 125.063V133.002H3.5V125.063H0.5ZM0.5 140.942V144.911H3.5V140.942H0.5ZM0.5 144.911C0.5 146.345 0.640593 147.748 0.909199 149.106L3.85216 148.524C3.62128 147.357 3.5 146.149 3.5 144.911H0.5ZM4.12224 156.858C5.69148 159.202 7.70925 161.22 10.0532 162.789L11.7222 160.296C9.70407 158.945 7.96623 157.207 6.61515 155.189L4.12224 156.858ZM17.8057 166.002C19.1634 166.271 20.566 166.411 22 166.411V163.411C20.7626 163.411 19.5549 163.29 18.3879 163.059L17.8057 166.002ZM22 166.411H25.4167V163.411H22V166.411ZM32.25 166.411H39.0833V163.411H32.25V166.411ZM45.9167 166.411H52.75V163.411H45.9167V166.411ZM59.5833 166.411H63V163.411H59.5833V166.411Z" fill="#F15056"></path></svg>