<svg xmlns="http://www.w3.org/2000/svg" width="16" height="48" viewBox="0 0 16 48" fill="none"><path d="M7.2929 47.7071C7.68342 48.0976 8.31658 48.0976 8.70711 47.7071L15.0711 41.3431C15.4616 40.9526 15.4616 40.3195 15.0711 39.9289C14.6805 39.5384 14.0474 39.5384 13.6569 39.9289L8 45.5858L2.34315 39.9289C1.95262 39.5384 1.31946 39.5384 0.928934 39.9289C0.53841 40.3195 0.53841 40.9526 0.928934 41.3431L7.2929 47.7071ZM7 4.37113e-08L7 2.9375L9 2.9375L9 -4.37113e-08L7 4.37113e-08ZM7 8.8125L7 14.6875L9 14.6875L9 8.8125L7 8.8125ZM7 20.5625L7 26.4375L9 26.4375L9 20.5625L7 20.5625ZM7 32.3125L7 38.1875L9 38.1875L9 32.3125L7 32.3125ZM7 44.0625L7 47L9 47L9 44.0625L7 44.0625Z" fill="#F15056"></path></svg>