<svg xmlns="http://www.w3.org/2000/svg" width="1233" height="527" viewBox="0 0 1233 527" fill="none"><path d="M1 209V28C1 13.0883 13.0883 1 28 1H280.988C295.899 1 307.988 13.0883 307.988 28V499C307.988 513.912 320.076 526 334.988 526H587.975C602.887 526 614.975 513.912 614.975 499V28C614.975 13.0883 627.064 1 641.975 1H895.979C910.891 1 922.979 13.0883 922.979 28V499C922.979 513.912 935.068 526 949.979 526H1205C1219.91 526 1232 513.912 1232 499V271" stroke="#C7C7C7" stroke-width="2" stroke-linecap="round" stroke-dasharray="8 8"></path></svg>