<svg xmlns="http://www.w3.org/2000/svg" width="328" height="95" viewBox="0 0 328 95" fill="none"><rect width="100" height="95" rx="12" fill="#F5F5F5"></rect><g clip-path="url(#clip0_6284_63592)"><path fill-rule="evenodd" clip-rule="evenodd" d="M51.2001 15.0898C51.8057 15.0897 52.3889 15.3206 52.833 15.7365C53.277 16.1524 53.549 16.7224 53.5944 17.3323L53.6004 17.5141V34.4838H54.8005V22.9686C54.8005 22.8268 54.8497 22.6894 54.9396 22.5804C55.0295 22.4715 55.1544 22.3978 55.2926 22.3723L55.4006 22.3626H57.2008C57.8064 22.3624 58.3896 22.5934 58.8336 23.0092C59.2777 23.4251 59.5496 23.9951 59.5951 24.605L59.6011 24.7868V34.4838H60.8012C61.1071 34.4841 61.4013 34.6024 61.6237 34.8145C61.8462 35.0266 61.98 35.3165 61.9979 35.6249C62.0159 35.9333 61.9165 36.237 61.7202 36.4739C61.5239 36.7108 61.2454 36.8631 60.9416 36.8995L60.8012 36.908H39.1988C38.8929 36.9077 38.5987 36.7894 38.3763 36.5773C38.1538 36.3652 38.02 36.0754 38.0021 35.7669C37.9841 35.4585 38.0835 35.1548 38.2798 34.9179C38.4761 34.681 38.7546 34.5288 39.0584 34.4923L39.1988 34.4838H40.3989V17.5141C40.3987 16.9025 40.6274 16.3134 41.0392 15.8649C41.451 15.4165 42.0153 15.1418 42.6192 15.0959L42.7992 15.0898H51.2001ZM48.7999 29.6353H45.1995V32.0595H48.7999V29.6353ZM48.7999 24.7868H45.1995V27.2111H48.7999V24.7868ZM48.7999 19.9383H45.1995V22.3626H48.7999V19.9383Z" fill="#0072D4"></path></g><path d="M32.9801 61V59.384C32.9801 59.0747 33.0761 58.7333 33.2681 58.36C33.4601 57.9867 33.7267 57.6133 34.0681 57.24C34.4094 56.8667 34.8094 56.52 35.2681 56.2L36.9641 54.984C37.1987 54.824 37.4174 54.6427 37.6201 54.44C37.8334 54.2373 38.0041 54.0187 38.1321 53.784C38.2707 53.5387 38.3401 53.304 38.3401 53.08C38.3401 52.8027 38.2707 52.552 38.1321 52.328C38.0041 52.104 37.8121 51.928 37.5561 51.8C37.3001 51.672 36.9854 51.608 36.6121 51.608C36.2921 51.608 36.0041 51.672 35.7481 51.8C35.5027 51.928 35.3001 52.0987 35.1401 52.312C34.9801 52.5253 34.8681 52.7547 34.8041 53L32.5481 52.616C32.6547 52.0827 32.8841 51.5867 33.2361 51.128C33.5881 50.6693 34.0467 50.3013 34.6121 50.024C35.1881 49.736 35.8387 49.592 36.5641 49.592C37.3961 49.592 38.1107 49.7413 38.7081 50.04C39.3054 50.3387 39.7641 50.7493 40.0841 51.272C40.4147 51.784 40.5801 52.3813 40.5801 53.064C40.5801 53.7573 40.3881 54.376 40.0041 54.92C39.6307 55.4533 39.1134 55.9547 38.4521 56.424L36.9321 57.528C36.6227 57.7413 36.3561 57.976 36.1321 58.232C35.9081 58.488 35.7374 58.7707 35.6201 59.08H40.7241V61H32.9801ZM46.6137 61.192C45.707 61.192 44.907 60.9467 44.2137 60.456C43.5204 59.9547 42.9764 59.272 42.5817 58.408C42.187 57.5333 41.9897 56.5307 41.9897 55.4C41.9897 54.2693 42.187 53.272 42.5817 52.408C42.9764 51.5333 43.515 50.8507 44.1977 50.36C44.891 49.8587 45.691 49.608 46.5977 49.608C47.5044 49.608 48.3044 49.8587 48.9977 50.36C49.7017 50.8507 50.251 51.5333 50.6457 52.408C51.0404 53.272 51.2377 54.2693 51.2377 55.4C51.2377 56.5307 51.0404 57.5333 50.6457 58.408C50.251 59.272 49.707 59.9547 49.0137 60.456C48.3204 60.9467 47.5204 61.192 46.6137 61.192ZM46.6137 59.208C47.0937 59.208 47.5204 59.048 47.8937 58.728C48.2777 58.3973 48.5764 57.9493 48.7897 57.384C49.003 56.808 49.1097 56.1467 49.1097 55.4C49.1097 54.6533 49.003 53.992 48.7897 53.416C48.5764 52.84 48.2777 52.392 47.8937 52.072C47.5204 51.7413 47.0884 51.576 46.5977 51.576C46.1177 51.576 45.691 51.7413 45.3177 52.072C44.9444 52.392 44.651 52.84 44.4377 53.416C44.235 53.992 44.1337 54.6533 44.1337 55.4C44.1337 56.1467 44.235 56.808 44.4377 57.384C44.651 57.9493 44.9444 58.3973 45.3177 58.728C45.7017 59.048 46.1337 59.208 46.6137 59.208ZM54.9247 61V50.968L55.1327 49.8H57.0207V61H54.9247ZM52.5567 53.336V51.352C52.8234 51.3733 53.1114 51.3093 53.4207 51.16C53.73 51 54.034 50.7973 54.3327 50.552C54.642 50.296 54.9087 50.04 55.1327 49.784L56.5247 51.144C56.1407 51.5707 55.7354 51.96 55.3087 52.312C54.882 52.6533 54.4394 52.92 53.9807 53.112C53.5327 53.304 53.058 53.3787 52.5567 53.336ZM63.3387 61.192C62.5814 61.192 61.936 61.0587 61.4027 60.792C60.88 60.5147 60.448 60.136 60.1067 59.656C59.776 59.176 59.5307 58.6213 59.3707 57.992C59.2214 57.352 59.1467 56.664 59.1467 55.928C59.1467 55.0747 59.2374 54.2693 59.4187 53.512C59.6 52.744 59.872 52.0667 60.2347 51.48C60.608 50.8933 61.0827 50.4347 61.6587 50.104C62.2347 49.7733 62.928 49.608 63.7387 49.608C64.3254 49.608 64.896 49.6933 65.4507 49.864C66.016 50.0347 66.5227 50.28 66.9707 50.6L65.8827 52.2C65.552 51.9653 65.1947 51.7947 64.8107 51.688C64.4374 51.5813 64.0907 51.528 63.7707 51.528C62.9494 51.528 62.304 51.8907 61.8347 52.616C61.3654 53.3413 61.1414 54.488 61.1627 56.056L60.7307 55.752C60.976 55.1653 61.3547 54.696 61.8667 54.344C62.3787 53.992 62.9867 53.816 63.6907 53.816C64.4054 53.816 65.0347 53.9813 65.5787 54.312C66.1334 54.6427 66.5654 55.096 66.8747 55.672C67.1947 56.2373 67.3547 56.872 67.3547 57.576C67.3547 58.2693 67.1894 58.8933 66.8587 59.448C66.528 59.992 66.0587 60.4187 65.4507 60.728C64.8534 61.0373 64.1494 61.192 63.3387 61.192ZM63.3387 59.336C63.6907 59.336 64.0054 59.256 64.2827 59.096C64.56 58.936 64.7787 58.7173 64.9387 58.44C65.0987 58.1627 65.1787 57.8427 65.1787 57.48C65.1787 57.1173 65.0987 56.7973 64.9387 56.52C64.7787 56.232 64.56 56.008 64.2827 55.848C64.0054 55.6773 63.6907 55.592 63.3387 55.592C62.9867 55.592 62.6667 55.6773 62.3787 55.848C62.1014 56.008 61.8827 56.232 61.7227 56.52C61.5627 56.7973 61.4827 57.1173 61.4827 57.48C61.4827 57.8427 61.5627 58.1627 61.7227 58.44C61.8827 58.7173 62.1014 58.936 62.3787 59.096C62.6667 59.256 62.9867 59.336 63.3387 59.336Z" fill="#22272B"></path><path d="M20.3015 78V69.6H25.2695V70.524H21.3215V73.236H24.9215V74.148H21.3215V77.076H25.2935V78H20.3015ZM29.2271 78.144C28.7871 78.144 28.4031 78.08 28.0751 77.952C27.7471 77.816 27.4711 77.64 27.2471 77.424C27.0311 77.208 26.8751 76.972 26.7791 76.716L27.6191 76.368C27.7551 76.64 27.9591 76.86 28.2311 77.028C28.5031 77.196 28.8031 77.28 29.1311 77.28C29.5071 77.28 29.8231 77.208 30.0791 77.064C30.3351 76.912 30.4631 76.7 30.4631 76.428C30.4631 76.18 30.3671 75.98 30.1751 75.828C29.9911 75.676 29.7151 75.552 29.3471 75.456L28.7711 75.3C28.2271 75.156 27.8031 74.94 27.4991 74.652C27.1951 74.356 27.0431 74.024 27.0431 73.656C27.0431 73.088 27.2271 72.648 27.5951 72.336C27.9711 72.016 28.5271 71.856 29.2631 71.856C29.6151 71.856 29.9351 71.908 30.2231 72.012C30.5111 72.116 30.7591 72.264 30.9671 72.456C31.1751 72.64 31.3271 72.86 31.4231 73.116L30.5831 73.488C30.4791 73.216 30.3071 73.02 30.0671 72.9C29.8271 72.78 29.5351 72.72 29.1911 72.72C28.8231 72.72 28.5351 72.8 28.3271 72.96C28.1191 73.112 28.0151 73.328 28.0151 73.608C28.0151 73.768 28.0991 73.92 28.2671 74.064C28.4431 74.2 28.6991 74.312 29.0351 74.4L29.6351 74.556C30.0271 74.652 30.3551 74.796 30.6191 74.988C30.8831 75.172 31.0831 75.384 31.2191 75.624C31.3551 75.864 31.4231 76.12 31.4231 76.392C31.4231 76.752 31.3271 77.064 31.1351 77.328C30.9431 77.592 30.6831 77.796 30.3551 77.94C30.0271 78.076 29.6511 78.144 29.2271 78.144ZM34.973 78.144C34.389 78.144 33.937 77.992 33.617 77.688C33.297 77.384 33.137 76.956 33.137 76.404V70.128H34.097V76.308C34.097 76.612 34.177 76.848 34.337 77.016C34.505 77.176 34.737 77.256 35.033 77.256C35.129 77.256 35.221 77.244 35.309 77.22C35.405 77.188 35.529 77.116 35.681 77.004L36.053 77.784C35.845 77.92 35.657 78.012 35.489 78.06C35.321 78.116 35.149 78.144 34.973 78.144ZM32.093 72.852V72H35.897V72.852H32.093ZM40.913 78L40.865 77.016V74.832C40.865 74.36 40.813 73.972 40.709 73.668C40.605 73.356 40.441 73.12 40.217 72.96C39.993 72.8 39.701 72.72 39.341 72.72C39.013 72.72 38.729 72.788 38.489 72.924C38.257 73.052 38.065 73.26 37.913 73.548L37.049 73.212C37.201 72.932 37.385 72.692 37.601 72.492C37.817 72.284 38.069 72.128 38.357 72.024C38.645 71.912 38.973 71.856 39.341 71.856C39.901 71.856 40.361 71.968 40.721 72.192C41.089 72.408 41.365 72.732 41.549 73.164C41.733 73.588 41.821 74.116 41.813 74.748L41.801 78H40.913ZM39.113 78.144C38.409 78.144 37.857 77.984 37.457 77.664C37.065 77.336 36.869 76.884 36.869 76.308C36.869 75.7 37.069 75.236 37.469 74.916C37.877 74.588 38.445 74.424 39.173 74.424H40.889V75.228H39.389C38.829 75.228 38.429 75.32 38.189 75.504C37.957 75.688 37.841 75.952 37.841 76.296C37.841 76.608 37.957 76.856 38.189 77.04C38.421 77.216 38.745 77.304 39.161 77.304C39.505 77.304 39.805 77.232 40.061 77.088C40.317 76.936 40.513 76.724 40.649 76.452C40.793 76.172 40.865 75.844 40.865 75.468H41.273C41.273 76.284 41.089 76.936 40.721 77.424C40.353 77.904 39.817 78.144 39.113 78.144ZM43.3341 78V69.6H44.2941V76.884L44.2461 78H43.3341ZM46.3221 78.144C45.8181 78.144 45.3741 78.012 44.9901 77.748C44.6141 77.484 44.3221 77.116 44.1141 76.644C43.9061 76.164 43.8021 75.616 43.8021 75C43.8021 74.376 43.9061 73.828 44.1141 73.356C44.3221 72.884 44.6141 72.516 44.9901 72.252C45.3741 71.988 45.8181 71.856 46.3221 71.856C46.8581 71.856 47.3301 71.988 47.7381 72.252C48.1461 72.516 48.4621 72.884 48.6861 73.356C48.9181 73.828 49.0341 74.376 49.0341 75C49.0341 75.616 48.9181 76.164 48.6861 76.644C48.4621 77.116 48.1461 77.484 47.7381 77.748C47.3301 78.012 46.8581 78.144 46.3221 78.144ZM46.1061 77.268C46.4821 77.268 46.8141 77.172 47.1021 76.98C47.3981 76.788 47.6301 76.52 47.7981 76.176C47.9741 75.832 48.0621 75.44 48.0621 75C48.0621 74.56 47.9781 74.168 47.8101 73.824C47.6501 73.48 47.4221 73.212 47.1261 73.02C46.8301 72.828 46.4941 72.732 46.1181 72.732C45.7661 72.732 45.4501 72.828 45.1701 73.02C44.8981 73.212 44.6821 73.48 44.5221 73.824C44.3701 74.168 44.2941 74.56 44.2941 75C44.2941 75.44 44.3701 75.832 44.5221 76.176C44.6821 76.52 44.8981 76.788 45.1701 76.98C45.4421 77.172 45.7541 77.268 46.1061 77.268ZM50.3654 78V69.6H51.3254V78H50.3654ZM53.0621 78V72H54.0221V78H53.0621ZM53.5541 70.608C53.3941 70.608 53.2541 70.548 53.1341 70.428C53.0141 70.308 52.9541 70.168 52.9541 70.008C52.9541 69.84 53.0141 69.7 53.1341 69.588C53.2541 69.468 53.3941 69.408 53.5541 69.408C53.7221 69.408 53.8621 69.468 53.9741 69.588C54.0941 69.7 54.1541 69.84 54.1541 70.008C54.1541 70.168 54.0941 70.308 53.9741 70.428C53.8621 70.548 53.7221 70.608 53.5541 70.608ZM57.8912 78.144C57.4512 78.144 57.0672 78.08 56.7392 77.952C56.4112 77.816 56.1352 77.64 55.9112 77.424C55.6952 77.208 55.5392 76.972 55.4432 76.716L56.2832 76.368C56.4192 76.64 56.6232 76.86 56.8952 77.028C57.1672 77.196 57.4672 77.28 57.7952 77.28C58.1712 77.28 58.4872 77.208 58.7432 77.064C58.9992 76.912 59.1272 76.7 59.1272 76.428C59.1272 76.18 59.0312 75.98 58.8392 75.828C58.6552 75.676 58.3792 75.552 58.0112 75.456L57.4352 75.3C56.8912 75.156 56.4672 74.94 56.1632 74.652C55.8592 74.356 55.7072 74.024 55.7072 73.656C55.7072 73.088 55.8912 72.648 56.2592 72.336C56.6352 72.016 57.1912 71.856 57.9272 71.856C58.2792 71.856 58.5992 71.908 58.8872 72.012C59.1752 72.116 59.4232 72.264 59.6312 72.456C59.8392 72.64 59.9912 72.86 60.0872 73.116L59.2472 73.488C59.1432 73.216 58.9712 73.02 58.7312 72.9C58.4912 72.78 58.1992 72.72 57.8552 72.72C57.4872 72.72 57.1992 72.8 56.9912 72.96C56.7832 73.112 56.6792 73.328 56.6792 73.608C56.6792 73.768 56.7632 73.92 56.9312 74.064C57.1072 74.2 57.3632 74.312 57.6992 74.4L58.2992 74.556C58.6912 74.652 59.0192 74.796 59.2832 74.988C59.5472 75.172 59.7472 75.384 59.8832 75.624C60.0192 75.864 60.0872 76.12 60.0872 76.392C60.0872 76.752 59.9912 77.064 59.7992 77.328C59.6072 77.592 59.3472 77.796 59.0192 77.94C58.6912 78.076 58.3152 78.144 57.8912 78.144ZM61.381 78V69.6H62.341V78H61.381ZM65.605 78V74.928H66.565V78H65.605ZM65.605 74.928C65.605 74.336 65.533 73.884 65.389 73.572C65.253 73.26 65.065 73.048 64.825 72.936C64.585 72.816 64.313 72.756 64.009 72.756C63.481 72.756 63.069 72.944 62.773 73.32C62.485 73.688 62.341 74.212 62.341 74.892H61.873C61.873 74.26 61.965 73.716 62.149 73.26C62.341 72.804 62.613 72.456 62.965 72.216C63.317 71.976 63.741 71.856 64.237 71.856C64.701 71.856 65.109 71.952 65.461 72.144C65.813 72.328 66.085 72.624 66.277 73.032C66.477 73.44 66.573 73.976 66.565 74.64V74.928H65.605ZM70.7004 78.144C70.1164 78.144 69.6004 78.012 69.1524 77.748C68.7044 77.476 68.3524 77.104 68.0964 76.632C67.8484 76.16 67.7244 75.616 67.7244 75C67.7244 74.384 67.8484 73.84 68.0964 73.368C68.3524 72.896 68.7004 72.528 69.1404 72.264C69.5884 71.992 70.1004 71.856 70.6764 71.856C71.2364 71.856 71.7204 71.996 72.1284 72.276C72.5364 72.548 72.8524 72.932 73.0764 73.428C73.3004 73.924 73.4124 74.508 73.4124 75.18H68.4564L68.6964 74.976C68.6964 75.456 68.7804 75.868 68.9484 76.212C69.1244 76.556 69.3684 76.82 69.6804 77.004C69.9924 77.18 70.3484 77.268 70.7484 77.268C71.1724 77.268 71.5284 77.168 71.8164 76.968C72.1124 76.768 72.3404 76.504 72.5004 76.176L73.3284 76.596C73.1764 76.908 72.9724 77.18 72.7164 77.412C72.4684 77.644 72.1724 77.824 71.8284 77.952C71.4924 78.08 71.1164 78.144 70.7004 78.144ZM68.7564 74.568L68.5044 74.376H72.6444L72.3924 74.58C72.3924 74.196 72.3164 73.864 72.1644 73.584C72.0124 73.304 71.8084 73.088 71.5524 72.936C71.2964 72.784 71.0004 72.708 70.6644 72.708C70.3364 72.708 70.0244 72.784 69.7284 72.936C69.4404 73.088 69.2044 73.304 69.0204 73.584C68.8444 73.856 68.7564 74.184 68.7564 74.568ZM79.0632 78L79.0152 76.884V69.6H79.9752V78H79.0632ZM76.9872 78.144C76.4512 78.144 75.9792 78.012 75.5712 77.748C75.1632 77.484 74.8432 77.116 74.6112 76.644C74.3872 76.164 74.2752 75.616 74.2752 75C74.2752 74.376 74.3872 73.828 74.6112 73.356C74.8432 72.884 75.1632 72.516 75.5712 72.252C75.9792 71.988 76.4512 71.856 76.9872 71.856C77.4912 71.856 77.9312 71.988 78.3072 72.252C78.6912 72.516 78.9872 72.884 79.1952 73.356C79.4032 73.828 79.5072 74.376 79.5072 75C79.5072 75.616 79.4032 76.164 79.1952 76.644C78.9872 77.116 78.6912 77.484 78.3072 77.748C77.9312 78.012 77.4912 78.144 76.9872 78.144ZM77.2032 77.268C77.5552 77.268 77.8672 77.172 78.1392 76.98C78.4112 76.788 78.6232 76.52 78.7752 76.176C78.9352 75.832 79.0152 75.44 79.0152 75C79.0152 74.56 78.9352 74.168 78.7752 73.824C78.6232 73.48 78.4112 73.212 78.1392 73.02C77.8672 72.828 77.5512 72.732 77.1912 72.732C76.8152 72.732 76.4792 72.828 76.1832 73.02C75.8952 73.212 75.6672 73.48 75.4992 73.824C75.3312 74.168 75.2472 74.56 75.2472 75C75.2472 75.44 75.3312 75.832 75.4992 76.176C75.6672 76.52 75.8992 76.788 76.1952 76.98C76.4912 77.172 76.8272 77.268 77.2032 77.268Z" fill="#5C6062"></path><rect x="114" width="100" height="95" rx="12" fill="#F5F5F5"></rect><g clip-path="url(#clip1_6284_63592)"><path fill-rule="evenodd" clip-rule="evenodd" d="M165.2 15.0898C165.806 15.0897 166.389 15.3206 166.833 15.7365C167.277 16.1524 167.549 16.7224 167.594 17.3323L167.6 17.5141V34.4838H168.801V22.9686C168.8 22.8268 168.85 22.6894 168.94 22.5804C169.03 22.4715 169.154 22.3978 169.293 22.3723L169.401 22.3626H171.201C171.806 22.3624 172.39 22.5934 172.834 23.0092C173.278 23.4251 173.55 23.9951 173.595 24.605L173.601 24.7868V34.4838H174.801C175.107 34.4841 175.401 34.6024 175.624 34.8145C175.846 35.0266 175.98 35.3165 175.998 35.6249C176.016 35.9333 175.917 36.237 175.72 36.4739C175.524 36.7108 175.245 36.8631 174.942 36.8995L174.801 36.908H153.199C152.893 36.9077 152.599 36.7894 152.376 36.5773C152.154 36.3652 152.02 36.0754 152.002 35.7669C151.984 35.4585 152.083 35.1548 152.28 34.9179C152.476 34.681 152.755 34.5288 153.058 34.4923L153.199 34.4838H154.399V17.5141C154.399 16.9025 154.627 16.3134 155.039 15.8649C155.451 15.4165 156.015 15.1418 156.619 15.0959L156.799 15.0898H165.2ZM162.8 29.6353H159.199V32.0595H162.8V29.6353ZM162.8 24.7868H159.199V27.2111H162.8V24.7868ZM162.8 19.9383H159.199V22.3626H162.8V19.9383Z" fill="#0072D4"></path></g><path d="M154.058 61V50.968L154.266 49.8H156.154V61H154.058ZM151.69 53.336V51.352C151.956 51.3733 152.244 51.3093 152.554 51.16C152.863 51 153.167 50.7973 153.466 50.552C153.775 50.296 154.042 50.04 154.266 49.784L155.658 51.144C155.274 51.5707 154.868 51.96 154.442 52.312C154.015 52.6533 153.572 52.92 153.114 53.112C152.666 53.304 152.191 53.3787 151.69 53.336ZM158.504 61V59.384C158.504 59.0747 158.6 58.7333 158.792 58.36C158.984 57.9867 159.25 57.6133 159.592 57.24C159.933 56.8667 160.333 56.52 160.792 56.2L162.488 54.984C162.722 54.824 162.941 54.6427 163.144 54.44C163.357 54.2373 163.528 54.0187 163.656 53.784C163.794 53.5387 163.864 53.304 163.864 53.08C163.864 52.8027 163.794 52.552 163.656 52.328C163.528 52.104 163.336 51.928 163.08 51.8C162.824 51.672 162.509 51.608 162.136 51.608C161.816 51.608 161.528 51.672 161.272 51.8C161.026 51.928 160.824 52.0987 160.664 52.312C160.504 52.5253 160.392 52.7547 160.328 53L158.072 52.616C158.178 52.0827 158.408 51.5867 158.76 51.128C159.112 50.6693 159.57 50.3013 160.136 50.024C160.712 49.736 161.362 49.592 162.088 49.592C162.92 49.592 163.634 49.7413 164.232 50.04C164.829 50.3387 165.288 50.7493 165.608 51.272C165.938 51.784 166.104 52.3813 166.104 53.064C166.104 53.7573 165.912 54.376 165.528 54.92C165.154 55.4533 164.637 55.9547 163.976 56.424L162.456 57.528C162.146 57.7413 161.88 57.976 161.656 58.232C161.432 58.488 161.261 58.7707 161.144 59.08H166.248V61H158.504ZM171.161 59.928V52.536H172.873V59.928H171.161ZM168.313 57.096V55.384H175.705V57.096H168.313Z" fill="#22272B"></path><path d="M150.915 78L147.543 69.6H148.563L151.983 78H150.915ZM144.087 78L147.507 69.6H148.539L145.167 78H144.087ZM145.707 75.612V74.7H150.375V75.612H145.707ZM158.247 78L160.275 72H161.247L159.207 78H158.247ZM154.167 78L156.195 72H157.095L155.091 78H154.167ZM154.119 78L152.079 72H153.051L155.055 78H154.119ZM158.247 78L156.243 72H157.155L159.159 78H158.247ZM165.765 78L165.717 77.016V74.832C165.717 74.36 165.665 73.972 165.561 73.668C165.457 73.356 165.293 73.12 165.069 72.96C164.845 72.8 164.553 72.72 164.193 72.72C163.865 72.72 163.581 72.788 163.341 72.924C163.109 73.052 162.917 73.26 162.765 73.548L161.901 73.212C162.053 72.932 162.237 72.692 162.453 72.492C162.669 72.284 162.921 72.128 163.209 72.024C163.497 71.912 163.825 71.856 164.193 71.856C164.753 71.856 165.213 71.968 165.573 72.192C165.941 72.408 166.217 72.732 166.401 73.164C166.585 73.588 166.673 74.116 166.665 74.748L166.653 78H165.765ZM163.965 78.144C163.261 78.144 162.709 77.984 162.309 77.664C161.917 77.336 161.721 76.884 161.721 76.308C161.721 75.7 161.921 75.236 162.321 74.916C162.729 74.588 163.297 74.424 164.025 74.424H165.741V75.228H164.241C163.681 75.228 163.281 75.32 163.041 75.504C162.809 75.688 162.693 75.952 162.693 76.296C162.693 76.608 162.809 76.856 163.041 77.04C163.273 77.216 163.597 77.304 164.013 77.304C164.357 77.304 164.657 77.232 164.913 77.088C165.169 76.936 165.365 76.724 165.501 76.452C165.645 76.172 165.717 75.844 165.717 75.468H166.125C166.125 76.284 165.941 76.936 165.573 77.424C165.205 77.904 164.669 78.144 163.965 78.144ZM168.714 74.748C168.714 74.1 168.838 73.576 169.086 73.176C169.334 72.768 169.65 72.468 170.034 72.276C170.426 72.076 170.838 71.976 171.27 71.976V72.876C170.918 72.876 170.578 72.936 170.25 73.056C169.93 73.168 169.666 73.356 169.458 73.62C169.25 73.884 169.146 74.244 169.146 74.7L168.714 74.748ZM168.186 78V72H169.146V78H168.186ZM176.68 78L176.632 76.884V69.6H177.592V78H176.68ZM174.604 78.144C174.068 78.144 173.596 78.012 173.188 77.748C172.78 77.484 172.46 77.116 172.228 76.644C172.004 76.164 171.892 75.616 171.892 75C171.892 74.376 172.004 73.828 172.228 73.356C172.46 72.884 172.78 72.516 173.188 72.252C173.596 71.988 174.068 71.856 174.604 71.856C175.108 71.856 175.548 71.988 175.924 72.252C176.308 72.516 176.604 72.884 176.812 73.356C177.02 73.828 177.124 74.376 177.124 75C177.124 75.616 177.02 76.164 176.812 76.644C176.604 77.116 176.308 77.484 175.924 77.748C175.548 78.012 175.108 78.144 174.604 78.144ZM174.82 77.268C175.172 77.268 175.484 77.172 175.756 76.98C176.028 76.788 176.24 76.52 176.392 76.176C176.552 75.832 176.632 75.44 176.632 75C176.632 74.56 176.552 74.168 176.392 73.824C176.24 73.48 176.028 73.212 175.756 73.02C175.484 72.828 175.168 72.732 174.808 72.732C174.432 72.732 174.096 72.828 173.8 73.02C173.512 73.212 173.284 73.48 173.116 73.824C172.948 74.168 172.864 74.56 172.864 75C172.864 75.44 172.948 75.832 173.116 76.176C173.284 76.52 173.516 76.788 173.812 76.98C174.108 77.172 174.444 77.268 174.82 77.268ZM181.372 78.144C180.932 78.144 180.548 78.08 180.22 77.952C179.892 77.816 179.616 77.64 179.392 77.424C179.176 77.208 179.02 76.972 178.924 76.716L179.764 76.368C179.9 76.64 180.104 76.86 180.376 77.028C180.648 77.196 180.948 77.28 181.276 77.28C181.652 77.28 181.968 77.208 182.224 77.064C182.48 76.912 182.608 76.7 182.608 76.428C182.608 76.18 182.512 75.98 182.32 75.828C182.136 75.676 181.86 75.552 181.492 75.456L180.916 75.3C180.372 75.156 179.948 74.94 179.644 74.652C179.34 74.356 179.188 74.024 179.188 73.656C179.188 73.088 179.372 72.648 179.74 72.336C180.116 72.016 180.672 71.856 181.408 71.856C181.76 71.856 182.08 71.908 182.368 72.012C182.656 72.116 182.904 72.264 183.112 72.456C183.32 72.64 183.472 72.86 183.568 73.116L182.728 73.488C182.624 73.216 182.452 73.02 182.212 72.9C181.972 72.78 181.68 72.72 181.336 72.72C180.968 72.72 180.68 72.8 180.472 72.96C180.264 73.112 180.16 73.328 180.16 73.608C180.16 73.768 180.244 73.92 180.412 74.064C180.588 74.2 180.844 74.312 181.18 74.4L181.78 74.556C182.172 74.652 182.5 74.796 182.764 74.988C183.028 75.172 183.228 75.384 183.364 75.624C183.5 75.864 183.568 76.12 183.568 76.392C183.568 76.752 183.472 77.064 183.28 77.328C183.088 77.592 182.828 77.796 182.5 77.94C182.172 78.076 181.796 78.144 181.372 78.144Z" fill="#5C6062"></path><rect x="228" width="100" height="95" rx="12" fill="#F5F5F5"></rect><g clip-path="url(#clip2_6284_63592)"><path fill-rule="evenodd" clip-rule="evenodd" d="M279.2 15.0898C279.806 15.0897 280.389 15.3206 280.833 15.7365C281.277 16.1524 281.549 16.7224 281.594 17.3323L281.6 17.5141V34.4838H282.801V22.9686C282.8 22.8268 282.85 22.6894 282.94 22.5804C283.03 22.4715 283.154 22.3978 283.293 22.3723L283.401 22.3626H285.201C285.806 22.3624 286.39 22.5934 286.834 23.0092C287.278 23.4251 287.55 23.9951 287.595 24.605L287.601 24.7868V34.4838H288.801C289.107 34.4841 289.401 34.6024 289.624 34.8145C289.846 35.0266 289.98 35.3165 289.998 35.6249C290.016 35.9333 289.917 36.237 289.72 36.4739C289.524 36.7108 289.245 36.8631 288.942 36.8995L288.801 36.908H267.199C266.893 36.9077 266.599 36.7894 266.376 36.5773C266.154 36.3652 266.02 36.0754 266.002 35.7669C265.984 35.4585 266.083 35.1548 266.28 34.9179C266.476 34.681 266.755 34.5288 267.058 34.4923L267.199 34.4838H268.399V17.5141C268.399 16.9025 268.627 16.3134 269.039 15.8649C269.451 15.4165 270.015 15.1418 270.619 15.0959L270.799 15.0898H279.2ZM276.8 29.6353H273.199V32.0595H276.8V29.6353ZM276.8 24.7868H273.199V27.2111H276.8V24.7868ZM276.8 19.9383H273.199V22.3626H276.8V19.9383Z" fill="#0072D4"></path></g><path d="M262.175 61V50.968L262.383 49.8H264.271V61H262.175ZM259.807 53.336V51.352C260.073 51.3733 260.361 51.3093 260.671 51.16C260.98 51 261.284 50.7973 261.583 50.552C261.892 50.296 262.159 50.04 262.383 49.784L263.775 51.144C263.391 51.5707 262.985 51.96 262.559 52.312C262.132 52.6533 261.689 52.92 261.231 53.112C260.783 53.304 260.308 53.3787 259.807 53.336ZM270.989 61.192C270.082 61.192 269.282 60.9467 268.589 60.456C267.895 59.9547 267.351 59.272 266.957 58.408C266.562 57.5333 266.365 56.5307 266.365 55.4C266.365 54.2693 266.562 53.272 266.957 52.408C267.351 51.5333 267.89 50.8507 268.573 50.36C269.266 49.8587 270.066 49.608 270.973 49.608C271.879 49.608 272.679 49.8587 273.373 50.36C274.077 50.8507 274.626 51.5333 275.021 52.408C275.415 53.272 275.613 54.2693 275.613 55.4C275.613 56.5307 275.415 57.5333 275.021 58.408C274.626 59.272 274.082 59.9547 273.389 60.456C272.695 60.9467 271.895 61.192 270.989 61.192ZM270.989 59.208C271.469 59.208 271.895 59.048 272.269 58.728C272.653 58.3973 272.951 57.9493 273.165 57.384C273.378 56.808 273.485 56.1467 273.485 55.4C273.485 54.6533 273.378 53.992 273.165 53.416C272.951 52.84 272.653 52.392 272.269 52.072C271.895 51.7413 271.463 51.576 270.973 51.576C270.493 51.576 270.066 51.7413 269.693 52.072C269.319 52.392 269.026 52.84 268.813 53.416C268.61 53.992 268.509 54.6533 268.509 55.4C268.509 56.1467 268.61 56.808 268.813 57.384C269.026 57.9493 269.319 58.3973 269.693 58.728C270.077 59.048 270.509 59.208 270.989 59.208ZM278.708 58.168L278.452 55.416L283.7 49.8H286.532L278.708 58.168ZM277.396 61V49.8H279.556V61H277.396ZM284.004 61L279.54 55.304L281.124 53.992L286.708 61H284.004ZM291.044 59.928V52.536H292.756V59.928H291.044ZM288.196 57.096V55.384H295.588V57.096H288.196Z" fill="#22272B"></path><path d="M248.15 78.144C247.35 78.144 246.642 77.96 246.026 77.592C245.41 77.216 244.926 76.704 244.574 76.056C244.222 75.4 244.046 74.648 244.046 73.8C244.046 72.952 244.218 72.204 244.562 71.556C244.914 70.9 245.394 70.388 246.002 70.02C246.618 69.644 247.322 69.456 248.114 69.456C248.618 69.456 249.102 69.548 249.566 69.732C250.03 69.908 250.446 70.16 250.814 70.488C251.182 70.808 251.466 71.18 251.666 71.604L250.79 72.048C250.63 71.712 250.41 71.42 250.13 71.172C249.85 70.924 249.538 70.732 249.194 70.596C248.85 70.452 248.49 70.38 248.114 70.38C247.53 70.38 247.006 70.528 246.542 70.824C246.078 71.112 245.714 71.512 245.45 72.024C245.194 72.536 245.066 73.128 245.066 73.8C245.066 74.472 245.198 75.068 245.462 75.588C245.726 76.108 246.09 76.516 246.554 76.812C247.026 77.1 247.558 77.244 248.15 77.244C248.534 77.244 248.898 77.168 249.242 77.016C249.586 76.856 249.894 76.64 250.166 76.368C250.446 76.096 250.666 75.784 250.826 75.432L251.714 75.876C251.506 76.316 251.218 76.708 250.85 77.052C250.49 77.396 250.074 77.664 249.602 77.856C249.138 78.048 248.654 78.144 248.15 78.144ZM252.983 78V69.6H253.943V78H252.983ZM255.679 78V72H256.639V78H255.679ZM256.171 70.608C256.011 70.608 255.871 70.548 255.751 70.428C255.631 70.308 255.571 70.168 255.571 70.008C255.571 69.84 255.631 69.7 255.751 69.588C255.871 69.468 256.011 69.408 256.171 69.408C256.339 69.408 256.479 69.468 256.591 69.588C256.711 69.7 256.771 69.84 256.771 70.008C256.771 70.168 256.711 70.308 256.591 70.428C256.479 70.548 256.339 70.608 256.171 70.608ZM258.408 78V72H259.308L259.368 73.104V78H258.408ZM262.62 78V74.928H263.58V78H262.62ZM262.62 74.928C262.62 74.336 262.552 73.884 262.416 73.572C262.28 73.26 262.092 73.048 261.852 72.936C261.612 72.816 261.34 72.756 261.036 72.756C260.508 72.756 260.096 72.944 259.8 73.32C259.512 73.688 259.368 74.212 259.368 74.892H258.9C258.9 74.26 258.992 73.716 259.176 73.26C259.36 72.804 259.628 72.456 259.98 72.216C260.332 71.976 260.756 71.856 261.252 71.856C261.724 71.856 262.132 71.952 262.476 72.144C262.828 72.328 263.1 72.624 263.292 73.032C263.492 73.44 263.588 73.976 263.58 74.64V74.928H262.62ZM265.16 78V72H266.12V78H265.16ZM265.652 70.608C265.492 70.608 265.352 70.548 265.232 70.428C265.112 70.308 265.052 70.168 265.052 70.008C265.052 69.84 265.112 69.7 265.232 69.588C265.352 69.468 265.492 69.408 265.652 69.408C265.82 69.408 265.96 69.468 266.072 69.588C266.192 69.7 266.252 69.84 266.252 70.008C266.252 70.168 266.192 70.308 266.072 70.428C265.96 70.548 265.82 70.608 265.652 70.608ZM270.565 78.144C269.973 78.144 269.449 78.012 268.993 77.748C268.537 77.476 268.181 77.104 267.925 76.632C267.669 76.16 267.541 75.616 267.541 75C267.541 74.384 267.665 73.84 267.913 73.368C268.169 72.896 268.525 72.528 268.981 72.264C269.437 71.992 269.957 71.856 270.541 71.856C271.117 71.856 271.633 71.988 272.089 72.252C272.545 72.516 272.893 72.888 273.133 73.368L272.257 73.764C272.097 73.444 271.865 73.196 271.561 73.02C271.257 72.836 270.909 72.744 270.517 72.744C270.125 72.744 269.777 72.84 269.473 73.032C269.177 73.224 268.941 73.492 268.765 73.836C268.597 74.172 268.513 74.56 268.513 75C268.513 75.44 268.597 75.832 268.765 76.176C268.941 76.512 269.181 76.776 269.485 76.968C269.797 77.16 270.149 77.256 270.541 77.256C270.933 77.256 271.281 77.156 271.585 76.956C271.897 76.756 272.133 76.476 272.293 76.116L273.169 76.512C272.929 77.024 272.581 77.424 272.125 77.712C271.669 78 271.149 78.144 270.565 78.144ZM278.077 78L278.029 77.016V74.832C278.029 74.36 277.977 73.972 277.873 73.668C277.769 73.356 277.605 73.12 277.381 72.96C277.157 72.8 276.865 72.72 276.505 72.72C276.177 72.72 275.893 72.788 275.653 72.924C275.421 73.052 275.229 73.26 275.077 73.548L274.213 73.212C274.365 72.932 274.549 72.692 274.765 72.492C274.981 72.284 275.233 72.128 275.521 72.024C275.809 71.912 276.137 71.856 276.505 71.856C277.065 71.856 277.525 71.968 277.885 72.192C278.253 72.408 278.529 72.732 278.713 73.164C278.897 73.588 278.985 74.116 278.977 74.748L278.965 78H278.077ZM276.277 78.144C275.573 78.144 275.021 77.984 274.621 77.664C274.229 77.336 274.033 76.884 274.033 76.308C274.033 75.7 274.233 75.236 274.633 74.916C275.041 74.588 275.609 74.424 276.337 74.424H278.053V75.228H276.553C275.993 75.228 275.593 75.32 275.353 75.504C275.121 75.688 275.005 75.952 275.005 76.296C275.005 76.608 275.121 76.856 275.353 77.04C275.585 77.216 275.909 77.304 276.325 77.304C276.669 77.304 276.969 77.232 277.225 77.088C277.481 76.936 277.677 76.724 277.813 76.452C277.957 76.172 278.029 75.844 278.029 75.468H278.437C278.437 76.284 278.253 76.936 277.885 77.424C277.517 77.904 276.981 78.144 276.277 78.144ZM280.498 78V69.6H281.458V78H280.498ZM288.068 78V70.524H285.392V69.6H291.752V70.524H289.076V78H288.068ZM292.686 74.748C292.686 74.1 292.81 73.576 293.058 73.176C293.306 72.768 293.622 72.468 294.006 72.276C294.398 72.076 294.81 71.976 295.242 71.976V72.876C294.89 72.876 294.55 72.936 294.222 73.056C293.902 73.168 293.638 73.356 293.43 73.62C293.222 73.884 293.118 74.244 293.118 74.7L292.686 74.748ZM292.158 78V72H293.118V78H292.158ZM296.273 78V72H297.233V78H296.273ZM296.765 70.608C296.605 70.608 296.465 70.548 296.345 70.428C296.225 70.308 296.165 70.168 296.165 70.008C296.165 69.84 296.225 69.7 296.345 69.588C296.465 69.468 296.605 69.408 296.765 69.408C296.933 69.408 297.073 69.468 297.185 69.588C297.305 69.7 297.365 69.84 297.365 70.008C297.365 70.168 297.305 70.308 297.185 70.428C297.073 70.548 296.933 70.608 296.765 70.608ZM302.698 78L302.65 77.016V74.832C302.65 74.36 302.598 73.972 302.494 73.668C302.39 73.356 302.226 73.12 302.002 72.96C301.778 72.8 301.486 72.72 301.126 72.72C300.798 72.72 300.514 72.788 300.274 72.924C300.042 73.052 299.85 73.26 299.698 73.548L298.834 73.212C298.986 72.932 299.17 72.692 299.386 72.492C299.602 72.284 299.854 72.128 300.142 72.024C300.43 71.912 300.758 71.856 301.126 71.856C301.686 71.856 302.146 71.968 302.506 72.192C302.874 72.408 303.15 72.732 303.334 73.164C303.518 73.588 303.606 74.116 303.598 74.748L303.586 78H302.698ZM300.898 78.144C300.194 78.144 299.642 77.984 299.242 77.664C298.85 77.336 298.654 76.884 298.654 76.308C298.654 75.7 298.854 75.236 299.254 74.916C299.662 74.588 300.23 74.424 300.958 74.424H302.674V75.228H301.174C300.614 75.228 300.214 75.32 299.974 75.504C299.742 75.688 299.626 75.952 299.626 76.296C299.626 76.608 299.742 76.856 299.974 77.04C300.206 77.216 300.53 77.304 300.946 77.304C301.29 77.304 301.59 77.232 301.846 77.088C302.102 76.936 302.298 76.724 302.434 76.452C302.578 76.172 302.65 75.844 302.65 75.468H303.058C303.058 76.284 302.874 76.936 302.506 77.424C302.138 77.904 301.602 78.144 300.898 78.144ZM305.119 78V69.6H306.079V78H305.119ZM309.856 78.144C309.416 78.144 309.032 78.08 308.704 77.952C308.376 77.816 308.1 77.64 307.876 77.424C307.66 77.208 307.504 76.972 307.408 76.716L308.248 76.368C308.384 76.64 308.588 76.86 308.86 77.028C309.132 77.196 309.432 77.28 309.76 77.28C310.136 77.28 310.452 77.208 310.708 77.064C310.964 76.912 311.092 76.7 311.092 76.428C311.092 76.18 310.996 75.98 310.804 75.828C310.62 75.676 310.344 75.552 309.976 75.456L309.4 75.3C308.856 75.156 308.432 74.94 308.128 74.652C307.824 74.356 307.672 74.024 307.672 73.656C307.672 73.088 307.856 72.648 308.224 72.336C308.6 72.016 309.156 71.856 309.892 71.856C310.244 71.856 310.564 71.908 310.852 72.012C311.14 72.116 311.388 72.264 311.596 72.456C311.804 72.64 311.956 72.86 312.052 73.116L311.212 73.488C311.108 73.216 310.936 73.02 310.696 72.9C310.456 72.78 310.164 72.72 309.82 72.72C309.452 72.72 309.164 72.8 308.956 72.96C308.748 73.112 308.644 73.328 308.644 73.608C308.644 73.768 308.728 73.92 308.896 74.064C309.072 74.2 309.328 74.312 309.664 74.4L310.264 74.556C310.656 74.652 310.984 74.796 311.248 74.988C311.512 75.172 311.712 75.384 311.848 75.624C311.984 75.864 312.052 76.12 312.052 76.392C312.052 76.752 311.956 77.064 311.764 77.328C311.572 77.592 311.312 77.796 310.984 77.94C310.656 78.076 310.28 78.144 309.856 78.144Z" fill="#5C6062"></path><defs><clipPath id="clip0_6284_63592"><rect width="24" height="24" fill="white" transform="translate(38 14)"></rect></clipPath><clipPath id="clip1_6284_63592"><rect width="24" height="24" fill="white" transform="translate(152 14)"></rect></clipPath><clipPath id="clip2_6284_63592"><rect width="24" height="24" fill="white" transform="translate(266 14)"></rect></clipPath></defs></svg>