<svg xmlns="http://www.w3.org/2000/svg" width="360" height="338" viewBox="0 0 360 338" fill="none"><g clip-path="url(#clip0_7348_30067)"><rect width="360" height="338" fill="#0072D4"></rect><path d="M366.759 51C366.759 51 338.648 117.959 362.713 185.67C372.706 213.786 393.38 195.074 398.065 170.623C401.683 151.743 400.74 142.521 390.824 133.006C346.528 90.4981 293.713 239.086 297.759 291.751C301.806 344.415 348.871 369.242 350.574 308.302C352.278 247.362 275.611 247.738 236.213 260.152C179.594 277.992 98 339.901 98 339.901" stroke="#E9E9E9" stroke-width="3" stroke-dasharray="6 6"></path><path d="M347 179L349.161 184.839L355 187L349.161 189.161L347 195L344.839 189.161L339 187L344.839 184.839L347 179Z" fill="#F5F5F5"></path></g><defs><clipPath id="clip0_7348_30067"><rect width="360" height="338" fill="white"></rect></clipPath></defs></svg>