<svg xmlns="http://www.w3.org/2000/svg" width="1440" height="622" viewBox="0 0 1440 622" fill="none"><g clip-path="url(#clip0_7345_30067)"><rect width="1440" height="622" fill="#0072D4"></rect><path d="M1380 27C1380 27 1248 205 1361 385C1407.92 459.742 1505 410 1527 345C1543.99 294.811 1539.56 270.294 1493 245C1285 132 1037 527 1056 667C1075 807 1296 873 1304 711C1312 549 952 550 767 583C501.137 630.424 118 795 118 795" stroke="#E9E9E9" stroke-width="4" stroke-dasharray="6 6"></path><path d="M1309 53L1312.78 63.2187L1323 67L1312.78 70.7813L1309 81L1305.22 70.7813L1295 67L1305.22 63.2187L1309 53Z" fill="#F5F5F5"></path></g><defs><clipPath id="clip0_7345_30067"><rect width="1440" height="622" fill="white"></rect></clipPath></defs></svg>