<svg xmlns="http://www.w3.org/2000/svg" width="80" height="80" viewBox="0 0 80 80" fill="none"><rect width="80" height="80" rx="8" fill="white"></rect><g clip-path="url(#clip0_8186_30845)"><path d="M65.5 14.5H14.5V65.5H65.5V14.5Z" fill="#95C8E2"></path><path d="M60.7148 60.7188V19.2812L19.2773 19.2813V60.7188H60.7148Z" fill="#A9E1F7"></path><path d="M18.8828 18.8828V61.1172H61.1172V18.8828H18.8828ZM60.3203 41.9125H56.4953V38.0875H60.3203V41.9125ZM19.6797 38.0875H23.5047V41.9125H19.6797V38.0875ZM55.6984 23.5047H51.8734V19.6797H55.6984V23.5047ZM55.6984 24.3016V28.0469H51.8734V24.2219H55.6984V24.3016ZM55.6984 28.8438V32.6687H51.8734V28.8438H55.6984ZM55.6984 33.4656V37.2906H51.8734V33.4656H55.6984ZM55.6984 38.0875V41.9125H51.8734V38.0875H55.6984ZM56.4953 55.6984V51.8734H60.3203V55.6984H56.4953ZM60.3203 56.4953V60.3203H56.4953V56.4953H60.3203ZM56.4953 51.0766V47.2516H60.3203V51.0766H56.4953ZM56.4953 46.5344V42.7094H60.3203V46.5344H56.4953ZM51.8734 56.4953H55.6984V60.3203H51.8734V56.4953ZM51.8734 55.6984V51.8734H55.6984V55.6984H51.8734ZM51.8734 51.0766V47.2516H55.6984V51.0766H51.8734ZM51.8734 46.5344V42.7094H55.6984V46.5344H51.8734ZM51.0766 42.7094V46.5344H47.2516V42.7094H51.0766ZM47.3313 38.0875H51.1562V41.9125H47.3313V38.0875ZM47.3313 56.4953H51.1562V60.3203H47.3313V56.4953ZM47.3313 55.6984V51.8734H51.1562V55.6984H47.3313ZM47.3313 51.0766V47.2516H51.1562V51.0766H47.3313ZM51.0766 23.5047H47.2516V19.6797H51.0766V23.5047ZM51.0766 24.3016V28.0469H47.2516V24.2219H51.0766V24.3016ZM51.0766 28.8438V32.6687H47.2516V28.8438H51.0766ZM51.0766 33.4656V37.2906H47.2516V33.4656H51.0766ZM46.5344 23.5047H42.7094V19.6797H46.5344V23.5047ZM46.5344 24.3016V28.0469H42.7094V24.2219H46.5344V24.3016ZM46.5344 28.8438V32.6687H42.7094V28.8438H46.5344ZM46.5344 33.4656V37.2906H42.7094V33.4656H46.5344ZM46.5344 38.0875V41.9125H42.7094V38.0875H46.5344ZM42.7094 56.4953H46.5344V60.3203H42.7094V56.4953ZM42.7094 55.6984V51.8734H46.5344V55.6984H42.7094ZM42.7094 51.0766V47.2516H46.5344V51.0766H42.7094ZM42.7094 46.5344V42.7094H46.5344V46.5344H42.7094ZM41.9125 23.5047H38.0875V19.6797H41.9125V23.5047ZM41.9125 24.3016V28.0469H38.0875V24.2219H41.9125V24.3016ZM41.9125 28.8438V32.6687H38.0875V28.8438H41.9125ZM41.9125 33.4656V37.2906H38.0875V33.4656H41.9125ZM41.9125 38.0875V41.9125H38.0875V38.0875H41.9125ZM38.0875 56.4953H41.9125V60.3203H38.0875V56.4953ZM38.0875 55.6984V51.8734H41.9125V55.6984H38.0875ZM38.0875 51.0766V47.2516H41.9125V51.0766H38.0875ZM38.0875 46.5344V42.7094H41.9125V46.5344H38.0875ZM37.2906 23.5047H33.4656V19.6797H37.2906V23.5047ZM37.2906 24.3016V28.0469H33.4656V24.2219H37.2906V24.3016ZM37.2906 28.8438V32.6687H33.4656V28.8438H37.2906ZM37.2906 33.4656V37.2906H33.4656V33.4656H37.2906ZM37.2906 38.0875V41.9125H33.4656V38.0875H37.2906ZM33.4656 56.4953H37.2906V60.3203H33.4656V56.4953ZM33.4656 55.6984V51.8734H37.2906V55.6984H33.4656ZM33.4656 51.0766V47.2516H37.2906V51.0766H33.4656ZM33.4656 46.5344V42.7094H37.2906V46.5344H33.4656ZM32.6687 42.7094V46.5344H28.8438V42.7094H32.6687ZM28.9234 38.0875H32.7484V41.9125H28.9234V38.0875ZM28.9234 56.4953H32.7484V60.3203H28.9234V56.4953ZM28.9234 55.6984V51.8734H32.7484V55.6984H28.9234ZM28.9234 51.0766V47.2516H32.7484V51.0766H28.9234ZM32.6687 23.5047H28.8438V19.6797H32.6687V23.5047ZM32.6687 24.3016V28.0469H28.8438V24.2219H32.6687V24.3016ZM32.6687 28.8438V32.6687H28.8438V28.8438H32.6687ZM32.6687 33.4656V37.2906H28.8438V33.4656H32.6687ZM28.1266 23.5047H24.3016V19.6797H28.1266V23.5047ZM28.1266 24.3016V28.0469H24.3016V24.2219H28.1266V24.3016ZM28.1266 28.8438V32.6687H24.3016V28.8438H28.1266ZM28.1266 33.4656V37.2906H24.3016V33.4656H28.1266ZM28.1266 38.0875V41.9125H24.3016V38.0875H28.1266ZM24.3016 56.4953H28.1266V60.3203H24.3016V56.4953ZM24.3016 55.6984V51.8734H28.1266V55.6984H24.3016ZM24.3016 51.0766V47.2516H28.1266V51.0766H24.3016ZM24.3016 46.5344V42.7094H28.1266V46.5344H24.3016ZM23.5047 23.5047H19.6797V19.6797H23.5047V23.5047ZM23.5047 24.3016V28.0469H19.6797V24.2219H23.5047V24.3016ZM23.5047 28.8438V32.6687H19.6797V28.8438H23.5047ZM23.5047 33.4656V37.2906H19.6797V33.4656H23.5047ZM19.6797 51.0766V47.2516H23.5047V51.0766H19.6797ZM23.5047 51.8734V55.6984H19.6797V51.8734H23.5047ZM19.6797 46.5344V42.7094H23.5047V46.5344H19.6797ZM19.6797 56.4953H23.5047V60.3203H19.6797V56.4953ZM60.3203 28.8438V32.6687H56.4953V28.8438H60.3203ZM56.4953 28.0469V24.2219H60.3203V28.0469H56.4953ZM60.3203 33.4656V37.2906H56.4953V33.4656H60.3203ZM60.3203 23.5047H56.4953V19.6797H60.3203V23.5047Z" fill="white" fill-opacity="0.5"></path><path d="M65.5 39.6031V40.4H53.3078L52.4312 41.9141L52.0328 42.7109L51.8734 42.8703L51.0766 44.3844L49.8813 46.5359L49.4828 47.3328L49.6422 41.2766L48.8453 34.2641L47.3312 36.2562L46.5344 37.2125L46.4547 37.2922L45.8172 38.0891L44.0641 40.4H34.9L34.0234 41.9141L33.625 42.7109L33.4656 42.8703L32.6687 44.3844L31.4734 46.5359L31.075 47.3328L30.1188 54.502L30.4375 34.5828L28.9234 37.2922L28.1266 38.7266L26.9313 40.7984H14.5V40.0016H26.4531L27.4891 38.0891L27.9672 37.2922L28.1266 37.1328L28.9234 35.6984L30.1188 33.4672L30.5969 32.6703L31.2344 31.5547V45.3406L32.6687 42.7109L33.4656 41.1969L34.4219 39.6031H43.6656L44.7812 38.0891L45.4187 37.2922L46.5344 35.9375L47.3312 34.9016L48.4469 33.4672L49.0047 32.6703L49.6422 31.9531V45.3406L51.0766 42.7109L51.8734 41.2766L52.8297 39.6031H65.5Z" fill="#FF4C31"></path></g><defs><clipPath id="clip0_8186_30845"><rect width="51" height="51" fill="white" transform="translate(14.5 14.5)"></rect></clipPath></defs></svg>