<svg xmlns="http://www.w3.org/2000/svg" width="235" height="387" viewBox="0 0 235 387" fill="none"><path d="M234.999 387L229.325 370.635L217.99 383.732L234.999 387ZM0.117534 3.46287C1.86171 3.85834 3.58753 4.25581 5.29517 4.65528L5.97852 1.73415C4.26412 1.33309 2.53164 0.934086 0.780904 0.537131L0.117534 3.46287ZM15.3244 7.07606C18.5957 7.89095 21.7958 8.71378 24.9261 9.54449L25.6956 6.64486C22.5501 5.81011 19.3352 4.98348 16.0495 4.16502L15.3244 7.07606ZM34.8268 12.2638C38.1695 13.2143 41.4264 14.1746 44.5995 15.1447L45.4766 12.2757C42.284 11.2997 39.0082 10.3339 35.6473 9.3782L34.8268 12.2638ZM54.0147 18.1317C57.3964 19.2455 60.6745 20.3715 63.8521 21.5096L64.8637 18.6853C61.6608 17.5381 58.3583 16.4038 54.9533 15.2823L54.0147 18.1317ZM73.0863 24.9599C76.4006 26.2527 79.5942 27.5602 82.6709 28.8822L83.8553 26.1259C80.7459 24.7898 77.5209 23.4695 74.1764 22.165L73.0863 24.9599ZM91.6748 32.9488C94.8858 34.4745 97.9531 36.0184 100.883 37.5803L102.294 34.933C99.3216 33.3483 96.213 31.7836 92.9623 30.2391L91.6748 32.9488ZM109.487 42.4539C112.511 44.2764 115.364 46.1216 118.055 47.9893L119.765 45.5249C117.019 43.6186 114.112 41.7384 111.036 39.8844L109.487 42.4539ZM126.096 54.0214C128.76 56.1879 131.229 58.3824 133.515 60.6044L135.606 58.4531C133.254 56.1667 130.718 53.9135 127.988 51.6937L126.096 54.0214ZM140.334 67.941C142.543 70.5863 144.526 73.269 146.303 75.9885L148.814 74.3475C146.972 71.5284 144.92 68.7518 142.637 66.0182L140.334 67.941ZM151.23 84.6496C152.708 87.6697 153.971 90.7353 155.044 93.8464L157.88 92.8682C156.769 89.6447 155.458 86.4652 153.925 83.3312L151.23 84.6496ZM157.746 103.449C158.467 106.691 159.017 109.98 159.422 113.318L162.4 112.957C161.985 109.53 161.418 106.143 160.675 102.799L157.746 103.449ZM160.22 123.336C160.357 126.655 160.38 130.018 160.312 133.426L163.311 133.486C163.38 130.025 163.357 126.601 163.217 123.213L160.22 123.336ZM159.87 143.529C159.656 146.848 159.378 150.206 159.056 153.602L162.043 153.885C162.367 150.466 162.647 147.078 162.864 143.723L159.87 143.529ZM158.005 163.683C157.631 167.015 157.236 170.379 156.834 173.78L159.814 174.131C160.215 170.731 160.612 167.359 160.986 164.017L158.005 163.683ZM155.651 183.901C155.269 187.254 154.897 190.638 154.552 194.052L157.537 194.354C157.88 190.957 158.25 187.586 158.632 184.242L155.651 183.901ZM153.628 204.192C153.359 207.559 153.129 210.954 152.954 214.377L155.95 214.531C156.123 211.14 156.351 207.774 156.618 204.431L153.628 204.192ZM152.606 224.602C152.553 227.995 152.565 231.414 152.656 234.858L155.655 234.779C155.565 231.38 155.553 228.004 155.606 224.649L152.606 224.602ZM153.162 245.058C153.41 248.43 153.745 251.825 154.177 255.243L157.153 254.867C156.728 251.503 156.399 248.16 156.153 244.837L153.162 245.058ZM155.749 265.403C156.359 268.72 157.069 272.058 157.891 275.415L160.805 274.702C159.997 271.403 159.299 268.122 158.7 264.86L155.749 265.403ZM160.615 285.267C161.614 288.503 162.723 291.755 163.952 295.024L166.76 293.968C165.553 290.756 164.463 287.561 163.481 284.382L160.615 285.267ZM167.823 304.468C169.183 307.53 170.653 310.605 172.241 313.695L174.909 312.323C173.347 309.284 171.901 306.26 170.564 303.25L167.823 304.468ZM177.214 322.746C178.886 325.604 180.664 328.474 182.551 331.354L185.061 329.709C183.2 326.871 181.45 324.045 179.803 321.231L177.214 322.746ZM188.475 339.923C190.404 342.575 192.43 345.235 194.556 347.904L196.903 346.035C194.803 343.399 192.804 340.774 190.901 338.158L188.475 339.923ZM201.231 355.925C203.373 358.393 205.604 360.868 207.927 363.35L210.118 361.301C207.82 358.845 205.614 356.397 203.496 353.958L201.231 355.925ZM215.175 370.819C217.5 373.132 219.906 375.45 222.397 377.775L224.444 375.582C221.976 373.278 219.592 370.982 217.29 368.692L215.175 370.819Z" fill="#5C6062"></path></svg>