<svg xmlns="http://www.w3.org/2000/svg" width="422" height="267" viewBox="0 0 422 267" fill="none"><path d="M0 258L15.0235 266.619L14.9764 249.299L0 258ZM15.3745 259.373C18.695 259.317 21.9522 259.242 25.1477 259.149L25.0602 256.15C21.8773 256.243 18.6323 256.317 15.3236 256.373L15.3745 259.373ZM35.34 258.781C38.7425 258.633 42.0709 258.464 45.3271 258.272L45.151 255.277C41.9107 255.468 38.5978 255.637 35.2102 255.783L35.34 258.781ZM55.2216 257.607C58.6837 257.343 62.0591 257.053 65.3508 256.737L65.0639 253.751C61.7927 254.065 58.4371 254.354 54.9941 254.615L55.2216 257.607ZM75.1036 255.695C78.5885 255.284 81.9729 254.84 85.2606 254.365L84.8318 251.396C81.5707 251.867 78.2121 252.307 74.7518 252.716L75.1036 255.695ZM94.9894 252.821C98.4423 252.221 101.78 251.583 105.008 250.907L104.394 247.971C101.201 248.639 97.8964 249.271 94.4757 249.865L94.9894 252.821ZM114.748 248.675C118.094 247.837 121.312 246.954 124.408 246.027L123.548 243.153C120.497 244.066 117.323 244.937 114.019 245.765L114.748 248.675ZM134.061 242.859C137.318 241.69 140.426 240.464 143.397 239.185L142.21 236.43C139.299 237.684 136.248 238.886 133.048 240.036L134.061 242.859ZM152.445 234.91C155.55 233.303 158.488 231.626 161.276 229.884L159.686 227.34C156.968 229.039 154.101 230.675 151.066 232.246L152.445 234.91ZM169.634 224.14C172.387 222.062 174.977 219.909 177.429 217.684L175.413 215.463C173.027 217.628 170.506 219.723 167.827 221.745L169.634 224.14ZM184.609 210.565C186.912 208.075 189.088 205.513 191.164 202.884L188.809 201.025C186.778 203.598 184.653 206.1 182.406 208.528L184.609 210.565ZM197.143 194.768C199.04 192.021 200.866 189.212 202.648 186.35L200.101 184.764C198.34 187.594 196.54 190.362 194.674 193.064L197.143 194.768ZM207.81 177.742C209.469 174.887 211.114 171.984 212.768 169.04L210.152 167.571C208.501 170.509 206.865 173.398 205.216 176.235L207.81 177.742ZM217.654 160.316C219.261 157.454 220.898 154.557 222.587 151.629L219.988 150.13C218.291 153.073 216.648 155.98 215.038 158.848L217.654 160.316ZM227.665 143.023C229.351 140.239 231.099 137.431 232.926 134.601L230.406 132.974C228.561 135.831 226.798 138.663 225.099 141.469L227.665 143.023ZM238.441 126.366C240.295 123.702 242.23 121.02 244.262 118.324L241.866 116.519C239.81 119.247 237.852 121.959 235.978 124.654L238.441 126.366ZM250.426 110.479C252.48 107.972 254.626 105.455 256.875 102.929L254.635 100.934C252.357 103.491 250.185 106.04 248.106 108.578L250.426 110.479ZM263.589 95.6919C265.852 93.3495 268.212 91.001 270.676 88.6477L268.604 86.4781C266.111 88.8593 263.723 91.2362 261.432 93.6073L263.589 95.6919ZM277.975 81.942C280.393 79.8048 282.902 77.6646 285.51 75.5226L283.606 73.2043C280.97 75.3693 278.433 77.5331 275.988 79.6946L277.975 81.942ZM293.391 69.2792C295.933 67.3357 298.56 65.3915 301.279 63.4474L299.534 61.0073C296.79 62.9697 294.136 64.9329 291.568 66.896L293.391 69.2792ZM309.61 57.6834C312.257 55.9105 314.984 54.1384 317.793 52.3676L316.193 49.8297C313.361 51.615 310.611 53.4022 307.941 55.1907L309.61 57.6834ZM326.437 47.081C329.185 45.4491 332.008 43.8189 334.906 42.1909L333.437 39.5753C330.518 41.2149 327.675 42.857 324.905 44.5013L326.437 47.081ZM343.734 37.3659C346.595 35.8437 349.526 34.3239 352.529 32.8068L351.176 30.1292C348.155 31.6556 345.205 33.1851 342.325 34.7173L343.734 37.3659ZM361.433 28.418C364.43 26.9762 367.496 25.5373 370.63 24.1016L369.38 21.3741C366.229 22.8175 363.147 24.2644 360.132 25.7144L361.433 28.418ZM379.523 20.1181C382.548 18.7933 385.634 17.4714 388.782 16.1528L387.623 13.3857C384.46 14.7104 381.36 16.0387 378.32 17.3702L379.523 20.1181ZM398.042 12.357C401.035 11.1562 404.081 9.9584 407.182 8.76378L406.104 5.96432C402.99 7.16384 399.931 8.36672 396.925 9.57277L398.042 12.357ZM416.651 5.18971C418.257 4.59568 419.877 4.00251 421.511 3.41022L420.489 0.589778C418.849 1.18428 417.223 1.7797 415.61 2.37602L416.651 5.18971Z" fill="#5C6062"></path></svg>