<svg xmlns="http://www.w3.org/2000/svg" width="313" height="292" viewBox="0 0 313 292" fill="none"><path d="M8 292L17.4423 277.48L0.146095 276.562L8 292ZM12.0368 277.755C13.2649 274.74 14.9224 272.067 16.9741 269.683L14.7 267.726C12.4416 270.351 10.6117 273.301 9.25842 276.624L12.0368 277.755ZM24.1768 263.406C26.7356 261.698 29.6041 260.183 32.76 258.827L31.5758 256.07C28.2828 257.485 25.2479 259.084 22.5111 260.911L24.1768 263.406ZM42.0424 255.506C45.0773 254.599 48.2869 253.784 51.6554 253.039L51.0081 250.11C47.5822 250.867 44.3006 251.7 41.1834 252.631L42.0424 255.506ZM61.4365 251.132C64.6277 250.58 67.9251 250.068 71.3177 249.58L70.8913 246.611C67.4771 247.101 64.1507 247.618 60.9253 248.176L61.4365 251.132ZM81.2665 248.243C84.5324 247.828 87.8667 247.423 91.2619 247.016L90.9047 244.037C87.507 244.445 84.1647 244.851 80.8885 245.267L81.2665 248.243ZM101.189 245.829C104.466 245.435 107.788 245.03 111.147 244.604L110.77 241.628C107.42 242.052 104.104 242.457 100.83 242.851L101.189 245.829ZM121.13 243.282C124.432 242.824 127.76 242.338 131.109 241.816L130.647 238.852C127.317 239.371 124.005 239.855 120.718 240.311L121.13 243.282ZM141.016 240.169C144.304 239.585 147.606 238.959 150.915 238.283L150.314 235.343C147.033 236.014 143.757 236.635 140.491 237.215L141.016 240.169ZM160.776 236.117C164.033 235.348 167.291 234.524 170.543 233.638L169.754 230.743C166.537 231.62 163.313 232.436 160.087 233.197L160.776 236.117ZM180.226 230.798C183.43 229.788 186.623 228.71 189.8 227.556L188.775 224.736C185.642 225.875 182.49 226.939 179.325 227.936L180.226 230.798ZM199.209 223.882C202.305 222.586 205.38 221.209 208.426 219.743L207.125 217.04C204.128 218.482 201.101 219.838 198.051 221.115L199.209 223.882ZM217.426 215.102C220.363 213.481 223.267 211.768 226.133 209.956L224.53 207.42C221.716 209.199 218.863 210.882 215.976 212.476L217.426 215.102ZM234.506 204.296C237.229 202.328 239.911 200.26 242.546 198.085L240.636 195.771C238.052 197.904 235.421 199.933 232.748 201.864L234.506 204.296ZM250.118 191.412C252.546 189.128 254.927 186.741 257.255 184.247L255.062 182.2C252.778 184.646 250.444 186.987 248.063 189.227L250.118 191.412ZM263.959 176.584C266.05 174.033 268.091 171.382 270.078 168.627L267.645 166.872C265.694 169.577 263.691 172.179 261.639 174.682L263.959 176.584ZM275.796 160.172C277.553 157.398 279.26 154.53 280.914 151.563L278.294 150.102C276.667 153.021 274.989 155.841 273.262 158.566L275.796 160.172ZM285.624 142.547C287.067 139.597 288.461 136.559 289.803 133.429L287.047 132.246C285.723 135.331 284.349 138.325 282.929 141.229L285.624 142.547ZM293.591 123.991C294.739 120.927 295.842 117.783 296.897 114.556L294.045 113.624C293.003 116.811 291.915 119.915 290.782 122.938L293.591 123.991ZM299.877 104.763C300.76 101.642 301.6 98.4491 302.398 95.1824L299.483 94.471C298.694 97.7033 297.863 100.861 296.991 103.947L299.877 104.763ZM304.659 85.1592C305.318 81.9858 305.938 78.7471 306.519 75.4418L303.564 74.9226C302.989 78.1982 302.374 81.4066 301.721 84.5492L304.659 85.1592ZM308.121 65.4664C308.602 62.166 309.046 58.803 309.451 55.3759L306.471 55.0238C306.069 58.4245 305.629 61.7606 305.152 65.0335L308.121 65.4664ZM310.489 45.5485C310.8 42.2155 311.076 38.825 311.317 35.3758L308.324 35.167C308.085 38.5932 307.811 41.9603 307.502 45.2694L310.489 45.5485ZM311.907 25.3485C312.064 22.0948 312.19 18.7914 312.285 15.4375L309.286 15.3525C309.192 18.687 309.066 21.9706 308.911 25.2041L311.907 25.3485ZM312.476 5.22291C312.492 3.49483 312.5 1.75389 312.5 -1.34636e-07L309.5 1.34636e-07C309.5 1.74472 309.492 3.4764 309.476 5.19513L312.476 5.22291Z" fill="#5C6062"></path></svg>