<svg xmlns="http://www.w3.org/2000/svg" width="256" height="279" viewBox="0 0 256 279" fill="none"><path d="M256 271.001L241.9 260.942L240.239 278.183L256 271.001ZM0.774177 3.4829C2.5268 3.7498 4.24516 4.0312 5.92997 4.32681L6.44842 1.37195C4.74082 1.07234 3.00017 0.787302 1.22582 0.517096L0.774177 3.4829ZM15.6412 6.26877C19.051 7.04006 22.3054 7.87706 25.4115 8.77671L26.2461 5.89514C23.0798 4.97806 19.7677 4.12638 16.3031 3.34269L15.6412 6.26877ZM34.7609 11.8314C38 13.0205 41.051 14.289 43.9254 15.6321L45.1953 12.9141C42.2396 11.5331 39.1096 10.2321 35.7948 9.01516L34.7609 11.8314ZM52.7349 20.2982C55.6711 22.059 58.3821 23.9157 60.8865 25.861L62.7268 23.4917C60.1241 21.4701 57.3135 19.5458 54.2778 17.7254L52.7349 20.2982ZM68.2304 32.392C70.5754 34.7845 72.6867 37.282 74.5897 39.8753L77.0084 38.1004C75.0223 35.3939 72.8188 32.7876 70.3728 30.2921L68.2304 32.392ZM79.8388 48.1915C81.3998 51.0852 82.7651 54.0755 83.9617 57.1527L86.7577 56.0654C85.5196 52.8816 84.1033 49.7779 82.4791 46.7671L79.8388 48.1915ZM87.0522 66.5613C87.9191 69.7223 88.6507 72.9561 89.2724 76.2536L92.2205 75.6977C91.5856 72.3305 90.8363 69.0167 89.9454 65.7679L87.0522 66.5613ZM90.8067 86.1149C91.2201 89.3891 91.5549 92.7112 91.834 96.0732L94.8237 95.825C94.5418 92.4288 94.2028 89.0634 93.7831 85.7392L90.8067 86.1149ZM92.517 106.087C92.7027 109.41 92.8572 112.76 93.0015 116.132L95.9988 116.003C95.8542 112.626 95.6991 109.261 95.5123 105.919L92.517 106.087ZM93.4206 126.192C93.5632 129.542 93.7163 132.904 93.9 136.268L96.8956 136.104C96.7128 132.757 96.5603 129.409 96.4179 126.064L93.4206 126.192ZM94.5633 146.355C94.8293 149.723 95.1466 153.087 95.5359 156.437L98.5159 156.091C98.1316 152.783 97.8176 149.457 97.554 146.119L94.5633 146.355ZM96.9477 166.484C97.5075 169.83 98.162 173.155 98.9326 176.45L101.854 175.767C101.099 172.541 100.457 169.279 99.9065 165.989L96.9477 166.484ZM101.623 186.267C102.65 189.499 103.815 192.692 105.14 195.838L107.905 194.673C106.618 191.617 105.484 188.51 104.483 185.358L101.623 186.267ZM109.573 205.044C111.193 208.007 112.983 210.914 114.965 213.759L117.427 212.044C115.509 209.291 113.775 206.476 112.205 203.605L109.573 205.044ZM121.24 221.795C123.418 224.293 125.772 226.73 128.318 229.099L130.362 226.903C127.892 224.604 125.61 222.242 123.501 219.824L121.24 221.795ZM136.098 235.659C138.731 237.673 141.53 239.628 144.506 241.519L146.115 238.987C143.21 237.141 140.483 235.236 137.92 233.276L136.098 235.659ZM153.297 246.635C156.165 248.165 159.174 249.643 162.328 251.068L163.563 248.334C160.466 246.935 157.517 245.485 154.709 243.988L153.297 246.635ZM171.847 255.028C174.86 256.183 177.99 257.294 181.243 258.36L182.177 255.509C178.97 254.457 175.885 253.363 172.92 252.227L171.847 255.028ZM191.031 261.327C194.159 262.202 197.388 263.04 200.723 263.84L201.422 260.922C198.123 260.131 194.93 259.303 191.84 258.438L191.031 261.327ZM210.724 266.056C213.892 266.703 217.148 267.318 220.492 267.901L221.007 264.945C217.69 264.368 214.463 263.758 211.324 263.116L210.724 266.056ZM230.77 269.545C233.928 270.007 237.159 270.443 240.466 270.85L240.833 267.873C237.548 267.468 234.339 267.036 231.204 266.577L230.77 269.545Z" fill="url(#paint0_linear_6284_95260)"></path><defs><linearGradient id="paint0_linear_6284_95260" x1="128.5" y1="2" x2="128.5" y2="271.001" gradientUnits="userSpaceOnUse"><stop stop-color="#040404"></stop><stop offset="0.390334" stop-color="white"></stop></linearGradient></defs></svg>