<svg xmlns="http://www.w3.org/2000/svg" width="411" height="144"><path d="M0 0 C135.63 0 271.26 0 411 0 C411 47.52 411 95.04 411 144 C275.37 144 139.74 144 0 144 C0 96.48 0 48.96 0 0 Z " fill="#1E9243" transform="translate(0,0)"></path><path d="M0 0 C11.38494451 4.13035196 19.92791477 9.82824405 25.171875 21.03125 C27.027007 30.12139678 25.22021891 36.93490274 20.796875 45.09375 C17.60762565 49.72870965 14.50370967 53.95586022 9.796875 57.09375 C0.8077641 58.53575321 -8.9946173 55.59258239 -16.4140625 50.5546875 C-20.8147348 46.9611254 -24.7955928 42.97126399 -25.41186523 37.10766602 C-25.91546281 25.70961516 -25.86897942 16.84942399 -19.203125 7.09375 C-18.72746094 6.35382812 -18.25179687 5.61390625 -17.76171875 4.8515625 C-13.08690611 -2.09786048 -7.7229203 -2.18502135 0 0 Z " fill="#F8FBF7" transform="translate(97.203125,31.90625)"></path><path d="M0 0 C2.72477048 1.36238524 2.75074096 2.66000063 3.75 5.5 C5.82593765 10.90512655 8.65539926 15.30437827 12 20 C16.84833233 26.91634138 20.41735628 32.23551821 20 41 C13.25051359 41.49996196 7.89692238 40.44226851 2 37 C-2.67497859 32.87603177 -6.45138159 28.3541144 -7.24609375 22.046875 C-7.71599012 13.90200458 -4.46269167 6.69403751 0 0 Z " fill="#249548" transform="translate(83,42)"></path><path d="M0 0 C3.76054326 1.27716564 5.49323954 2.32431939 7.875 5.5 C9.87209949 11.71319843 10.17611036 17.56066 7.3125 23.5 C3.84839887 27.24497419 1.63156812 28.82518913 -3.5 29.375 C-7.31177679 28.96659534 -9.06791771 28.44340191 -12 26 C-15.96867217 20.66282018 -15.80343634 14.37509268 -15 8 C-12.26870288 1.01109268 -7.10820041 -0.84813755 0 0 Z " fill="#EEF6EE" transform="translate(248,57)"></path><path d="M0 0 C1.54300781 -0.02513672 1.54300781 -0.02513672 3.1171875 -0.05078125 C6.52012812 0.36022327 8.39267361 1.27433221 11.125 3.3125 C11.9375 5.5 11.9375 5.5 12.125 7.3125 C7.375 8.4375 7.375 8.4375 5.125 7.3125 C3.62850638 7.19244547 2.12625207 7.13718549 0.625 7.125 C-0.1690625 7.11082031 -0.963125 7.09664062 -1.78125 7.08203125 C-4.09533317 7.11583697 -4.09533317 7.11583697 -5.875 9.3125 C-5.55458603 11.91530568 -5.55458603 11.91530568 -4.875 14.3125 C-0.93137841 15.70625705 -0.93137841 15.70625705 3.12890625 16.6796875 C7.14795037 17.42706193 8.9490192 18.1585168 12.125 20.9375 C14.52425964 24.98625065 15.25807096 27.72539016 14.125 32.3125 C11.88166366 35.87544595 10.14204176 37.80397912 6.375 39.6875 C-0.014564 40.91626231 -4.74718358 41.36768884 -10.4375 37.8125 C-11.59724737 36.9986422 -12.74858045 36.17189366 -13.875 35.3125 C-13.545 33.9925 -13.215 32.6725 -12.875 31.3125 C-9.15900809 31.11163557 -8.10291555 31.1605563 -4.875 33.3125 C-2.92120501 33.59035432 -2.92120501 33.59035432 -0.875 33.5 C0.1459375 33.49033203 0.1459375 33.49033203 1.1875 33.48046875 C3.34258209 33.36947746 3.34258209 33.36947746 6.125 32.3125 C6.125 30.0025 6.125 27.6925 6.125 25.3125 C5.114375 25.02375 4.10375 24.735 3.0625 24.4375 C2.42570312 24.251875 1.78890625 24.06625 1.1328125 23.875 C-0.75257065 23.34679927 -2.65742397 22.88955194 -4.5625 22.4375 C-8.69978673 21.03238375 -10.9222206 19.21805879 -12.875 15.3125 C-13.45529015 8.23296023 -13.45529015 8.23296023 -11.0625 4.4375 C-7.32117796 0.80307288 -5.12133909 0.01915713 0 0 Z " fill="#F0F7F0" transform="translate(144.875,45.6875)"></path><path d="M0 0 C3.13180809 1.62390049 5.24339744 3.00266026 7.375 5.8125 C8.26555981 8.92945935 8.18220392 11.781064 8 15 C7 16 7 16 3.18359375 16.09765625 C1.60153318 16.09098089 0.01948841 16.07901875 -1.5625 16.0625 C-2.36880859 16.05798828 -3.17511719 16.05347656 -4.00585938 16.04882812 C-6.00393756 16.03700518 -8.00197783 16.01906914 -10 16 C-9.01 17.98 -8.02 19.96 -7 22 C-2.48382401 22.07654536 1.59085217 22.10228696 6 21 C6.33 22.32 6.66 23.64 7 25 C2.38072498 28.66356295 -1.0789827 29.50178113 -7 29 C-11.87506134 26.56246933 -14.27327454 24.18017638 -16 19 C-16.53092184 14.40605133 -16.59147665 10.4319961 -14.8125 6.125 C-10.46570916 1.02876247 -6.87368845 -1.34514451 0 0 Z " fill="#F4F9F4" transform="translate(179,57)"></path><path d="M0 0 C0.969375 0.165 1.93875 0.33 2.9375 0.5 C5.9052331 1.29133785 5.9052331 1.29133785 8 0 C12.99691647 -0.37712577 15.99067725 -0.09290612 20 3 C22.16926659 6.25389988 22.24080049 7.13395957 22.1953125 10.88671875 C22.18886719 11.82451172 22.18242187 12.76230469 22.17578125 13.72851562 C22.15902344 14.70498047 22.14226562 15.68144531 22.125 16.6875 C22.11597656 17.67556641 22.10695312 18.66363281 22.09765625 19.68164062 C22.0740843 22.12133765 22.04118022 24.56054697 22 27 C20.02 27.99 20.02 27.99 18 29 C15.60361368 26.60361368 15.7264804 25.9607459 15.62109375 22.68359375 C15.56985352 21.41418945 15.56985352 21.41418945 15.51757812 20.11914062 C15.49115234 19.23419922 15.46472656 18.34925781 15.4375 17.4375 C15.37780601 15.68605308 15.31421588 13.93473311 15.24609375 12.18359375 C15.22216553 11.40556396 15.1982373 10.62753418 15.17358398 9.82592773 C15.19385111 7.98151351 15.19385111 7.98151351 14 7 C10.5 6.83333333 10.5 6.83333333 7 7 C5.45049732 8.54950268 5.78344807 10.09990594 5.68359375 12.25390625 C5.64169922 13.10791016 5.59980469 13.96191406 5.55664062 14.84179688 C5.49766602 16.18854492 5.49766602 16.18854492 5.4375 17.5625 C5.39431641 18.46419922 5.35113281 19.36589844 5.30664062 20.29492188 C5.20021858 22.52978485 5.09820012 24.76476308 5 27 C3.02 27.99 3.02 27.99 1 29 C-1 27 -1 27 -1.24291992 24.40209961 C-1.23881104 23.32968018 -1.23470215 22.25726074 -1.23046875 21.15234375 C-1.22853516 19.99025391 -1.22660156 18.82816406 -1.22460938 17.63085938 C-1.21236328 16.41205078 -1.20011719 15.19324219 -1.1875 13.9375 C-1.18685547 12.71482422 -1.18621094 11.49214844 -1.18554688 10.23242188 C-1.14011056 1.14011056 -1.14011056 1.14011056 0 0 Z " fill="#F6FAF5" transform="translate(193,57)"></path><path d="M0 0 C1.32 0 2.64 0 4 0 C4.83919398 2.26882087 5.67151724 4.53977027 6.5 6.8125 C6.85771484 7.77639648 6.85771484 7.77639648 7.22265625 8.75976562 C8.27068746 11.64933739 9 13.90076061 9 17 C9.66 17 10.32 17 11 17 C11.10957031 16.43152344 11.21914063 15.86304687 11.33203125 15.27734375 C12.37567422 10.19488735 13.51922873 5.57988542 16 1 C18.1875 0.0625 18.1875 0.0625 20 0 C20.72011691 7.43497329 18.45410193 13.47276673 15.89233398 20.40161133 C15.18466381 22.32018925 14.50029079 24.24597108 13.81835938 26.17382812 C9.92744987 36.90365011 9.92744987 36.90365011 7 39 C3.3125 39.1875 3.3125 39.1875 0 39 C0 37.35 0 35.7 0 34 C1.65 33.34 3.3 32.68 5 32 C6.64837431 25.42441986 4.95523125 21.05415077 2.5 14.875 C1.81149107 13.12685279 1.13397212 11.374328 0.46875 9.6171875 C0.16388672 8.85003418 -0.14097656 8.08288086 -0.45507812 7.29248047 C-1.10548084 4.55624323 -0.72039266 2.69196234 0 0 Z " fill="#F4F9F3" transform="translate(316,57)"></path><path d="M0 0 C1.67542976 0.28604898 3.34385343 0.61781233 5 1 C5 3.31 5 5.62 5 8 C6.65 8 8.3 8 10 8 C10.5625 9.9375 10.5625 9.9375 11 12 C10.67 12.33 10.34 12.66 10 13 C8.35 13 6.7 13 5 13 C5.33 18.61 5.66 24.22 6 30 C8.475 30.99 8.475 30.99 11 32 C10.67 33.32 10.34 34.64 10 36 C3.375 36.25 3.375 36.25 0 34 C-0.92188461 31.23434618 -1.11785222 29.61716298 -1.09765625 26.76953125 C-1.09443359 25.96708984 -1.09121094 25.16464844 -1.08789062 24.33789062 C-1.07951172 23.50451172 -1.07113281 22.67113281 -1.0625 21.8125 C-1.05798828 20.96751953 -1.05347656 20.12253906 -1.04882812 19.25195312 C-1.03705403 17.16793845 -1.0191189 15.08396023 -1 13 C-2.32 12.67 -3.64 12.34 -5 12 C-4.67 10.68 -4.34 9.36 -4 8 C-3.01 8 -2.02 8 -1 8 C-1.020625 6.865625 -1.04125 5.73125 -1.0625 4.5625 C-1 1 -1 1 0 0 Z " fill="#F6FAF5" transform="translate(301,49)"></path><path d="M0 0 C2.00720923 0.28674418 4.0085944 0.61866701 6 1 C6.33 0.67 6.66 0.34 7 0 C14.45864662 -0.36090226 14.45864662 -0.36090226 18 2 C17.67 3.65 17.34 5.3 17 7 C16.30132812 6.97679687 15.60265625 6.95359375 14.8828125 6.9296875 C13.51769531 6.90261719 13.51769531 6.90261719 12.125 6.875 C11.22007812 6.85179687 10.31515625 6.82859375 9.3828125 6.8046875 C6.81193006 6.75675164 6.81193006 6.75675164 5 9 C4.63105418 11.03060659 4.63105418 11.03060659 4.5859375 13.3515625 C4.52792969 14.62773438 4.52792969 14.62773438 4.46875 15.9296875 C4.4378125 16.81914063 4.406875 17.70859375 4.375 18.625 C4.31699219 19.97078125 4.31699219 19.97078125 4.2578125 21.34375 C4.16340643 23.5622927 4.07783252 25.78082403 4 28 C2.125 28.625 2.125 28.625 0 29 C-2.64699616 26.35300384 -2.25749767 25.09605591 -2.265625 21.40625 C-2.26820313 20.29378906 -2.27078125 19.18132812 -2.2734375 18.03515625 C-2.26183594 16.28525391 -2.26183594 16.28525391 -2.25 14.5 C-2.25773437 13.33339844 -2.26546875 12.16679688 -2.2734375 10.96484375 C-2.27085937 9.85238281 -2.26828125 8.73992187 -2.265625 7.59375 C-2.26336914 6.56958984 -2.26111328 5.54542969 -2.25878906 4.49023438 C-2 2 -2 2 0 0 Z " fill="#EEF7EF" transform="translate(264,57)"></path><path d="M0 0 C2.78779879 2.78779879 2.29961733 4.61802327 2.3125 8.5 C2.32925781 9.6653125 2.34601563 10.830625 2.36328125 12.03125 C2.24339844 13.0109375 2.12351563 13.990625 2 15 C-1.22143276 17.14762184 -2.2595467 17.561068 -6 17 C-8.80845416 14.06388884 -9.41135523 11.95475306 -9.375 7.9375 C-9.38273438 7.08027344 -9.39046875 6.22304687 -9.3984375 5.33984375 C-8.4661009 -0.13534862 -4.99246942 -0.53111377 0 0 Z " fill="#259549" transform="translate(248,63)"></path><path d="M0 0 C3.69230769 0.69230769 3.69230769 0.69230769 5 2 C5.25301239 6.13962283 5.18522549 10.29105996 5.1875 14.4375 C5.19974609 15.60861328 5.21199219 16.77972656 5.22460938 17.98632812 C5.22654297 19.10330078 5.22847656 20.22027344 5.23046875 21.37109375 C5.23457764 22.40161865 5.23868652 23.43214355 5.24291992 24.49389648 C5 27 5 27 3 29 C0.875 28.625 0.875 28.625 -1 28 C-1.02886338 23.52084672 -1.04675187 19.04171709 -1.0625 14.5625 C-1.07087891 13.28310547 -1.07925781 12.00371094 -1.08789062 10.68554688 C-1.09111328 9.47060547 -1.09433594 8.25566406 -1.09765625 7.00390625 C-1.10289307 5.87799072 -1.10812988 4.7520752 -1.11352539 3.59204102 C-1 1 -1 1 0 0 Z " fill="#EBF5EC" transform="translate(287,57)"></path><path d="M0 0 C1.32 0.33 2.64 0.66 4 1 C4 9.91 4 18.82 4 28 C2.68 28.33 1.36 28.66 0 29 C-2.64699616 26.35300384 -2.25749767 25.09605591 -2.265625 21.40625 C-2.26820313 20.29378906 -2.27078125 19.18132812 -2.2734375 18.03515625 C-2.26183594 16.28525391 -2.26183594 16.28525391 -2.25 14.5 C-2.25773438 13.33339844 -2.26546875 12.16679688 -2.2734375 10.96484375 C-2.27085937 9.85238281 -2.26828125 8.73992187 -2.265625 7.59375 C-2.26336914 6.56958984 -2.26111328 5.54542969 -2.25878906 4.49023438 C-2 2 -2 2 0 0 Z " fill="#F0F7F0" transform="translate(223,57)"></path><path d="M0 0 C1.134375 0.020625 2.26875 0.04125 3.4375 0.0625 C3.49136629 2.18722576 3.53023071 4.31233652 3.5625 6.4375 C3.58570313 7.62085937 3.60890625 8.80421875 3.6328125 10.0234375 C3.4375 13.0625 3.4375 13.0625 1.4375 15.0625 C-1.125 14.8125 -1.125 14.8125 -3.5625 14.0625 C-3.8925 13.4025 -4.2225 12.7425 -4.5625 12.0625 C-2.5825 12.0625 -0.6025 12.0625 1.4375 12.0625 C1.4375 11.4025 1.4375 10.7425 1.4375 10.0625 C0.633125 10.083125 -0.17125 10.10375 -1 10.125 C-3.5625 10.0625 -3.5625 10.0625 -4.5625 9.0625 C-4.6953125 7.25 -4.6953125 7.25 -4.6875 5.0625 C-4.69007813 4.340625 -4.69265625 3.61875 -4.6953125 2.875 C-4.44680298 -0.5164241 -3.51086809 0.06159418 0 0 Z " fill="#EBF5EC" transform="translate(221.5625,98.9375)"></path><path d="M0 0 C2.5625 0.1875 2.5625 0.1875 4.5625 2.1875 C4.5625 3.5075 4.5625 4.8275 4.5625 6.1875 C2.5825 6.1875 0.6025 6.1875 -1.4375 6.1875 C-1.4375 6.8475 -1.4375 7.5075 -1.4375 8.1875 C0.5425 8.1875 2.5225 8.1875 4.5625 8.1875 C3.5725 9.6725 3.5725 9.6725 2.5625 11.1875 C0.0625 11.5625 0.0625 11.5625 -2.4375 11.1875 C-4.4375 8.1875 -4.4375 8.1875 -4.125 4.5625 C-3.2464725 0.24972865 -3.2464725 0.24972865 0 0 Z " fill="#C7E3CE" transform="translate(200.4375,98.8125)"></path><path d="M0 0 C2.5625 0.1875 2.5625 0.1875 4.5625 2.1875 C4.5625 3.5075 4.5625 4.8275 4.5625 6.1875 C2.5825 6.1875 0.6025 6.1875 -1.4375 6.1875 C-1.4375 6.8475 -1.4375 7.5075 -1.4375 8.1875 C0.5425 8.1875 2.5225 8.1875 4.5625 8.1875 C4.5625 8.8475 4.5625 9.5075 4.5625 10.1875 C-0.8239279 11.50418238 -0.8239279 11.50418238 -3.375 10.1875 C-5.04180224 7.04998991 -4.18520812 4.55218653 -3.4375 1.1875 C-2.4375 0.1875 -2.4375 0.1875 0 0 Z " fill="#DCEEE0" transform="translate(179.4375,98.8125)"></path><path d="M0 0 C2.5625 0.1875 2.5625 0.1875 4.5625 2.1875 C4.5625 3.5075 4.5625 4.8275 4.5625 6.1875 C2.5825 6.1875 0.6025 6.1875 -1.4375 6.1875 C-1.4375 6.8475 -1.4375 7.5075 -1.4375 8.1875 C0.5425 8.1875 2.5225 8.1875 4.5625 8.1875 C4.5625 8.8475 4.5625 9.5075 4.5625 10.1875 C-0.8239279 11.50418238 -0.8239279 11.50418238 -3.375 10.1875 C-5.04180224 7.04998991 -4.18520812 4.55218653 -3.4375 1.1875 C-2.4375 0.1875 -2.4375 0.1875 0 0 Z " fill="#D1E9D7" transform="translate(241.4375,98.8125)"></path><path d="M0 0 C0.33 1.65 0.66 3.3 1 5 C-0.98 5 -2.96 5 -5 5 C-5 5.66 -5 6.32 -5 7 C-3.02 7 -1.04 7 1 7 C1 7.66 1 8.32 1 9 C-4.3864279 10.31668238 -4.3864279 10.31668238 -6.9375 9 C-8.61956323 5.83376334 -7.81395841 3.38105802 -7 0 C-4.3333581 -1.33332095 -2.83319697 -0.67102033 0 0 Z " fill="#D2E9D8" transform="translate(256,100)"></path><path d="M0 0 C1.8125 1.8125 1.8125 1.8125 3 4 C3 4.99 3 5.98 3 7 C-0.96 7 -4.92 7 -9 7 C-8.67 5.35 -8.34 3.7 -8 2 C-4.77856724 -0.14762184 -3.7404533 -0.561068 0 0 Z " fill="#349C55" transform="translate(178,62)"></path><path d="M0 0 C3.125 0.375 3.125 0.375 6 1 C6.33 2.65 6.66 4.3 7 6 C4.69 6 2.38 6 0 6 C0.33 6.66 0.66 7.32 1 8 C2.65 8 4.3 8 6 8 C5.67 8.99 5.34 9.98 5 11 C2.625 11.125 2.625 11.125 0 11 C-2 9 -2 9 -2.25 5.5 C-2 2 -2 2 0 0 Z " fill="#EAF5EB" transform="translate(161,99)"></path><path d="M0 0 C0.33 0 0.66 0 1 0 C1 4.62 1 9.24 1 14 C-3.62 14 -8.24 14 -13 14 C-11.68 13.34 -10.36 12.68 -9 12 C-4.94008411 9.92053089 -3.00854426 8.11751573 -1 4 C-0.30420546 1.80869466 -0.30420546 1.80869466 0 0 Z " fill="#000000" transform="translate(410,130)"></path><path d="M0 0 C0.66 1.32 1.32 2.64 2 4 C4.89388444 9.64996486 8.44379646 11.22189823 14 14 C9.38 14 4.76 14 0 14 C0 9.38 0 4.76 0 0 Z " fill="#000000" transform="translate(0,130)"></path><path d="M0 0 C4.62 0 9.24 0 14 0 C14 4.62 14 9.24 14 14 C13.34 12.68 12.68 11.36 12 10 C9.10611556 4.35003514 5.55620354 2.77810177 0 0 Z " fill="#000000" transform="translate(397,0)"></path><path d="M0 0 C4.62 0 9.24 0 14 0 C12.02 0.99 12.02 0.99 10 2 C4.35003514 4.89388444 2.77810177 8.44379646 0 14 C0 9.38 0 4.76 0 0 Z " fill="#000000" transform="translate(0,0)"></path><path d="M0 0 C0.99 0.33 1.98 0.66 3 1 C3 4.63 3 8.26 3 12 C4.98 12 6.96 12 9 12 C9 12.99 9 13.98 9 15 C6.03 15 3.06 15 0 15 C0 10.05 0 5.1 0 0 Z " fill="#D3E9D8" transform="translate(132,95)"></path><path d="M0 0 C2.33294775 -0.04241723 4.66702567 -0.04092937 7 0 C8 1 8 1 8.09765625 3.28515625 C8.08605469 4.20167969 8.07445312 5.11820312 8.0625 6.0625 C8.05347656 6.98160156 8.04445313 7.90070313 8.03515625 8.84765625 C8.02355469 9.55792969 8.01195312 10.26820312 8 11 C7.34 11 6.68 11 6 11 C5.67 8.36 5.34 5.72 5 3 C4.34 3 3.68 3 3 3 C2.67 5.64 2.34 8.28 2 11 C1.34 11 0.68 11 0 11 C0 7.37 0 3.74 0 0 Z " fill="#EFF7EF" transform="translate(260,99)"></path><path d="M0 0 C0.99 0.33 1.98 0.66 3 1 C3.6875 3.0625 3.6875 3.0625 4 5 C4.66 3.35 5.32 1.7 6 0 C6.66 0 7.32 0 8 0 C7.53199289 4.05606165 7.12046792 7.46588679 5 11 C4.34 11 3.68 11 3 11 C2.49384702 9.73160474 1.99530901 8.46016898 1.5 7.1875 C1.2215625 6.47980469 0.943125 5.77210937 0.65625 5.04296875 C0 3 0 3 0 0 Z " fill="#E1F1E4" transform="translate(186,99)"></path><path d="M0 0 C0.66 0 1.32 0 2 0 C2.66 1.32 3.32 2.64 4 4 C4.66 2.68 5.32 1.36 6 0 C6.66 0 7.32 0 8 0 C7.44894091 3.9492568 6.61064629 7.34920174 5 11 C4.01 10.67 3.02 10.34 2 10 C0.47839986 6.3962102 0 3.94779314 0 0 Z " fill="#E0F0E3" transform="translate(149,99)"></path><path d="M0 0 C1.4540625 0.0309375 1.4540625 0.0309375 2.9375 0.0625 C3.2675 1.0525 3.5975 2.0425 3.9375 3.0625 C2.2875 3.0625 0.6375 3.0625 -1.0625 3.0625 C-1.0625 5.7025 -1.0625 8.3425 -1.0625 11.0625 C-2.0525 10.7325 -3.0425 10.4025 -4.0625 10.0625 C-4.08939216 8.58343108 -4.10884621 7.10422517 -4.125 5.625 C-4.13660156 4.80128906 -4.14820313 3.97757812 -4.16015625 3.12890625 C-4.00103255 -0.23815127 -3.43619093 0.07012635 0 0 Z " fill="#D6EBDA" transform="translate(232.0625,98.9375)"></path><path d="M0 0 C1.2065625 0.0309375 1.2065625 0.0309375 2.4375 0.0625 C3.0625 2.4375 3.0625 2.4375 3.4375 5.0625 C2.7775 5.7225 2.1175 6.3825 1.4375 7.0625 C-1.1875 6.6875 -1.1875 6.6875 -3.5625 6.0625 C-3.605221 4.39638095 -3.60313832 2.72867115 -3.5625 1.0625 C-2.5625 0.0625 -2.5625 0.0625 0 0 Z " fill="#EBF5EC" transform="translate(224.5625,45.9375)"></path><path d="M0 0 C1.2065625 0.0309375 1.2065625 0.0309375 2.4375 0.0625 C3.0625 2.4375 3.0625 2.4375 3.4375 5.0625 C2.7775 5.7225 2.1175 6.3825 1.4375 7.0625 C-0.6875 6.6875 -0.6875 6.6875 -2.5625 6.0625 C-2.94468767 4.40635343 -3.27645102 2.73792976 -3.5625 1.0625 C-2.5625 0.0625 -2.5625 0.0625 0 0 Z " fill="#F1F8F1" transform="translate(288.5625,45.9375)"></path><path d="M0 0 C2.31 0 4.62 0 7 0 C7 0.99 7 1.98 7 3 C5.35 3 3.7 3 2 3 C2 5.64 2 8.28 2 11 C1.34 11 0.68 11 0 11 C0 7.37 0 3.74 0 0 Z " fill="#E6F3E8" transform="translate(208,99)"></path><path d="M0 0 C2.5625 0.1875 2.5625 0.1875 4.5625 2.1875 C4.5625 3.5075 4.5625 4.8275 4.5625 6.1875 C1.6875 5.9375 1.6875 5.9375 -1.4375 5.1875 C-2.8125 3.125 -2.8125 3.125 -3.4375 1.1875 C-2.4375 0.1875 -2.4375 0.1875 0 0 Z " fill="#C4E2CC" transform="translate(179.4375,98.8125)"></path><path d="M0 0 C0.66 0 1.32 0 2 0 C2 3.63 2 7.26 2 11 C1.01 10.67 0.02 10.34 -1 10 C-1.02689216 8.52093108 -1.04634621 7.04172517 -1.0625 5.5625 C-1.07410156 4.73878906 -1.08570313 3.91507812 -1.09765625 3.06640625 C-1 1 -1 1 0 0 Z " fill="#CFE8D5" transform="translate(144,99)"></path><path d="M0 0 C0.33 1.65 0.66 3.3 1 5 C-1.31 4.67 -3.62 4.34 -6 4 C-5.67 3.01 -5.34 2.02 -5 1 C-2 0 -2 0 0 0 Z " fill="#ABD6B7" transform="translate(167,100)"></path><path d="M0 0 C0.99 0.33 1.98 0.66 3 1 C2.67 2.65 2.34 4.3 2 6 C1.01 5.67 0.02 5.34 -1 5 C-0.67 3.35 -0.34 1.7 0 0 Z " fill="#4EA96A" transform="translate(220,101)"></path><path d="M0 0 C1.65 0.33 3.3 0.66 5 1 C5 2.32 5 3.64 5 5 C3.02 5 1.04 5 -1 5 C0.32 4.67 1.64 4.34 3 4 C2.01 2.68 1.02 1.36 0 0 Z " fill="#F3F9F3" transform="translate(200,100)"></path></svg>