<svg xmlns="http://www.w3.org/2000/svg" xmlns:xlink="http://www.w3.org/1999/xlink" width="128" height="54" viewBox="0 0 128 54"><defs><clipPath id="clip-amazon_logo"><rect width="128" height="54"></rect></clipPath></defs><g id="amazon_logo" clip-path="url(#clip-amazon_logo)"><g id="Group_4891" data-name="Group 4891" transform="translate(-6)"><path id="Path_26843" data-name="Path 26843" d="M115.152,45.186H5.351A5.55,5.55,0,0,1,0,39.456V5.731A5.551,5.551,0,0,1,5.351,0h109.8a5.551,5.551,0,0,1,5.35,5.731V39.456a5.55,5.55,0,0,1-5.35,5.731" transform="translate(9.275 3.852)" fill="#010101"></path><path id="Union_29" data-name="Union 29" d="M-20402.631,674.775a2.129,2.129,0,0,1-.8-.9,3,3,0,0,1-.277-1.328,3.007,3.007,0,0,1,.277-1.333,2.129,2.129,0,0,1,.8-.9,2.392,2.392,0,0,1,1.256-.318,2.392,2.392,0,0,1,1.256.318,2.091,2.091,0,0,1,.8.9,2.929,2.929,0,0,1,.283,1.333,2.922,2.922,0,0,1-.283,1.328,2.091,2.091,0,0,1-.8.9,2.392,2.392,0,0,1-1.256.318A2.392,2.392,0,0,1-20402.631,674.775Zm.436-3.784a1.32,1.32,0,0,0-.486.62,2.389,2.389,0,0,0-.164.938,2.448,2.448,0,0,0,.158.928,1.317,1.317,0,0,0,.492.615,1.474,1.474,0,0,0,.82.231,1.43,1.43,0,0,0,.82-.22,1.3,1.3,0,0,0,.492-.62,2.491,2.491,0,0,0,.164-.933,2.454,2.454,0,0,0-.164-.933,1.32,1.32,0,0,0-.492-.62,1.515,1.515,0,0,0-.82-.226A1.43,1.43,0,0,0-20402.2,670.99Zm-23.437,3.866a1.72,1.72,0,0,1-.7-.672,1.993,1.993,0,0,1-.246-1.01v-3.066l.824-.005v3.051a1.257,1.257,0,0,0,.1.492,1.117,1.117,0,0,0,.252.369,1.063,1.063,0,0,0,.369.231,1.182,1.182,0,0,0,.426.077,1.1,1.1,0,0,0,.43-.082,1.012,1.012,0,0,0,.365-.231,1,1,0,0,0,.256-.369,1.325,1.325,0,0,0,.088-.487V670.1h.83v3.071a1.937,1.937,0,0,1-.252,1.01,1.681,1.681,0,0,1-.691.672,2.133,2.133,0,0,1-1.025.236A2.117,2.117,0,0,1-20425.633,674.857Zm40.922.133v-4.117h-1.578V670.1h3.979v.769h-1.58v4.117Zm-2.354,0-.336-1.056h-1.93l-.334,1.056h-.84l1.537-4.887h1.2l1.543,4.887Zm-.58-1.82-.727-2.273-.717,2.273Zm-6.941,1.82-1-3.476-.994,3.476h-.811l-1.426-4.887h.857l.973,3.533.975-3.528.857-.005.973,3.533.975-3.533h.857l-1.426,4.887Zm-10.773,0-2.266-3.446v3.446h-.83V670.1h.83l2.266,3.446V670.1h.832v4.887Zm-7.465,0v-4.117h-1.58V670.1h3.979v.769H-20412v4.117Zm-3.148,0V670.1h.82v4.887Zm-4.389,0v-2l-1.668-2.887h.955l1.127,1.948,1.119-1.948h.953l-1.662,2.887v2Zm-10.641,0V670.1h1.943a1.544,1.544,0,0,1,.811.195,1.28,1.28,0,0,1,.473.508,1.448,1.448,0,0,1,.152.641,1.2,1.2,0,0,1-.189.687.953.953,0,0,1-.3.281,1.065,1.065,0,0,1,.477.365,1.275,1.275,0,0,1,.236.759,1.617,1.617,0,0,1-.164.759,1.223,1.223,0,0,1-.492.513,1.705,1.705,0,0,1-.811.179Zm.83-.769h1.205a.843.843,0,0,0,.385-.087.647.647,0,0,0,.268-.246.669.669,0,0,0,.1-.374.75.75,0,0,0-.088-.354.635.635,0,0,0-.246-.246.78.78,0,0,0-.389-.1h-1.232Zm0-2.169h1.1a.7.7,0,0,0,.313-.067.557.557,0,0,0,.221-.2.58.58,0,0,0,.082-.323.589.589,0,0,0-.164-.426.6.6,0,0,0-.451-.169h-1.1Z" transform="translate(20476.305 -657.197)" fill="#fff" stroke="rgba(0,0,0,0)" stroke-miterlimit="10" stroke-width="1"></path><path id="Path_26853" data-name="Path 26853" d="M81.9,39.229a23.074,23.074,0,0,1-13.043,3.986A23.647,23.647,0,0,1,52.916,37.14c-.32-.3-.042-.7.363-.469a32.037,32.037,0,0,0,15.942,4.22A31.725,31.725,0,0,0,81.39,38.4C81.986,38.163,82.477,38.8,81.9,39.229Z" transform="translate(-5.064 -3.128)" fill="#f90" fill-rule="evenodd"></path><path id="Path_26854" data-name="Path 26854" d="M89.543,37.4c-.448-.575-2.984-.277-4.114-.128-.341.043-.4-.256-.085-.469,2.025-1.428,5.328-1,5.712-.533s-.107,3.794-2,5.371c-.3.234-.575.106-.448-.214.426-1.066,1.386-3.431.938-4.028" transform="translate(-11.236 -2.98)" fill="#f90" fill-rule="evenodd"></path><path id="Path_26855" data-name="Path 26855" d="M77.306,24.181V22.8a.325.325,0,0,1,.341-.342h6.181a.356.356,0,0,1,.363.342v1.172c0,.192-.171.448-.468.874l-3.2,4.561a6.941,6.941,0,0,1,3.516.745.636.636,0,0,1,.32.533v1.47c0,.213-.214.448-.447.32a7.052,7.052,0,0,0-6.523.021.334.334,0,0,1-.447-.32V30.766a1.6,1.6,0,0,1,.234-.938l3.708-5.307H77.668A.355.355,0,0,1,77.306,24.181ZM54.78,32.769H52.9a.383.383,0,0,1-.341-.32V22.816a.354.354,0,0,1,.362-.341h1.749a.346.346,0,0,1,.34.32v1.258h.043a2.573,2.573,0,0,1,4.9,0,2.672,2.672,0,0,1,2.6-1.791,2.641,2.641,0,0,1,2.174,1.066c.6.81.469,1.982.469,3.027v6.095a.355.355,0,0,1-.363.342H62.984a.367.367,0,0,1-.342-.342V27.335a12.7,12.7,0,0,0-.043-1.811.988.988,0,0,0-1.108-.831,1.255,1.255,0,0,0-1.13.788,5.905,5.905,0,0,0-.17,1.854v5.115a.356.356,0,0,1-.363.342H57.955a.367.367,0,0,1-.342-.342V27.335c0-1.066.171-2.664-1.151-2.664-1.343,0-1.3,1.534-1.3,2.664v5.115A.374.374,0,0,1,54.78,32.769ZM89.518,22.262c2.792,0,4.3,2.387,4.3,5.435,0,2.941-1.662,5.286-4.3,5.286-2.727,0-4.22-2.387-4.22-5.371C85.276,24.607,86.791,22.262,89.518,22.262Zm0,1.983c-1.386,0-1.47,1.9-1.47,3.069S88.026,31,89.5,31c1.449,0,1.534-2.025,1.534-3.261a9.317,9.317,0,0,0-.277-2.557A1.178,1.178,0,0,0,89.518,24.245Zm7.908,8.524H95.549a.364.364,0,0,1-.34-.341V22.774a.368.368,0,0,1,.362-.32h1.747a.366.366,0,0,1,.342.278V24.2H97.7a2.546,2.546,0,0,1,2.557-1.94,2.486,2.486,0,0,1,2.2,1.13,6.153,6.153,0,0,1,.489,3v6.075a.349.349,0,0,1-.361.3h-1.876a.388.388,0,0,1-.342-.3V27.228c0-1.065.128-2.6-1.173-2.6a1.233,1.233,0,0,0-1.087.767,4.435,4.435,0,0,0-.3,1.832v5.2A.39.39,0,0,1,97.425,32.769Zm-25.043-4.6a3.8,3.8,0,0,1-.342,2,1.508,1.508,0,0,1-1.3.852c-.724,0-1.151-.554-1.151-1.364,0-1.6,1.428-1.9,2.792-1.9Zm1.9,4.582a.387.387,0,0,1-.448.043,4.712,4.712,0,0,1-1.088-1.258,3.732,3.732,0,0,1-3.09,1.364,2.669,2.669,0,0,1-2.813-2.919,3.191,3.191,0,0,1,2-3.07,13.309,13.309,0,0,1,3.538-.66v-.235a2.3,2.3,0,0,0-.235-1.364,1.263,1.263,0,0,0-1.044-.49,1.42,1.42,0,0,0-1.513,1.13c-.042.171-.149.341-.32.341l-1.811-.192a.328.328,0,0,1-.278-.384c.426-2.216,2.408-2.877,4.2-2.877a4.22,4.22,0,0,1,2.834.938c.916.852.831,2,.831,3.24v2.92a2.639,2.639,0,0,0,.7,1.747c.128.171.15.384,0,.49C75.345,31.832,74.664,32.428,74.28,32.748ZM47.767,28.166a3.812,3.812,0,0,1-.342,2,1.508,1.508,0,0,1-1.3.852c-.725,0-1.151-.554-1.151-1.364,0-1.6,1.428-1.9,2.792-1.9Zm1.876,4.582a.387.387,0,0,1-.448.043,4.693,4.693,0,0,1-1.087-1.258,3.734,3.734,0,0,1-3.09,1.364A2.669,2.669,0,0,1,42.2,29.978a3.19,3.19,0,0,1,2-3.07,13.291,13.291,0,0,1,3.537-.66v-.235a2.3,2.3,0,0,0-.234-1.364,1.264,1.264,0,0,0-1.045-.49,1.42,1.42,0,0,0-1.513,1.13c-.042.171-.149.341-.32.341l-1.811-.192a.328.328,0,0,1-.277-.384c.427-2.216,2.408-2.877,4.2-2.877a4.217,4.217,0,0,1,2.834.938c.916.852.831,2,.831,3.24v2.92a2.646,2.646,0,0,0,.7,1.747c.128.171.149.384,0,.49C50.708,31.832,50.026,32.428,49.643,32.748Z" transform="translate(-3.049 -0.378)" fill="#fff" fill-rule="evenodd"></path></g></g></svg>