<svg xmlns="http://www.w3.org/2000/svg" width="18" height="18" viewBox="0 0 18 18" fill="none"><path d="M9.00001 0C4.02481 0 0 4.03307 0 9.00001C0 13.9752 4.03307 18 9.00001 18C13.9752 18 18 13.967 18 9.00001C18 4.03307 13.967 0 9.00001 0ZM13.4628 12.5289C13.1488 12.843 12.8512 13.1653 12.4462 13.3636C11.8925 13.6281 11.3306 13.6777 10.7438 13.5041C9.18182 13.0496 7.89261 12.1653 6.76038 11.0248C5.90087 10.157 5.19831 9.18182 4.7107 8.05785C4.52062 7.61157 4.34713 7.1653 4.36366 6.46282C4.38019 6.0248 4.61984 5.47935 5.06612 5.02481C5.22314 4.86778 5.38013 4.70249 5.53715 4.55373C5.75203 4.34712 5.9421 4.34712 6.14871 4.55373C6.66937 5.07439 7.19004 5.58679 7.70244 6.10745C7.91731 6.32233 7.90904 6.52066 7.69416 6.73553C7.40491 7.02479 7.11572 7.31406 6.83473 7.60332C6.47935 7.96695 6.45459 8.35538 6.76038 8.76034C7.48765 9.73554 8.33888 10.5702 9.33061 11.281C9.71078 11.5537 10.1157 11.5289 10.4463 11.1983C10.7273 10.9173 11 10.6364 11.281 10.3554C11.5124 10.124 11.7024 10.124 11.9338 10.3471C12.4462 10.8595 12.9587 11.3719 13.4628 11.876C13.6942 12.1074 13.6942 12.2975 13.4628 12.5289Z" fill="#C9CBCC"></path></svg>