<svg xmlns="http://www.w3.org/2000/svg" width="19" height="16" viewBox="0 0 19 16" fill="none"><path d="M18.8172 1.48527C18.4809 0.830872 17.9471 0.5 17.2087 0.5C12.0617 0.5 6.91461 0.5 1.77486 0.5C1.63595 0.5 1.50439 0.514689 1.36548 0.529395C1.00723 0.573512 0.692793 0.727922 0.480769 1.01468C-0.0310121 1.69849 -0.155298 2.44848 0.21026 3.23523C0.59044 4.05139 1.20457 4.67638 1.93568 5.19107C3.82196 6.51457 5.70092 7.83805 7.5872 9.1542C7.90889 9.38214 8.25252 9.58802 8.59614 9.77919C9.12986 10.0733 9.68551 10.1321 10.2485 9.85272C10.5921 9.68361 10.9284 9.49244 11.2428 9.27921C13.2095 7.91159 15.1762 6.52925 17.1429 5.14693C17.7571 4.71312 18.2761 4.19109 18.649 3.52934C18.8391 3.19111 18.9269 2.81611 19 2.44112C19 2.29406 19 2.13967 19 1.99261C18.9269 1.8235 18.8976 1.63968 18.8172 1.48527Z" fill="#C9CBCC"></path><path d="M14.4168 8.67893C14.3656 8.7157 14.3143 8.7598 14.2559 8.80392C14.307 8.86274 14.351 8.90687 14.3948 8.95098C15.8717 10.4362 17.3485 11.9215 18.8253 13.4068C18.8765 13.4582 18.9351 13.5097 18.9862 13.5612C18.9862 10.8259 18.9862 8.0907 18.9862 5.35547C18.5183 5.73781 18.0723 6.14959 17.5825 6.50252C16.5297 7.2378 15.4696 7.95101 14.4168 8.67893Z" fill="#C9CBCC"></path><path d="M12.6747 9.91108C12.0533 10.3522 11.4538 10.8081 10.7446 11.1096C9.9769 11.4405 9.21651 11.4919 8.4269 11.1831C7.74697 10.9184 7.14019 10.5214 6.56261 10.0949C6.36521 9.94784 6.16046 9.80813 5.97037 9.67578C4.17182 11.4846 2.39523 13.2713 0.59668 15.0801C0.947615 15.3962 1.35707 15.4992 1.81768 15.4992C6.93549 15.4992 12.046 15.4992 17.1638 15.4992C17.2662 15.4992 17.3758 15.4992 17.4781 15.4845C17.8218 15.4477 18.1288 15.3154 18.3701 15.0948C16.5788 13.2933 14.7949 11.4993 12.9964 9.6905C12.894 9.75668 12.7844 9.83019 12.6747 9.91108Z" fill="#C9CBCC"></path><path d="M4.54615 8.65869C3.04005 7.56312 1.41691 6.62934 0.00585938 5.38672C0.00585938 8.09254 0.00585938 10.7983 0.00585938 13.4674C1.55583 11.9086 3.12044 10.3351 4.69234 8.76164C4.65578 8.73958 4.60464 8.7028 4.54615 8.65869Z" fill="#C9CBCC"></path></svg>