<svg xmlns="http://www.w3.org/2000/svg" xmlns:xlink="http://www.w3.org/1999/xlink" width="92" height="54" viewBox="0 0 92 54"><defs><clipPath id="clip-tata_1mg_logo"><rect width="92" height="54"></rect></clipPath></defs><g id="tata_1mg_logo" clip-path="url(#clip-tata_1mg_logo)"><path id="_1mg" data-name="1mg" d="M62.7,43.327a9.981,9.981,0,0,1-4.72-6.6q3.147-.868,6.221-1.713c2.254,3.682,4.495,4.668,7.855,3.506,2.554-.885,3.956-3.8,3.512-7.671-2.526,2.791-5.685,2.875-8.892,2.3a10.111,10.111,0,0,1-6.235-3.98,12.259,12.259,0,0,1,.669-15.478c4.269-4.5,9.4-4.845,14.932-.916.044-.712.084-1.356.131-2.132h6.71V34.231a41.922,41.922,0,0,1-1.4,4.255,10.683,10.683,0,0,1-9.39,6.594c-.745.066-1.485.105-2.219.105A13.164,13.164,0,0,1,62.7,43.327Zm2.62-21.549a5.028,5.028,0,0,0,5.03,5.358,5.1,5.1,0,0,0,5.333-5.251,5.273,5.273,0,0,0-4.82-5.477c-.062,0-.124,0-.186,0A5.488,5.488,0,0,0,65.319,21.778Zm-57.5,23.17V38.06H57.469v6.888Zm-.329-9.875V10.979H0V5.924C3.695,5.7,6.77,4.516,8.232.728A1.173,1.173,0,0,1,9.011.042C10.9-.018,12.793.01,14.741.01V35.073Zm10.823-.023V11.28h6.553c.059.644.12,1.327.188,2.081C28.741,9.2,35.8,8.947,38.982,13.807c2.437-3.46,5.946-4.027,9.71-3.342A8.078,8.078,0,0,1,55.181,18.1c.194,5.6.05,11.211.05,16.93H48.166c0-4.662.034-9.254-.012-13.844a3.793,3.793,0,0,0-5.146-3.806A3.69,3.69,0,0,0,40.426,21.1c-.03,3.929-.012,7.858-.016,11.787v1.966h-7.1c-.025-.55-.077-1.14-.077-1.731-.009-3.817.033-7.636-.019-11.454-.044-3.062-1.463-4.66-3.933-4.6-2.292.052-3.806,1.693-3.867,4.393-.08,3.592-.053,7.187-.069,10.78,0,.895,0,1.788,0,2.815ZM19.6,7.11H18.317V0h1.8Q50.59,0,81.063.009a17.679,17.679,0,0,1,1.82.186V6.933a12.729,12.729,0,0,1-1.49.169q-25.745.01-51.49.007Z" transform="translate(4 4.407)" fill="#ec685e" stroke="rgba(0,0,0,0)" stroke-miterlimit="10" stroke-width="1"></path></g></svg>