<svg xmlns="http://www.w3.org/2000/svg" xmlns:xlink="http://www.w3.org/1999/xlink" width="190" height="59" viewBox="0 0 190 59"><defs><clipPath id="clip-path"><rect id="Rectangle_1254" data-name="Rectangle 1254" width="173.107" height="21.911" fill="none"></rect></clipPath><clipPath id="clip-firstpost_logo"><rect width="190" height="59"></rect></clipPath></defs><g id="firstpost_logo" clip-path="url(#clip-firstpost_logo)"><g id="Group_4852" data-name="Group 4852" transform="translate(8 18.544)"><g id="Group_4825" data-name="Group 4825" transform="translate(0 0)" clip-path="url(#clip-path)"><path id="Path_25183" data-name="Path 25183" d="M100.409,11.83A2.929,2.929,0,1,1,97.479,8.9a2.929,2.929,0,0,1,2.929,2.927" transform="translate(72.698 6.844)" fill="#e10000"></path><path id="Path_25184" data-name="Path 25184" d="M56.969.117C53.962.174,41.781.158,38.7.121,37.87.11,37.6.4,37.615,1.214c.044,1.716.025,3.433.014,5.151,0,.476-.083,1.015.5,1.171s.837-.361,1.061-.746c.748-1.274,1.544-2.515,2.337-3.762a2.776,2.776,0,0,1,2.855-1.511c.874.076,1.09.272,1.081,1.153-.048,5.075-.025,10.15-.012,15.225,0,1.551-.612,2.287-2.139,2.415-.44.037-.8.12-.8.63.005.561.448.55.846.55q4.45,0,8.9,0c.444,0,.975-.011.971-.564-.005-.5-.479-.593-.959-.616a2.07,2.07,0,0,1-2.022-2.091q-.016-7.907,0-15.81c0-.3-.069-.624.3-.8a3.5,3.5,0,0,1,3.267.835A40.3,40.3,0,0,1,56.631,6.86c.232.412.543.842,1.091.669.5-.157.481-.651.479-1.088,0-1.679-.051-3.359.014-5.034C58.255.445,57.968.1,56.969.117" transform="translate(28.921 0.089)"></path><path id="Path_25185" data-name="Path 25185" d="M15.841.12C10.649.152,5.459.141.267.145-.147.649-.1.99.54,1.3A2.677,2.677,0,0,1,2.116,4.015C2.052,8.609,2.07,13.2,2.105,17.8A2.376,2.376,0,0,1,.518,20.324c-.311.12-.566.329-.511.686s.371.479.7.471c2.956-.073,5.913.122,8.867-.1.228-.757-.03-1.072-.844-1.083a1.849,1.849,0,0,1-1.905-1.771c-.048-2.107-.014-4.215-.018-6.324,0-.336.046-.686.444-.693a16.936,16.936,0,0,1,3.145.078,3.207,3.207,0,0,1,2.269,2.774c.019.5.113.863.681.867.669.005.693-.46.69-.969-.011-1.951-.005-3.9,0-5.855,0-.435.053-.915-.481-1.067-.623-.179-.766.324-.978.752a6.088,6.088,0,0,1-.614.842c-1.259,1.714-3.1,1.068-4.744,1.139-.41.018-.41-.382-.41-.708q0-3.455,0-6.909c0-.644.325-.925.946-.9,5.255.193,3.773-.992,7.194,3.08.3.356.563.745.833,1.123.212.3.435.578.856.449.437-.133.412-.517.414-.867,0-1.366-.027-2.733,0-4.1C17.077.361,16.679.115,15.841.12" transform="translate(0 0.092)"></path><path id="Path_25186" data-name="Path 25186" d="M18.776,1.3c.361-.152.978-.011.867-.67-.094-.557-.6-.5-1.037-.5q-3.8,0-7.612,0c-.394,0-.838-.057-.932.463-.1.543.333.577.722.693a2.168,2.168,0,0,1,1.73,2.192q.013,7.376-.012,14.752A1.9,1.9,0,0,1,10.86,20.3c-.437.08-.814.216-.762.686.053.492.509.5.913.5,1.288,0,2.575,0,3.863,0v.005c1.288,0,2.575.005,3.863-.005.394,0,.863-.035.884-.534.016-.382-.333-.58-.72-.633a1.976,1.976,0,0,1-1.774-2.206c-.035-4.84-.016-9.679-.016-14.519A2.376,2.376,0,0,1,18.776,1.3" transform="translate(7.725 0.095)"></path><path id="Path_25187" data-name="Path 25187" d="M103.277,1.264c.021-.856-.269-1.16-1.15-1.146-3.046.046-6.09.018-9.136.018S86.9.164,83.855.118C82.985.1,82.67.392,82.689,1.25c.041,1.679.018,3.357.012,5.036,0,.467-.111,1.024.432,1.222.624.228.892-.347,1.155-.754.78-1.2,1.594-2.4,2.268-3.663a2.877,2.877,0,0,1,3.179-1.56c.672.064.853.3.851.93-.019,5.232,0,10.465-.019,15.7a2.034,2.034,0,0,1-2.091,2.151c-.458.027-.922.035-.9.639.027.642.564.534.973.536q4.394.011,8.784,0c.426,0,.973.037.971-.554,0-.532-.483-.591-.95-.619a2.094,2.094,0,0,1-2.036-2.094c-.014-5.271-.007-10.541-.005-15.812,0-.306-.05-.619.32-.8a3.528,3.528,0,0,1,3.191.741,39.853,39.853,0,0,1,2.887,4.514c.223.389.538.856,1.1.654.488-.177.453-.66.451-1.1-.007-1.718-.034-3.435.011-5.153" transform="translate(63.578 0.09)"></path><path id="Path_25188" data-name="Path 25188" d="M62.364.529a37.008,37.008,0,0,0-6.87-.4c-1.56,0-3.12-.007-4.68.009-.345,0-.736.067-.872.446-.195.536.352.5.6.658a2.68,2.68,0,0,1,1.555,2.4c-.035,4.8-.028,9.594-.007,14.392a2.321,2.321,0,0,1-1.247,2.2c-.352.2-.784.336-.674.8s.568.444.966.444c2.575,0,5.149,0,7.723-.005.407,0,.955.1.978-.531.023-.594-.46-.6-.909-.637a1.9,1.9,0,0,1-1.986-2.063c-.009-1.327.023-2.653-.018-3.976-.021-.715.223-.959.952-.927a14.152,14.152,0,0,0,4.854-.522c2.648-.819,5.354-2.984,5.1-6.759-.18-2.657-2.369-4.84-5.466-5.533m.561,8.409a4.049,4.049,0,0,1-4.037,2.738c-2.047.018-2.045.018-2.045-2.066v-2.8h-.009c0-1.245.009-2.492,0-3.738-.009-.983.375-1.514,1.442-1.534,3.076-.055,4.838,1.636,4.822,4.744a7.088,7.088,0,0,1-.17,2.659" transform="translate(38.367 0.095)"></path><path id="Path_25189" data-name="Path 25189" d="M32.052,13.542c-.741-1.167-1.406-2.323-3.039-2.423.478-.214.968-.407,1.431-.649,1.564-.817,2.887-1.884,3.2-3.741C34.226,3.2,31.963,1.266,29,.6,25.068-.273,21.067.313,17.1.139a.671.671,0,0,0-.746.43c-.154.414.165.559.437.7a2.716,2.716,0,0,1,1.452,2.79c-.069,4.68-.048,9.363,0,14.045A2.2,2.2,0,0,1,17,20.275c-.364.193-.769.35-.637.824.11.393.527.4.886.4q3.861,0,7.725,0c.409,0,.856-.025.867-.536.011-.458-.347-.6-.8-.642A2.006,2.006,0,0,1,23.055,18.2c-.023-1.716.019-3.433-.021-5.149-.016-.686.274-.812.89-.9,1.6-.216,2.308.846,3,1.951,1.235,1.974,2.434,3.971,3.686,5.935a2.53,2.53,0,0,0,2,1.44c1.208.037,2.418.011,3.628.011.274,0,.564.021.7-.288a.658.658,0,0,0-.175-.746,51.779,51.779,0,0,1-4.721-6.918M26.34,10.227a7.621,7.621,0,0,1-2.768.2c-.483.021-.529-.331-.525-.72.011-1.129,0-2.259.005-3.387,0-.819.055-1.642-.009-2.453-.209-2.639,1.014-2.508,3.009-2.2a3.714,3.714,0,0,1,2.926,3.61c.17,2.929-.432,4.037-2.637,4.953" transform="translate(12.544 0.081)"></path><path id="Path_25190" data-name="Path 25190" d="M85.019,9.753c-.861-.435-1.8-.709-2.671-1.129C80.721,7.839,78.9,7.388,77.607,6a2.362,2.362,0,0,1,.78-4.067,3.907,3.907,0,0,1,4.051.6,9.272,9.272,0,0,1,3.3,3.826c.156.345.38.743.867.614.414-.11.432-.49.432-.858,0-1.675.027-3.352-.007-5.027-.014-.722-.3-1.167-1.1-.619a2.533,2.533,0,0,1-2.128.31Q82.85.546,81.893.3l0,0-.005,0L81.1.107a6.761,6.761,0,0,0-2.338.011c-.069.018-.134.037-.2.05-.136.025-.272.055-.4.088a7.341,7.341,0,0,0-1.374.522,5.985,5.985,0,0,0-2.043,8.86c1.36,1.9,3.416,2.747,5.4,3.692,1.152.548,2.377.943,3.538,1.473a2.851,2.851,0,0,1,1.756,2.788,2.665,2.665,0,0,1-2.193,2.4,4.329,4.329,0,0,1-3.387-.327,11.733,11.733,0,0,1-4.622-4.327c-.232-.377-.43-.791-.969-.621s-.3.658-.306,1c-.025,1.679-.009,3.356-.016,5.034,0,.787.389,1.07,1.01.608,1.13-.838,2.266-.571,3.444-.232.734.21,1.475.4,2.215.591l0,0a5.6,5.6,0,0,0,2.038.1l0-.005c3.037-.416,5.4-2.4,5.841-4.905a6.161,6.161,0,0,0-3.478-7.155" transform="translate(56.569 0.008)"></path><path id="Path_25191" data-name="Path 25191" d="M40.108,9.753c-.861-.435-1.8-.709-2.671-1.129C35.81,7.839,33.984,7.388,32.7,6a2.362,2.362,0,0,1,.78-4.067,3.907,3.907,0,0,1,4.051.6,9.272,9.272,0,0,1,3.3,3.826c.156.345.38.743.867.614.414-.11.432-.49.432-.858,0-1.675.027-3.352-.007-5.027-.014-.722-.3-1.167-1.1-.619A2.533,2.533,0,0,1,38.9.784Q37.939.546,36.982.3l0,0-.005,0L36.194.107a6.761,6.761,0,0,0-2.338.011c-.069.018-.134.037-.2.05-.136.025-.272.055-.4.088a7.341,7.341,0,0,0-1.374.522,5.985,5.985,0,0,0-2.043,8.86c1.36,1.9,3.416,2.747,5.4,3.692,1.152.548,2.377.943,3.538,1.473a2.851,2.851,0,0,1,1.757,2.788,2.665,2.665,0,0,1-2.193,2.4,4.329,4.329,0,0,1-3.387-.327,11.733,11.733,0,0,1-4.622-4.327c-.232-.377-.43-.791-.969-.621s-.3.658-.306,1c-.025,1.679-.009,3.356-.016,5.034,0,.787.389,1.07,1.01.608,1.13-.838,2.266-.571,3.444-.232.734.21,1.475.4,2.215.591l0,0a5.6,5.6,0,0,0,2.038.1l0-.005c3.037-.416,5.4-2.4,5.841-4.905a6.161,6.161,0,0,0-3.478-7.155" transform="translate(22.038 0.008)"></path><path id="Path_25192" data-name="Path 25192" d="M83.048,9.966A10.863,10.863,0,0,0,75.877.642c-.182-.064-.366-.119-.55-.166L75.29.467C74.827.35,74.361.272,73.9.186A15.992,15.992,0,0,0,71.86,0a15.962,15.962,0,0,0-2.036.186c-.463.087-.93.165-1.392.281l-.037.009c-.184.048-.368.1-.55.166a10.863,10.863,0,0,0-7.171,9.324c-.315,4.656,1.719,8.048,5.634,10.454a9.5,9.5,0,0,0,2.255.892l.011,0c.166.051.331.106.5.161a12.215,12.215,0,0,0,2.791.437,12.216,12.216,0,0,0,2.793-.437c.164-.055.329-.11.5-.161l.009,0h0a9.525,9.525,0,0,0,2.255-.892c3.915-2.406,5.947-5.8,5.634-10.454m-5.107,4.32a6.8,6.8,0,0,1-.814,2.54,5.8,5.8,0,0,1-5.078,3.357c-.064,0-.126,0-.189,0s-.124,0-.188,0a5.8,5.8,0,0,1-5.078-3.357,6.735,6.735,0,0,1-.814-2.54A22.276,22.276,0,0,1,66,6.156c.745-2.772,2.66-4.426,5.1-4.507.26-.009.511,0,.759.012.248-.014.5-.021.761-.012,2.441.081,4.359,1.735,5.1,4.507a22.276,22.276,0,0,1,.218,8.13" transform="translate(46.627 -0.001)"></path></g></g></g></svg>