<svg width="87" height="87" viewBox="0 0 87 87" fill="none" xmlns="http://www.w3.org/2000/svg">
<rect width="87" height="87" rx="43.5" fill="#F5F5F5"/>
<path d="M29.3665 25.4719L31.4417 24.0352C33.3783 22.6886 36.02 23.0966 37.607 24.9887L40.766 28.7499C42.1436 30.3905 42.1814 32.6077 41.1109 34.6537C39.6567 37.4319 38.5161 39.43 38.5161 39.43C39.4913 41.803 40.95 43.947 42.7993 45.7254C44.9608 47.8465 46.9538 48.9027 49.1743 49.8891C49.1743 49.8891 51.1697 48.7257 53.9008 47.2047C55.7244 46.1907 57.6046 45.5795 59.2411 46.8925L63.0545 49.9484C63.9792 50.6965 64.6183 51.74 64.8646 52.9037C65.111 54.0674 64.9494 55.2803 64.4072 56.339L63.2038 58.6228C62.6367 59.7247 61.7766 60.6489 60.7181 61.2934C59.6596 61.938 58.4438 62.278 57.2045 62.2759C51.2697 62.2474 44.1704 58.5445 37.07 51.5978C29.9611 44.6342 26.7626 38.2483 26.3153 32.0181C26.1258 29.3968 27.3124 26.8957 29.3665 25.4719Z" fill="#F15056"/>
</svg>
