<svg xmlns="http://www.w3.org/2000/svg" width="80" height="80" viewBox="0 0 80 80" fill="none"><rect width="80" height="80" rx="8" fill="#F5F5F5"></rect><g clip-path="url(#clip0_1090_11345)"><path d="M30.364 51.0387C29.4814 50.1392 29.9415 50.3928 27.8127 49.812C26.8468 49.5481 25.9978 49.0409 25.23 48.4332L20.6221 59.9483C20.1762 61.0632 21.009 62.2743 22.1892 62.2287L27.5405 62.0207L31.2211 65.9833C32.0336 66.8569 33.4596 66.5847 33.9054 65.4698L39.1918 52.2592C38.0908 52.8844 36.869 53.2508 35.6056 53.2508C33.6251 53.2508 31.7645 52.4652 30.364 51.0387ZM59.3783 59.9483L54.7704 48.4332C54.0026 49.0419 53.1536 49.5481 52.1877 49.812C50.0478 50.3959 50.517 50.1412 49.6365 51.0387C48.2359 52.4652 46.3743 53.2508 44.3938 53.2508C43.1304 53.2508 41.9086 52.8834 40.8076 52.2592L46.094 65.4698C46.5398 66.5847 47.9668 66.8569 48.7782 65.9833L52.4599 62.0207L57.8112 62.2287C58.9914 62.2743 59.8242 61.0621 59.3783 59.9483ZM47.2111 48.6961C48.763 47.0865 48.9408 47.2252 51.1507 46.6113C52.5615 46.219 53.6644 45.0752 54.0422 43.6115C54.8019 40.6716 54.6049 41.0267 56.6778 38.8756C57.7107 37.8042 58.1139 36.2422 57.7361 34.7785C56.9774 31.8407 56.9764 32.2506 57.7361 29.3097C58.1139 27.846 57.7107 26.284 56.6778 25.2126C54.6049 23.0615 54.8019 23.4156 54.0422 20.4768C53.6644 19.013 52.5615 17.8692 51.1507 17.4769C48.3192 16.6891 48.6604 16.8951 46.5855 14.743C45.5526 13.6716 44.0464 13.2524 42.6357 13.6447C39.8052 14.4314 40.2003 14.4325 37.3647 13.6447C35.9539 13.2524 34.4478 13.6706 33.4149 14.743C31.342 16.8941 31.6832 16.6891 28.8507 17.4769C27.44 17.8692 26.337 19.013 25.9592 20.4768C25.2005 23.4156 25.3965 23.0615 23.3236 25.2126C22.2907 26.284 21.8865 27.846 22.2654 29.3097C23.024 32.2454 23.025 31.8355 22.2654 34.7774C21.8875 36.2411 22.2907 37.8032 23.3236 38.8756C25.3965 41.0267 25.1995 40.6716 25.9592 43.6115C26.337 45.0752 27.44 46.219 28.8507 46.6113C31.1236 47.2428 31.2932 47.1434 32.7893 48.6961C34.1329 50.0905 36.2261 50.34 37.841 49.2986C38.4867 48.8808 39.2358 48.6589 40.0007 48.6589C40.7656 48.6589 41.5147 48.8808 42.1604 49.2986C43.7743 50.34 45.8675 50.0905 47.2111 48.6961ZM30.4188 31.7154C30.4188 26.226 34.7088 21.7759 40.0002 21.7759C45.2916 21.7759 49.5816 26.226 49.5816 31.7154C49.5816 37.2049 45.2916 41.655 40.0002 41.655C34.7088 41.655 30.4188 37.2049 30.4188 31.7154Z" fill="#F15056"></path></g><defs><clipPath id="clip0_1090_11345"><rect width="39" height="53" fill="white" transform="translate(20.5 13.5)"></rect></clipPath></defs></svg>