<svg xmlns="http://www.w3.org/2000/svg" width="80" height="80" viewBox="0 0 80 80" fill="none"><rect width="80" height="80" rx="8" fill="#F5F5F5"></rect><g clip-path="url(#clip0_1090_11329)"><path d="M21.0694 29.5292L30.3333 32.2036L40.5155 24.8086L25.9028 25.2275C25.7597 25.2353 25.621 25.2797 25.5 25.3564L20.8761 28.0147C20.7323 28.0944 20.6157 28.2154 20.5413 28.3621C20.467 28.5088 20.4384 28.6744 20.4593 28.8375C20.4801 29.0006 20.5494 29.1537 20.6581 29.277C20.7669 29.4003 20.9102 29.4882 21.0694 29.5292Z" fill="#F15056"></path><path d="M66.6157 21.2458L56.4657 19.0546C55.6121 18.8693 54.7286 18.8698 53.8752 19.0561C53.0217 19.2423 52.2184 19.61 51.5196 20.1341L20.8601 42.4158L13.4974 42.0935C13.0756 42.0792 12.66 42.1977 12.3093 42.4323C11.9585 42.6669 11.6903 43.0057 11.5426 43.401C11.3948 43.7963 11.3749 44.2279 11.4857 44.6351C11.5965 45.0423 11.8324 45.4043 12.1601 45.6702L19.3296 51.3574C19.4476 51.4526 19.5881 51.516 19.7376 51.5414C19.8871 51.5667 20.0406 51.5533 20.1835 51.5024C22.2296 50.713 29.8501 46.6691 38.8562 41.723L40.6607 60.2669C40.676 60.4275 40.7349 60.5808 40.8309 60.7105C40.927 60.8401 41.0567 60.941 41.2059 61.0023C41.3551 61.0637 41.5182 61.0831 41.6777 61.0586C41.8371 61.034 41.9868 60.9664 42.1107 60.863L46.1385 57.5119C46.359 57.3269 46.5073 57.0703 46.5574 56.7869L50.3757 35.3752C56.8201 31.7985 62.9746 28.3346 67.3085 25.8858C67.7582 25.641 68.1219 25.264 68.3502 24.8056C68.5785 24.3473 68.6603 23.8299 68.5847 23.3235C68.5091 22.8171 68.2797 22.3461 67.9275 21.9745C67.5753 21.6028 67.1173 21.3484 66.6157 21.2458Z" fill="#F15056"></path></g><defs><clipPath id="clip0_1090_11329"><rect width="58" height="58" fill="white" transform="translate(11 11)"></rect></clipPath></defs></svg>