<svg xmlns="http://www.w3.org/2000/svg" width="80" height="80" viewBox="0 0 80 80" fill="none"><rect width="80" height="80" rx="8" fill="#ECF6FF"></rect><path d="M51.705 50.3207C51.7032 42.8762 45.5343 36.8547 37.9545 36.8987C32.1124 36.9327 27.145 40.5623 25.2201 45.6434L19.8555 57.9178L25.6672 60.1785V66.7932C25.6672 68.2088 26.8328 69.3565 28.2706 69.3565H49.102C50.5398 69.3565 51.7054 68.2088 51.7054 66.7932L51.705 50.3207Z" fill="#EC407A"></path><path d="M28.0168 66.7931V60.1785L22.2051 57.9177L27.5698 45.6434C29.3728 40.8837 33.8458 37.3978 39.2064 36.948C38.7901 36.913 38.3723 36.8965 37.9545 36.8986C32.1124 36.9326 27.145 40.5622 25.2201 45.6434L19.8555 57.9177L25.6672 60.1785V66.7931C25.6672 68.2087 26.8328 69.3564 28.2706 69.3564H30.6203C29.1825 69.3564 28.0168 68.2087 28.0168 66.7931Z" fill="#D63C77"></path><path d="M48.5751 43.9726C52.3962 43.9726 55.4939 40.9304 55.4939 37.1777C55.4939 33.425 52.3962 30.3828 48.5751 30.3828C44.7539 30.3828 41.6562 33.425 41.6562 37.1777C41.6562 40.9304 44.7539 43.9726 48.5751 43.9726Z" fill="#4B4B4B"></path><path d="M46.2857 30.7656C44.7064 32.011 43.6944 33.9218 43.6944 36.0656C43.6944 39.8183 46.7921 42.8605 50.6132 42.8605C51.3928 42.8608 52.1668 42.7315 52.9025 42.4779C51.7173 43.4124 50.2132 43.9728 48.5751 43.9728C44.754 43.9728 41.6562 40.9306 41.6562 37.1779C41.6562 34.2134 43.59 31.6938 46.2857 30.7656Z" fill="#121212"></path><path d="M38.0411 45.1556H38.0295C35.9637 45.1556 34.2891 43.5084 34.2891 41.4765V34.0195H41.7815V41.4765C41.7815 43.5084 40.1069 45.1556 38.0411 45.1556Z" fill="#FDD2B5"></path><path d="M36.3693 41.4653V34.0195H34.2891V41.4653C34.2891 43.5034 35.9663 45.1556 38.0353 45.1556C38.3964 45.1556 38.7451 45.1043 39.0755 45.0103C37.5127 44.5662 36.3693 43.1477 36.3693 41.4653Z" fill="#F9B995"></path><path d="M45.5312 57.1447V69.3591H49.1008C50.5386 69.3591 51.7042 68.2115 51.7042 66.7958L51.704 57.1445L45.5312 57.1447Z" fill="#FDD2B5"></path><path d="M45.5312 57.1445H48.142V69.359H45.5312V57.1445Z" fill="#F9B995"></path><path d="M20.0215 60.6556C19.0781 58.6464 20.0946 56.2752 22.2171 55.5338L40.3556 49.1978L40.413 49.0191C40.5395 48.6249 40.753 48.2631 41.0383 47.9595C41.3236 47.656 41.6736 47.4183 42.0632 47.2633L43.0035 46.8891C43.9179 46.5252 44.961 46.9429 45.3555 47.8309L47.0681 51.6854C47.466 52.581 47.0622 53.6247 46.1591 54.0347L45.2489 54.4479C44.9039 54.6046 44.5304 54.6915 44.1505 54.7036C43.7707 54.7157 43.3923 54.6527 43.0377 54.5183L42.6018 54.3532L25.1425 62.4802C23.2158 63.3773 20.9143 62.5572 20.0215 60.6556Z" fill="#D63C77"></path><path d="M47.0669 51.6817L46.7051 50.8672C46.5346 51.3031 46.1977 51.6563 45.7664 51.8515L44.8562 52.2649C44.5111 52.4215 44.1376 52.5085 43.7578 52.5206C43.378 52.5326 42.9996 52.4696 42.6449 52.3353L42.2091 52.1701L24.7498 60.2972C22.8706 61.1719 20.6355 60.4127 19.6981 58.6104C19.6083 59.3071 19.7201 60.0147 20.0206 60.6518C20.9134 62.5533 23.2149 63.3735 25.1415 62.4765L42.6007 54.3495L43.0366 54.5146C43.3912 54.649 43.7697 54.712 44.1495 54.6999C44.5293 54.6878 44.9028 54.6009 45.2479 54.4442L46.158 54.0309C47.0609 53.621 47.4648 52.5773 47.0669 51.6817Z" fill="#BF376F"></path><path d="M40.3546 49.1981L40.4119 49.0194C40.5383 48.6254 40.7516 48.2638 41.0366 47.9604C41.3216 47.657 41.6712 47.4193 42.0605 47.2643L43.0029 46.8893C43.9177 46.5252 44.9597 46.9426 45.3545 47.8312L47.0671 51.6857C47.4647 52.5807 47.0605 53.6253 46.1582 54.035L45.2492 54.4477C44.904 54.6046 44.5302 54.6917 44.1502 54.7039C43.7701 54.7161 43.3914 54.6531 43.0365 54.5187L42.6006 54.3536L39.6923 55.7073L37.4102 50.2266L40.3546 49.1981Z" fill="#FDD2B5"></path><path d="M47.0662 51.6864L46.8271 51.1484C46.639 51.4584 46.36 51.7052 46.0267 51.8563L45.1165 52.2696C44.7715 52.4263 44.3979 52.5132 44.0181 52.5253C43.6382 52.5374 43.2598 52.4745 42.9051 52.3401C42.7674 52.2879 42.6203 52.2638 42.4728 52.2692C42.3253 52.2746 42.1805 52.3094 42.0471 52.3715L38.9102 53.8316L39.6916 55.7082L42.5999 54.3543L43.0357 54.5195C43.3904 54.6538 43.7688 54.7168 44.1487 54.7047C44.5285 54.6926 44.9021 54.6056 45.2471 54.449L46.1573 54.0356C47.0603 53.6257 47.4641 52.582 47.0662 51.6864Z" fill="#F9B995"></path><path d="M48.6377 30.384C50.1376 30.384 51.3535 29.1805 51.3535 27.6959C51.3535 26.2113 50.1376 25.0078 48.6377 25.0078C47.1378 25.0078 45.9219 26.2113 45.9219 27.6959C45.9219 29.1805 47.1378 30.384 48.6377 30.384Z" fill="#FDD2B5"></path><path d="M27.4267 30.384C28.9266 30.384 30.1425 29.1805 30.1425 27.6959C30.1425 26.2113 28.9266 25.0078 27.4267 25.0078C25.9268 25.0078 24.7109 26.2113 24.7109 27.6959C24.7109 29.1805 25.9268 30.384 27.4267 30.384Z" fill="#FDD2B5"></path><path d="M38.0481 38.6982H38.0169C32.4847 38.6982 28 34.2869 28 28.8455V17.2891H48.0651V28.8453C48.0651 34.2869 43.5803 38.6982 38.0481 38.6982Z" fill="#FDD2B5"></path><path d="M34.1013 30.4975C34.5327 30.4975 34.8823 30.0958 34.8823 29.6003C34.8823 29.1048 34.5327 28.7031 34.1013 28.7031C33.67 28.7031 33.3203 29.1048 33.3203 29.6003C33.3203 30.0958 33.67 30.4975 34.1013 30.4975Z" fill="#121212"></path><path d="M41.9646 30.3686C42.3959 30.3686 42.7456 29.9669 42.7456 29.4714C42.7456 28.9759 42.3959 28.5742 41.9646 28.5742C41.5333 28.5742 41.1836 28.9759 41.1836 29.4714C41.1836 29.9669 41.5333 30.3686 41.9646 30.3686Z" fill="#121212"></path><path d="M32.4142 26.5259C31.9756 26.5259 31.769 25.9219 32.1163 25.6641C33.2852 24.7787 34.9178 24.7787 36.0869 25.6638C36.1896 25.7416 36.2567 25.8563 36.2735 25.9828C36.2902 26.1092 36.2552 26.2371 36.1761 26.3381C36.097 26.4392 35.9804 26.5052 35.8518 26.5216C35.7232 26.5381 35.5933 26.5036 35.4906 26.4259C35.0927 26.125 34.6049 25.9618 34.103 25.9615C33.6012 25.9612 33.1132 26.1238 32.7149 26.4242C32.629 26.4902 32.5232 26.526 32.4142 26.5259ZM40.2776 26.5259C39.8362 26.5259 39.6367 25.9251 39.9798 25.6641C41.1487 24.7787 42.7815 24.7788 43.9504 25.6638C44.0531 25.7416 44.1202 25.8564 44.1369 25.9828C44.1536 26.1093 44.1186 26.2371 44.0396 26.3382C43.9604 26.4391 43.8437 26.5051 43.7152 26.5215C43.5867 26.538 43.4567 26.5036 43.354 26.4259C42.9561 26.125 42.4683 25.9618 41.9665 25.9615C41.4646 25.9612 40.9767 26.1238 40.5785 26.4242C40.4925 26.4902 40.3866 26.526 40.2776 26.5259Z" fill="#4B4B4B"></path><path d="M39.8534 35.3795H36.2153C36.0857 35.3795 35.9614 35.3289 35.8697 35.2387C35.7781 35.1485 35.7266 35.0262 35.7266 34.8987C35.7266 34.7712 35.7781 34.6489 35.8697 34.5588C35.9614 34.4686 36.0857 34.418 36.2153 34.418H39.8534C39.9831 34.418 40.1074 34.4686 40.1991 34.5588C40.2907 34.6489 40.3422 34.7712 40.3422 34.8987C40.3422 35.0262 40.2907 35.1485 40.1991 35.2387C40.1074 35.3289 39.9831 35.3795 39.8534 35.3795Z" fill="#4B4B4B"></path><path d="M49.1092 25.0318L48.9438 20.9396C48.9496 15.2533 44.2711 10.6406 38.498 10.6406H37.7219C31.9488 10.6406 27.2703 15.2533 27.2761 20.9396L27.1211 24.9343L27.195 24.9008C30.7149 23.3016 33.6345 20.6544 35.541 17.3336L38.1075 20.247C40.8842 23.3992 44.9392 25.1824 49.1828 25.1174L49.1092 25.0318Z" fill="#4B4B4B"></path><path d="M29.6266 20.9396C29.6211 15.5143 33.8807 11.0696 39.2857 10.6727C39.024 10.6524 38.7615 10.6417 38.499 10.6406H37.7229C31.9498 10.6406 27.2713 15.2533 27.277 20.9396L27 25L28 25.5C28.8094 25.1321 28.7813 24.1072 29.5223 23.6331L29.6266 20.9396Z" fill="#121212"></path><path d="M47.8789 46.9651L52.3803 38.8854L48.0923 37.3427L59.9887 27.7344L56.146 35.9108L60.3346 37.4177L47.8789 46.9651Z" fill="#FFD766"></path><path d="M51.6956 44.0395L54.6039 39.5287C55.0209 38.8821 54.743 38.0199 54.0235 37.7276L51.9769 36.8962L57.9636 32.0433L59.9887 27.7344L48.0923 37.3427L52.3803 38.8853L47.8789 46.9651L51.6956 44.0395Z" fill="#FFC533"></path></svg>