<svg xmlns="http://www.w3.org/2000/svg" width="80" height="80" viewBox="0 0 80 80" fill="none"><rect width="80" height="80" rx="8" fill="#ECF6FF"></rect><path d="M31.3379 32.5782C31.5037 29.5058 31.668 28.2939 31.4796 26.0247C31.2713 23.9447 30.9172 22.4208 30.4171 20.9374C29.917 19.4539 25.7237 20.0332 26.2252 22.5812C26.7252 25.1292 27.0652 32.4164 26.8641 34.7867C29.0571 33.3654 31.3379 32.5782 31.3379 32.5782Z" fill="#F4ABBA"></path><path d="M29.0566 33.3678C26.0263 34.9134 22.9961 38.003 22.9961 42.6368C22.9961 55.254 34.0886 58.1631 43.1808 61.2528C52.2715 64.3425 53.3538 63.5321 56.3317 61.1763C57.8475 58.0866 56.9182 41.4278 52.3721 35.2485C49.0939 30.7924 35.9671 29.8448 29.0566 33.3678Z" fill="#BE1931"></path><path d="M29.0566 33.3686C26.0263 34.9142 22.9961 38.0038 22.9961 42.6376C22.9961 55.2548 36.9219 62.2546 41.9128 63.4593C50.8024 65.6057 54.8158 64.2667 56.3303 61.177C53.8043 62.7847 43.1326 60.2902 37.4758 55.1508C31.5443 49.7602 28.871 40.3626 32.6833 35.5757C32.7838 34.0793 32.5161 33.2834 32.5161 32.0859C31.2609 32.4153 30.0893 32.8414 29.0566 33.3686Z" fill="#A0041E"></path><path d="M32.6839 35.5734C30.6822 32.4837 29.6296 26.8345 33.6019 22.5517C37.3561 18.5044 44.6094 18.4466 48.0859 23.9572C51.0411 28.6415 48.7532 38 48.7532 38C48.7532 38 41.9475 30.8067 39.9018 34.1737C37.859 37.5422 32.9998 36.0602 32.6839 35.5734Z" fill="#EA596E"></path><path d="M48.4313 39.3953C50.0689 37.0379 50.0689 33.3748 50.0689 33.3748C50.0689 33.3748 50.5265 31.2241 55.312 32.5977C55.7795 32.7321 57.2089 30.4614 56.3136 30.1162C53.0609 28.8609 50.7461 29.6698 50.7461 29.6698C50.7461 29.6698 52.3455 28.4637 54.6731 28.1777C55.5968 28.0636 54.8473 26.1988 53.9293 26.2176C52.9377 26.2378 52.0353 26.4834 50.9657 26.9601C50.4656 27.1825 49.9457 26.8026 49.7587 26.6134C46.9423 23.7606 43.7761 24.1737 41.8438 25.0491C39.7825 25.9836 38.9254 28.6284 40.1933 30.4195C41.4613 32.2106 40.2118 33.5655 39.4241 34.9969C38.1491 37.3109 46.268 42.5095 48.4313 39.3953Z" fill="#F4ABBA"></path><path d="M36.1075 23.6381C35.0535 21.171 33.855 20.066 32.291 18.5348C30.727 17.0037 33.3549 15.0913 35.0435 16.7495C36.7322 18.4077 38.2962 21.5335 38.547 22.2991C38.7977 23.0646 36.7365 25.1085 36.1075 23.6381Z" fill="#EA596E"></path><path d="M37.4766 20.1052C39.0831 19.2486 39.6101 16.8769 39.7347 16.1113C39.8594 15.3458 42.1742 15.2822 41.9235 16.9404C41.6727 18.5986 41.9419 19.7123 41.9419 19.7123C41.9419 19.7123 43.1744 17.5702 44.4253 16.4854C45.6762 15.4006 47.1113 17.1253 46.4228 18.135C45.7343 19.1446 45.6026 20.995 45.927 21.6493C46.2514 22.3036 42.7508 23.1255 40.5224 22.6792C38.2968 22.2343 37.4766 20.1052 37.4766 20.1052Z" fill="#EA596E"></path><path d="M25.6218 50.8707C25.4602 50.8705 25.3035 50.814 25.1777 50.7104C25.052 50.6069 24.9647 50.4627 24.9305 50.3016C24.8979 50.1485 24.1428 46.5157 25.1897 44.1454C26.1261 42.0235 27.5088 41.2088 28.7271 40.4909C30.1778 39.6358 31.2261 39.0191 31.4344 36.3671C31.4496 36.1761 31.5386 35.9991 31.6818 35.875C31.825 35.751 32.0107 35.69 32.198 35.7055C32.3853 35.721 32.5588 35.8118 32.6805 35.9578C32.8022 36.1038 32.862 36.2931 32.8468 36.4841C32.579 39.8915 30.981 40.8333 29.4369 41.7433C28.3021 42.4121 27.2311 43.0418 26.4831 44.7391C25.6289 46.6746 26.3103 49.9622 26.3174 49.9968C26.3396 50.1024 26.3384 50.2117 26.3137 50.3167C26.289 50.4217 26.2416 50.5198 26.1748 50.6036C26.1081 50.6875 26.0238 50.755 25.9281 50.8012C25.8324 50.8474 25.7277 50.8712 25.6218 50.8707ZM43.2055 55.5695C43.0487 55.5703 42.8962 55.5181 42.7717 55.421C42.6472 55.324 42.5578 55.1876 42.5175 55.0331C42.4771 54.8787 42.4882 54.7151 42.5488 54.5677C42.6095 54.4204 42.7164 54.2977 42.8527 54.2189C42.881 54.2031 45.5132 52.6532 46.3675 50.7176C47.2557 48.7041 46.8364 47.8186 46.2031 46.4782C45.618 45.2417 44.8899 43.7005 45.1038 40.9893C45.1079 40.8922 45.1312 40.797 45.1723 40.7094C45.2133 40.6217 45.2713 40.5434 45.3427 40.4791C45.4142 40.4149 45.4976 40.3659 45.588 40.3353C45.6784 40.3046 45.7739 40.2929 45.8689 40.3008C45.9638 40.3087 46.0563 40.336 46.1406 40.3811C46.225 40.4262 46.2995 40.4883 46.3598 40.5635C46.4201 40.6387 46.4649 40.7255 46.4916 40.8188C46.5182 40.912 46.5261 41.0098 46.5148 41.1063C46.3335 43.4275 46.9157 44.6596 47.4795 45.8527C48.168 47.3102 48.8197 48.6853 47.6609 51.3113C46.6154 53.6802 43.6786 55.4034 43.5554 55.4756C43.4485 55.5368 43.328 55.5692 43.2055 55.5695Z" fill="#D84864"></path><path d="M41.6284 48.9197C41.5246 48.9196 41.4221 48.8962 41.3281 48.8513C41.2341 48.8064 41.1509 48.741 41.0844 48.6597C40.5319 47.9852 40.41 46.8657 40.7855 45.9341C41.134 45.0703 41.8281 44.5286 42.6951 44.4448C43.8823 44.3293 44.9136 43.1954 44.959 42.5165C44.9647 42.4217 44.9888 42.329 45.0299 42.2438C45.071 42.1585 45.1282 42.0824 45.1983 42.0198C45.2683 41.9573 45.3498 41.9095 45.4381 41.8792C45.5264 41.8489 45.6197 41.8367 45.7126 41.8434C45.9 41.8564 46.0747 41.9445 46.1984 42.0886C46.3221 42.2326 46.3848 42.4208 46.3728 42.6118C46.275 44.1242 44.5524 45.7131 42.8297 45.8835C42.4911 45.9153 42.2446 46.1175 42.0959 46.4829C41.9018 46.9625 41.9854 47.5056 42.1724 47.7338C42.2589 47.8392 42.3142 47.9677 42.3317 48.104C42.3491 48.2404 42.328 48.3789 42.2709 48.5035C42.2138 48.628 42.123 48.7334 42.0091 48.8071C41.8953 48.8808 41.7632 48.9199 41.6284 48.9197ZM52.5367 54.8419C52.4301 54.8419 52.3248 54.8174 52.2288 54.7701C52.1328 54.7228 52.0485 54.6541 51.9822 54.569C51.9159 54.4839 51.8692 54.3846 51.8458 54.2785C51.8224 54.1725 51.8227 54.0624 51.8468 53.9565C51.9006 53.7225 51.7873 53.2299 51.4756 52.7778C51.205 52.3864 50.8551 52.1293 50.542 52.0917C48.8548 51.8881 46.972 48.8504 46.6745 47.4074C46.6553 47.3145 46.6542 47.2187 46.6712 47.1254C46.6883 47.0321 46.7232 46.9432 46.774 46.8636C46.8247 46.7841 46.8904 46.7155 46.9672 46.6619C47.0439 46.6082 47.1303 46.5705 47.2214 46.5508C47.3124 46.5312 47.4064 46.53 47.4979 46.5474C47.5894 46.5648 47.6767 46.6004 47.7547 46.6522C47.8327 46.704 47.8999 46.7709 47.9526 46.8492C48.0052 46.9275 48.0422 47.0155 48.0615 47.1084C48.325 48.3781 49.957 50.5678 50.7092 50.6559C51.4374 50.7441 52.1216 51.2019 52.6345 51.9473C53.1558 52.7013 53.3825 53.5968 53.228 54.2815C53.1914 54.4406 53.1032 54.5824 52.9778 54.6841C52.8524 54.7858 52.697 54.8414 52.5367 54.8419ZM48.3575 61.9919C48.2192 61.9916 48.084 61.9501 47.9685 61.8724C47.853 61.7948 47.7623 61.6844 47.7075 61.5549C47.6527 61.4253 47.6362 61.2823 47.6601 61.1434C47.684 61.0044 47.7472 60.8756 47.8419 60.7728C48.8052 59.7343 48.2244 58.1642 47.2766 57.1444C46.4025 56.2041 44.8385 53.6821 45.5795 51.8881C45.6523 51.7114 45.7911 51.5716 45.9651 51.4993C46.1391 51.4269 46.3342 51.4281 46.5074 51.5024C46.6806 51.5767 46.8177 51.7181 46.8887 51.8956C46.9596 52.073 46.9585 52.2719 46.8856 52.4485C46.506 53.3657 47.4721 55.2536 48.3051 56.1492C50.0065 57.9793 50.2403 60.2861 48.8718 61.7637C48.8061 61.8359 48.7266 61.8934 48.6381 61.9326C48.5496 61.9719 48.4541 61.9921 48.3575 61.9919ZM33.695 49.7142C33.5815 49.714 33.4696 49.6861 33.3689 49.6326C33.2682 49.5792 33.1815 49.5019 33.1163 49.4071C33.051 49.3124 33.009 49.203 32.9939 49.0883C32.9787 48.9736 32.9908 48.8568 33.0292 48.7478C33.382 47.7512 32.7855 47.0261 30.6705 45.8748C29.4819 45.2292 28.731 44.1227 28.6092 42.8429C28.5044 41.7351 28.8982 40.6662 29.6363 40.0537C29.7819 39.9329 29.9686 39.8759 30.1554 39.8954C30.3421 39.9149 30.5137 40.0093 30.6322 40.1577C30.7507 40.3062 30.8066 40.4966 30.7875 40.687C30.7683 40.8774 30.6758 41.0523 30.5302 41.1732C30.1605 41.4794 29.9607 42.0803 30.0202 42.7028C30.0641 43.1679 30.2936 44.0317 31.3377 44.5979C32.7048 45.3433 35.2491 46.7271 34.3623 49.2346C34.3128 49.3747 34.2223 49.4959 34.1029 49.5817C33.9835 49.6675 33.8411 49.7138 33.695 49.7142ZM32.2075 56.2864C32.1493 56.2863 32.0912 56.279 32.0347 56.2647C30.4424 55.8588 29.462 54.0345 29.8913 52.2824C30.1279 51.3204 28.408 49.3935 27.6884 49.1783C25.7277 48.5976 24.6964 46.4829 24.9967 44.9504C25.0116 44.8543 25.0454 44.7623 25.096 44.6799C25.1466 44.5974 25.213 44.5263 25.2913 44.4707C25.3695 44.415 25.458 44.3761 25.5513 44.3562C25.6447 44.3363 25.741 44.3358 25.8346 44.3548C25.9281 44.3738 26.017 44.4118 26.0958 44.4666C26.1745 44.5215 26.2416 44.592 26.293 44.6739C26.3444 44.7558 26.3791 44.8475 26.3949 44.9434C26.4107 45.0393 26.4074 45.1375 26.385 45.2321C26.2519 45.9109 26.7194 47.3857 28.085 47.7902C29.3912 48.1802 31.7344 50.7195 31.2655 52.6319C31.0005 53.7109 31.6409 54.6744 32.3804 54.8622C32.5494 54.9038 32.6976 55.0074 32.7965 55.1532C32.8955 55.299 32.9384 55.4769 32.917 55.6529C32.8957 55.8289 32.8116 55.9907 32.6807 56.1075C32.5499 56.2244 32.3815 56.288 32.2075 56.2864ZM33.9642 41.2093C33.1765 41.2093 32.3832 40.7889 31.791 40.0436C31.128 39.2073 30.8971 38.1947 31.189 37.3988C31.2549 37.2194 31.3881 37.0739 31.5592 36.9946C31.7303 36.9152 31.9253 36.9084 32.1013 36.9756C32.2773 37.0428 32.4199 37.1786 32.4978 37.3531C32.5756 37.5275 32.5823 37.7264 32.5164 37.9058C32.4059 38.2048 32.5645 38.7219 32.8918 39.1351C33.1666 39.4803 33.6185 39.8241 34.0846 39.7562C34.2704 39.7276 34.4597 39.7755 34.6109 39.8893C34.7621 40.0031 34.8627 40.1734 34.8907 40.3628C34.9187 40.5523 34.8717 40.7453 34.7602 40.8994C34.6486 41.0536 34.4815 41.1562 34.2957 41.1847C34.1859 41.2008 34.0751 41.209 33.9642 41.2093Z" fill="#D84864"></path><path d="M31.5063 46.081C31.2357 46.081 30.9609 46.0232 30.6889 45.8846C30.5207 45.7989 30.3929 45.6487 30.3333 45.467C30.2738 45.2852 30.2876 45.0868 30.3715 44.9153C30.4555 44.7439 30.6028 44.6135 30.7811 44.5528C30.9594 44.4922 31.154 44.5062 31.3221 44.5918C31.6338 44.7565 32.216 44.43 32.7799 44.1166C33.6072 43.6587 34.5465 43.1343 35.5296 43.5605C35.7028 43.6348 35.84 43.7762 35.9109 43.9536C35.9819 44.1311 35.9808 44.33 35.9079 44.5066C35.835 44.6832 35.6963 44.823 35.5223 44.8953C35.3482 44.9677 35.1532 44.9666 34.98 44.8922C34.6258 44.7377 34.0308 45.0685 33.4542 45.3877C32.8805 45.7055 32.2033 46.081 31.5063 46.081ZM52.5395 60.2611C52.4023 60.2617 52.2678 60.2215 52.1526 60.1455C52.0374 60.0695 51.9463 59.9609 51.8906 59.833C51.8348 59.7051 51.8168 59.5634 51.8387 59.4253C51.8607 59.2871 51.9215 59.1585 52.014 59.055C52.1032 58.9525 52.1485 58.6506 52.0494 58.2923C51.9332 57.8735 51.613 57.365 51.062 57.196C50.5817 57.0487 50.093 57.1772 49.5759 57.3116C48.9355 57.4791 48.2116 57.6712 47.4778 57.2957C47.3097 57.2101 47.1818 57.0598 47.1223 56.8781C47.0627 56.6963 47.0765 56.4979 47.1605 56.3265C47.2444 56.155 47.3918 56.0246 47.57 55.9639C47.7483 55.9033 47.9429 55.9173 48.111 56.0029C48.3561 56.1257 48.6919 56.0506 49.2231 55.9119C49.8408 55.7516 50.6115 55.5465 51.4685 55.8137C52.405 56.0997 53.1317 56.8797 53.4136 57.9023C53.6389 58.7257 53.5085 59.5187 53.0651 60.0228C52.9989 60.098 52.9179 60.1581 52.8273 60.1992C52.7367 60.2402 52.6387 60.2614 52.5395 60.2611ZM54.1687 42.2056C54.0283 42.2058 53.891 42.1633 53.7744 42.0836C53.6578 42.0038 53.5672 41.8904 53.5142 41.7578C53.0368 40.5777 52.371 39.7977 51.7788 39.724C51.2971 39.6706 50.8962 40.0952 50.6299 40.465C49.5631 41.9485 46.938 41.9629 45.6985 41.7621C45.5129 41.7322 45.3465 41.6284 45.236 41.4735C45.1254 41.3185 45.0798 41.1251 45.1091 40.9359C45.1384 40.7467 45.2403 40.577 45.3922 40.4643C45.5442 40.3516 45.7339 40.3051 45.9195 40.335C47.2299 40.5459 48.971 40.3292 49.488 39.6099C50.3749 38.3778 51.3028 38.2117 51.9502 38.2897C53.0835 38.4298 54.1305 39.4929 54.8218 41.2075C54.8662 41.3171 54.8835 41.4361 54.8721 41.5541C54.8607 41.6722 54.821 41.7855 54.7564 41.8842C54.6919 41.9828 54.6045 42.0637 54.502 42.1198C54.3995 42.1759 54.285 42.2053 54.1687 42.2056Z" fill="#D84864"></path></svg>