<svg xmlns="http://www.w3.org/2000/svg" width="80" height="80" viewBox="0 0 80 80" fill="none"><rect width="80" height="80" rx="8" fill="#ECF6FF"></rect><g clip-path="url(#clip0_1277_18930)"><path d="M60.9444 26.1264C61.4156 26.2672 61.7975 26.6564 61.9113 27.1782L64.3731 38.6311C64.6656 40.0058 64.7306 41.4053 64.5844 42.7883C64.5112 43.5253 64.365 44.2707 64.1619 44.9911C63.7719 46.3575 63.1706 47.6494 62.3662 48.8088L56.6462 57.148L47.9688 54.5808L48.0337 54.291C48.0906 54.0011 48.2044 53.5208 48.3831 52.9163C49.1469 50.2166 51.0075 45.4217 54.7937 43.5999C54.875 43.5585 54.9319 43.5005 54.9562 43.4177L56.7031 37.2813C56.9388 36.4532 57.7919 35.9728 58.6044 36.213C59.0106 36.3372 59.3356 36.6105 59.5225 36.9666C59.7094 37.3144 59.7662 37.7368 59.6525 38.1508L57.1256 47.0366C57.0606 47.2022 57.15 47.3678 57.3044 47.4175C57.4587 47.4589 57.6213 47.3678 57.6619 47.2105L60.1887 38.3413C60.3919 37.6291 60.2212 36.8589 59.7337 36.2875C59.6525 36.1799 59.5956 36.0639 59.5875 35.9314L59.1731 27.5591C59.1406 26.8386 59.6362 26.2093 60.335 26.0933C60.5381 26.0519 60.7494 26.0685 60.9444 26.1264Z" fill="#F9B986"></path><path d="M47.0046 53.8789L44.4858 62.7233C44.4046 63.0048 44.5671 63.2947 44.8352 63.3692L55.3733 66.483C55.6496 66.5658 55.934 66.4002 56.0071 66.1269L58.5258 57.2825C58.6071 57.0009 58.4446 56.7111 58.1765 56.6366L47.6383 53.5145C47.3702 53.44 47.0858 53.5973 47.0046 53.8789Z" fill="#8676B7"></path><path d="M47.0039 53.8775L47.142 53.3806C47.2802 52.9086 47.7677 52.6353 48.2308 52.7678L58.0702 55.6745C58.5333 55.8153 58.8014 56.3122 58.6714 56.7842L58.5333 57.2811L47.0039 53.8775Z" fill="#E4E4E6"></path><path d="M19.0548 26.1264C18.5836 26.2672 18.2017 26.6564 18.0879 27.1782L15.6342 38.6394C15.3417 40.0141 15.2767 41.4136 15.4229 42.7966C15.4961 43.5336 15.6423 44.2789 15.8454 44.9994C16.2354 46.3658 16.8367 47.6577 17.6411 48.8171L23.3611 57.1563L32.0386 54.5891L31.9736 54.2993C31.9167 54.0094 31.8029 53.5291 31.6242 52.9246C30.8604 50.2249 28.9998 45.43 25.2136 43.6082C25.1323 43.5668 25.0754 43.5088 25.0511 43.426L23.3042 37.2896C23.0686 36.4614 22.2154 35.9811 21.4029 36.2213C20.9967 36.3455 20.6717 36.6188 20.4848 36.9749C20.2979 37.3227 20.2411 37.745 20.3548 38.1591L22.8817 47.0449C22.9304 47.2022 22.8411 47.3678 22.6786 47.4175C22.5242 47.4589 22.3617 47.3678 22.3211 47.2105L19.8104 38.3413C19.6073 37.6291 19.7779 36.8589 20.2654 36.2875C20.3467 36.1799 20.4036 36.0639 20.4117 35.9314L20.8261 27.5591C20.8586 26.8386 20.3629 26.2093 19.6642 26.0933C19.4611 26.0519 19.2498 26.0685 19.0548 26.1264Z" fill="#F9B986"></path><path d="M32.9954 53.8781L35.5141 62.7225C35.5954 63.0041 35.4329 63.2939 35.1648 63.3685L24.6266 66.4822C24.3504 66.565 24.066 66.3994 23.9929 66.1261L21.4741 57.2817C21.3929 57.0002 21.5554 56.7103 21.8235 56.6358L32.3616 53.5221C32.6298 53.4392 32.9141 53.5966 32.9954 53.8781Z" fill="#8676B7"></path><path d="M32.9972 53.8775L32.859 53.3806C32.7209 52.9086 32.2334 52.6353 31.7703 52.7678L21.9309 55.6745C21.4678 55.8153 21.1997 56.3122 21.3297 56.7842L21.4678 57.2811L32.9972 53.8775Z" fill="#E4E4E6"></path><path d="M50.2406 15.6117C53.0031 18.4273 53.0031 22.9986 50.2406 25.8142L40.2225 36.025L30.2125 25.8142C27.45 22.9986 27.45 18.4273 30.2125 15.6117C32.975 12.7961 37.46 12.7961 40.2225 15.6117C42.985 12.7961 47.47 12.7961 50.2406 15.6117Z" fill="#F93251"></path><path d="M60.0705 23.7105L56.5198 23.727L55.813 23.1473C55.7805 23.1225 55.7398 23.1059 55.6586 23.1059C55.6505 23.1059 55.6342 23.1059 55.6261 23.1059C55.5611 23.1225 55.5042 23.1639 55.4798 23.2302L55.1873 23.843L54.8298 23.5117C54.7892 23.4703 54.7323 23.4538 54.6836 23.4538L54.6186 23.462H54.6105C54.5292 23.4869 54.4805 23.5614 54.4642 23.6442L54.1636 26.228L53.7248 18.5512C53.7167 18.4353 53.6273 18.3442 53.5055 18.3359C53.3998 18.3359 53.3023 18.4188 53.2861 18.5264L52.5548 23.1391L52.3273 22.4766C52.303 22.402 52.238 22.3441 52.1161 22.3275C52.0511 22.3275 51.9942 22.3523 51.9455 22.402L50.8973 23.6773L47.1923 23.6939L46.6398 23.0977C46.5992 23.0563 46.5423 23.0314 46.4611 23.0314H46.453C46.388 23.0397 46.323 23.0811 46.2905 23.1391L45.9005 23.8181L45.413 23.255C45.3723 23.2053 45.3073 23.1805 45.2505 23.1805L45.1773 23.1887C45.0961 23.2219 45.0311 23.2964 45.0311 23.3875L44.8686 25.5572L44.3892 18.7831C44.3811 18.6672 44.2917 18.5761 44.1698 18.5761C44.0561 18.5761 43.9667 18.6672 43.9505 18.7748L43.3898 23.3047L43.073 22.5262C43.0405 22.4517 42.9836 22.402 42.8698 22.3855C42.8048 22.3855 42.748 22.4103 42.7073 22.46L41.6267 23.7353L37.9542 23.7519L37.3692 23.1308C37.3286 23.0894 37.2717 23.0645 37.1905 23.0645H37.1823C37.1092 23.0728 37.0523 23.1142 37.0198 23.1805L36.6786 23.8181L36.3698 23.3792C36.3292 23.3212 36.2723 23.2881 36.1667 23.2881C36.1586 23.2881 36.1505 23.2881 36.1423 23.2881C36.053 23.313 35.988 23.3875 35.9798 23.4786L35.6061 26.2031L35.1836 18.5512C35.1755 18.4353 35.0861 18.3442 34.9642 18.3359C34.8505 18.3359 34.7611 18.4188 34.7448 18.5264L34.103 23.2053L33.8592 22.6091C33.8267 22.5428 33.7698 22.4931 33.6561 22.4683C33.5992 22.4683 33.5423 22.4931 33.5017 22.5345L32.3398 23.7436L28.7811 23.7602L28.2286 23.1639C28.188 23.1225 28.1311 23.0977 28.058 23.0977C27.993 23.0977 27.9361 23.1308 27.8955 23.1887L27.4242 23.8181L27.1398 23.3544C27.0992 23.2881 27.0342 23.255 26.9286 23.255C26.9205 23.255 26.9123 23.255 26.9042 23.255C26.8148 23.2798 26.7417 23.3544 26.7336 23.4538L26.4655 26.0955L26.0023 18.7252C25.9942 18.6092 25.9048 18.5181 25.783 18.5098C25.6773 18.5098 25.5798 18.5927 25.5636 18.7086L24.9217 23.4206L24.483 22.3441C24.4586 22.2778 24.3936 22.2198 24.2798 22.2033C24.223 22.2033 24.1661 22.2281 24.1255 22.2695L22.9798 23.462H20.3717C20.2498 23.462 20.1523 23.5614 20.1523 23.6856C20.1523 23.8098 20.2498 23.9092 20.3717 23.9092H23.0286C23.0855 23.9092 23.1423 23.8844 23.183 23.843L24.1823 22.8244L24.808 24.3564C24.8405 24.4392 24.9217 24.4972 25.0355 24.4972C25.0355 24.4972 25.0355 24.4972 25.0436 24.4972C25.1411 24.4806 25.2223 24.4061 25.2386 24.3067L25.6936 20.9859L26.1892 28.8117C26.1973 28.9277 26.2948 29.0188 26.4086 29.027C26.5223 29.027 26.6198 28.9359 26.628 28.8283L27.1073 24.1659L27.2211 24.3481C27.2617 24.4144 27.3267 24.4475 27.408 24.4558C27.473 24.4558 27.538 24.4227 27.5867 24.3647L28.0905 23.6856L28.513 24.1411C28.5536 24.1825 28.6105 24.2073 28.6755 24.2073H32.413C32.4698 24.2073 32.5267 24.1825 32.5673 24.1411L33.583 23.1059L34.0136 24.1577C34.0461 24.2405 34.1273 24.2984 34.2411 24.2984C34.2411 24.2984 34.2411 24.2984 34.2492 24.2984C34.3467 24.2819 34.428 24.2073 34.4442 24.108L34.8748 20.9445L35.2648 28.6047C35.273 28.7206 35.3623 28.8117 35.4842 28.82C35.598 28.82 35.6873 28.7372 35.7036 28.6213L36.3211 24.1162L36.508 24.3895C36.5486 24.4475 36.6136 24.4889 36.703 24.4889C36.7761 24.4889 36.8492 24.4392 36.8817 24.373L37.2473 23.6939L37.6698 24.1494C37.7105 24.1908 37.7673 24.2156 37.8323 24.2156H41.6917C41.7567 24.2156 41.8136 24.1908 41.8542 24.1411L42.7967 23.0562L43.2923 24.2902C43.3248 24.373 43.4061 24.4309 43.5198 24.4309H43.528C43.6255 24.4144 43.7067 24.3398 43.723 24.2322L44.1048 21.1267L44.6411 28.6461C44.6492 28.762 44.7467 28.8531 44.8605 28.8531C44.9823 28.8531 45.0717 28.762 45.0798 28.6461L45.4292 23.9837L45.7786 24.3813C45.8192 24.4309 45.8761 24.4558 45.9573 24.4558C45.9573 24.4558 45.9573 24.4558 45.9655 24.4558C46.0386 24.4475 46.1036 24.4061 46.1361 24.3481L46.5261 23.6525L46.9242 24.0831C46.9648 24.1245 47.0217 24.1577 47.0867 24.1577H50.9786C51.0436 24.1577 51.1005 24.1328 51.1492 24.0831L52.043 23.0314L52.433 24.1659C52.4655 24.257 52.5467 24.315 52.6605 24.315C52.758 24.3067 52.8473 24.2322 52.8636 24.1245L53.4161 20.663L53.8711 28.8283C53.8792 28.9442 53.9686 29.0353 54.0905 29.0436C54.2042 29.0436 54.2936 28.9608 54.3098 28.8448L54.8623 24.1659L55.1142 24.4061C55.1548 24.4392 55.2036 24.4641 55.2848 24.4641C55.293 24.4641 55.3011 24.4641 55.3092 24.4641C55.3742 24.4475 55.4392 24.4061 55.4636 24.3398L55.7642 23.7022L56.3005 24.1411C56.3411 24.1742 56.3898 24.1908 56.4386 24.1908H60.0867C60.2086 24.1908 60.3061 24.0914 60.3061 23.9672C60.3061 23.843 60.1923 23.7105 60.0705 23.7105Z" fill="#29354E"></path></g><defs><clipPath id="clip0_1277_18930"><rect width="52" height="53" fill="white" transform="translate(14 13.5)"></rect></clipPath></defs></svg>