<svg xmlns="http://www.w3.org/2000/svg" width="80" height="81" viewBox="0 0 80 81" fill="none"><rect y="0.5" width="80" height="80" rx="8" fill="#F5F5F5"></rect><g clip-path="url(#clip0_1090_11338)"><path d="M38.2333 14.5V21.4333H41.7667V14.5H38.2333ZM25.3508 27.1395L20.0508 21.9395L17.5492 24.3939L22.8492 29.5939L25.3508 27.1395ZM57.1508 29.5939L62.4508 24.3939L59.9492 21.9395L54.6492 27.1395L57.1508 29.5939ZM40 24.9C36.6318 24.8994 33.3765 26.0913 30.8321 28.2565C28.2876 30.4218 26.6249 33.4151 26.1493 36.6867L26.114 36.9293C25.8454 38.7519 25.9542 40.6089 26.4338 42.3893C26.9134 44.1696 27.754 45.8368 28.9053 47.2912C30.2586 49.0072 31.1667 50.6469 31.1667 52.2901V57.8333C31.1667 58.293 31.3528 58.7339 31.6841 59.059C32.0154 59.384 32.4648 59.5667 32.9333 59.5667H47.0667C47.5352 59.5667 47.9846 59.384 48.3159 59.059C48.6472 58.7339 48.8333 58.293 48.8333 57.8333V52.2901C48.8333 50.6469 49.7414 49.0072 51.0947 47.2912C53.3207 44.4693 54.4443 40.7912 53.886 36.9259L53.8507 36.6832C53.3743 33.4123 51.7113 30.4198 49.1669 28.2552C46.6225 26.0907 43.3677 24.8993 40 24.9ZM13.5 42.2333H20.5667V38.7667H13.5V42.2333ZM59.4333 42.2333H66.5V38.7667H59.4333V42.2333ZM34.7 66.5H45.3V63.0333H34.7V66.5Z" fill="#F15056"></path></g><defs><clipPath id="clip0_1090_11338"><rect width="53" height="52" fill="white" transform="translate(13.5 14.5)"></rect></clipPath></defs></svg>