<svg xmlns="http://www.w3.org/2000/svg" width="81" height="80" viewBox="0 0 81 80" fill="none"><rect x="0.5" width="80" height="80" rx="8" fill="#F5F5F5"></rect><path d="M40.4999 35.4334C42.9891 35.4334 45.0191 37.4634 45.0191 40.0009C45.0191 42.4176 42.9891 44.4718 40.4999 44.4718C38.0107 44.4718 35.9808 42.4176 35.9808 40.0009C35.9808 37.4634 38.0107 35.4334 40.4999 35.4334ZM29.3108 59.3343C30.8333 60.2526 34.1683 58.8509 38.0108 55.2259C36.7541 53.8001 35.5216 52.2534 34.3616 50.6343C32.4141 50.4479 30.478 50.1575 28.5616 49.7643C27.3291 54.9359 27.7883 58.4884 29.3108 59.3343ZM31.0266 45.4626L30.3258 44.2301C30.0599 44.9309 29.7941 45.6318 29.6249 46.3084C30.2774 46.4534 31.0024 46.5743 31.7516 46.6951L31.0266 45.4626ZM46.8316 43.6259L48.7891 40.0009L46.8316 36.3759C46.1066 35.0951 45.3333 33.9593 44.6324 32.8234C43.3274 32.7509 41.9499 32.7509 40.4999 32.7509C39.0499 32.7509 37.6724 32.7509 36.3674 32.8234C35.6666 33.9593 34.8933 35.0951 34.1683 36.3759L32.2108 40.0009L34.1683 43.6259C34.8933 44.9068 35.6666 46.0426 36.3674 47.1784C37.6724 47.2509 39.0499 47.2509 40.4999 47.2509C41.9499 47.2509 43.3274 47.2509 44.6324 47.1784C45.3333 46.0426 46.1066 44.9068 46.8316 43.6259ZM40.4999 27.3859C40.0408 27.9176 39.5574 28.4734 39.0741 29.1259H41.9258C41.4424 28.4734 40.9591 27.9176 40.4999 27.3859ZM40.4999 52.6159C40.9591 52.0843 41.4424 51.5284 41.9258 50.8759H39.0741C39.5574 51.5284 40.0408 52.0843 40.4999 52.6159ZM51.6649 20.6676C50.1666 19.7493 46.8316 21.1509 42.9891 24.7759C44.2457 26.2018 45.4783 27.7484 46.6382 29.3676C48.6199 29.5609 50.5774 29.8509 52.4383 30.2376C53.6707 25.0659 53.2116 21.5134 51.6649 20.6676ZM49.9733 34.5393L50.6741 35.7718C50.9399 35.0709 51.2057 34.3701 51.3749 33.6934C50.7224 33.5484 49.9974 33.4276 49.2482 33.3068L49.9733 34.5393ZM53.4774 17.5018C57.0299 19.5318 57.4166 24.8726 55.9182 31.1076C62.0566 32.9201 66.4791 35.9168 66.4791 40.0009C66.4791 44.0851 62.0566 47.0818 55.9182 48.8943C57.4166 55.1293 57.0299 60.4701 53.4774 62.5001C49.9491 64.5301 45.1399 62.2101 40.4999 57.7876C35.8599 62.2101 31.0508 64.5301 27.4983 62.5001C23.9699 60.4701 23.5833 55.1293 25.0816 48.8943C18.9433 47.0818 14.5208 44.0851 14.5208 40.0009C14.5208 35.9168 18.9433 32.9201 25.0816 31.1076C23.5833 24.8726 23.9699 19.5318 27.4983 17.5018C31.0508 15.4718 35.8599 17.7918 40.4999 22.2143C45.1399 17.7918 49.9491 15.4718 53.4774 17.5018ZM52.7766 40.0009C53.5982 41.8134 54.3232 43.6259 54.9274 45.4626C60.0024 43.9401 62.8541 41.7651 62.8541 40.0009C62.8541 38.2368 60.0024 36.0618 54.9274 34.5393C54.3232 36.3759 53.5982 38.1884 52.7766 40.0009ZM28.2233 40.0009C27.4016 38.1884 26.6766 36.3759 26.0724 34.5393C20.9974 36.0618 18.1458 38.2368 18.1458 40.0009C18.1458 41.7651 20.9974 43.9401 26.0724 45.4626C26.6766 43.6259 27.4016 41.8134 28.2233 40.0009ZM49.9733 45.4626L49.2482 46.6951C49.9974 46.5743 50.7224 46.4534 51.3749 46.3084C51.2057 45.6318 50.9399 44.9309 50.6741 44.2301L49.9733 45.4626ZM42.9891 55.2259C46.8316 58.8509 50.1666 60.2526 51.6649 59.3343C53.2116 58.4884 53.6707 54.9359 52.4383 49.7643C50.5774 50.1509 48.6199 50.4409 46.6382 50.6343C45.4783 52.2534 44.2457 53.8001 42.9891 55.2259ZM31.0266 34.5393L31.7516 33.3068C31.0024 33.4276 30.2774 33.5484 29.6249 33.6934C29.7941 34.3701 30.0599 35.0709 30.3258 35.7718L31.0266 34.5393ZM38.0108 24.7759C34.1683 21.1509 30.8333 19.7493 29.3108 20.6676C27.7883 21.5134 27.3291 25.0659 28.5616 30.2376C30.478 29.8444 32.4141 29.554 34.3616 29.3676C35.5216 27.7484 36.7541 26.2018 38.0108 24.7759Z" fill="#F15056"></path></svg>