<svg xmlns="http://www.w3.org/2000/svg" xmlns:xlink="http://www.w3.org/1999/xlink" width="113" height="59" viewBox="0 0 113 59"><defs><clipPath id="clip-path"><rect id="Rectangle_1260" data-name="Rectangle 1260" width="87.652" height="24.331" fill="none"></rect></clipPath><clipPath id="clip-inc42_logo"><rect width="113" height="59"></rect></clipPath></defs><g id="inc42_logo" clip-path="url(#clip-inc42_logo)"><g id="Group_4848" data-name="Group 4848" transform="translate(13 17)"><g id="Group_4837" data-name="Group 4837" transform="translate(0 0)" clip-path="url(#clip-path)"><path id="Path_26710" data-name="Path 26710" d="M49.412,7.12a37.873,37.873,0,0,0-6.66-.716c-6.161,0-8.379,2.561-8.379,7.042V17.5c0,4.061,1.516,6.83,8.807,6.83a35.17,35.17,0,0,0,6.66-.64V20.063a32.151,32.151,0,0,1-6.23.426c-2.89,0-4.511-1.4-4.511-3.842V14.3c0-2.581,1.284-4.054,3.867-4.054a8.9,8.9,0,0,1,1.719.119v2.655h4.726Zm-19.766,5.9c0-4.826-2.209-6.616-6.23-6.616A10.414,10.414,0,0,0,18.69,7.684l-.43-.854H12.03v3.842h2.577v9.817H12.46v3.842h9.023V20.489H19.334V10.681a8.838,8.838,0,0,1,3.044-.435c2.774,0,2.542,2.4,2.542,4.063V24.331h7.3V20.489H29.647ZM7.3,20.489H9.881v3.842H0V20.489H2.577V3.842H.43V0H9.453V3.842H7.3Z" transform="translate(0 0.001)" fill="#de2d3a" fill-rule="evenodd"></path><path id="Path_26711" data-name="Path 26711" d="M59.637,8.11c0-1.776-.639-4.268-3.653-4.268-3.168,0-4.633,3.057-3.656,6.4H48.1a8.973,8.973,0,0,1,.511-5.751A8.147,8.147,0,0,1,55.931,0H39.871L30.848,13.445v5.763h9.669V15.366H35.36L42.88,3.842h.214V24.329h4.083c0-7.573,4.438-10.026,8.593-11.758,2.285-.953,3.867-2.128,3.867-4.461m4.3-.214V20.489H53.191c0-2.135,2.009-2.5,4.512-3.842,3.212-1.726,6.23-3.842,6.23-8.751" transform="translate(23.719 0.001)" fill="#de2d3a" fill-rule="evenodd"></path></g></g></g></svg>