<svg xmlns="http://www.w3.org/2000/svg" width="92.749" height="55.583" viewBox="0 0 92.749 55.583">
  <g id="rstv_logo" data-name="rstv logo" transform="translate(-825.405 -214.728)">
    <g id="Group_2793" data-name="Group 2793" transform="translate(825.405 214.728)">
      <path id="Path_21432" data-name="Path 21432" d="M888.772,221.546h-.7c-2.759,0-5.519-.013-8.279.01a7.661,7.661,0,0,0-3.88,1.042,4.028,4.028,0,0,0-1.394,5.893c1.09,1.7,2.768,2.787,4.245,4.088q4.36,3.842,8.651,7.762a8.084,8.084,0,0,1,2.405,5.258,9.9,9.9,0,0,1-3.2,9.086,12.582,12.582,0,0,1-7.145,3.083c-2.615.273-5.262.263-7.9.311a9.388,9.388,0,0,1-2.457-.324,2.153,2.153,0,0,1-1.1-.79c-1.451-2-2.853-4.038-4.268-6.066a12.283,12.283,0,0,1-1.148-1.925l2.019.763a26.468,26.468,0,0,0,9.926,1.9,6.918,6.918,0,0,0,4.45-1.418,4.212,4.212,0,0,0,.425-6.441c-1.272-1.313-2.673-2.5-4.031-3.73-2.418-2.184-4.865-4.336-7.267-6.537a10.994,10.994,0,0,1-3.541-6.116c-.662-3.423,1.2-8.91,5.857-10.871a20.027,20.027,0,0,1,7.35-1.541c2.544-.062,5.091-.029,7.636-.006a.942.942,0,0,1,.728.349c.894,1.966,1.74,3.953,2.595,5.936A1.162,1.162,0,0,1,888.772,221.546Z" transform="translate(-838.697 -214.806)" fill="#c30b0c"/>
      <path id="Path_21433" data-name="Path 21433" d="M839.565,239.063l13.316,18.2c-.249.021-.425.047-.6.047-2.9,0-5.805-.009-8.708.013a.982.982,0,0,1-.929-.476q-6.087-8.825-12.186-17.642a1.554,1.554,0,0,1-.269-.776c-.033-.879,0-1.76-.019-2.64-.011-.413.141-.545.547-.647,1.558-.389,3.131-.758,4.641-1.295a9.381,9.381,0,0,0,5.679-4.78,6.3,6.3,0,0,0-.2-5.644,3.718,3.718,0,0,0-3.57-1.936q-4.21-.039-8.422.006a.885.885,0,0,1-.976-.673c-.709-1.785-1.47-3.547-2.209-5.32-.089-.215-.156-.44-.256-.72.26-.015.464-.037.668-.037,3.9,0,7.8-.029,11.705.008a15.447,15.447,0,0,1,7.158,1.877,8.681,8.681,0,0,1,4.516,6.717,15.023,15.023,0,0,1-.767,7.29,11.244,11.244,0,0,1-4.261,5.312c-1.345,1-2.817,1.84-4.234,2.749C840.013,238.807,839.828,238.908,839.565,239.063Z" transform="translate(-825.405 -214.728)" fill="#c30b0c"/>
      <path id="Path_21434" data-name="Path 21434" d="M922.6,232.552h-6.913c-.013.272-.034.5-.034.731,0,4.78.012,9.56-.005,14.34-.007,2.11,1.076,4.1,3.75,4.055a.626.626,0,0,1,.494.267c.747,1.867,1.465,3.746,2.232,5.73h-.864q-3.281,0-6.564,0A6.712,6.712,0,0,1,907.928,251c-.029-11.82-.011-23.639-.01-35.458,0-.162.021-.324.038-.569.855,0,1.682-.04,2.5.028.206.017.458.351.561.594q1.906,4.525,3.77,9.068c.712,1.728.706,1.731,2.6,1.731.785,0,1.571-.017,2.354.013.2.008.506.123.565.27C921.075,228.582,921.807,230.507,922.6,232.552Z" transform="translate(-854.891 -214.809)" fill="#c30b0c"/>
      <path id="Path_21435" data-name="Path 21435" d="M930.975,240.348c2.581,0,5.052-.013,7.523.025.2,0,.495.317.582.548q2.608,6.891,5.174,13.8c.083.22.17.439.337.873l7.363-19.158a5.031,5.031,0,0,1,.323.53c1.181,2.775,2.368,5.547,3.519,8.335a1.445,1.445,0,0,1,0,.993c-2.488,6.165-5.005,12.318-7.5,18.481a.8.8,0,0,1-.888.589c-2.092-.028-4.185-.021-6.278,0a.7.7,0,0,1-.788-.515q-4.59-11.971-9.209-23.931C931.076,240.763,931.046,240.6,930.975,240.348Z" transform="translate(-863.134 -222.485)" fill="#c30b0c"/>
    </g>
    <g id="Group_2794" data-name="Group 2794" transform="translate(836.825 262.257)">
      <path id="Path_21436" data-name="Path 21436" d="M931.676,292.279c.174-.226.32-.412.46-.6.967-1.3.5-2.719-1.109-2.9a42.819,42.819,0,0,0-4.748-.038v7.977c1.509,0,2.962.073,4.4-.026a2.5,2.5,0,0,0,2.23-1.317C933.5,294.194,933.137,293.255,931.676,292.279ZM928.324,290a5.251,5.251,0,0,1,1.664.1c.246.082.513.239.513.9,0,.45-.445.72-.774.841a4.456,4.456,0,0,1-1.4.034Zm2.217,5.325a6.849,6.849,0,0,1-2.209.132v-2.369a14.474,14.474,0,0,1,2.051.055,1.107,1.107,0,0,1,.775.94C931.158,294.919,930.849,295.22,930.542,295.328Z" transform="translate(-872.876 -288.689)" fill="#c30b0c"/>
      <path id="Path_21437" data-name="Path 21437" d="M944.968,291.6h-3.187v-2.818h-2.018v7.92h2.027v-3.47h3.36v3.488H947v-7.948h-2.03Z" transform="translate(-877.694 -288.72)" fill="#c30b0c"/>
      <path id="Path_21438" data-name="Path 21438" d="M861.749,288.789H857.86v1.182H859.7c0,1.488.03,2.89-.012,4.289A1.128,1.128,0,0,1,858.4,295.4c-.49-.015-.977-.112-1.506-.177v1.541h2.27a2.41,2.41,0,0,0,2.629-2.591c.008-1.594,0-3.188,0-4.782C861.8,289.185,861.765,288.981,861.749,288.789Z" transform="translate(-848.08 -288.725)" fill="#c30b0c"/>
      <path id="Path_21439" data-name="Path 21439" d="M957.357,288.779l0,0h-2.151l0,0c-.09.283-2.247,5.926-3.024,7.979.63,0,2.1-.021,2.1-.021l.749-1.792,1.25-.01,1.25.01.749,1.792s1.468.021,2.1.021C959.6,294.706,957.447,289.062,957.357,288.779Zm-.875,4.838h-1.037c.258-.743.57-1.648.837-2.421.268.773.58,1.678.838,2.421Z" transform="translate(-882.134 -288.72)" fill="#c30b0c"/>
      <path id="Path_21440" data-name="Path 21440" d="M882.274,288.775h-2.151l0,0c-.09.283-2.247,5.926-3.024,7.979.63,0,2.1-.021,2.1-.021l.749-1.792,1.25-.01,1.25.01.749,1.792s1.468.021,2.1.021c-.778-2.053-2.935-7.7-3.024-7.979Zm-.877,4.843h-1.036c.258-.743.57-1.648.837-2.421.268.773.58,1.678.838,2.421Z" transform="translate(-855.3 -288.72)" fill="#c30b0c"/>
      <path id="Path_21441" data-name="Path 21441" d="M848.349,288.775H846.2l0,0c-.09.283-2.247,5.926-3.025,7.979.631,0,2.1-.021,2.1-.021l.749-1.792,1.25-.01,1.25.01.749,1.792s1.468.021,2.1.021c-.777-2.053-2.934-7.7-3.024-7.979Zm-.877,4.843h-1.036c.258-.743.57-1.648.838-2.421.267.773.58,1.678.837,2.421Z" transform="translate(-843.176 -288.72)" fill="#c30b0c"/>
      <path id="Path_21442" data-name="Path 21442" d="M916.561,288.775H914.41l0,0c-.09.283-2.247,5.926-3.024,7.979.631,0,2.1-.021,2.1-.021l.749-1.792,1.25-.01,1.251.01.749,1.792s1.468.021,2.1.021c-.777-2.053-2.934-7.7-3.024-7.979Zm-.877,4.843h-1.037c.258-.743.57-1.648.837-2.421.268.773.58,1.678.838,2.421Z" transform="translate(-867.554 -288.72)" fill="#c30b0c"/>
      <path id="Path_21443" data-name="Path 21443" d="M870.418,291.838c-.553-.97-1.9-3.11-1.9-3.11s-1.418-.023-2.155-.023c.174.316,1.956,3.163,2.692,4.411a2.77,2.77,0,0,1,.344,1.184c.053.794.015,1.593.015,2.407h2c0-.814-.037-1.614.015-2.407a2.761,2.761,0,0,1,.345-1.184c.736-1.248,2.518-4.095,2.691-4.411-.737,0-2.155.023-2.155.023S870.972,290.868,870.418,291.838Z" transform="translate(-851.463 -288.695)" fill="#c30b0c"/>
    </g>
    <path id="Path_21444" data-name="Path 21444" d="M835.733,296.707s1.455.019,2.338.019l-2.637-3.374a12.3,12.3,0,0,0,.949-.85,2.222,2.222,0,0,0,.43-2.333,1.943,1.943,0,0,0-1.708-1.434c-1.627-.089-3.263-.026-4.9-.026v7.961h2.02v-2.7h1.607C834.348,294.773,835.733,296.707,835.733,296.707Zm-3.506-6.557a15.079,15.079,0,0,1,1.867,0c.305.04.725.158.746,1.067a1.135,1.135,0,0,1-1.1,1.049,12.141,12.141,0,0,1-1.511.013Z" transform="translate(-1.714 -26.432)" fill="#c30b0c"/>
    <path id="Path_21445" data-name="Path 21445" d="M904.886,291.891a15.355,15.355,0,0,1-1.923-.524c-.321-.127-.738-.447-.785-.734-.091-.551.443-.751.892-.816a3.874,3.874,0,0,1,2.738.533c.169.109.347.2.725.423,0-.668.021-1.114-.013-1.555a.5.5,0,0,0-.27-.356,6.441,6.441,0,0,0-5.053.026,2.157,2.157,0,0,0-1.321,2.1A2.049,2.049,0,0,0,901.408,293c.807.28,1.651.464,2.439.787.344.141.911.4.876.8s-.608.585-1,.654a4.881,4.881,0,0,1-3.734-1.1v1.966a.865.865,0,0,0,.639.258,36.054,36.054,0,0,0,4.038.19,2.328,2.328,0,0,0,2.157-2.492C906.878,292.947,906.234,292.227,904.886,291.891Z" transform="translate(-26.614 -26.314)" fill="#c30b0c"/>
  </g>
</svg>
