<svg xmlns="http://www.w3.org/2000/svg" width="262" height="70" viewBox="0 0 262 70">
  <defs>
    <clipPath id="clip-engineeringforchange_logo">
      <rect width="262" height="70"/>
    </clipPath>
  </defs>
  <g id="engineeringforchange_logo" data-name="engineeringforchange logo" clip-path="url(#clip-engineeringforchange_logo)">
    <g id="Group_2939" data-name="Group 2939" transform="translate(6 2)">
      <g id="Group_2937" data-name="Group 2937">
        <path id="Path_21772" data-name="Path 21772" d="M664.5,339.118a4.469,4.469,0,0,0-3.909,2.892,10.351,10.351,0,0,0-.669,2.569,77.871,77.871,0,0,0,.024,13.137,5.232,5.232,0,0,0,5.226,4.928c1.405.044,2.815-.039,4.219.031,2.424.123,2.411.138,2.359-2.286-.015-.681-.211-.866-.872-.844-1.448.048-2.9.015-4.348.015-2.009,0-2.927-.77-3.008-2.76-.088-2.124-.02-4.255-.02-6.384,0-1.916-.041-3.833.014-5.746a2.553,2.553,0,1,1,5.094-.016c.053.807-.048,1.627.04,2.428.125,1.145-.237,1.543-1.448,1.488-2.238-.1-2.2-.025-2.189,2.17.005.759.266.912.955.9,1.746-.044,3.5-.036,5.241,0,.626.011.935-.109.906-.831-.08-2,.033-4-.112-6C671.625,339.5,668.231,338.688,664.5,339.118Z" transform="translate(-588.716 -333.138)" fill="#08537b"/>
        <path id="Path_21773" data-name="Path 21773" d="M615.444,344.67a6.028,6.028,0,0,0-1.237-3.676c-1.958-2.357-4.547-2.233-7.14-1.648-2.564.578-3.377,2.686-3.631,4.975a71.373,71.373,0,0,0-.013,13.528,5.185,5.185,0,0,0,5.067,4.79c1.492.055,2.988-.025,4.477.053,2.279.12,2.243.156,2.252-2.143,0-.767-.162-1.041-.981-1-1.447.075-2.9.024-4.35.021-1.876,0-2.612-.692-2.9-2.611-.4-2.633-.116-5.279-.2-7.917a28.189,28.189,0,0,1,.243-4.848,2.536,2.536,0,0,1,2.379-2.261,2.418,2.418,0,0,1,2.488,1.946c.4,1.211.134,2.455.247,3.678.07.768-.157,1.014-.972,1.012-2.744,0-2.744.038-2.634,2.8.248.526.677.182,1.027.216l4.859,0c.858.181,1.29.039,1.207-1.041C615.479,348.594,615.544,346.627,615.444,344.67Z" transform="translate(-603.108 -333.146)" fill="#08537b"/>
        <path id="Path_21774" data-name="Path 21774" d="M638.468,339.325c-1.015-.026-1.372.28-1.213,1.247q-.117.032-.237.057c-1.2-1.916-3.094-1.78-4.885-1.462a4.294,4.294,0,0,0-3.529,3.747,53.607,53.607,0,0,0-.193,15.258c.385,3.431,3.419,5.058,6.563,3.911,1.408-.278.621-1.423.82-2.165.109-.406-.08-.716-.657-.523a2.557,2.557,0,0,1-2.71-.891,7.634,7.634,0,0,1-.563-2.271q-.006-5.38-.01-10.759c.3-2.8.948-3.587,3.115-3.8a1.033,1.033,0,0,0,.776.225l.747.557.764,1.278.069.468a1.056,1.056,0,0,0,.163.787q.038,1.014.078,2.029c0,.342,0,.684,0,1.026q-.009,9.339-.018,18.679a5.358,5.358,0,0,1-1.059,3.028,5.59,5.59,0,0,1-2.827.561c-1.144-.051-2.294.014-3.44-.039-.635-.029-.966.1-.884.815a5.334,5.334,0,0,1,0,1.272c-.1.76.267.932.945.928,1.316-.009,2.636.133,3.944.054a7.853,7.853,0,0,0,4.576-1.266,1.717,1.717,0,0,0,1-1,3.606,3.606,0,0,0,1.07-2.1,34.664,34.664,0,0,0,.253-3.553q-.024-11.735-.006-23.468C641.122,339.339,641.121,339.394,638.468,339.325ZM631.6,351.848l-.008,0v-.02Zm-.215-3.8h-.172a.38.38,0,0,0,.172-.014v.014Zm-.34,4.37a2.391,2.391,0,0,1,.129.276C630.989,352.7,631,352.566,631.05,352.412Z" transform="translate(-596.782 -333.148)" fill="#08537b"/>
        <path id="Path_21775" data-name="Path 21775" d="M708.933,339.413a4.757,4.757,0,0,0-5.231.705,1.616,1.616,0,0,0-.8.955c-.715-.378.36-1.519-.679-1.69a12.822,12.822,0,0,0-2.13-.021c-.167,0-.333.029-.5.044-.26.016-.6-.253-.736.2a2.432,2.432,0,0,0-.055.376q.025,11.069.054,22.139a5.192,5.192,0,0,0,3.519,0q.025-7.7.046-15.392a7.572,7.572,0,0,1,.766-3.8,2.709,2.709,0,0,1,3.031-.735c1.115.408,1.317,1.453,1.38,2.512.05.848.147,1.7.149,2.544.015,4.559.045,9.119-.02,13.677-.016,1.135.236,1.526,1.438,1.468,2.212-.107,2.217-.029,2.216-2.19,0-5.325.051-10.652-.043-15.976C711.31,342.326,711.034,340.27,708.933,339.413Z" transform="translate(-578.75 -333.157)" fill="#08537b"/>
        <path id="Path_21776" data-name="Path 21776" d="M724.3,339.853c.107-.424-.128-.508-.481-.5a15.509,15.509,0,0,1-2.036-.015c-.918-.112-1.5.094-1.347,1.272-1.81-1.637-3.323-1.975-5.343-1.292-.666.222-1.386.35-1.794,1.025a4.58,4.58,0,0,0-1.514,3.352,6.191,6.191,0,0,0-.256,1.1,101.358,101.358,0,0,0,.04,12.725,5.652,5.652,0,0,0,1.736,3.848c.051.273.268.253.468.265a2.869,2.869,0,0,0,1.843.706,7.373,7.373,0,0,0,2.269-.066c1.6-.26,1.28-1.49,1.207-2.453-.087-1.165-.912,0-1.35-.282-.2-.128-.489-.1-.73-.166-1.681-.477-1.82-1.928-1.854-3.264-.087-3.526-.069-7.055-.028-10.583a4.564,4.564,0,0,1,1.256-3.356c1.562-.687,2.582-.507,3.5.542.464.531.47,1.237.82,1.8l.035,23.243a3.237,3.237,0,0,1-2.1,2.544c-1.441,0-2.883.009-4.324.005-1.692,0-1.692-.008-1.68,1.745a1.561,1.561,0,0,1,0,.253c-.128.814.271,1.01,1.017.989,1.312-.036,2.63.075,3.939.01,1.68-.084,3.38-.2,4.725-1.43a.694.694,0,0,0,.493-.447c1.346-1.076,1.46-2.629,1.483-4.149.061-4.25.055-8.5.051-12.755C724.345,349.629,724.315,344.741,724.3,339.853Z" transform="translate(-575.558 -333.147)" fill="#08537b"/>
        <path id="Path_21777" data-name="Path 21777" d="M693.8,339.726c.065-.588-.221-.714-.75-.693a3.928,3.928,0,0,0-3.668,2.253v.014a2.749,2.749,0,0,0-.714,1.35c-.385-.124-.314-.455-.332-.74,0-.048,0-.08-.009-.127a6.845,6.845,0,0,0-.1-1.133c-.005-.035-.009-.075-.013-.108a4.011,4.011,0,0,1-.038-.6c.006-.277-.258-.4-.524-.473a3.331,3.331,0,0,0-1.206-.144c-.243-.008-.518-.013-.834-.019-.975-.02-1.2.271-1.2,1.213.041,6.338.021,12.678.021,19.017,0,2.995,0,2.971,2.978,2.831.637-.029.769-.237.764-.818-.033-3.743-.034-7.487-.045-11.229a28.549,28.549,0,0,1,.3-3.811,4.124,4.124,0,0,1,3.3-3.435c.68-.178,1.646.225,1.985-.443a5.294,5.294,0,0,0,.076-2.144C693.795,340.237,693.77,339.978,693.8,339.726Z" transform="translate(-582.414 -333.135)" fill="#08537b"/>
        <path id="Path_21778" data-name="Path 21778" d="M696.642,340.455c.01-1.079-.356-1.228-1.28-1.208-2.272.05-2.278.011-2.272,2.246q.026,10.278.06,20.559c.9.527,1.862.148,2.794.2h.256c.762-.135.39-.739.393-1.1C696.618,354.249,696.58,347.352,696.642,340.455Z" transform="translate(-580.205 -333.08)" fill="#08537b"/>
        <path id="Path_21779" data-name="Path 21779" d="M684.229,344.708c-.193-2.134-.753-4.117-2.869-5.019a6.988,6.988,0,0,0-6.918.368,3.258,3.258,0,0,0-1.616,2.061,6.366,6.366,0,0,0-.662,2.422,75.784,75.784,0,0,0,.047,13.242,4.751,4.751,0,0,0,1.168,2.831l.241.263a2.716,2.716,0,0,0,1.62,1.227,4.294,4.294,0,0,0,2.43.57c1.317.011,2.637-.038,3.952.023,2.448.112,2.421.137,2.369-2.267-.014-.644-.151-.893-.846-.866-1.4.054-2.8.018-4.205.014-2.231,0-2.873-.565-3.239-2.824-.018-3.577-.05-7.155-.043-10.731a6.167,6.167,0,0,1,.616-3.082c1.339-1.144,2.434-1.295,3.478-.5a3.383,3.383,0,0,1,1.159,2.545l-.075,3.563c-.512,0-1.024.009-1.536.009-2.045,0-2,0-2.027,2.11-.01.787.185,1.024.985.995,1.746-.065,3.5-.038,5.246-.013.6.009.908-.061.867-.808C684.257,348.8,684.415,346.753,684.229,344.708Zm-9.482,1.389-.025.008v-.035l.015-.013Zm6.889,3.213.015.023-.016,0v-.006Z" transform="translate(-585.6 -333.155)" fill="#08537b"/>
        <path id="Path_21780" data-name="Path 21780" d="M644.305,339.263l-2.735.049c-.529.331-.228.848-.231,1.257-.025,6.344-.017,12.688-.017,19.032,0,2.867,0,2.843,2.821,2.712.635-.029.773-.236.77-.82q-.045-10.856-.055-21.711C645.007,339.254,644.657,339.258,644.305,339.263Z" transform="translate(-593.398 -333.076)" fill="#08537b"/>
        <path id="Path_21781" data-name="Path 21781" d="M628.052,345.147a4.063,4.063,0,0,0-.105-.8l0-.019h0c-.006-.381.008-.764-.025-1.144-.242-2.864-1.662-4.1-4.53-4.166a5.4,5.4,0,0,0-4.07,2l-.143-1.425c-.882-.586-1.863-.1-2.785-.252-.745-.127-.931.241-.93.936q.026,10.662.006,21.327c0,.473,0,.891.67.715h.271a.323.323,0,0,1,.144-.059l-.144.059a8.9,8.9,0,0,1,1.145.053c.649.112,1.055.043,1.3-.223.2-.082.223-.272.227-.468a3.516,3.516,0,0,0,.078-.867c-.071-5.192,0-10.387.013-15.581a13.305,13.305,0,0,1,.3-1.347,2.4,2.4,0,0,1,2.641-1.857c1.359.04,1.878.921,2.126,2.075.079.366.1.746.147,1.12q-.019,7.222-.036,14.446a7.666,7.666,0,0,0,.129,2.007c-.005.262.013.522.4.5l.006,0a5.576,5.576,0,0,0,2.161.217c.866.006,1.06-.262,1.055-1.079-.034-5.327-.017-10.655-.028-15.981C628.068,345.263,628.057,345.205,628.052,345.147Zm-10.08,2.14c-.024,0-.021-.009,0,0Zm-.952-7.694c-.035.011-.07.02-.105.034v-.034Zm8.009,6.981v.043C625,346.623,625,346.6,625.028,346.575Z" transform="translate(-599.964 -333.139)" fill="#08537b"/>
        <path id="Path_21782" data-name="Path 21782" d="M659.581,344.636h0c-.008-.4.014-.8-.028-1.2-.186-1.74-.612-3.343-2.449-4.1a4.955,4.955,0,0,0-5.259.994h0l-.874.562c.437-1.587-.448-1.62-1.445-1.544a5.165,5.165,0,0,1-1.148,0c-1.093-.168-1.312.31-1.3,1.34.049,6.34.025,12.681.025,19.022,0,2.765,0,2.734,2.742,2.687.595-.01.82-.176.889-.6a1.049,1.049,0,0,0,.021-.247c0-.038.009-.061.009-.1-.01-5.486.016-10.973.031-16.461l.03-.516a4.107,4.107,0,0,1,1.561-2.287c2.392-.371,3.332.271,3.562,2.44.03.291.042.583.063.874q-.021,7.149-.041,14.3c-.005,2.6,0,2.554,2.548,2.6.942.019,1.227-.206,1.211-1.186-.062-3.7,0-7.405-.034-11.108A40.324,40.324,0,0,0,659.581,344.636Zm-11.039-5a2.7,2.7,0,0,0-.774.409v-.189A1.586,1.586,0,0,1,648.542,339.635Z" transform="translate(-591.917 -333.149)" fill="#08537b"/>
        <path id="Path_21783" data-name="Path 21783" d="M643.654,334.39a2.77,2.77,0,0,0-.381,0c-.468,0-.936.02-1.4-.006-.483-.026-.773.162-.672.65.141.686-.5,1.741.452,2a12.852,12.852,0,0,0,3.168.074c.2,0,.337-.088.337-.283a7.241,7.241,0,0,0-.086-2.257C644.925,334.134,644.145,334.458,643.654,334.39Z" transform="translate(-593.433 -334.33)" fill="#08537b"/>
        <path id="Path_21784" data-name="Path 21784" d="M696.508,334.45a14.483,14.483,0,0,0-3.185-.053c-.183,0-.364.068-.368.26a6.609,6.609,0,0,0,.063,2.153c.206.6.977.2,1.489.292a2.176,2.176,0,0,0,.384,0v-.01c.469,0,.938,0,1.406,0,.633.006.693-.44.61-.874C696.79,335.612,697.376,334.648,696.508,334.45Z" transform="translate(-580.254 -334.331)" fill="#08537b"/>
      </g>
      <g id="Group_2938" data-name="Group 2938" transform="translate(155.636 6.179)">
        <path id="Path_21785" data-name="Path 21785" d="M727.4,363.481a7.537,7.537,0,0,1,1.473-.708c1.056-.253,1.226-.9,1.2-1.876-.059-2.68,0-5.362-.03-8.043-.01-.891.3-1.383,1.234-1.367.468.014.936.047,1.4.038,1.781-.038,1.779.4,1.677-1.8.181-.527.152-.883-.565-.825-.662.054-1.33.043-1.995.06h0c-.581-.153-1.243.143-1.766-.32h0c.008-.721-.021-1.444.03-2.16.1-1.467-.285-2.957.217-4.4l1.02-.059h0c.851.014,1.707-.033,2.549.058,1.035.112,1.094-.463,1.039-1.229-.049-.68.241-1.477-.989-1.425-1.871.078-3.747.068-5.617,0-.834-.031-1.127.088-1.119,1.038.049,7.363.025,14.726.035,22.088C727.2,362.849,727.045,363.216,727.4,363.481Zm6.165-12.649c.074,0,.1-.044.065-.108-.073-.153.161.09-.009.123-.015,0-.03,0-.046,0l-.073-.013Z" transform="translate(-727.167 -339.217)" fill="#59b2cf"/>
        <path id="Path_21786" data-name="Path 21786" d="M744.814,358.816h0a.824.824,0,0,0,.207-.7q-.01-6.1-.025-12.189c0-.344-.009-.689-.012-1.032q-.021-.751-.04-1.5h0c-.193-1.794-.871-3.245-2.735-3.853h0c-.074-.12-.156-.161-.255-.024a4.118,4.118,0,0,0-2.3-.164,3.811,3.811,0,0,0-2.6,1.183,2.959,2.959,0,0,0-1.191,1.828h0a10.642,10.642,0,0,0-.315,2.009c.015,4.509-.005,9.018.019,13.526a3.658,3.658,0,0,0,.76,2.617,3.045,3.045,0,0,0,3.071,1.8h0C742.358,362.826,744.816,361.272,744.814,358.816Zm-.176-7.209.009.112c0,.1-.005.2-.006.3,0-.131-.008-.261,0-.391ZM741.82,357a3.206,3.206,0,0,1-.393,1.848,1.264,1.264,0,0,1-1.409.647,1.185,1.185,0,0,1-.935-1.085,7.746,7.746,0,0,1-.067-1.276c0-2.772.023-5.545-.009-8.318a44.037,44.037,0,0,0-.117-5.623.927.927,0,0,0-.243-.361,9.792,9.792,0,0,1,2.714-.723.877.877,0,0,0-.028.366,9.033,9.033,0,0,1,.494,2.5C741.813,348.978,741.825,352.988,741.82,357Z" transform="translate(-725.034 -339.256)" fill="#59b2cf"/>
        <path id="Path_21787" data-name="Path 21787" d="M754.852,348.1c.092-1.952.1-3.915.009-5.869-.084-1.882-.947-2.661-2.808-2.745-.763-.035-1.529,0-2.294,0l-2.046.005-.256,0c-1.1-.277-1.36.2-1.347,1.256.055,4.541.024,9.084.038,13.627.008,2.544.043,5.088.065,7.633h0a3.766,3.766,0,0,0,2.7,0c.148-3.325.09-6.65.033-9.975a1.75,1.75,0,0,1,2.65.5q.233,1.415.469,2.831a64.955,64.955,0,0,0,.033,6.65h0a3.836,3.836,0,0,0,2.708,0,54.618,54.618,0,0,0,.043-5.875v-.276h0a7.653,7.653,0,0,0-.212-3.091h0a2.42,2.42,0,0,0-1.571-2.165A2.339,2.339,0,0,0,754.852,348.1Zm-6.884,1.117h0c0-.013-.005-.026-.01-.039l.011,0a.357.357,0,0,1,0,.036l.005-.006ZM752,348.119a.946.946,0,0,1-.2,0c-.149.082-.276.2-.418.286-1.327.829-1.99.5-2.027-1.031-.026-1.1.009-2.2-.01-3.3a3.436,3.436,0,0,1,.4-1.9,1.893,1.893,0,0,0,1.855.218l.005.055c.166,1.058.029,2.134.191,3.194.153.27.12.676.277.942Q752.034,347.355,752,348.119Zm2.37,7.988v.015h-.019Z" transform="translate(-722.346 -339.216)" fill="#59b2cf"/>
        <path id="Path_21788" data-name="Path 21788" d="M789.8,371.183c1.14.059,2.313.391,3.421-.194-.009-1.577-.013-3.154-.03-4.73-.006-.46.054-.963-.488-1.217h0a2.934,2.934,0,0,0-1.52-2.8c-1.827-1.347-6.669-1.184-8.005,1.081a5.056,5.056,0,0,0-1.29,3.32,1.064,1.064,0,0,0-.231.833q.015,7.907.031,15.815,0,1.024,0,2.049c-.084,2.11.08,4.158,1.474,5.9h0a2.948,2.948,0,0,0,2.062,1.356h0c.182.292.665.025.79.424h2.3c.425-.413,1.066-.227,1.523-.551h0a4.727,4.727,0,0,0,2.908-3.268h0a5.153,5.153,0,0,0,.443-2.084c0-3.411-.023-6.822.028-10.233.009-.652-.169-.783-.76-.772-1.449.028-2.9.055-4.347-.035-.606-.039-1,.035-.809.659.3.989-.893,2.508.557,2.936,1.908.565,1.97.348,1.978,2.336,0,.425.028.851.041,1.276-.219,1.784.252,3.639-.552,5.362q-.5.416-1.011.831c-2.024.024-2.326-.223-2.653-2.243a9,9,0,0,1-.112-1.4q-.023-9.332-.029-18.666h0c.743-2.371.866-2.464,3.022-2.292a3.186,3.186,0,0,1,1.048,2.725c-.063.928-.018,1.864-.009,2.8C789.585,370.681,789.506,371.168,789.8,371.183Zm1.847,16.195-.006.006v-.014Zm-1.542,2.815.006,0-.006,0Zm0,.008c0,.013,0,.031,0,.045l-.015-.01C790.1,390.223,790.1,390.213,790.107,390.2Z" transform="translate(-713.297 -333.624)" fill="#59b2cf"/>
        <path id="Path_21789" data-name="Path 21789" d="M753.242,362.04h0a.584.584,0,0,0-.228-.065h-.023c-.637-.494-1.361-.163-2.045-.2h-.526c-.833-.157-1.035.287-1.03,1.016.026,3.491.033,6.983.045,10.474.02.739-.28,1.075-1.073,1a19.037,19.037,0,0,0-2.036.023c-1.2-.179-.587-1.177-.808-1.8h0c.016-3.325.026-6.65.055-9.975,0-.518-.144-.738-.708-.8-3.151-.341-3.2-.312-3.193,2.8,0,.255.014.511.021.766h0a2.163,2.163,0,0,0-.168,1.367q-.013,11.385-.008,22.77c0,3.116,0,3.094,3.186,3,.661-.02.877-.191.871-.864-.041-4.135-.043-8.271-.058-12.406-.048-1.113.718-1.032,1.468-1.024,2.687.031,2.394-.3,2.4,2.352q.024,5.858.069,11.715a.418.418,0,0,0,.247.105,11.755,11.755,0,0,0,2.476.124c.98.144,1.3-.2,1.292-1.238-.041-9.452-.021-18.9-.039-28.355C753.437,362.576,753.707,362.2,753.242,362.04Zm-11.266,29.391c-.01-.008-.011-.019-.021-.028h.021Zm.512-26.563v0c.008-.023.006-.045.015-.066l0-.011c.014-.016.021-.033.034-.049C742.528,364.782,742.5,364.824,742.488,364.868Zm.136-1.365-.005-.015c0-.068,0-.134.009-.2C742.623,363.358,742.624,363.431,742.623,363.5Zm.191,28.2-.053-.011.005-.006c.024,0,.049,0,.073-.006Zm1.721-.272c-.03.005-.061.005-.093.009a.876.876,0,0,0,.093-.089Zm6.4-28.656v-.008h-.256c0-.024.011-.04.015-.061a.273.273,0,0,0,.241.063h.026C750.951,362.771,750.942,362.771,750.933,362.775Zm.256.007c-.009,0-.018-.011-.026-.015h.026Zm2.02,29.148-.04-.04c.013-.006.028-.019.04-.026Z" transform="translate(-723.519 -333.576)" fill="#59b2cf"/>
        <path id="Path_21790" data-name="Path 21790" d="M803.158,388.619l-4.336-.055h0a2.9,2.9,0,0,1-.266-1.25q0-1.024-.005-2.046c.019-2.3.324-4.584.186-6.885.661-.477,1.424-.113,2.124-.258h0c.035.025.067.066.1.073,2.933.516,3.34.148,3.183-2.731-.038-.7-.261-.991-.983-.965-1.148.041-2.3-.02-3.448.021-.819.03-1.147-.275-1.127-1.112.038-1.488,0-2.978-.01-4.467.409-1.11.075-2.262.194-3.389h0l.034-.035h0c.468,0,.937.026,1.4-.01,1.364-.105,2.746.212,4.1-.142a.219.219,0,0,0,.265-.07h0a8.776,8.776,0,0,0-.141-3.555h0l-7.677.009c-.679.051-1.4-.33-2.029.223l-.009.513q0,14.46,0,28.919v.257h0q0,.128.007.256c.02.085.04.169.059.255h0c.352.36.8.186,1.2.188,2.115.02,4.229.009,6.344.01,2.318,0,2.246,0,2.346-2.327C804.725,388.819,804.411,388.3,803.158,388.619Zm.251-23.34v0h-.005Zm-.24-.753,0,.009h0v-.011Zm-.272,26.882.01-.021v.021Z" transform="translate(-709.974 -333.551)" fill="#59b2cf"/>
        <path id="Path_21791" data-name="Path 21791" d="M740.464,367.556c-.218-1.541-.181-3.253-1.741-4.273-1.454-2.143-6.16-2.562-8.558-.762h0a1.1,1.1,0,0,0-.745.413c-1.891,1.822-2.108,4.225-2.146,6.6-.088,5.406-.077,10.815,0,16.221.025,1.62.006,3.34,1.212,4.693.048.27,2.252,2.35,4.068,2.35h0a15.171,15.171,0,0,0,2.571,0h0l1.531-.549,1.357-.721c1.551-.946,1.981-2.49,2.209-4.142.552-2.458.183-4.944.235-7.417h0a.325.325,0,0,0-.186-.068,9.312,9.312,0,0,0-2.825-.112h0l-.533-.051-.255.01c-.433.462-.11,1.016-.187,1.522q-.017,2.027-.033,4.053,0,.649,0,1.3h0c-.358,2.34-1.327,3.032-3.629,2.594a2.361,2.361,0,0,1-1.335-1.595,15.831,15.831,0,0,1-.221-2.282q.022-7.864.043-15.727c0-.25.033-.519-.238-.679l-.045.04h-.026l.071-.039c.167-.777.29-1.566.509-2.326a2.3,2.3,0,0,1,2.637-1.645,7.639,7.639,0,0,0,1.113.191A3.658,3.658,0,0,1,736.458,368c-.038,1.192.06,2.391-.026,3.578-.073,1.01.232,1.428,1.255,1.185.631.014,1.266-.011,1.892.051.856.088,1.029-.326.876-1.048V371h0A22.93,22.93,0,0,0,740.464,367.556Zm-1.271,21.307,0,.008-.006-.006Zm-1.772-1.993,0,.016a.185.185,0,0,1-.033.014A.216.216,0,0,0,737.422,386.869Zm-5.374,2.562v.069l-.114-.035C731.971,389.451,732.007,389.446,732.047,389.431Zm-1.28-4.1v-.015l.011.015Zm0-16.379h0l0-.063a.453.453,0,0,0,.086.068C730.824,368.96,730.8,368.956,730.769,368.956Zm6.689.063v-.005l.014.028Zm.122,1.769c-.01-.061-.009-.12-.014-.182l.023-.083a.946.946,0,0,0,.069.2C737.663,370.737,737.587,370.888,737.58,370.788Zm1.3-4.806a.563.563,0,0,1,.011-.1.728.728,0,0,0,0,.1Zm1.058,5.408v-.011c.041,0,.086,0,.127.005C740.025,371.391,739.98,371.386,739.938,371.39Z" transform="translate(-727.156 -333.622)" fill="#59b2cf"/>
        <path id="Path_21792" data-name="Path 21792" d="M780.613,362.649c.039-.843-.292-1.065-1.043-.9h-.507c-.743.043-1.531-.334-2.214.245h0q.077,6.517.155,13.032.017,1.024.034,2.047a6.867,6.867,0,0,0,.053,2.047h0c-.092,1.03.5,2.078-.083,3.095h0c-.833-1.623-.817-3.481-1.43-5.165h0q-.324-1.391-.643-2.783-.787-3.446-1.574-6.891h0l-.2-.541a10.163,10.163,0,0,0-.735-3.081c-.2-.916.261-2.34-1.552-2.007l-2.062,0c-.854-.192-1.174.147-.985.992h.227v0a.326.326,0,0,0-.227,0q0,8.316-.007,16.631-.009,6.016-.021,12.033c.046.361-.3.965.418.946a8.161,8.161,0,0,0,3.094-.181h0a51.086,51.086,0,0,0,.03-5.629l-.054-.292a35.659,35.659,0,0,0-.06-3.8c-.129-1.7-.094-3.417-.129-5.126h0l-.011-2.539q0-.873.006-1.744c.169-.6-.193-1.267.251-1.827q.676,2.67,1.35,5.34a12.468,12.468,0,0,0,.717,3.082h0c.645,4.116,1.734,8.139,2.559,12.218.143.709.635.512,1.078.488.723.012,1.451-.033,2.164.051,1.045.122,1.362-.228,1.356-1.313-.044-7.906-.019-15.811-.015-23.717h0C780.566,365.791,780.541,364.218,780.613,362.649Zm-9.743,29.268-.041-.023c.015.006.03.01.046.018Zm0-2.557v.019l-.073-.084a.148.148,0,0,0,.028-.019c.019.02.035.04.057.059C770.874,389.343,770.874,389.351,770.868,389.36Zm1.553-19.187a.349.349,0,0,1-.009-.034l.005-.014c.01.021.023.041.034.063A.223.223,0,0,0,772.421,370.173Zm6.636,9.2c-.035,0-.071-.014-.108-.02.035-.025.072-.051.108-.079Z" transform="translate(-716.837 -333.552)" fill="#59b2cf"/>
        <path id="Path_21793" data-name="Path 21793" d="M766.958,386.779h0a6.327,6.327,0,0,0-.311-2.279q-.281-2.042-.561-4.082c-.277-.662.009-1.439-.42-2.07a34.4,34.4,0,0,0-.662-4.624q-.1-.745-.193-1.49h0q-.224-1.165-.447-2.331a1.871,1.871,0,0,0-.223-1.349h0a29.589,29.589,0,0,0-.705-5c-.346-1.857-.369-1.853-2.287-1.854-2.784,0-2.784,0-3.164,2.831q-.118.9-.234,1.8h0a30.409,30.409,0,0,0-.523,4.083l-.049.5a38.141,38.141,0,0,0-.857,5.506c-.424,3.022-.979,6.028-1.194,9.078a10.408,10.408,0,0,0-.45,2.835c-.047.6-.4,1.165-.253,1.8l-.029.5c-.113.591-.8,1.474.187,1.659a5.677,5.677,0,0,0,3.318-.129h0l.034-.247c0-.172.008-.345.011-.517l.538-4.361c1.577-.819,3.209-.493,4.837-.231q.314,2.3.627,4.594h0c.054.693.334,1.06,1.122.98.75-.075,1.513-.014,2.269-.02.279,0,.685.082.562-.408C767.473,390.248,767.509,388.46,766.958,386.779Zm-7-3.58c.023,0,.045,0,.068.011h0v.034C760,383.23,759.978,383.211,759.954,383.2Zm-.743-.1c.284-.611,1.682-14.333,1.819-15.467-.019.93,1.561,15.057,1.547,15.311A24.948,24.948,0,0,1,759.212,383.1Z" transform="translate(-720.322 -333.545)" fill="#59b2cf"/>
      </g>
    </g>
  </g>
</svg>
