<svg xmlns="http://www.w3.org/2000/svg" xmlns:xlink="http://www.w3.org/1999/xlink" width="185" height="59" viewBox="0 0 185 59"><defs><clipPath id="clip-path"><rect id="Rectangle_1256" data-name="Rectangle 1256" width="158.964" height="33.089" fill="none"></rect></clipPath><clipPath id="clip-moneycontrol_logo"><rect width="185" height="59"></rect></clipPath></defs><g id="moneycontrol_logo" clip-path="url(#clip-moneycontrol_logo)"><g id="Group_4851" data-name="Group 4851" transform="translate(12.008 12.955)"><g id="Group_4829" data-name="Group 4829" transform="translate(0 0)" clip-path="url(#clip-path)"><path id="Path_25216" data-name="Path 25216" d="M113.788,1.615c0-1.157-.351-1.348-1.415-1.348Q73.192.314,34,.3a2.489,2.489,0,0,0-1.427.173,2.4,2.4,0,0,0-.445,1.761q0,12.507.007,25.014c0,.609-.077,1.261.46,1.737.351.024.705.07,1.061.07q39.452,0,78.9.026c1.02,0,1.227-.282,1.22-1.251q-.058-13.106.01-26.212M44.274,19.089c-1.117,2.072-3.366,2.979-6.062,2.529A5.837,5.837,0,0,1,33.638,17C32.981,13,35.561,9.825,39.452,9.83a5.112,5.112,0,0,1,4.9,2.806c.32.6.419,1.052-.428,1.251-.987.231-1.923,1.03-2.717-.537-.45-.886-1.648-.9-2.657-.558a2.943,2.943,0,0,0-1.961,3,2.971,2.971,0,0,0,2,2.989,2.687,2.687,0,0,0,3.229-1.136c.914-1.189,1.735.017,2.522.217.907.231.118.886-.065,1.225M52,21.722a5.674,5.674,0,0,1-5.92-5.934,5.908,5.908,0,1,1,11.815-.029A5.684,5.684,0,0,1,52,21.722M70.65,20.677c.007.5-.14.667-.664.717-2.426.236-2.423.257-2.423-2.183,0-1.242.007-2.483,0-3.725-.014-2.043-.664-2.931-2.1-2.89-1.355.041-2.041.982-2.055,2.851-.012,1.6-.063,3.2.019,4.789.048.965-.3,1.271-1.2,1.153a5.652,5.652,0,0,0-1.194,0c-.6.046-.746-.241-.746-.792.017-3.2.034-6.389,0-9.584-.012-.748.306-.97.941-.842.8.161,2.033-.667,2.2,1.02a4.554,4.554,0,0,1,2.916-1.316,3.786,3.786,0,0,1,4.259,3.756c.125,2.344.034,4.7.055,7.051m8.456.794a3.513,3.513,0,0,1-4.62-3.044,25.168,25.168,0,0,1-.014-2.522h-.034c0-.486-.034-.977.01-1.461.089-1.03.041-1.887-1.391-1.607-.448.089-.647-.154-.614-.606.07-.938-.469-2.1,1.249-2.267.941-.089,1.124-1.095,1.013-1.911-.214-1.583.864-1.208,1.74-1.311,1.222-.142,1.117.623,1.088,1.393a6.232,6.232,0,0,1-.007.794c-.161.979.2,1.42,1.208,1.227,1.121-.212,1.085.517,1.037,1.268-.041.688.284,1.641-1.015,1.42-.987-.166-1.331.2-1.244,1.218a28.8,28.8,0,0,1,.014,3.318c-.034,1.011.424,1.5,1.41,1.465.484-.017.979-.038.816.628s.594,1.644-.645,2m9.95-8.716c.007.484-.431.315-.712.339-2.279.193-3.039,1-3.058,3.273-.01,1.374-.036,2.748.012,4.12.022.681-.166.9-.881.914-2.233.043-2.233.079-2.233-2.106,0-2.392-.024-4.784.007-7.176.022-2.269-.407-1.908,1.939-1.971.772-.022,1.413.014.931,1.357a13.576,13.576,0,0,1,1.384-1.025c.763-.4,1.81-.741,2.392-.253.655.546.2,1.66.219,2.527m7.233,8.968a5.7,5.7,0,0,1-5.975-5.888,5.908,5.908,0,1,1,11.815-.125,5.683,5.683,0,0,1-5.84,6.013m11.363-1.02c0,.525-.2.647-.7.691-2.426.214-2.423.231-2.423-2.18V12.96c0-2.308.058-4.615-.029-6.918-.036-1.044.315-1.35,1.28-1.213a5.652,5.652,0,0,0,1.194,0c.532-.039.679.2.676.7q-.018,7.584,0,15.169" transform="translate(45.176 0.376)" fill="#00649f"></path><path id="Path_25217" data-name="Path 25217" d="M77.748.843a1.473,1.473,0,0,0-.366.077c-6.437,3.294-13.3,3.718-20.333,3.061C49.811,3.3,42.7,1.767,35.5.838A88.2,88.2,0,0,0,1.22,2.756C.246,3.014.007,3.425.012,4.373.046,13.067.063,21.761,0,30.455c-.01,1.311.31,1.408,1.468,1.09A77.9,77.9,0,0,1,18.1,28.92c9.221-.479,18.3.7,27.365,2.219C52.234,32.27,59,33.555,65.926,32.92A27.545,27.545,0,0,0,77.77,29.356L77.748.843M22.439,21.773c-2,.012-2,.048-2-1.923,0-1.509.026-3.015-.007-4.524-.036-1.55-.715-2.339-1.947-2.356a2.087,2.087,0,0,0-2.127,2.24c-.079,1.814-.079,3.636-.022,5.45.029.881-.253,1.213-1.119,1.1a4.122,4.122,0,0,0-1.061,0c-.734.094-.89-.248-.876-.914.036-1.817.024-3.636.007-5.453-.014-1.61-.715-2.44-2-2.423-1.266.017-2.029.886-2.053,2.421-.026,1.773-.043,3.547.01,5.32.024.8-.212,1.157-1.042,1.049a3.336,3.336,0,0,0-.929,0c-.922.137-1.206-.209-1.184-1.155.065-2.746.022-5.5.022-8.246,0-1.867,0-1.826,1.935-1.848.732-.01,1.182.1,1.03,1.013,2.628-1.8,3.84-1.771,6.382.128.424.315.529.017.729-.18a4.266,4.266,0,0,1,5.032-.84c1.79.768,2.216,2.385,2.195,4.189-.026,1.995-.038,3.992.01,5.985.019.763-.236.963-.977.967m9.1.325a5.774,5.774,0,0,1-5.929-5.975,5.76,5.76,0,0,1,5.977-5.92,5.751,5.751,0,0,1,5.92,5.968A5.761,5.761,0,0,1,31.535,22.1m17.617-.337a4.122,4.122,0,0,0-1.061,0c-.751.089-1-.193-.982-.96.053-1.773.026-3.549.014-5.323-.012-1.629-.657-2.45-1.935-2.5-1.3-.053-2.17.84-2.223,2.433q-.09,2.66,0,5.323c.026.83-.262,1.22-1.047,1-.679-.188-1.925.679-1.973-.679-.12-3.28-.038-6.564-.043-9.849,0-.4.058-.693.563-.679.621.022,1.244.026,1.862,0,.758-.034.433.6.645,1.054a4.365,4.365,0,0,1,5.133-.922c1.754.825,2.113,2.512,2.139,4.266.031,1.908-.031,3.816.026,5.722.026.861-.219,1.242-1.114,1.112m14.474-5.378c-.1.6-.445.553-.84.556-1.107,0-2.216,0-3.323,0-.977,0-1.952-.01-2.926,0-1.076.014-1.227.31-.662,1.242a2.919,2.919,0,0,0,4.577.373,2.388,2.388,0,0,1,2.75-.051c.356.373,0,.664-.135.943A5.514,5.514,0,0,1,56.5,21.87a6.047,6.047,0,0,1-3.643-8.095,5.75,5.75,0,0,1,7.717-3.119,5.665,5.665,0,0,1,3.049,5.727m12.645-4.55c-1.887,4.189-3.865,8.343-5.645,12.578-.614,1.461-1.376,2.118-2.931,1.822a7.175,7.175,0,0,0-1.181-.01c.777-1.723,1.434-3.309,2.207-4.837a2.077,2.077,0,0,0-.043-2.089c-1.432-2.835-2.8-5.7-4.269-8.7,3.333-.209,3.333-.207,4.63,2.611.546,1.182,1.1,2.358,1.785,3.824.806-1.906,1.557-3.489,2.139-5.133.385-1.09.953-1.576,2.118-1.381a9.542,9.542,0,0,0,1.574.014c.113.561-.207.914-.383,1.3" transform="translate(0 0)" fill="#53a72f"></path><path id="Path_25218" data-name="Path 25218" d="M63.317,8.588A2.893,2.893,0,1,1,57.569,8.5a2.888,2.888,0,1,1,5.749.089" transform="translate(80.958 7.571)" fill="#0164a0"></path><path id="Path_25219" data-name="Path 25219" d="M44.94,8.575a2.9,2.9,0,1,1-5.758-.065,2.892,2.892,0,1,1,5.758.065" transform="translate(55.101 7.572)" fill="#0164a0"></path><path id="Path_25220" data-name="Path 25220" d="M25.409,7.451a8.551,8.551,0,0,1-1.054-.007c-.4-.053-.982.265-1.181-.229s.262-.9.594-1.234a2.61,2.61,0,0,1,3.922.349c.378.642.508,1.182-.568,1.126-.568-.029-1.141,0-1.713,0" transform="translate(32.523 7.392)" fill="#54a831"></path><path id="Path_25221" data-name="Path 25221" d="M17.6,8.621a2.838,2.838,0,0,1-2.839,3.135A2.876,2.876,0,0,1,11.934,8.6,2.909,2.909,0,0,1,14.85,5.385c1.656.046,2.765,1.35,2.753,3.236" transform="translate(16.783 7.572)" fill="#53a82f"></path></g></g></g></svg>