<svg xmlns="http://www.w3.org/2000/svg" xmlns:xlink="http://www.w3.org/1999/xlink" width="61" height="59" viewBox="0 0 61 59"><defs><clipPath id="clip-path"><rect id="Rectangle_1258" data-name="Rectangle 1258" width="39.23" height="45.528" fill="none"></rect></clipPath><clipPath id="clip-sonyentertaiment_logo"><rect width="61" height="59"></rect></clipPath></defs><g id="sonyentertaiment_logo" clip-path="url(#clip-sonyentertaiment_logo)"><g id="Group_4854" data-name="Group 4854" transform="translate(11 7)"><g id="Group_4833" data-name="Group 4833" transform="translate(0.001 0)" clip-path="url(#clip-path)"><path id="Path_26646" data-name="Path 26646" d="M0,45.494V.012A.027.027,0,0,1,.034.025a.282.282,0,0,1,.02.122V45.2c0,.265-.024.239.243.239H38.908c.265,0,.243.024.243-.239V.271a.524.524,0,0,1,.027-.254.023.023,0,0,1,.035,0,.8.8,0,0,1,0,.126V45.357a.62.62,0,0,0,0,.064c.013.071-.024.091-.088.084a.424.424,0,0,0-.053,0Q19.6,45.5.123,45.5A.249.249,0,0,1,0,45.494" transform="translate(0.001 0.009)" fill="#d6bd7a"></path><path id="Path_26647" data-name="Path 26647" d="M0,45.5H39.059c.146,0,.146,0,.146-.148V.024C39.2.015,39.2.008,39.2,0s.024-.011.024.011V45.43c0,.077-.015.1-.1.1q-19.514,0-39.04,0c-.029,0-.071.024-.091-.02" transform="translate(0.001 0)" fill="#fefefe"></path><path id="Path_26648" data-name="Path 26648" d="M39.208,0l0,.022h-.018a.146.146,0,0,1-.108.031c-.044,0-.088,0-.135,0Q19.6.055.265.053A.38.38,0,0,1,.024.022L0,.02S-.009,0,.011,0h39.2Z" transform="translate(0 -0.001)" fill="#e2d0a1"></path><path id="Path_26649" data-name="Path 26649" d="M.012.012l.135,0H39.039l.137,0V45.295c0,.2.027.175-.177.175H.189a.4.4,0,0,0-.073,0c-.082.011-.117-.02-.106-.1a.4.4,0,0,0,0-.073q0-22.573,0-45.148V.012" transform="translate(0.01 0.011)" fill="#ceaf5e"></path><path id="Path_26650" data-name="Path 26650" d="M33.925,17.24v8.375q0,1.937,0,3.874c0,.093-.024.115-.115.117-2.132.04-4.264.007-6.4.015-.04,0-.1.031-.122-.042-.024-.044,0-.08.022-.117a2.286,2.286,0,0,0,.033-1.851,2.47,2.47,0,0,0-.692-.9,6.327,6.327,0,0,0-1.72-1,22.209,22.209,0,0,0-2.64-.869c-1.039-.285-2.085-.537-3.131-.792-1.21-.3-2.415-.6-3.609-.942a32.623,32.623,0,0,1-4.219-1.495,18.2,18.2,0,0,1-2.709-1.468,13.4,13.4,0,0,1-1.555-1.205,10.443,10.443,0,0,1-2.18-2.718A10.163,10.163,0,0,1,4,14.045a12,12,0,0,1-.365-1.871c-.038-.336-.062-.677-.073-1.015-.007-.248-.02-.493-.015-.741a12.612,12.612,0,0,1,1.035-4.98,9.146,9.146,0,0,1,.427-.86c.015-.029.029-.062.069-.071a.193.193,0,0,1,.122-.02H33.611a2.007,2.007,0,0,0,.259.02c.038,0,.057.018.055.057l0,.04q0,3.413,0,6.827a.194.194,0,0,1-.13.024q-3.606,0-7.211,0c-.155,0-.166-.015-.168-.175a3.881,3.881,0,0,0-.4-1.709,2.719,2.719,0,0,0-1.3-1.272,8.618,8.618,0,0,0-2.645-.747A9.8,9.8,0,0,0,20.48,7.5a7.311,7.311,0,0,0-1.99.307,2.758,2.758,0,0,0-1.2.7A1.788,1.788,0,0,0,16.8,9.673a2.332,2.332,0,0,0,.988,2.021,6.849,6.849,0,0,0,1.681.951,22.3,22.3,0,0,0,2.625.88c.933.263,1.873.5,2.813.734,1.36.343,2.72.69,4.067,1.086a33.808,33.808,0,0,1,4.049,1.448c.265.117.533.234.792.372a.29.29,0,0,1,.111.075" transform="translate(4.301 5.434)" fill="#ebd176"></path><path id="Path_26651" data-name="Path 26651" d="M8.748,4.508A11.594,11.594,0,0,0,7.5,7.907a13.21,13.21,0,0,0-.219,1.72,14.133,14.133,0,0,0-.013,1.758A10.811,10.811,0,0,0,9.15,17.113a11.367,11.367,0,0,0,2.6,2.612,18.158,18.158,0,0,0,3.841,2.1,38.884,38.884,0,0,0,4.854,1.586c1.517.4,3.047.756,4.571,1.146.938.239,1.873.489,2.789.812a9.375,9.375,0,0,1,2.105.986,3.277,3.277,0,0,1,.907.847,2.236,2.236,0,0,1,.2,2.253c-.015.042-.035.082-.053.124-.022.022-.042.044-.08.04a.4.4,0,0,0-.073,0h-10.6c-.148,0-.148,0-.148-.144V26a.236.236,0,0,0-.011-.124.462.462,0,0,1-.124.011q-5.327,0-10.657,0c-.613,0-1.227.009-1.842.015-.139,0-.146.009-.146.15v3.375c0,.064.015.133-.038.188-.823-.007-1.645-.007-2.468-.022s-1.639,0-2.459-.02c-.551-.013-1.1-.011-1.656-.013-.084,0-.1-.027-.1-.106q0-1.605-.007-3.209C.517,21.226.524,16.2.539,11.182c0-.816,0-1.632.02-2.448.011-.464.009-.931.02-1.4C.59,6.79.6,6.242.621,5.694c.015-.363.022-.728.071-1.09.011-.088.044-.113.133-.113q3.908,0,7.813,0c.038,0,.077-.013.111.018" transform="translate(0.637 5.436)" fill="#69268b"></path><path id="Path_26652" data-name="Path 26652" d="M20.066,15.906c.049,0,.1.007.146.007H37.438c.168,0,.142-.02.142.144v8.879c0,.135,0,.135-.139.135q-18.393,0-36.786,0c-.106,0-.137-.022-.137-.133q.007-4.448,0-8.9c0-.108.027-.13.13-.13q3.237.007,6.473,0c.044,0,.088,0,.135-.007a.28.28,0,0,1,.142-.02H19.9a.456.456,0,0,1,.164.02" transform="translate(0.626 19.243)"></path><path id="Path_26653" data-name="Path 26653" d="M19.063.445q9.188,0,18.374,0c.1,0,.13.018.13.126q0,4.279,0,8.558c0,.1-.018.126-.122.126q-18.39,0-36.78,0c-.106,0-.119-.033-.119-.128q0-4.272,0-8.547c0-.1.02-.135.133-.135q9.192,0,18.383,0" transform="translate(0.663 0.536)"></path><path id="Path_26654" data-name="Path 26654" d="M26.693,15.612c-.252-.115-.5-.234-.754-.347a31.564,31.564,0,0,0-3.81-1.4c-1.619-.491-3.26-.9-4.9-1.314-1.283-.323-2.563-.648-3.819-1.066a11.057,11.057,0,0,1-2.3-1A3.461,3.461,0,0,1,9.862,9.343a2.026,2.026,0,0,1,1-3.045,5.421,5.421,0,0,1,1.506-.38,10.62,10.62,0,0,1,1.8-.077,8.483,8.483,0,0,1,3.377.827,2.864,2.864,0,0,1,1.524,1.917,3.765,3.765,0,0,1,.146,1.088c0,.1.024.126.126.126q3.609,0,7.222,0l.135,0v5.809" transform="translate(11.533 7.062)" fill="#69268b"></path><path id="Path_26655" data-name="Path 26655" d="M16.377,18.011c-.038,0-.075.007-.113.007H3.69c-.042,0-.084,0-.124-.007l0-.1c0-.409,0-.818,0-1.23q0-1.207,0-2.415c0-.082.018-.106.1-.106.433,0,.869,0,1.3,0,3.753-.022,7.508,0,11.26-.009.046,0,.1-.018.139.02q0,1.831,0,3.664a.467.467,0,0,0,.011.175" transform="translate(4.315 17.138)" fill="#fe5f15"></path><path id="Path_26656" data-name="Path 26656" d="M17.913,20.149c.013-.544.038-1.081.007-1.619,0-.073-.031-.1-.1-.1-.128,0-.257-.013-.385-.013-.055,0-.071-.02-.069-.073,0-.115,0-.23,0-.343,0-.055.013-.073.069-.073.515,0,1.028,0,1.544,0,.053,0,.075.013.073.071-.007.117-.007.234-.007.354,0,.051-.024.062-.069.064-.122,0-.243.018-.365.022-.069,0-.082.035-.084.1-.018.48-.011.96-.011,1.437,0,.394,0,.787,0,1.179,0,.1-.031.119-.122.117-.3-.007-.59-.007-.887,0a.126.126,0,0,1-.135-.082Q16.784,20.1,16.188,19l-.051-.086a.136.136,0,0,0-.013.1v1.448c0,.3.04.338.336.343.237,0,.237,0,.237.241,0,.223,0,.223-.221.223-.456,0-.909,0-1.364,0-.071,0-.108-.007-.1-.093.009-.117-.038-.268.02-.345s.212-.022.325-.027a.162.162,0,0,0,.179-.157,1.565,1.565,0,0,0,.02-.175c-.009-.619.009-1.236-.02-1.855-.009-.184-.009-.184-.19-.19-.086,0-.172-.007-.261-.007-.051,0-.073-.015-.071-.073,0-.117,0-.234,0-.354,0-.051.015-.064.064-.064q.776,0,1.555,0c.066,0,.077.044.1.086l1.121,2.03c.018.035.04.071.06.106" transform="translate(18.171 21.716)" fill="#ceaf5e"></path><path id="Path_26657" data-name="Path 26657" d="M7.693,17.93c.537,0,1.077,0,1.614,0,.08,0,.1.02.1.1,0,.33.007.659-.007.988-.009.232.013.221-.237.228-.093,0-.21.031-.276-.013s-.029-.172-.049-.263a.927.927,0,0,0-.122-.33.445.445,0,0,0-.343-.208c-.272-.027-.542,0-.814-.009-.049,0-.055.022-.055.064,0,.259,0,.52,0,.781,0,.049.013.064.064.064.318.011.436-.1.456-.425,0-.08.027-.1.1-.1a2.382,2.382,0,0,0,.281,0c.053,0,.073.015.073.071v1.367c0,.051-.013.075-.071.073q-.156,0-.312,0c-.055,0-.071-.018-.073-.071a.99.99,0,0,0-.031-.195c-.018-.066,0-.155-.08-.19a.836.836,0,0,0-.374-.08c-.044,0-.033.038-.033.062,0,.3,0,.6,0,.9,0,.04,0,.066.055.064.265-.009.533.018.8-.015a.48.48,0,0,0,.4-.3,1.173,1.173,0,0,0,.1-.506c0-.062.011-.086.08-.084.13.007.263.007.4,0,.057,0,.075.018.075.077,0,.4,0,.8,0,1.2,0,.073-.027.082-.091.082l-1.771,0c-.489,0-.98,0-1.468,0-.08,0-.113-.015-.106-.1s0-.195,0-.292c0-.055.018-.071.073-.071a.933.933,0,0,0,.389-.044.094.094,0,0,0,.071-.1c0-.708.015-1.418-.011-2.125,0-.073-.029-.1-.093-.1-.113,0-.223-.015-.334-.015-.066,0-.091-.02-.088-.088a2.139,2.139,0,0,0,0-.292c-.007-.084.015-.113.106-.111C6.616,17.932,7.156,17.93,7.693,17.93Z" transform="translate(7.232 21.717)" fill="#ceaf5e"></path><path id="Path_26658" data-name="Path 26658" d="M4.364,17.93c.531,0,1.064,0,1.594,0,.075,0,.108.011.106.1-.007.352,0,.7,0,1.053,0,.119-.038.164-.159.17s-.228-.009-.343-.013c-.051,0-.035-.042-.038-.069a1.408,1.408,0,0,0-.086-.416.482.482,0,0,0-.458-.329c-.252-.013-.5,0-.75,0-.051,0-.066.018-.066.066,0,.261,0,.522,0,.781,0,.051.015.064.064.064.321.011.444-.1.462-.42,0-.091.035-.108.117-.1a2.233,2.233,0,0,0,.272,0c.053,0,.071.02.071.073q0,.683,0,1.367c0,.053-.02.075-.073.071h-.02a.759.759,0,0,1-.318-.011c-.1-.046-.062-.19-.08-.29-.029-.164-.144-.192-.272-.217-.215-.04-.215-.04-.217.172,0,.25,0,.5,0,.75,0,.033-.018.084.046.082.268,0,.535.015.8-.009a.492.492,0,0,0,.407-.3,1.117,1.117,0,0,0,.1-.5c0-.069.013-.1.091-.093.128.007.257,0,.385,0,.051,0,.073.011.073.066q-.007.61,0,1.221c0,.08-.042.071-.091.071-.548,0-1.1,0-1.647,0-.526,0-1.055,0-1.583,0-.077,0-.113-.013-.106-.1a1.984,1.984,0,0,0,0-.281c0-.062.015-.084.082-.082a.875.875,0,0,0,.369-.042.1.1,0,0,0,.075-.106c0-.705.018-1.411-.011-2.114,0-.077-.027-.106-.1-.108-.113,0-.228-.015-.343-.018-.055,0-.071-.02-.069-.073,0-.111,0-.221,0-.334-.007-.073.027-.082.088-.082.546,0,1.09,0,1.636,0Z" transform="translate(3.193 21.717)" fill="#ceaf5e"></path><path id="Path_26659" data-name="Path 26659" d="M16.787,19.647a1.987,1.987,0,0,1-.133.754,1.467,1.467,0,0,1-.988.9,2.279,2.279,0,0,1-1.316,0,1.487,1.487,0,0,1-1.09-1.132,2.032,2.032,0,0,1,.1-1.333,1.437,1.437,0,0,1,.982-.847,2.367,2.367,0,0,1,1.433.04,1.472,1.472,0,0,1,.984,1.278c.018.113.018.228.024.343" transform="translate(15.982 21.676)" fill="#ceaf5e"></path><path id="Path_26660" data-name="Path 26660" d="M12.931,18.208a.275.275,0,0,0,.022-.044c.077-.192.077-.192.29-.192.241,0,.241,0,.241.245,0,.305,0,.61,0,.918,0,.077-.02.1-.1.1-.115,0-.228,0-.343,0-.049,0-.064-.013-.071-.062a.963.963,0,0,0-1.384-.644.282.282,0,0,0-.164.316.19.19,0,0,0,.133.157,5.766,5.766,0,0,0,.867.212,2.221,2.221,0,0,1,.728.268.935.935,0,0,1,.456.918.949.949,0,0,1-.641.878,2.305,2.305,0,0,1-.966.1,1.844,1.844,0,0,1-.756-.21l-.177-.091-.02.04c-.06.186-.057.186-.259.19-.071,0-.139,0-.21,0-.055,0-.069-.02-.069-.073,0-.383,0-.765,0-1.145,0-.06.018-.08.077-.077.122,0,.243,0,.365,0,.049,0,.066.013.077.06a1.141,1.141,0,0,0,1.287.812c.024,0,.046-.011.071-.018a.375.375,0,0,0,.305-.314.354.354,0,0,0-.265-.336,5.312,5.312,0,0,0-.7-.164,2.536,2.536,0,0,1-.783-.272.87.87,0,0,1-.442-.849.9.9,0,0,1,.537-.847,1.894,1.894,0,0,1,1.889.122" transform="translate(12.723 21.673)" fill="#ceaf5e"></path><path id="Path_26661" data-name="Path 26661" d="M9.653,20.433a8.921,8.921,0,0,0,.3-.909c.1-.332.188-.666.285-1,.02-.066.007-.1-.066-.093-.1,0-.2-.007-.3-.009-.044,0-.071-.011-.071-.064,0-.122,0-.243,0-.365,0-.053.02-.064.069-.064q.687,0,1.373,0c.053,0,.066.02.064.069,0,.113,0,.228,0,.343,0,.057-.018.086-.075.082h-.011c-.252-.038-.349.117-.414.325-.248.8-.5,1.608-.745,2.413-.027.082-.057.115-.148.113-.283-.007-.568-.007-.854,0-.088,0-.117-.029-.142-.108-.259-.823-.493-1.654-.765-2.472-.08-.241-.124-.279-.38-.274-.1,0-.144-.022-.133-.13a2.143,2.143,0,0,0,0-.292c0-.049.013-.066.064-.066q.912,0,1.824,0c.051,0,.064.02.064.069,0,.115,0,.23,0,.343,0,.06-.018.082-.077.082-.1,0-.195.009-.292,0-.08,0-.086.027-.075.1a9.036,9.036,0,0,0,.292,1.106c.082.265.157.531.217.8" transform="translate(9.248 21.716)" fill="#ceaf5e"></path><path id="Path_26662" data-name="Path 26662" d="M2.7,17.93c.52,0,1.039,0,1.561,0,.1,0,.115.029.115.117-.007.367-.007.736,0,1.1,0,.084-.029.106-.108.1-.124-.007-.248,0-.376,0-.06,0-.08-.02-.075-.077a1.439,1.439,0,0,0-.035-.352.5.5,0,0,0-.568-.407c-.029,0-.046.009-.044.04l0,.053v1.928a.773.773,0,0,0,.04.265.125.125,0,0,0,.119.1c.106,0,.208.011.312.009.06,0,.084.018.08.077q0,.156,0,.312c0,.053-.015.073-.071.073-.652,0-1.307,0-1.957,0-.051,0-.066-.018-.066-.066,0-.106,0-.215,0-.323,0-.055.022-.071.073-.071.108,0,.219,0,.323,0a.1.1,0,0,0,.113-.082.9.9,0,0,0,.04-.243c0-.657,0-1.314,0-1.97,0-.088-.027-.106-.106-.1a.56.56,0,0,0-.44.329.974.974,0,0,0-.1.433c0,.062-.013.086-.08.082-.124,0-.243,0-.367,0-.046,0-.069-.015-.066-.066,0-.4,0-.8,0-1.2,0-.075.049-.06.088-.06Z" transform="translate(1.231 21.717)" fill="#ceaf5e"></path><path id="Path_26663" data-name="Path 26663" d="M13.824,16.977l-.385,1.413c-.027.1-.057.2-.084.3a.074.074,0,0,1-.086.064c-.133,0-.265-.007-.4,0-.069,0-.088-.024-.1-.084-.148-.548-.3-1.1-.453-1.643a.166.166,0,0,0-.046-.086v.27c0,.323,0,.646,0,.969,0,.024,0,.049,0,.073.015.133.033.159.164.15.115-.007.137.038.133.142-.009.208,0,.21-.212.208-.257,0-.513,0-.77,0-.062,0-.084-.011-.086-.08,0-.261,0-.263.254-.27.064,0,.1-.011.1-.091.029-.482-.007-.964.013-1.446a.074.074,0,0,0-.062-.082.722.722,0,0,0-.228-.027c-.055,0-.077-.009-.08-.073-.007-.248-.009-.248.237-.248.341,0,.681,0,1.022,0,.08,0,.1.027.122.1.1.409.208.818.329,1.23l.106-.389c.073-.285.15-.571.221-.856.015-.062.035-.084.1-.084q.594.007,1.188,0c.077,0,.091.024.091.1,0,.226,0,.226-.226.232-.108,0-.146.038-.144.142,0,.469-.015.938.011,1.406,0,.073.024.1.1.091h.011c.27.011.27.011.252.285,0,.051-.02.066-.069.064h-1.23c-.042,0-.066-.011-.062-.057a.578.578,0,0,0,0-.062c0-.066-.02-.144.009-.195s.122-.02.184-.033.088-.02.091-.08a11.446,11.446,0,0,0-.015-1.349" transform="translate(13.929 19.911)" fill="#ceaf5e"></path><path id="Path_26664" data-name="Path 26664" d="M6.037,21.269c-.506,0-1.013,0-1.521,0-.088,0-.108-.022-.1-.111a.922.922,0,0,0,0-.259c-.011-.071.013-.084.073-.084q.146,0,.292-.013a.161.161,0,0,0,.168-.161c.009-.093.013-.188.013-.281q0-.789,0-1.583c0-.329-.024-.352-.352-.349-.172,0-.172,0-.192-.175-.011-.1-.055-.228,0-.294s.188-.022.287-.022c.559,0,1.117,0,1.676,0,.084,0,.108.022.1.1a1.944,1.944,0,0,1-.031.321.077.077,0,0,1-.091.073c-.1-.007-.2,0-.3,0-.062,0-.084.024-.1.077a1.532,1.532,0,0,0-.031.332c0,.626,0,1.249,0,1.875,0,.08.02.1.1.1.148,0,.3.007.447,0a.582.582,0,0,0,.65-.593c0-.046.011-.1.015-.144.015-.166.015-.166.177-.166.084,0,.168,0,.25,0s.1.015.1.091c0,.391,0,.785,0,1.176,0,.082-.024.1-.1.1-.513,0-1.028,0-1.541,0v0" transform="translate(5.327 21.711)" fill="#ceaf5e"></path><path id="Path_26665" data-name="Path 26665" d="M10.4,21.267c-.305,0-.61,0-.916,0-.086,0-.113-.027-.1-.1l0-.022c0-.1-.035-.23.011-.305s.19-.015.29-.038l.04-.007c.179-.035.181-.04.186-.219.013-.67.022-1.34,0-2.01,0-.1-.038-.133-.13-.135s-.215-.013-.321-.013c-.055,0-.073-.018-.071-.073,0-.113,0-.228,0-.343,0-.051.011-.073.069-.073.635,0,1.272,0,1.906,0,.057,0,.071.022.069.075,0,.111,0,.221,0,.332,0,.064-.018.086-.084.086-.113,0-.228,0-.343,0a.071.071,0,0,0-.08.062,1.057,1.057,0,0,0-.04.276q0,.9,0,1.791a.312.312,0,0,0,.007.1c.033.088.077.159.195.148.088-.009.179,0,.27,0,.053,0,.075.018.073.073q-.007.156,0,.312c0,.064-.022.075-.077.075-.316,0-.632,0-.949,0Z" transform="translate(11.353 21.717)" fill="#ceaf5e"></path><path id="Path_26666" data-name="Path 26666" d="M13.106,17.93c.312,0,.626,0,.938,0,.064,0,.093.013.088.086a2.444,2.444,0,0,0,0,.312c0,.077-.029.093-.1.093-.108,0-.215.007-.323.007-.049,0-.077.011-.088.062a1.206,1.206,0,0,0-.042.268v1.634a1.115,1.115,0,0,0,.042.33.1.1,0,0,0,.111.082c.1,0,.208.007.312,0,.06,0,.088.015.084.082q-.007.146,0,.292c0,.069-.018.086-.086.086-.511,0-1.019,0-1.53,0-.115,0-.23,0-.343,0-.073,0-.091-.024-.086-.091a2.383,2.383,0,0,0,0-.281c0-.071.015-.1.091-.093a.89.89,0,0,0,.349-.035.113.113,0,0,0,.093-.126c0-.708.018-1.415-.009-2.123,0-.057-.022-.08-.075-.084-.119-.007-.237-.018-.354-.02-.064,0-.1-.015-.091-.086a3.145,3.145,0,0,0,0-.323c0-.069.024-.08.084-.08C12.48,17.93,12.794,17.93,13.106,17.93Z" transform="translate(14.638 21.717)" fill="#ceaf5e"></path><path id="Path_26667" data-name="Path 26667" d="M15.172,17.142c.033.4,0,.789.031,1.179,0,.06.02.093.084.082a.145.145,0,0,1,.031,0c.283.011.285.013.252.3-.007.042-.022.049-.06.049H14.46c-.044,0-.06-.011-.062-.057-.022-.283-.022-.285.261-.292.064,0,.091-.02.1-.084a1.61,1.61,0,0,0,.024-.27c0-.354,0-.708-.009-1.061,0-.2-.015-.208-.221-.219a.533.533,0,0,0-.084,0c-.051,0-.071-.011-.073-.069-.013-.261-.015-.261.243-.261s.542,0,.812,0a.171.171,0,0,1,.179.106c.239.438.482.876.721,1.311a.309.309,0,0,0,.069.088v-.991c0-.148-.031-.179-.172-.181-.221,0-.217,0-.221-.226,0-.088.022-.108.108-.108.318.007.639,0,.958,0,.077,0,.111.011.106.1-.007.215,0,.215-.215.237-.144.013-.146.013-.146.153q-.007.859,0,1.718c0,.084-.02.113-.108.111-.179-.007-.36-.007-.542,0a.152.152,0,0,1-.159-.1q-.385-.707-.774-1.413a.249.249,0,0,0-.08-.106" transform="translate(17.431 19.911)" fill="#ceaf5e"></path><path id="Path_26668" data-name="Path 26668" d="M7.791,17.544l.106.033a.316.316,0,0,1,.243.279,2.744,2.744,0,0,1,.015.467c0,.06.018.113.077.115s.08-.055.08-.113a.66.66,0,0,1,.009-.093c.007-.046-.02-.119.02-.135a.515.515,0,0,1,.195-.011c.042,0,.033.038.033.064a1.155,1.155,0,0,1-.018.29.457.457,0,0,1-.425.356.553.553,0,0,1-.674-.595c0-.108,0-.215,0-.323s-.038-.153-.139-.155-.243-.042-.327,0-.029.192-.042.294a.92.92,0,0,0,.022.31c.013.057.04.086.1.077h.011c.075,0,.192-.035.215.015a.785.785,0,0,1,.013.3c0,.042-.038.033-.062.033l-1.294,0-.04,0c-.06-.091-.015-.192-.027-.287-.007-.051.033-.051.069-.053a.906.906,0,0,1,.155,0c.088.009.137-.022.142-.117,0-.044.013-.088.013-.133V17.02l0-.062c-.013-.164-.035-.186-.2-.188-.181,0-.181,0-.181-.186,0-.144,0-.144.142-.144q.789,0,1.583,0a.857.857,0,0,1,.316.053.528.528,0,0,1,.349.526.51.51,0,0,1-.387.5l-.093.031" transform="translate(7.12 19.912)" fill="#ceaf5e"></path><path id="Path_26669" data-name="Path 26669" d="M12.145,17.936c0-.358,0-.714,0-1.073a.07.07,0,0,0-.071-.08,2.377,2.377,0,0,0-.25-.02c-.044,0-.064-.011-.06-.057V16.7c-.011-.257-.011-.257.248-.257.274,0,.548,0,.823,0,.062,0,.093.013.082.08v.009c0,.073.02.159-.011.217s-.126.009-.192.018c-.119.018-.15.049-.153.177,0,.568,0,1.139,0,1.707,0,.086-.018.113-.106.111-.181-.009-.363-.009-.542,0a.16.16,0,0,1-.166-.1c-.254-.471-.511-.938-.767-1.406-.015-.029-.033-.057-.064-.108,0,.053-.007.082-.007.113,0,.332,0,.666,0,1,0,.135.015.148.148.157l.022,0c.071.013.172-.031.208.02.049.075.011.181.015.276,0,.044-.024.049-.06.049-.349,0-.7,0-1.05,0-.053,0-.066-.024-.064-.069,0-.084-.027-.184.011-.245.042-.077.15-.024.23-.033s.117-.031.119-.115c0-.175.009-.347.011-.522,0-.281,0-.562,0-.843,0-.144,0-.142-.15-.161-.071-.009-.172.027-.206-.024s-.009-.148-.015-.223.015-.084.082-.082c.341,0,.679,0,1.019,0a.108.108,0,0,1,.108.075c.245.447.493.893.739,1.338l.051.091.018,0" transform="translate(12.262 19.911)" fill="#ceaf5e"></path><path id="Path_26670" data-name="Path 26670" d="M4.239,17.948c.02-.013.011-.033.011-.049,0-.334,0-.666,0-1,0-.077-.029-.111-.1-.117a1.426,1.426,0,0,0-.217-.013c-.057,0-.077-.013-.08-.075-.009-.254-.011-.254.239-.254.283,0,.564,0,.845,0,.071,0,.093.022.086.088s.02.17-.018.221-.135.02-.206.027c-.1.007-.142.035-.142.15,0,.575,0,1.152,0,1.729,0,.077-.018.106-.1.1q-.282-.01-.564,0a.128.128,0,0,1-.135-.082c-.239-.442-.482-.882-.723-1.325A.846.846,0,0,0,3,17.136c0,.148,0,.27,0,.394a5.386,5.386,0,0,0,.031.8c.007.057.027.075.084.075.073,0,.146,0,.219,0,.051,0,.071.015.073.071.011.279.013.276-.263.276s-.548,0-.823,0c-.069,0-.1-.009-.1-.088,0-.254,0-.259.254-.261.082,0,.1-.029.1-.1.027-.48,0-.96.013-1.437,0-.051-.027-.066-.066-.077a.788.788,0,0,0-.239-.02c-.049,0-.064-.018-.066-.066-.015-.261-.018-.261.237-.261.274,0,.548,0,.823,0a.169.169,0,0,1,.179.106q.358.66.719,1.316c.018.031.024.071.062.088" transform="translate(2.683 19.911)" fill="#ceaf5e"></path><path id="Path_26671" data-name="Path 26671" d="M5.846,16.439c.367,0,.736,0,1.1,0,.066,0,.091.015.091.086,0,.243,0,.487,0,.73,0,.06-.011.088-.08.084a1.722,1.722,0,0,0-.239,0c-.055,0-.073-.02-.071-.073a.643.643,0,0,0-.033-.2.368.368,0,0,0-.352-.287c-.164-.018-.325,0-.489,0-.042,0-.055.018-.053.055v.542c0,.035.009.051.049.042.243-.06.259,0,.3-.283.011-.071.033-.082.1-.082.23,0,.23,0,.23.223,0,.245,0,.493,0,.739,0,.064-.015.093-.08.082a.266.266,0,0,0-.042,0c-.186,0-.186,0-.21-.181a.247.247,0,0,0-.321-.181c-.031.013-.024.038-.024.062,0,.184,0,.367,0,.551,0,.046.009.073.064.071.166-.009.332.009.5,0a.347.347,0,0,0,.329-.257.73.73,0,0,0,.04-.276c0-.062.013-.088.08-.084a2.195,2.195,0,0,0,.241,0c.053,0,.073.015.071.071,0,.274,0,.551,0,.825,0,.053-.015.071-.071.071q-1.124,0-2.249,0c-.051,0-.073-.018-.066-.066v-.022c0-.257,0-.261.25-.261.084,0,.113-.031.117-.1s.02-.153.02-.228c0-.327,0-.652,0-.98,0-.051,0-.1-.009-.155-.013-.139-.051-.175-.19-.177-.188-.007-.184-.007-.19-.2,0-.1.022-.128.124-.126.356.007.714,0,1.073,0" transform="translate(5.632 19.911)" fill="#ceaf5e"></path><path id="Path_26672" data-name="Path 26672" d="M14.366,16.44c.365,0,.73,0,1.095,0,.073,0,.093.018.091.093,0,.234,0,.471,0,.708,0,.082-.024.1-.1.1s-.188.024-.257-.009-.033-.15-.055-.228a.384.384,0,0,0-.385-.33c-.157-.015-.312.011-.469,0-.046,0-.06.018-.06.06,0,.175,0,.347,0,.522,0,.042.009.069.06.053a.239.239,0,0,1,.042-.007c.2-.031.234-.057.257-.263.009-.071.024-.093.1-.093.23,0,.228,0,.228.228,0,.243,0,.487,0,.73,0,.062-.011.1-.084.088a.578.578,0,0,0-.062,0c-.055,0-.122.013-.161-.011s-.015-.1-.024-.148a.25.25,0,0,0-.325-.2c-.035.009-.031.033-.031.055,0,.188,0,.376,0,.562,0,.051.018.069.066.066.168,0,.334,0,.5,0a.326.326,0,0,0,.323-.234.766.766,0,0,0,.049-.316c0-.051.015-.071.066-.064h.011c.1,0,.23-.033.292.018s.018.188.02.287c0,.195,0,.389,0,.584,0,.057-.015.075-.075.075q-1.115,0-2.229,0c-.057,0-.077-.013-.077-.075-.007-.265-.009-.268.259-.274.069,0,.1-.024.1-.1a10.93,10.93,0,0,0,0-1.424c0-.08-.042-.1-.106-.108l-.042,0c-.071-.013-.175.027-.2-.031a.7.7,0,0,1-.013-.257c0-.066.049-.046.082-.046h1.115" transform="translate(15.948 19.91)" fill="#ceaf5e"></path><path id="Path_26673" data-name="Path 26673" d="M2.195,16.439c.365,0,.73,0,1.095,0,.071,0,.1.018.093.093q-.007.358,0,.716c0,.069-.018.093-.088.088a.89.89,0,0,1-.257-.009c-.093-.038-.038-.153-.062-.232a.387.387,0,0,0-.385-.327c-.157-.015-.312,0-.469,0-.044,0-.062.013-.062.06,0,.179,0,.36,0,.54,0,.024,0,.046.035.051a.253.253,0,0,0,.307-.237c.009-.115.053-.139.159-.133.17.009.17,0,.17.17,0,.261,0,.522,0,.781,0,.075-.022.1-.1.091H2.608c-.177,0-.177,0-.2-.168a.25.25,0,0,0-.321-.2c-.031.011-.029.035-.029.06,0,.19,0,.383,0,.573,0,.053.024.064.071.062.164,0,.325-.007.489,0a.333.333,0,0,0,.334-.259.69.69,0,0,0,.042-.276c0-.064.018-.086.082-.082.1.007.223-.031.283.018s.02.181.022.279c0,.192,0,.387,0,.582,0,.06-.009.086-.08.086q-1.111,0-2.227,0c-.053,0-.073-.011-.077-.069-.015-.259-.018-.263.237-.276.093,0,.115-.051.13-.124a2.124,2.124,0,0,0,.013-.489c-.009-.281.024-.562-.009-.843-.02-.172-.035-.19-.21-.195S1,16.755,1,16.59a.239.239,0,0,0,0-.04c-.013-.084.013-.113.1-.113C1.465,16.444,1.83,16.439,2.195,16.439Z" transform="translate(1.2 19.911)" fill="#ceaf5e"></path><path id="Path_26674" data-name="Path 26674" d="M10.116,18.756c-.195,0-.389,0-.584,0-.057,0-.086-.015-.075-.075v-.022c0-.239,0-.241.237-.257.062,0,.062-.027.051-.077C9.67,18,9.67,18,9.333,18h-.27l-.042,0c-.049,0-.177.241-.166.327s.086.077.146.08c.166.013.166.011.166.177s0,.172-.177.172c-.261,0-.522,0-.781,0-.086,0-.113-.027-.1-.106a.239.239,0,0,0,0-.04c0-.175,0-.179.164-.206a.2.2,0,0,0,.168-.161c.192-.573.389-1.141.582-1.714.024-.071.053-.1.13-.1q.312.01.624,0c.075,0,.1.024.122.093.157.517.318,1.033.478,1.548.013.044.031.086.044.128.038.135.1.23.265.2.066-.009.093.022.093.1,0,.248,0,.248-.243.25h-.418" transform="translate(9.819 19.909)" fill="#ceaf5e"></path><path id="Path_26675" data-name="Path 26675" d="M16.873,16.439c.358,0,.714,0,1.073,0,.066,0,.091.015.088.086,0,.245,0,.493,0,.739,0,.06-.018.084-.077.075h-.011c-.088,0-.2.031-.265-.009s-.027-.159-.042-.241a.373.373,0,0,0-.385-.325c-.046,0-.051.02-.051.055v1.4c.022.184.029.19.21.2s.179.009.179.184c0,.159,0,.159-.159.159-.391,0-.783,0-1.176,0-.084,0-.117-.027-.119-.113-.007-.226-.009-.232.212-.232.1,0,.146-.029.157-.135.022-.243,0-.487.009-.73,0-.217,0-.436,0-.655-.007-.155-.011-.148-.153-.1a.393.393,0,0,0-.261.356c-.031.192-.029.192-.228.192-.164,0-.164,0-.164-.164,0-.212,0-.425,0-.637,0-.084.027-.1.106-.1C16.165,16.441,16.519,16.439,16.873,16.439Z" transform="translate(19.025 19.911)" fill="#ceaf5e"></path><path id="Path_26676" data-name="Path 26676" d="M8.266,16.439c.352,0,.7,0,1.053,0,.084,0,.1.024.1.1,0,.241,0,.48,0,.719,0,.057-.013.082-.075.08-.091-.007-.192.024-.268-.009-.091-.04-.027-.153-.044-.232a.374.374,0,0,0-.323-.334c-.069-.015-.111,0-.111.077,0,.467,0,.931,0,1.4,0,.161.02.166.177.17.2,0,.2,0,.2.206,0,.142,0,.142-.144.142-.407,0-.814,0-1.218,0-.071,0-.1-.015-.1-.091,0-.243,0-.248.237-.25.091,0,.135-.031.139-.122a.973.973,0,0,0,.011-.113c0-.444,0-.889,0-1.333,0-.084-.018-.093-.1-.075a.39.39,0,0,0-.321.36c-.033.21-.035.208-.223.208-.164,0-.164,0-.166-.166,0-.212,0-.425,0-.635,0-.088.027-.1.106-.1.354,0,.708,0,1.061,0" transform="translate(8.598 19.911)" fill="#ceaf5e"></path><path id="Path_26677" data-name="Path 26677" d="M4.7,16.44c.36,0,.723,0,1.084,0,.064,0,.1.009.086.084a3.548,3.548,0,0,0,0,.719c.009.082-.02.1-.1.1s-.188.024-.259-.009-.029-.155-.049-.237a.368.368,0,0,0-.365-.334c-.051,0-.069.007-.069.06.013.489-.024.98.02,1.468.007.091.042.122.124.126l.031,0c.062.009.146-.049.179.02a.487.487,0,0,1,.013.287c0,.04-.038.031-.064.031-.431,0-.862,0-1.294,0-.111,0-.073-.084-.064-.124.02-.071-.084-.186.066-.215a.4.4,0,0,1,.135,0c.113.02.146-.044.157-.137,0-.035.009-.069.009-.1,0-.444,0-.889,0-1.333,0-.069-.009-.091-.086-.071a.416.416,0,0,0-.349.449c-.007.1-.031.128-.133.126-.245-.009-.248,0-.248-.25,0-.19,0-.38,0-.573,0-.064.018-.082.082-.08.36,0,.723,0,1.084,0Z" transform="translate(4.28 19.912)" fill="#ceaf5e"></path><path id="Path_26678" data-name="Path 26678" d="M10.075,16.438c.208,0,.418,0,.626,0,.055,0,.084.009.08.073s.022.168-.011.223-.142.024-.215.033c-.142.02-.148.024-.148.168,0,.433,0,.867,0,1.3,0,.144.046.186.188.177.181-.011.181-.011.181.17s0,.168-.17.168c-.383,0-.765,0-1.148,0-.069,0-.1-.013-.1-.088,0-.25-.007-.254.239-.261.091,0,.124-.027.126-.122.02-.469.009-.938,0-1.406a.084.084,0,0,0-.073-.1.971.971,0,0,0-.239-.022c-.044,0-.055-.015-.06-.06-.018-.263-.02-.263.243-.263Z" transform="translate(11.334 19.912)" fill="#ceaf5e"></path><path id="Path_26679" data-name="Path 26679" d="M1.057,5.915c0-.341,0-.681,0-1.022,0-.064.013-.091.084-.088.21,0,.418,0,.626,0,.042,0,.08-.007.084.06a1.2,1.2,0,0,0,.588.931,3.083,3.083,0,0,0,1.117.436,5,5,0,0,0,1.581.13A3.4,3.4,0,0,0,6.219,6.1a.58.58,0,0,0,.389-.509.483.483,0,0,0-.325-.522,3.215,3.215,0,0,0-.851-.181C4.518,4.772,3.6,4.7,2.7,4.529a2.828,2.828,0,0,1-1.263-.522,1.472,1.472,0,0,1,.075-2.351A3.654,3.654,0,0,1,2.862,1.09,5.839,5.839,0,0,1,6.7,1.519c.172.077.239.038.241-.15a.533.533,0,0,0,0-.084c-.007-.057.02-.069.071-.069.217,0,.431,0,.648,0,.06,0,.073.02.073.077q0,.886,0,1.771c0,.062-.018.075-.075.075-.188,0-.376,0-.564,0-.042,0-.071,0-.084-.053a1.382,1.382,0,0,0-.876-.946,4.725,4.725,0,0,0-2.189-.347,3.6,3.6,0,0,0-1.037.2,1.016,1.016,0,0,0-.374.221.418.418,0,0,0,.179.739,4.858,4.858,0,0,0,.851.144,25.21,25.21,0,0,1,2.853.4,3.071,3.071,0,0,1,1.019.429A1.566,1.566,0,0,1,7.4,6.534a4.145,4.145,0,0,1-1.42.537,6.423,6.423,0,0,1-3.768-.422c-.031-.013-.062-.029-.1-.04a.119.119,0,0,0-.179.115,1.3,1.3,0,0,0,0,.208c.007.073-.022.084-.088.084-.234,0-.471,0-.708,0-.064,0-.082-.015-.082-.08,0-.341,0-.681,0-1.022" transform="translate(1.07 1.14)" fill="#fefefe"></path><path id="Path_26680" data-name="Path 26680" d="M15.513,4.574c-.013-.814-.027-1.6-.04-2.391a1.022,1.022,0,0,0-.018-.144.242.242,0,0,0-.234-.226,5.616,5.616,0,0,0-.747-.013c-.088,0-.122-.015-.117-.113.009-.168,0-.338,0-.509,0-.057.013-.08.075-.08q1.572,0,3.145,0c.049,0,.069.009.066.062,0,.19,0,.383,0,.573,0,.051-.015.064-.064.064-.181,0-.363,0-.542,0-.042,0-.084,0-.126,0-.265.013-.33.077-.332.343,0,.281,0,.562,0,.843q.023,1.808.053,3.616c0,.086-.018.111-.106.111-.305-.007-.61-.007-.918,0a.24.24,0,0,1-.184-.073q-2.12-1.9-4.246-3.8L11.11,2.77c-.04.02-.022.051-.022.075,0,.9,0,1.791,0,2.689,0,.064,0,.13.009.2.013.2.088.272.29.274q.365.007.73,0c.071,0,.1.018.093.091-.007.177,0,.354,0,.533,0,.06-.013.082-.08.082q-1.532,0-3.063,0c-.062,0-.086-.013-.084-.08,0-.181,0-.36,0-.542,0-.075.029-.084.093-.084.208,0,.416,0,.624,0s.276-.064.3-.263c.007-.066.011-.133.011-.2V2.316c0-.4-.117-.515-.515-.517-.166,0-.334,0-.5,0-.055,0-.071-.018-.069-.071,0-.184,0-.369,0-.553,0-.071.027-.077.084-.075H10.6c.327,0,.655,0,.98,0a.229.229,0,0,1,.166.066q1.818,1.649,3.638,3.295l.128.113" transform="translate(10.809 1.332)" fill="#fefefe"></path><path id="Path_26681" data-name="Path 26681" d="M8.942,7.248a5.352,5.352,0,0,1-2.594-.613A2.94,2.94,0,0,1,4.922,5.087,2.789,2.789,0,0,1,5.99,1.777,5.134,5.134,0,0,1,8.13,1a6.076,6.076,0,0,1,2.468.15,3.779,3.779,0,0,1,1.813,1.068,2.81,2.81,0,0,1-.338,4.065,4.549,4.549,0,0,1-2.054.871,5.853,5.853,0,0,1-1.077.091" transform="translate(5.744 1.139)" fill="#fefefe"></path><path id="Path_26682" data-name="Path 26682" d="M15.1,1.1c.61,0,1.223,0,1.833,0,.073,0,.1.015.093.091-.007.172,0,.347,0,.522,0,.064-.013.091-.084.086-.111-.007-.223,0-.334,0-.064,0-.128,0-.161.069s0,.119.044.17q.634.76,1.265,1.521c.062.075.084.013.113-.022.38-.444.756-.889,1.134-1.333.049-.055.093-.113.142-.166a.136.136,0,0,0,.031-.155.142.142,0,0,0-.135-.082c-.133,0-.263,0-.4,0-.057,0-.077-.015-.077-.077,0-.172.007-.347,0-.52,0-.082.018-.1.1-.1.823,0,1.647,0,2.47,0,.166,0,.334,0,.5,0,.075,0,.093.022.091.093-.007.172-.007.347,0,.522,0,.066-.013.088-.084.086-.208,0-.416,0-.624,0a.627.627,0,0,0-.515.228c-.239.279-.484.553-.728.829q-.69.793-1.384,1.583a.281.281,0,0,0-.077.208c0,.343,0,.688,0,1.031,0,.261.069.325.329.327.226,0,.451,0,.677,0,.06,0,.077.018.075.075,0,.186,0,.369,0,.553,0,.069-.024.077-.084.077q-1.828,0-3.658,0c-.073,0-.1-.02-.093-.093q.007-.265,0-.531c0-.064.015-.084.08-.084.234,0,.467,0,.7,0,.184,0,.261-.073.265-.259,0-.372,0-.743,0-1.115a.224.224,0,0,0-.066-.148L14.455,2.1a.84.84,0,0,0-.7-.307c-.161.009-.325,0-.489,0-.071,0-.1-.013-.093-.091,0-.172,0-.347,0-.52,0-.077.022-.091.093-.091.61,0,1.223,0,1.833,0" transform="translate(15.959 1.332)" fill="#fefefe"></path><path id="Path_26683" data-name="Path 26683" d="M15.04,19.391a2.634,2.634,0,0,1-.042.672.657.657,0,0,1-.5.575.576.576,0,0,1-.617-.265,1.167,1.167,0,0,1-.159-.553,3.875,3.875,0,0,1,.051-1.13.9.9,0,0,1,.164-.343.567.567,0,0,1,.975.115,1.464,1.464,0,0,1,.128.555c.009.124,0,.25,0,.374" transform="translate(16.6 21.95)"></path><path id="Path_26684" data-name="Path 26684" d="M6.362,16.895c0-.075,0-.153,0-.228,0-.055.009-.084.071-.08a1.311,1.311,0,0,1,.372.027.254.254,0,0,1,.181.29c-.011.175-.082.272-.221.294a2.836,2.836,0,0,1-.363,0c-.049,0-.042-.033-.042-.064v-.239Z" transform="translate(7.704 20.092)"></path><path id="Path_26685" data-name="Path 26685" d="M8.541,17.387a5.8,5.8,0,0,1,.259-.705c.069.23.133.44.2.648.013.04,0,.057-.04.057H8.541" transform="translate(10.346 20.208)" fill="#020101"></path><path id="Path_26686" data-name="Path 26686" d="M5.545,3.669A2.24,2.24,0,0,1,7.533,1.348a2.577,2.577,0,0,1,2.072.529,2.06,2.06,0,0,1,.736,1.314,2.378,2.378,0,0,1-.27,1.661A2.184,2.184,0,0,1,8.656,5.879,2.645,2.645,0,0,1,6.609,5.6,2.143,2.143,0,0,1,5.56,3.9c-.011-.086-.011-.172-.015-.228" transform="translate(6.717 1.591)"></path></g></g></g></svg>