<svg xmlns="http://www.w3.org/2000/svg" xmlns:xlink="http://www.w3.org/1999/xlink" width="141" height="59" viewBox="0 0 141 59"><defs><clipPath id="clip-path"><rect id="Rectangle_1253" data-name="Rectangle 1253" width="115.768" height="23.68" fill="none"></rect></clipPath><clipPath id="clip-yourstory_logo"><rect width="141" height="59"></rect></clipPath></defs><g id="yourstory_logo" clip-path="url(#clip-yourstory_logo)"><g id="Group_4845" data-name="Group 4845" transform="translate(13 18)"><g id="Group_4821" data-name="Group 4821" transform="translate(0 0)" clip-path="url(#clip-path)"><path id="Path_25182" data-name="Path 25182" d="M4.62,23.383V15.72L0,.264H3.823L6.58,10.8h.067L9.405.264H12.9L8.277,15.72v7.663Zm12.6-17.8V18.066c0,1.652.732,2.278,1.894,2.278s1.894-.626,1.894-2.278V5.581c0-1.65-.731-2.278-1.894-2.278s-1.894.628-1.894,2.278M13.56,17.834V5.813C13.56,2.114,15.522,0,19.111,0s5.551,2.114,5.551,5.813V17.834c0,3.7-1.96,5.813-5.551,5.813s-5.551-2.114-5.551-5.813M26.855.264h3.656V18.1c0,1.65.732,2.245,1.894,2.245S34.3,19.75,34.3,18.1V.264h3.458v17.6c0,3.7-1.863,5.813-5.452,5.813s-5.452-2.114-5.452-5.813ZM51.618,23.383H47.9a7.056,7.056,0,0,1-.333-2.841V16.911c0-2.147-.732-2.94-2.393-2.94H43.907v9.412H40.251V.264h5.517c3.789,0,5.418,1.751,5.418,5.317V7.4c0,2.379-.764,3.9-2.393,4.657v.065c1.829.761,2.427,2.478,2.427,4.889v3.566a6.786,6.786,0,0,0,.4,2.807M45.669,3.568H43.907v7.1h1.429c1.362,0,2.193-.594,2.193-2.445V5.945c0-1.652-.564-2.377-1.861-2.377m7.479,2.245c0-3.7,1.827-5.813,5.384-5.813s5.384,2.114,5.384,5.813V6.54H60.46V5.581c0-1.65-.665-2.278-1.829-2.278S56.8,3.93,56.8,5.581c0,1.686.731,2.94,3.124,5.02,3.058,2.676,4.022,4.592,4.022,7.233,0,3.7-1.863,5.813-5.452,5.813s-5.452-2.114-5.452-5.813v-1.42H56.5v1.652c0,1.652.732,2.246,1.9,2.246s1.894-.594,1.894-2.246c0-1.684-.732-2.94-3.126-5.02-3.057-2.675-4.021-4.59-4.021-7.233M64.98,3.568V.264h11.3v3.3H72.459V23.383H68.8V3.568ZM81.234,5.581V18.066c0,1.652.731,2.278,1.894,2.278s1.894-.626,1.894-2.278V5.581c0-1.65-.732-2.278-1.894-2.278s-1.894.628-1.894,2.278M77.578,17.834V5.813c0-3.7,1.96-5.813,5.551-5.813s5.551,2.114,5.551,5.813V17.834c0,3.7-1.962,5.813-5.551,5.813s-5.551-2.114-5.551-5.813m24.828,5.549H98.684a7.056,7.056,0,0,1-.333-2.841V16.911c0-2.147-.732-2.94-2.393-2.94H94.7v9.412H91.039V.264h5.517c3.789,0,5.418,1.751,5.418,5.317V7.4c0,2.379-.764,3.9-2.393,4.657v.065c1.827.761,2.427,2.478,2.427,4.889v3.566a6.757,6.757,0,0,0,.4,2.807M96.457,3.568H94.7v7.1h1.429c1.362,0,2.193-.594,2.193-2.445V5.945c0-1.652-.566-2.377-1.861-2.377m11.034,19.815V15.72L102.871.264h3.823L109.453,10.8h.065L112.278.264h3.49l-4.62,15.457v7.663Z" transform="translate(0 0)" fill="#ef4136" fill-rule="evenodd"></path></g></g></g></svg>