<svg xmlns="http://www.w3.org/2000/svg" xmlns:xlink="http://www.w3.org/1999/xlink" width="113" height="59" viewBox="0 0 113 59"><defs><clipPath id="clip-path"><rect id="Rectangle_1261" data-name="Rectangle 1261" width="91.321" height="42.43" fill="none"></rect></clipPath><clipPath id="clip-zeenews_logo"><rect width="113" height="59"></rect></clipPath></defs><g id="zeenews_logo" clip-path="url(#clip-zeenews_logo)"><g id="Group_4846" data-name="Group 4846" transform="translate(10.999 8)"><g id="Group_4839" data-name="Group 4839" transform="translate(0 0)" clip-path="url(#clip-path)"><path id="Path_26712" data-name="Path 26712" d="M47.278,7.649c-.319,0-.641.056-.958.035s-.467.112-.562.415c-.68,2.157-1.377,4.31-2.074,6.461a2.193,2.193,0,0,1-.375.85c-.079-.2-.143-.351-.195-.506q-1.154-3.425-2.3-6.855c-.083-.247-.174-.384-.469-.353a4.69,4.69,0,0,1-.919,0c-.274-.025-.363.091-.442.336q-.94,2.881-1.916,5.749a9.188,9.188,0,0,1-.653,1.682c-.068-.191-.108-.3-.143-.4q-1.148-3.5-2.288-6.994A.456.456,0,0,0,33.57,7.7a11.5,11.5,0,0,0-1.224-.056c-.351-.019-.4.085-.284.419,1.062,3.045,2.105,6.1,3.155,9.145.4,1.17.4,1.155,1.605,1.178A.461.461,0,0,0,37.351,18c.759-2.25,1.535-4.5,2.308-6.743.039-.11.033-.3.183-.295s.139.189.183.3c.745,1.948,1.392,3.928,2.074,5.895.135.39.135.94.469,1.118a3.383,3.383,0,0,0,1.282.1c.209.017.3-.046.373-.265.807-2.394,1.634-4.781,2.456-7.17.319-.925.649-1.844.956-2.773.139-.419.056-.523-.357-.519" transform="translate(34.378 8.207)" fill="#d5242c"></path><path id="Path_26713" data-name="Path 26713" d="M30.527,7.7a5.527,5.527,0,0,1-1,0c-.313-.027-.415.066-.415.39-.006,1.844-.035,3.688-.052,5.53,0,.417,0,.832,0,1.247l-.108.019c-.085-.1-.174-.207-.259-.313-1.653-2.13-3.314-4.254-4.949-6.4a1.243,1.243,0,0,0-.927-.51c-.278-.027-.562,0-.842-.019-.249-.012-.342.093-.336.34.01.423,0,.844,0,1.267q-.006,4.4-.017,8.8c0,.249.106.265.3.253.409-.027.819-.06,1.228-.05.261.006.315-.087.315-.33-.01-1.524-.017-3.047,0-4.571a17.052,17.052,0,0,1,.062-2.109c.012-.1-.046-.234.064-.278.143-.056.185.1.249.187,1.668,2.151,3.343,4.3,4.988,6.465.365.481.709.848,1.369.645a1.1,1.1,0,0,1,.421-.012c.239.025.3-.066.3-.3-.012-1.064-.006-2.126-.006-3.19,0-2.215-.006-4.43.006-6.645,0-.307-.054-.44-.39-.409" transform="translate(23.221 8.205)" fill="#d5242c"></path><path id="Path_26714" data-name="Path 26714" d="M35.426,17.065c.035-.313-.089-.375-.382-.375-1.819-.006-3.636-.035-5.455-.044-.249,0-.328-.068-.321-.321.017-.7.027-1.408,0-2.111-.015-.351.1-.423.429-.425,1.535-.01,3.072-.052,4.607-.068.239,0,.353-.058.348-.313-.015-1.286.236-1.307-1.257-1.313a.254.254,0,0,1-.039,0c-1.265-.023-2.532.075-3.8.015-.272-.012-.355-.106-.34-.369.031-.639.041-1.28.06-1.919.017-.591-.1-.51.5-.521q2.592-.04,5.185-.05c.259,0,.371-.062.351-.34a5.713,5.713,0,0,1,0-.884c.023-.292-.058-.39-.373-.39q-3.572.022-7.145,0c-.3,0-.355.091-.353.369.012,1.651.006,3.3.006,4.955s.008,3.279-.008,4.918c0,.328.06.431.413.427,2.114-.019,7.276-.021,7.49-.073.054-.284.041-.769.087-1.172" transform="translate(29.469 8.206)" fill="#d5242c"></path><path id="Path_26715" data-name="Path 26715" d="M48.2,15.222a2.641,2.641,0,0,0-1.753-2.433c-.255-.112-.516-.209-.78-.3a22.19,22.19,0,0,1-2.781-.925,1.083,1.083,0,0,1-.643-1.047,1.131,1.131,0,0,1,.641-1.056,2.515,2.515,0,0,1,1.334-.249,4.451,4.451,0,0,1,2.315.809c.309.207.5.145.684-.153.147-.239.311-.467.479-.691s.135-.365-.106-.519a6.256,6.256,0,0,0-3.478-1.1,3.867,3.867,0,0,0-2.96,1.193c-.956,1.018-1.168,3.572.811,4.42a12.707,12.707,0,0,0,1.686.6,8.726,8.726,0,0,1,2.087.709,1.094,1.094,0,0,1,.66.96,1.349,1.349,0,0,1-1.321,1.435,5.079,5.079,0,0,1-3.149-.7c-.309-.162-.558-.635-.9-.479-.313.145-.5.56-.751.852-.209.243-.149.438.091.608a7.081,7.081,0,0,0,4.271,1.4,4.1,4.1,0,0,0,2.016-.558A2.87,2.87,0,0,0,48.2,15.222" transform="translate(43.121 8.124)" fill="#d5242c"></path><path id="Path_26716" data-name="Path 26716" d="M23,10.709c-.782.019-3.974.021-4.789.029-.278,0-.485.075-.456.442a12.45,12.45,0,0,1,.021,1.419c-.01.272.077.338.342.336,1.533-.012,3.068-.017,4.6,0,.311,0,.4-.122.425-.38.052-.506.1-1.014.16-1.52.027-.239-.039-.336-.3-.33" transform="translate(19.071 11.502)" fill="#d5242c"></path><path id="Path_26717" data-name="Path 26717" d="M23.169,8.926c-.021-.222-.137-.257-.332-.257q-2.361.022-4.721.021c-.23,0-.321.073-.326.3-.008.487-.019.973-.052,1.458-.015.243.068.3.3.295.832-.012,4.134-.023,4.953,0,.319.01.361-.118.332-.375-.058-.481-.112-.962-.156-1.446" transform="translate(19.052 9.311)" fill="#d5242c"></path><path id="Path_26718" data-name="Path 26718" d="M41.2,26.536c-2.114,0-4.227-.01-6.338.01-.355,0-.415-.1-.411-.427.015-1.653.006-3.3.006-4.957V16.707c0-.921,0-.919.9-.921,1.946-.008,3.891-.012,5.839-.029.446,0,.467-.044.344-.467-.1-.353-.209-.705-.336-1.052a21.266,21.266,0,0,0-6.32-9.2A21.029,21.029,0,0,0,23.671.16a20.469,20.469,0,0,0-7.824.525,20.634,20.634,0,0,0-11.715,8A20.686,20.686,0,0,0,.5,25.717,20.527,20.527,0,0,0,6.817,36.778a20.979,20.979,0,0,0,12.416,5.546,19.3,19.3,0,0,0,6.952-.529A21.088,21.088,0,0,0,40.893,29.056a12.389,12.389,0,0,0,.691-2.024c.114-.483.1-.5-.38-.5M20.946,16.174a2.66,2.66,0,0,1-.971,2.607c-1.5,1.734-2.974,3.485-4.455,5.233-.093.108-.276.222-.207.367.058.129.255.062.39.064,1.626.01,3.252.021,4.878.017.282,0,.386.066.371.361-.025.46-.021.923,0,1.383.01.251-.064.324-.317.321-1.383-.012-2.767-.006-4.148-.006s-2.742-.008-4.111.006c-.276,0-.3-.091-.34-.342a3.014,3.014,0,0,1,.979-2.615c1.527-1.69,2.968-3.455,4.441-5.194.1-.122.3-.259.236-.4s-.3-.062-.458-.068c-1.549-.073-3.1-.05-4.648-.041-.27,0-.355-.073-.342-.342a13.2,13.2,0,0,0,0-1.344c-.015-.282.06-.371.357-.367,1.524.015,3.047.006,4.571.006,1.153,0,2.3.008,3.458-.006.251,0,.359.068.319.324a.113.113,0,0,0,0,.037m10.3,10.356c-2.342-.017-4.685-.008-7.027-.008-.811,0-.811,0-.811-.811V21.218h.01c0-1.562-.006-3.122,0-4.683,0-.848,0-.687.674-.689,2.367-.006,4.735,0,7.1-.006.3,0,.4.073.384.38-.027.46-.021.923,0,1.383.012.257-.079.315-.324.317-1.688.008-3.379.039-5.067.044-.3,0-.4.077-.384.384.025.458.021.921,0,1.381-.012.265.064.346.338.344,1.639-.008,3.277,0,4.914.008.527,0,.531,0,.55.543.012.409,0,.819.027,1.228.021.284-.058.369-.353.365-1.69-.015-3.379,0-5.069-.017-.348,0-.431.089-.4.427a12.4,12.4,0,0,1,.046,1.5c-.008.28.089.33.346.33,1.69-.006,3.379.012,5.069.006.284,0,.382.068.363.363a10.951,10.951,0,0,0,0,1.3c.021.313-.062.4-.39.4" transform="translate(0 0)" fill="#d5242c"></path></g></g></g></svg>